<?xml version="1.0" encoding="utf-8" standalone="no"?>
<!DOCTYPE svg PUBLIC "-//W3C//DTD SVG 1.1//EN"
  "http://www.w3.org/Graphics/SVG/1.1/DTD/svg11.dtd">
<!-- Created with matplotlib (https://matplotlib.org/) -->
<svg height="345.6pt" version="1.1" viewBox="0 0 460.8 345.6" width="460.8pt" xmlns="http://www.w3.org/2000/svg" xmlns:xlink="http://www.w3.org/1999/xlink">
 <defs>
  <style type="text/css">
*{stroke-linecap:butt;stroke-linejoin:round;}
  </style>
 </defs>
 <g id="figure_1">
  <g id="patch_1">
   <path d="M 0 345.6 
L 460.8 345.6 
L 460.8 0 
L 0 0 
z
" style="fill:#ffffff;"/>
  </g>
  <g id="axes_1">
   <g id="patch_2">
    <path d="M 59.045625 297.9 
L 447.84 297.9 
L 447.84 40.54875 
L 59.045625 40.54875 
z
" style="fill:#eaeaf2;"/>
   </g>
   <g id="matplotlib.axis_1">
    <g id="xtick_1">
     <g id="line2d_1">
      <path clip-path="url(#p9e499eecc6)" d="M 85.133559 297.9 
L 85.133559 40.54875 
" style="fill:none;stroke:#ffffff;stroke-linecap:round;"/>
     </g>
     <g id="text_1">
      <!-- 0 -->
      <defs>
       <path d="M 4.15625 35.296875 
Q 4.15625 48 6.765625 55.734375 
Q 9.375 63.484375 14.515625 67.671875 
Q 19.671875 71.875 27.484375 71.875 
Q 33.25 71.875 37.59375 69.546875 
Q 41.9375 67.234375 44.765625 62.859375 
Q 47.609375 58.5 49.21875 52.21875 
Q 50.828125 45.953125 50.828125 35.296875 
Q 50.828125 22.703125 48.234375 14.96875 
Q 45.65625 7.234375 40.5 3 
Q 35.359375 -1.21875 27.484375 -1.21875 
Q 17.140625 -1.21875 11.234375 6.203125 
Q 4.15625 15.140625 4.15625 35.296875 
z
M 13.1875 35.296875 
Q 13.1875 17.671875 17.3125 11.828125 
Q 21.4375 6 27.484375 6 
Q 33.546875 6 37.671875 11.859375 
Q 41.796875 17.71875 41.796875 35.296875 
Q 41.796875 52.984375 37.671875 58.78125 
Q 33.546875 64.59375 27.390625 64.59375 
Q 21.34375 64.59375 17.71875 59.46875 
Q 13.1875 52.9375 13.1875 35.296875 
z
" id="ArialMT-48"/>
      </defs>
      <g style="fill:#262626;" transform="translate(82.075044 315.273594)scale(0.11 -0.11)">
       <use xlink:href="#ArialMT-48"/>
      </g>
     </g>
    </g>
    <g id="xtick_2">
     <g id="line2d_2">
      <path clip-path="url(#p9e499eecc6)" d="M 169.288186 297.9 
L 169.288186 40.54875 
" style="fill:none;stroke:#ffffff;stroke-linecap:round;"/>
     </g>
     <g id="text_2">
      <!-- 5 -->
      <defs>
       <path d="M 4.15625 18.75 
L 13.375 19.53125 
Q 14.40625 12.796875 18.140625 9.390625 
Q 21.875 6 27.15625 6 
Q 33.5 6 37.890625 10.78125 
Q 42.28125 15.578125 42.28125 23.484375 
Q 42.28125 31 38.0625 35.34375 
Q 33.84375 39.703125 27 39.703125 
Q 22.75 39.703125 19.328125 37.765625 
Q 15.921875 35.84375 13.96875 32.765625 
L 5.71875 33.84375 
L 12.640625 70.609375 
L 48.25 70.609375 
L 48.25 62.203125 
L 19.671875 62.203125 
L 15.828125 42.96875 
Q 22.265625 47.46875 29.34375 47.46875 
Q 38.71875 47.46875 45.15625 40.96875 
Q 51.609375 34.46875 51.609375 24.265625 
Q 51.609375 14.546875 45.953125 7.46875 
Q 39.0625 -1.21875 27.15625 -1.21875 
Q 17.390625 -1.21875 11.203125 4.25 
Q 5.03125 9.71875 4.15625 18.75 
z
" id="ArialMT-53"/>
      </defs>
      <g style="fill:#262626;" transform="translate(166.22967 315.273594)scale(0.11 -0.11)">
       <use xlink:href="#ArialMT-53"/>
      </g>
     </g>
    </g>
    <g id="xtick_3">
     <g id="line2d_3">
      <path clip-path="url(#p9e499eecc6)" d="M 253.442813 297.9 
L 253.442813 40.54875 
" style="fill:none;stroke:#ffffff;stroke-linecap:round;"/>
     </g>
     <g id="text_3">
      <!-- 10 -->
      <defs>
       <path d="M 37.25 0 
L 28.46875 0 
L 28.46875 56 
Q 25.296875 52.984375 20.140625 49.953125 
Q 14.984375 46.921875 10.890625 45.40625 
L 10.890625 53.90625 
Q 18.265625 57.375 23.78125 62.296875 
Q 29.296875 67.234375 31.59375 71.875 
L 37.25 71.875 
z
" id="ArialMT-49"/>
      </defs>
      <g style="fill:#262626;" transform="translate(247.325781 315.273594)scale(0.11 -0.11)">
       <use xlink:href="#ArialMT-49"/>
       <use x="55.615234" xlink:href="#ArialMT-48"/>
      </g>
     </g>
    </g>
    <g id="xtick_4">
     <g id="line2d_4">
      <path clip-path="url(#p9e499eecc6)" d="M 337.597439 297.9 
L 337.597439 40.54875 
" style="fill:none;stroke:#ffffff;stroke-linecap:round;"/>
     </g>
     <g id="text_4">
      <!-- 15 -->
      <g style="fill:#262626;" transform="translate(331.480408 315.273594)scale(0.11 -0.11)">
       <use xlink:href="#ArialMT-49"/>
       <use x="55.615234" xlink:href="#ArialMT-53"/>
      </g>
     </g>
    </g>
    <g id="xtick_5">
     <g id="line2d_5">
      <path clip-path="url(#p9e499eecc6)" d="M 421.752066 297.9 
L 421.752066 40.54875 
" style="fill:none;stroke:#ffffff;stroke-linecap:round;"/>
     </g>
     <g id="text_5">
      <!-- 20 -->
      <defs>
       <path d="M 50.34375 8.453125 
L 50.34375 0 
L 3.03125 0 
Q 2.9375 3.171875 4.046875 6.109375 
Q 5.859375 10.9375 9.828125 15.625 
Q 13.8125 20.3125 21.34375 26.46875 
Q 33.015625 36.03125 37.109375 41.625 
Q 41.21875 47.21875 41.21875 52.203125 
Q 41.21875 57.421875 37.46875 61 
Q 33.734375 64.59375 27.734375 64.59375 
Q 21.390625 64.59375 17.578125 60.78125 
Q 13.765625 56.984375 13.71875 50.25 
L 4.6875 51.171875 
Q 5.609375 61.28125 11.65625 66.578125 
Q 17.71875 71.875 27.9375 71.875 
Q 38.234375 71.875 44.234375 66.15625 
Q 50.25 60.453125 50.25 52 
Q 50.25 47.703125 48.484375 43.546875 
Q 46.734375 39.40625 42.65625 34.8125 
Q 38.578125 30.21875 29.109375 22.21875 
Q 21.1875 15.578125 18.9375 13.203125 
Q 16.703125 10.84375 15.234375 8.453125 
z
" id="ArialMT-50"/>
      </defs>
      <g style="fill:#262626;" transform="translate(415.635034 315.273594)scale(0.11 -0.11)">
       <use xlink:href="#ArialMT-50"/>
       <use x="55.615234" xlink:href="#ArialMT-48"/>
      </g>
     </g>
    </g>
    <g id="text_6">
     <!-- Number of Pigeons They Could Carry [pigeons] -->
     <defs>
      <path d="M 7.625 0 
L 7.625 71.578125 
L 17.328125 71.578125 
L 54.9375 15.375 
L 54.9375 71.578125 
L 64.015625 71.578125 
L 64.015625 0 
L 54.296875 0 
L 16.703125 56.25 
L 16.703125 0 
z
" id="ArialMT-78"/>
      <path d="M 40.578125 0 
L 40.578125 7.625 
Q 34.515625 -1.171875 24.125 -1.171875 
Q 19.53125 -1.171875 15.546875 0.578125 
Q 11.578125 2.34375 9.640625 5 
Q 7.71875 7.671875 6.9375 11.53125 
Q 6.390625 14.109375 6.390625 19.734375 
L 6.390625 51.859375 
L 15.1875 51.859375 
L 15.1875 23.09375 
Q 15.1875 16.21875 15.71875 13.8125 
Q 16.546875 10.359375 19.234375 8.375 
Q 21.921875 6.390625 25.875 6.390625 
Q 29.828125 6.390625 33.296875 8.421875 
Q 36.765625 10.453125 38.203125 13.9375 
Q 39.65625 17.4375 39.65625 24.078125 
L 39.65625 51.859375 
L 48.4375 51.859375 
L 48.4375 0 
z
" id="ArialMT-117"/>
      <path d="M 6.59375 0 
L 6.59375 51.859375 
L 14.453125 51.859375 
L 14.453125 44.578125 
Q 16.890625 48.390625 20.9375 50.703125 
Q 25 53.03125 30.171875 53.03125 
Q 35.9375 53.03125 39.625 50.640625 
Q 43.3125 48.25 44.828125 43.953125 
Q 50.984375 53.03125 60.84375 53.03125 
Q 68.5625 53.03125 72.703125 48.75 
Q 76.859375 44.484375 76.859375 35.59375 
L 76.859375 0 
L 68.109375 0 
L 68.109375 32.671875 
Q 68.109375 37.9375 67.25 40.25 
Q 66.40625 42.578125 64.15625 43.984375 
Q 61.921875 45.40625 58.890625 45.40625 
Q 53.421875 45.40625 49.796875 41.765625 
Q 46.1875 38.140625 46.1875 30.125 
L 46.1875 0 
L 37.40625 0 
L 37.40625 33.6875 
Q 37.40625 39.546875 35.25 42.46875 
Q 33.109375 45.40625 28.21875 45.40625 
Q 24.515625 45.40625 21.359375 43.453125 
Q 18.21875 41.5 16.796875 37.734375 
Q 15.375 33.984375 15.375 26.90625 
L 15.375 0 
z
" id="ArialMT-109"/>
      <path d="M 14.703125 0 
L 6.546875 0 
L 6.546875 71.578125 
L 15.328125 71.578125 
L 15.328125 46.046875 
Q 20.90625 53.03125 29.546875 53.03125 
Q 34.328125 53.03125 38.59375 51.09375 
Q 42.875 49.171875 45.625 45.671875 
Q 48.390625 42.1875 49.953125 37.25 
Q 51.515625 32.328125 51.515625 26.703125 
Q 51.515625 13.375 44.921875 6.09375 
Q 38.328125 -1.171875 29.109375 -1.171875 
Q 19.921875 -1.171875 14.703125 6.5 
z
M 14.59375 26.3125 
Q 14.59375 17 17.140625 12.84375 
Q 21.296875 6.0625 28.375 6.0625 
Q 34.125 6.0625 38.328125 11.0625 
Q 42.53125 16.0625 42.53125 25.984375 
Q 42.53125 36.140625 38.5 40.96875 
Q 34.46875 45.796875 28.765625 45.796875 
Q 23 45.796875 18.796875 40.796875 
Q 14.59375 35.796875 14.59375 26.3125 
z
" id="ArialMT-98"/>
      <path d="M 42.09375 16.703125 
L 51.171875 15.578125 
Q 49.03125 7.625 43.21875 3.21875 
Q 37.40625 -1.171875 28.375 -1.171875 
Q 17 -1.171875 10.328125 5.828125 
Q 3.65625 12.84375 3.65625 25.484375 
Q 3.65625 38.578125 10.390625 45.796875 
Q 17.140625 53.03125 27.875 53.03125 
Q 38.28125 53.03125 44.875 45.953125 
Q 51.46875 38.875 51.46875 26.03125 
Q 51.46875 25.25 51.421875 23.6875 
L 12.75 23.6875 
Q 13.234375 15.140625 17.578125 10.59375 
Q 21.921875 6.0625 28.421875 6.0625 
Q 33.25 6.0625 36.671875 8.59375 
Q 40.09375 11.140625 42.09375 16.703125 
z
M 13.234375 30.90625 
L 42.1875 30.90625 
Q 41.609375 37.453125 38.875 40.71875 
Q 34.671875 45.796875 27.984375 45.796875 
Q 21.921875 45.796875 17.796875 41.75 
Q 13.671875 37.703125 13.234375 30.90625 
z
" id="ArialMT-101"/>
      <path d="M 6.5 0 
L 6.5 51.859375 
L 14.40625 51.859375 
L 14.40625 44 
Q 17.4375 49.515625 20 51.265625 
Q 22.5625 53.03125 25.640625 53.03125 
Q 30.078125 53.03125 34.671875 50.203125 
L 31.640625 42.046875 
Q 28.421875 43.953125 25.203125 43.953125 
Q 22.3125 43.953125 20.015625 42.21875 
Q 17.71875 40.484375 16.75 37.40625 
Q 15.28125 32.71875 15.28125 27.15625 
L 15.28125 0 
z
" id="ArialMT-114"/>
      <path id="ArialMT-32"/>
      <path d="M 3.328125 25.921875 
Q 3.328125 40.328125 11.328125 47.265625 
Q 18.015625 53.03125 27.640625 53.03125 
Q 38.328125 53.03125 45.109375 46.015625 
Q 51.90625 39.015625 51.90625 26.65625 
Q 51.90625 16.65625 48.90625 10.90625 
Q 45.90625 5.171875 40.15625 2 
Q 34.421875 -1.171875 27.640625 -1.171875 
Q 16.75 -1.171875 10.03125 5.8125 
Q 3.328125 12.796875 3.328125 25.921875 
z
M 12.359375 25.921875 
Q 12.359375 15.96875 16.703125 11.015625 
Q 21.046875 6.0625 27.640625 6.0625 
Q 34.1875 6.0625 38.53125 11.03125 
Q 42.875 16.015625 42.875 26.21875 
Q 42.875 35.84375 38.5 40.796875 
Q 34.125 45.75 27.640625 45.75 
Q 21.046875 45.75 16.703125 40.8125 
Q 12.359375 35.890625 12.359375 25.921875 
z
" id="ArialMT-111"/>
      <path d="M 8.6875 0 
L 8.6875 45.015625 
L 0.921875 45.015625 
L 0.921875 51.859375 
L 8.6875 51.859375 
L 8.6875 57.375 
Q 8.6875 62.59375 9.625 65.140625 
Q 10.890625 68.5625 14.078125 70.671875 
Q 17.28125 72.796875 23.046875 72.796875 
Q 26.765625 72.796875 31.25 71.921875 
L 29.9375 64.265625 
Q 27.203125 64.75 24.75 64.75 
Q 20.75 64.75 19.09375 63.03125 
Q 17.4375 61.328125 17.4375 56.640625 
L 17.4375 51.859375 
L 27.546875 51.859375 
L 27.546875 45.015625 
L 17.4375 45.015625 
L 17.4375 0 
z
" id="ArialMT-102"/>
      <path d="M 7.71875 0 
L 7.71875 71.578125 
L 34.71875 71.578125 
Q 41.84375 71.578125 45.609375 70.90625 
Q 50.875 70.015625 54.4375 67.546875 
Q 58.015625 65.09375 60.1875 60.640625 
Q 62.359375 56.203125 62.359375 50.875 
Q 62.359375 41.75 56.546875 35.421875 
Q 50.734375 29.109375 35.546875 29.109375 
L 17.1875 29.109375 
L 17.1875 0 
z
M 17.1875 37.546875 
L 35.6875 37.546875 
Q 44.875 37.546875 48.734375 40.96875 
Q 52.59375 44.390625 52.59375 50.59375 
Q 52.59375 55.078125 50.3125 58.265625 
Q 48.046875 61.46875 44.34375 62.5 
Q 41.9375 63.140625 35.5 63.140625 
L 17.1875 63.140625 
z
" id="ArialMT-80"/>
      <path d="M 6.640625 61.46875 
L 6.640625 71.578125 
L 15.4375 71.578125 
L 15.4375 61.46875 
z
M 6.640625 0 
L 6.640625 51.859375 
L 15.4375 51.859375 
L 15.4375 0 
z
" id="ArialMT-105"/>
      <path d="M 4.984375 -4.296875 
L 13.53125 -5.5625 
Q 14.0625 -9.515625 16.5 -11.328125 
Q 19.78125 -13.765625 25.4375 -13.765625 
Q 31.546875 -13.765625 34.859375 -11.328125 
Q 38.1875 -8.890625 39.359375 -4.5 
Q 40.046875 -1.8125 39.984375 6.78125 
Q 34.234375 0 25.640625 0 
Q 14.9375 0 9.078125 7.71875 
Q 3.21875 15.4375 3.21875 26.21875 
Q 3.21875 33.640625 5.90625 39.90625 
Q 8.59375 46.1875 13.6875 49.609375 
Q 18.796875 53.03125 25.6875 53.03125 
Q 34.859375 53.03125 40.828125 45.609375 
L 40.828125 51.859375 
L 48.921875 51.859375 
L 48.921875 7.03125 
Q 48.921875 -5.078125 46.453125 -10.125 
Q 44 -15.1875 38.640625 -18.109375 
Q 33.296875 -21.046875 25.484375 -21.046875 
Q 16.21875 -21.046875 10.5 -16.875 
Q 4.78125 -12.703125 4.984375 -4.296875 
z
M 12.25 26.859375 
Q 12.25 16.65625 16.296875 11.96875 
Q 20.359375 7.28125 26.46875 7.28125 
Q 32.515625 7.28125 36.609375 11.9375 
Q 40.71875 16.609375 40.71875 26.5625 
Q 40.71875 36.078125 36.5 40.90625 
Q 32.28125 45.75 26.3125 45.75 
Q 20.453125 45.75 16.34375 40.984375 
Q 12.25 36.234375 12.25 26.859375 
z
" id="ArialMT-103"/>
      <path d="M 6.59375 0 
L 6.59375 51.859375 
L 14.5 51.859375 
L 14.5 44.484375 
Q 20.21875 53.03125 31 53.03125 
Q 35.6875 53.03125 39.625 51.34375 
Q 43.5625 49.65625 45.515625 46.921875 
Q 47.46875 44.1875 48.25 40.4375 
Q 48.734375 37.984375 48.734375 31.890625 
L 48.734375 0 
L 39.9375 0 
L 39.9375 31.546875 
Q 39.9375 36.921875 38.90625 39.578125 
Q 37.890625 42.234375 35.28125 43.8125 
Q 32.671875 45.40625 29.15625 45.40625 
Q 23.53125 45.40625 19.453125 41.84375 
Q 15.375 38.28125 15.375 28.328125 
L 15.375 0 
z
" id="ArialMT-110"/>
      <path d="M 3.078125 15.484375 
L 11.765625 16.84375 
Q 12.5 11.625 15.84375 8.84375 
Q 19.1875 6.0625 25.203125 6.0625 
Q 31.25 6.0625 34.171875 8.515625 
Q 37.109375 10.984375 37.109375 14.3125 
Q 37.109375 17.28125 34.515625 19 
Q 32.71875 20.171875 25.53125 21.96875 
Q 15.875 24.421875 12.140625 26.203125 
Q 8.40625 27.984375 6.46875 31.125 
Q 4.546875 34.28125 4.546875 38.09375 
Q 4.546875 41.546875 6.125 44.5 
Q 7.71875 47.46875 10.453125 49.421875 
Q 12.5 50.921875 16.03125 51.96875 
Q 19.578125 53.03125 23.640625 53.03125 
Q 29.734375 53.03125 34.34375 51.265625 
Q 38.96875 49.515625 41.15625 46.5 
Q 43.359375 43.5 44.1875 38.484375 
L 35.59375 37.3125 
Q 35.015625 41.3125 32.203125 43.546875 
Q 29.390625 45.796875 24.265625 45.796875 
Q 18.21875 45.796875 15.625 43.796875 
Q 13.03125 41.796875 13.03125 39.109375 
Q 13.03125 37.40625 14.109375 36.03125 
Q 15.1875 34.625 17.484375 33.6875 
Q 18.796875 33.203125 25.25 31.453125 
Q 34.578125 28.953125 38.25 27.359375 
Q 41.9375 25.78125 44.03125 22.75 
Q 46.140625 19.734375 46.140625 15.234375 
Q 46.140625 10.84375 43.578125 6.953125 
Q 41.015625 3.078125 36.171875 0.953125 
Q 31.34375 -1.171875 25.25 -1.171875 
Q 15.140625 -1.171875 9.84375 3.03125 
Q 4.546875 7.234375 3.078125 15.484375 
z
" id="ArialMT-115"/>
      <path d="M 25.921875 0 
L 25.921875 63.140625 
L 2.34375 63.140625 
L 2.34375 71.578125 
L 59.078125 71.578125 
L 59.078125 63.140625 
L 35.40625 63.140625 
L 35.40625 0 
z
" id="ArialMT-84"/>
      <path d="M 6.59375 0 
L 6.59375 71.578125 
L 15.375 71.578125 
L 15.375 45.90625 
Q 21.53125 53.03125 30.90625 53.03125 
Q 36.671875 53.03125 40.921875 50.75 
Q 45.171875 48.484375 47 44.484375 
Q 48.828125 40.484375 48.828125 32.859375 
L 48.828125 0 
L 40.046875 0 
L 40.046875 32.859375 
Q 40.046875 39.453125 37.1875 42.453125 
Q 34.328125 45.453125 29.109375 45.453125 
Q 25.203125 45.453125 21.75 43.421875 
Q 18.3125 41.40625 16.84375 37.9375 
Q 15.375 34.46875 15.375 28.375 
L 15.375 0 
z
" id="ArialMT-104"/>
      <path d="M 6.203125 -19.96875 
L 5.21875 -11.71875 
Q 8.109375 -12.5 10.25 -12.5 
Q 13.1875 -12.5 14.9375 -11.515625 
Q 16.703125 -10.546875 17.828125 -8.796875 
Q 18.65625 -7.46875 20.515625 -2.25 
Q 20.75 -1.515625 21.296875 -0.09375 
L 1.609375 51.859375 
L 11.078125 51.859375 
L 21.875 21.828125 
Q 23.96875 16.109375 25.640625 9.8125 
Q 27.15625 15.875 29.25 21.625 
L 40.328125 51.859375 
L 49.125 51.859375 
L 29.390625 -0.875 
Q 26.21875 -9.421875 24.46875 -12.640625 
Q 22.125 -17 19.09375 -19.015625 
Q 16.0625 -21.046875 11.859375 -21.046875 
Q 9.328125 -21.046875 6.203125 -19.96875 
z
" id="ArialMT-121"/>
      <path d="M 58.796875 25.09375 
L 68.265625 22.703125 
Q 65.28125 11.03125 57.546875 4.90625 
Q 49.8125 -1.21875 38.625 -1.21875 
Q 27.046875 -1.21875 19.796875 3.484375 
Q 12.546875 8.203125 8.765625 17.140625 
Q 4.984375 26.078125 4.984375 36.328125 
Q 4.984375 47.515625 9.25 55.828125 
Q 13.53125 64.15625 21.40625 68.46875 
Q 29.296875 72.796875 38.765625 72.796875 
Q 49.515625 72.796875 56.828125 67.328125 
Q 64.15625 61.859375 67.046875 51.953125 
L 57.71875 49.75 
Q 55.21875 57.5625 50.484375 61.125 
Q 45.75 64.703125 38.578125 64.703125 
Q 30.328125 64.703125 24.78125 60.734375 
Q 19.234375 56.78125 16.984375 50.109375 
Q 14.75 43.453125 14.75 36.375 
Q 14.75 27.25 17.40625 20.4375 
Q 20.0625 13.625 25.671875 10.25 
Q 31.296875 6.890625 37.84375 6.890625 
Q 45.796875 6.890625 51.3125 11.46875 
Q 56.84375 16.0625 58.796875 25.09375 
z
" id="ArialMT-67"/>
      <path d="M 6.390625 0 
L 6.390625 71.578125 
L 15.1875 71.578125 
L 15.1875 0 
z
" id="ArialMT-108"/>
      <path d="M 40.234375 0 
L 40.234375 6.546875 
Q 35.296875 -1.171875 25.734375 -1.171875 
Q 19.53125 -1.171875 14.328125 2.25 
Q 9.125 5.671875 6.265625 11.796875 
Q 3.421875 17.921875 3.421875 25.875 
Q 3.421875 33.640625 6 39.96875 
Q 8.59375 46.296875 13.765625 49.65625 
Q 18.953125 53.03125 25.34375 53.03125 
Q 30.03125 53.03125 33.6875 51.046875 
Q 37.359375 49.078125 39.65625 45.90625 
L 39.65625 71.578125 
L 48.390625 71.578125 
L 48.390625 0 
z
M 12.453125 25.875 
Q 12.453125 15.921875 16.640625 10.984375 
Q 20.84375 6.0625 26.5625 6.0625 
Q 32.328125 6.0625 36.34375 10.765625 
Q 40.375 15.484375 40.375 25.140625 
Q 40.375 35.796875 36.265625 40.765625 
Q 32.171875 45.75 26.171875 45.75 
Q 20.3125 45.75 16.375 40.96875 
Q 12.453125 36.1875 12.453125 25.875 
z
" id="ArialMT-100"/>
      <path d="M 40.4375 6.390625 
Q 35.546875 2.25 31.03125 0.53125 
Q 26.515625 -1.171875 21.34375 -1.171875 
Q 12.796875 -1.171875 8.203125 3 
Q 3.609375 7.171875 3.609375 13.671875 
Q 3.609375 17.484375 5.34375 20.625 
Q 7.078125 23.78125 9.890625 25.6875 
Q 12.703125 27.59375 16.21875 28.5625 
Q 18.796875 29.25 24.03125 29.890625 
Q 34.671875 31.15625 39.703125 32.90625 
Q 39.75 34.71875 39.75 35.203125 
Q 39.75 40.578125 37.25 42.78125 
Q 33.890625 45.75 27.25 45.75 
Q 21.046875 45.75 18.09375 43.578125 
Q 15.140625 41.40625 13.71875 35.890625 
L 5.125 37.0625 
Q 6.296875 42.578125 8.984375 45.96875 
Q 11.671875 49.359375 16.75 51.1875 
Q 21.828125 53.03125 28.515625 53.03125 
Q 35.15625 53.03125 39.296875 51.46875 
Q 43.453125 49.90625 45.40625 47.53125 
Q 47.359375 45.171875 48.140625 41.546875 
Q 48.578125 39.3125 48.578125 33.453125 
L 48.578125 21.734375 
Q 48.578125 9.46875 49.140625 6.21875 
Q 49.703125 2.984375 51.375 0 
L 42.1875 0 
Q 40.828125 2.734375 40.4375 6.390625 
z
M 39.703125 26.03125 
Q 34.90625 24.078125 25.34375 22.703125 
Q 19.921875 21.921875 17.671875 20.9375 
Q 15.4375 19.96875 14.203125 18.09375 
Q 12.984375 16.21875 12.984375 13.921875 
Q 12.984375 10.40625 15.640625 8.0625 
Q 18.3125 5.71875 23.4375 5.71875 
Q 28.515625 5.71875 32.46875 7.9375 
Q 36.421875 10.15625 38.28125 14.015625 
Q 39.703125 17 39.703125 22.796875 
z
" id="ArialMT-97"/>
      <path d="M 6.78125 -19.875 
L 6.78125 71.578125 
L 26.171875 71.578125 
L 26.171875 64.3125 
L 15.578125 64.3125 
L 15.578125 -12.59375 
L 26.171875 -12.59375 
L 26.171875 -19.875 
z
" id="ArialMT-91"/>
      <path d="M 6.59375 -19.875 
L 6.59375 51.859375 
L 14.59375 51.859375 
L 14.59375 45.125 
Q 17.4375 49.078125 21 51.046875 
Q 24.5625 53.03125 29.640625 53.03125 
Q 36.28125 53.03125 41.359375 49.609375 
Q 46.4375 46.1875 49.015625 39.953125 
Q 51.609375 33.734375 51.609375 26.3125 
Q 51.609375 18.359375 48.75 11.984375 
Q 45.90625 5.609375 40.453125 2.21875 
Q 35.015625 -1.171875 29 -1.171875 
Q 24.609375 -1.171875 21.109375 0.6875 
Q 17.625 2.546875 15.375 5.375 
L 15.375 -19.875 
z
M 14.546875 25.640625 
Q 14.546875 15.625 18.59375 10.84375 
Q 22.65625 6.0625 28.421875 6.0625 
Q 34.28125 6.0625 38.453125 11.015625 
Q 42.625 15.96875 42.625 26.375 
Q 42.625 36.28125 38.546875 41.203125 
Q 34.46875 46.140625 28.8125 46.140625 
Q 23.1875 46.140625 18.859375 40.890625 
Q 14.546875 35.640625 14.546875 25.640625 
z
" id="ArialMT-112"/>
      <path d="M 21.296875 -19.875 
L 1.90625 -19.875 
L 1.90625 -12.59375 
L 12.5 -12.59375 
L 12.5 64.3125 
L 1.90625 64.3125 
L 1.90625 71.578125 
L 21.296875 71.578125 
z
" id="ArialMT-93"/>
     </defs>
     <g style="fill:#262626;" transform="translate(127.390313 330.195469)scale(0.12 -0.12)">
      <use xlink:href="#ArialMT-78"/>
      <use x="72.216797" xlink:href="#ArialMT-117"/>
      <use x="127.832031" xlink:href="#ArialMT-109"/>
      <use x="211.132812" xlink:href="#ArialMT-98"/>
      <use x="266.748047" xlink:href="#ArialMT-101"/>
      <use x="322.363281" xlink:href="#ArialMT-114"/>
      <use x="355.664062" xlink:href="#ArialMT-32"/>
      <use x="383.447266" xlink:href="#ArialMT-111"/>
      <use x="439.0625" xlink:href="#ArialMT-102"/>
      <use x="466.845703" xlink:href="#ArialMT-32"/>
      <use x="494.628906" xlink:href="#ArialMT-80"/>
      <use x="561.328125" xlink:href="#ArialMT-105"/>
      <use x="583.544922" xlink:href="#ArialMT-103"/>
      <use x="639.160156" xlink:href="#ArialMT-101"/>
      <use x="694.775391" xlink:href="#ArialMT-111"/>
      <use x="750.390625" xlink:href="#ArialMT-110"/>
      <use x="806.005859" xlink:href="#ArialMT-115"/>
      <use x="856.005859" xlink:href="#ArialMT-32"/>
      <use x="883.773438" xlink:href="#ArialMT-84"/>
      <use x="944.857422" xlink:href="#ArialMT-104"/>
      <use x="1000.472656" xlink:href="#ArialMT-101"/>
      <use x="1056.087891" xlink:href="#ArialMT-121"/>
      <use x="1106.087891" xlink:href="#ArialMT-32"/>
      <use x="1133.871094" xlink:href="#ArialMT-67"/>
      <use x="1206.087891" xlink:href="#ArialMT-111"/>
      <use x="1261.703125" xlink:href="#ArialMT-117"/>
      <use x="1317.318359" xlink:href="#ArialMT-108"/>
      <use x="1339.535156" xlink:href="#ArialMT-100"/>
      <use x="1395.150391" xlink:href="#ArialMT-32"/>
      <use x="1422.933594" xlink:href="#ArialMT-67"/>
      <use x="1495.150391" xlink:href="#ArialMT-97"/>
      <use x="1550.765625" xlink:href="#ArialMT-114"/>
      <use x="1584.066406" xlink:href="#ArialMT-114"/>
      <use x="1617.367188" xlink:href="#ArialMT-121"/>
      <use x="1667.367188" xlink:href="#ArialMT-32"/>
      <use x="1695.150391" xlink:href="#ArialMT-91"/>
      <use x="1722.933594" xlink:href="#ArialMT-112"/>
      <use x="1778.548828" xlink:href="#ArialMT-105"/>
      <use x="1800.765625" xlink:href="#ArialMT-103"/>
      <use x="1856.380859" xlink:href="#ArialMT-101"/>
      <use x="1911.996094" xlink:href="#ArialMT-111"/>
      <use x="1967.611328" xlink:href="#ArialMT-110"/>
      <use x="2023.226562" xlink:href="#ArialMT-115"/>
      <use x="2073.226562" xlink:href="#ArialMT-93"/>
     </g>
    </g>
   </g>
   <g id="matplotlib.axis_2">
    <g id="ytick_1">
     <g id="line2d_6">
      <path clip-path="url(#p9e499eecc6)" d="M 59.045625 297.9 
L 447.84 297.9 
" style="fill:none;stroke:#ffffff;stroke-linecap:round;"/>
     </g>
     <g id="text_7">
      <!-- 0.00 -->
      <defs>
       <path d="M 9.078125 0 
L 9.078125 10.015625 
L 19.09375 10.015625 
L 19.09375 0 
z
" id="ArialMT-46"/>
      </defs>
      <g style="fill:#262626;" transform="translate(28.138594 301.836797)scale(0.11 -0.11)">
       <use xlink:href="#ArialMT-48"/>
       <use x="55.615234" xlink:href="#ArialMT-46"/>
       <use x="83.398438" xlink:href="#ArialMT-48"/>
       <use x="139.013672" xlink:href="#ArialMT-48"/>
      </g>
     </g>
    </g>
    <g id="ytick_2">
     <g id="line2d_7">
      <path clip-path="url(#p9e499eecc6)" d="M 59.045625 248.880714 
L 447.84 248.880714 
" style="fill:none;stroke:#ffffff;stroke-linecap:round;"/>
     </g>
     <g id="text_8">
      <!-- 0.05 -->
      <g style="fill:#262626;" transform="translate(28.138594 252.817511)scale(0.11 -0.11)">
       <use xlink:href="#ArialMT-48"/>
       <use x="55.615234" xlink:href="#ArialMT-46"/>
       <use x="83.398438" xlink:href="#ArialMT-48"/>
       <use x="139.013672" xlink:href="#ArialMT-53"/>
      </g>
     </g>
    </g>
    <g id="ytick_3">
     <g id="line2d_8">
      <path clip-path="url(#p9e499eecc6)" d="M 59.045625 199.861429 
L 447.84 199.861429 
" style="fill:none;stroke:#ffffff;stroke-linecap:round;"/>
     </g>
     <g id="text_9">
      <!-- 0.10 -->
      <g style="fill:#262626;" transform="translate(28.138594 203.798225)scale(0.11 -0.11)">
       <use xlink:href="#ArialMT-48"/>
       <use x="55.615234" xlink:href="#ArialMT-46"/>
       <use x="83.398438" xlink:href="#ArialMT-49"/>
       <use x="139.013672" xlink:href="#ArialMT-48"/>
      </g>
     </g>
    </g>
    <g id="ytick_4">
     <g id="line2d_9">
      <path clip-path="url(#p9e499eecc6)" d="M 59.045625 150.842143 
L 447.84 150.842143 
" style="fill:none;stroke:#ffffff;stroke-linecap:round;"/>
     </g>
     <g id="text_10">
      <!-- 0.15 -->
      <g style="fill:#262626;" transform="translate(28.138594 154.77894)scale(0.11 -0.11)">
       <use xlink:href="#ArialMT-48"/>
       <use x="55.615234" xlink:href="#ArialMT-46"/>
       <use x="83.398438" xlink:href="#ArialMT-49"/>
       <use x="139.013672" xlink:href="#ArialMT-53"/>
      </g>
     </g>
    </g>
    <g id="ytick_5">
     <g id="line2d_10">
      <path clip-path="url(#p9e499eecc6)" d="M 59.045625 101.822857 
L 447.84 101.822857 
" style="fill:none;stroke:#ffffff;stroke-linecap:round;"/>
     </g>
     <g id="text_11">
      <!-- 0.20 -->
      <g style="fill:#262626;" transform="translate(28.138594 105.759654)scale(0.11 -0.11)">
       <use xlink:href="#ArialMT-48"/>
       <use x="55.615234" xlink:href="#ArialMT-46"/>
       <use x="83.398438" xlink:href="#ArialMT-50"/>
       <use x="139.013672" xlink:href="#ArialMT-48"/>
      </g>
     </g>
    </g>
    <g id="ytick_6">
     <g id="line2d_11">
      <path clip-path="url(#p9e499eecc6)" d="M 59.045625 52.803571 
L 447.84 52.803571 
" style="fill:none;stroke:#ffffff;stroke-linecap:round;"/>
     </g>
     <g id="text_12">
      <!-- 0.25 -->
      <g style="fill:#262626;" transform="translate(28.138594 56.740368)scale(0.11 -0.11)">
       <use xlink:href="#ArialMT-48"/>
       <use x="55.615234" xlink:href="#ArialMT-46"/>
       <use x="83.398438" xlink:href="#ArialMT-50"/>
       <use x="139.013672" xlink:href="#ArialMT-53"/>
      </g>
     </g>
    </g>
    <g id="text_13">
     <!-- Probability Distribution Function [-] -->
     <defs>
      <path d="M 25.78125 7.859375 
L 27.046875 0.09375 
Q 23.34375 -0.6875 20.40625 -0.6875 
Q 15.625 -0.6875 12.984375 0.828125 
Q 10.359375 2.34375 9.28125 4.8125 
Q 8.203125 7.28125 8.203125 15.1875 
L 8.203125 45.015625 
L 1.765625 45.015625 
L 1.765625 51.859375 
L 8.203125 51.859375 
L 8.203125 64.703125 
L 16.9375 69.96875 
L 16.9375 51.859375 
L 25.78125 51.859375 
L 25.78125 45.015625 
L 16.9375 45.015625 
L 16.9375 14.703125 
Q 16.9375 10.9375 17.40625 9.859375 
Q 17.875 8.796875 18.921875 8.15625 
Q 19.96875 7.515625 21.921875 7.515625 
Q 23.390625 7.515625 25.78125 7.859375 
z
" id="ArialMT-116"/>
      <path d="M 7.71875 0 
L 7.71875 71.578125 
L 32.375 71.578125 
Q 40.71875 71.578125 45.125 70.5625 
Q 51.265625 69.140625 55.609375 65.4375 
Q 61.28125 60.640625 64.078125 53.1875 
Q 66.890625 45.75 66.890625 36.1875 
Q 66.890625 28.03125 64.984375 21.734375 
Q 63.09375 15.4375 60.109375 11.296875 
Q 57.125 7.171875 53.578125 4.796875 
Q 50.046875 2.4375 45.046875 1.21875 
Q 40.046875 0 33.546875 0 
z
M 17.1875 8.453125 
L 32.46875 8.453125 
Q 39.546875 8.453125 43.578125 9.765625 
Q 47.609375 11.078125 50 13.484375 
Q 53.375 16.84375 55.25 22.53125 
Q 57.125 28.21875 57.125 36.328125 
Q 57.125 47.5625 53.4375 53.59375 
Q 49.75 59.625 44.484375 61.671875 
Q 40.671875 63.140625 32.234375 63.140625 
L 17.1875 63.140625 
z
" id="ArialMT-68"/>
      <path d="M 8.203125 0 
L 8.203125 71.578125 
L 56.5 71.578125 
L 56.5 63.140625 
L 17.671875 63.140625 
L 17.671875 40.96875 
L 51.265625 40.96875 
L 51.265625 32.515625 
L 17.671875 32.515625 
L 17.671875 0 
z
" id="ArialMT-70"/>
      <path d="M 40.4375 19 
L 49.078125 17.875 
Q 47.65625 8.9375 41.8125 3.875 
Q 35.984375 -1.171875 27.484375 -1.171875 
Q 16.84375 -1.171875 10.375 5.78125 
Q 3.90625 12.75 3.90625 25.734375 
Q 3.90625 34.125 6.6875 40.421875 
Q 9.46875 46.734375 15.15625 49.875 
Q 20.84375 53.03125 27.546875 53.03125 
Q 35.984375 53.03125 41.359375 48.75 
Q 46.734375 44.484375 48.25 36.625 
L 39.703125 35.296875 
Q 38.484375 40.53125 35.375 43.15625 
Q 32.28125 45.796875 27.875 45.796875 
Q 21.234375 45.796875 17.078125 41.03125 
Q 12.9375 36.28125 12.9375 25.984375 
Q 12.9375 15.53125 16.9375 10.796875 
Q 20.953125 6.0625 27.390625 6.0625 
Q 32.5625 6.0625 36.03125 9.234375 
Q 39.5 12.40625 40.4375 19 
z
" id="ArialMT-99"/>
      <path d="M 3.171875 21.484375 
L 3.171875 30.328125 
L 30.171875 30.328125 
L 30.171875 21.484375 
z
" id="ArialMT-45"/>
     </defs>
     <g style="fill:#262626;" transform="translate(21.612969 260.590312)rotate(-90)scale(0.12 -0.12)">
      <use xlink:href="#ArialMT-80"/>
      <use x="66.699219" xlink:href="#ArialMT-114"/>
      <use x="100" xlink:href="#ArialMT-111"/>
      <use x="155.615234" xlink:href="#ArialMT-98"/>
      <use x="211.230469" xlink:href="#ArialMT-97"/>
      <use x="266.845703" xlink:href="#ArialMT-98"/>
      <use x="322.460938" xlink:href="#ArialMT-105"/>
      <use x="344.677734" xlink:href="#ArialMT-108"/>
      <use x="366.894531" xlink:href="#ArialMT-105"/>
      <use x="389.111328" xlink:href="#ArialMT-116"/>
      <use x="416.894531" xlink:href="#ArialMT-121"/>
      <use x="466.894531" xlink:href="#ArialMT-32"/>
      <use x="494.677734" xlink:href="#ArialMT-68"/>
      <use x="566.894531" xlink:href="#ArialMT-105"/>
      <use x="589.111328" xlink:href="#ArialMT-115"/>
      <use x="639.111328" xlink:href="#ArialMT-116"/>
      <use x="666.894531" xlink:href="#ArialMT-114"/>
      <use x="700.195312" xlink:href="#ArialMT-105"/>
      <use x="722.412109" xlink:href="#ArialMT-98"/>
      <use x="778.027344" xlink:href="#ArialMT-117"/>
      <use x="833.642578" xlink:href="#ArialMT-116"/>
      <use x="861.425781" xlink:href="#ArialMT-105"/>
      <use x="883.642578" xlink:href="#ArialMT-111"/>
      <use x="939.257812" xlink:href="#ArialMT-110"/>
      <use x="994.873047" xlink:href="#ArialMT-32"/>
      <use x="1022.65625" xlink:href="#ArialMT-70"/>
      <use x="1083.740234" xlink:href="#ArialMT-117"/>
      <use x="1139.355469" xlink:href="#ArialMT-110"/>
      <use x="1194.970703" xlink:href="#ArialMT-99"/>
      <use x="1244.970703" xlink:href="#ArialMT-116"/>
      <use x="1272.753906" xlink:href="#ArialMT-105"/>
      <use x="1294.970703" xlink:href="#ArialMT-111"/>
      <use x="1350.585938" xlink:href="#ArialMT-110"/>
      <use x="1406.201172" xlink:href="#ArialMT-32"/>
      <use x="1433.984375" xlink:href="#ArialMT-91"/>
      <use x="1461.767578" xlink:href="#ArialMT-45"/>
      <use x="1495.068359" xlink:href="#ArialMT-93"/>
     </g>
    </g>
   </g>
   <g id="patch_3">
    <path d="M 59.045625 297.9 
L 59.045625 40.54875 
" style="fill:none;stroke:#ffffff;stroke-linecap:square;stroke-linejoin:miter;stroke-width:1.25;"/>
   </g>
   <g id="patch_4">
    <path d="M 447.84 297.9 
L 447.84 40.54875 
" style="fill:none;stroke:#ffffff;stroke-linecap:square;stroke-linejoin:miter;stroke-width:1.25;"/>
   </g>
   <g id="patch_5">
    <path d="M 59.045625 297.9 
L 447.84 297.9 
" style="fill:none;stroke:#ffffff;stroke-linecap:square;stroke-linejoin:miter;stroke-width:1.25;"/>
   </g>
   <g id="patch_6">
    <path d="M 59.045625 40.54875 
L 447.84 40.54875 
" style="fill:none;stroke:#ffffff;stroke-linecap:square;stroke-linejoin:miter;stroke-width:1.25;"/>
   </g>
   <g id="text_14">
    <!-- Note: All responses rounded -->
    <defs>
     <path d="M 9.03125 41.84375 
L 9.03125 51.859375 
L 19.046875 51.859375 
L 19.046875 41.84375 
z
M 9.03125 0 
L 9.03125 10.015625 
L 19.046875 10.015625 
L 19.046875 0 
z
" id="ArialMT-58"/>
     <path d="M -0.140625 0 
L 27.34375 71.578125 
L 37.546875 71.578125 
L 66.84375 0 
L 56.0625 0 
L 47.703125 21.6875 
L 17.78125 21.6875 
L 9.90625 0 
z
M 20.515625 29.390625 
L 44.78125 29.390625 
L 37.3125 49.21875 
Q 33.890625 58.25 32.234375 64.0625 
Q 30.859375 57.171875 28.375 50.390625 
z
" id="ArialMT-65"/>
    </defs>
    <g style="fill:#262626;" transform="translate(234.003094 57.8805)scale(0.1 -0.1)">
     <use xlink:href="#ArialMT-78"/>
     <use x="72.216797" xlink:href="#ArialMT-111"/>
     <use x="127.832031" xlink:href="#ArialMT-116"/>
     <use x="155.615234" xlink:href="#ArialMT-101"/>
     <use x="211.230469" xlink:href="#ArialMT-58"/>
     <use x="239.013672" xlink:href="#ArialMT-32"/>
     <use x="266.71875" xlink:href="#ArialMT-65"/>
     <use x="333.417969" xlink:href="#ArialMT-108"/>
     <use x="355.634766" xlink:href="#ArialMT-108"/>
     <use x="377.851562" xlink:href="#ArialMT-32"/>
     <use x="405.634766" xlink:href="#ArialMT-114"/>
     <use x="438.935547" xlink:href="#ArialMT-101"/>
     <use x="494.550781" xlink:href="#ArialMT-115"/>
     <use x="544.550781" xlink:href="#ArialMT-112"/>
     <use x="600.166016" xlink:href="#ArialMT-111"/>
     <use x="655.78125" xlink:href="#ArialMT-110"/>
     <use x="711.396484" xlink:href="#ArialMT-115"/>
     <use x="761.396484" xlink:href="#ArialMT-101"/>
     <use x="817.011719" xlink:href="#ArialMT-115"/>
     <use x="867.011719" xlink:href="#ArialMT-32"/>
     <use x="894.794922" xlink:href="#ArialMT-114"/>
     <use x="928.095703" xlink:href="#ArialMT-111"/>
     <use x="983.710938" xlink:href="#ArialMT-117"/>
     <use x="1039.326172" xlink:href="#ArialMT-110"/>
     <use x="1094.941406" xlink:href="#ArialMT-100"/>
     <use x="1150.556641" xlink:href="#ArialMT-101"/>
     <use x="1206.171875" xlink:href="#ArialMT-100"/>
    </g>
    <!-- to the nearest whole pigeon. -->
    <defs>
     <path d="M 16.15625 0 
L 0.296875 51.859375 
L 9.375 51.859375 
L 17.625 21.921875 
L 20.703125 10.796875 
Q 20.90625 11.625 23.390625 21.484375 
L 31.640625 51.859375 
L 40.671875 51.859375 
L 48.4375 21.78125 
L 51.03125 11.859375 
L 54 21.875 
L 62.890625 51.859375 
L 71.4375 51.859375 
L 55.21875 0 
L 46.09375 0 
L 37.84375 31.0625 
L 35.84375 39.890625 
L 25.34375 0 
z
" id="ArialMT-119"/>
    </defs>
    <g style="fill:#262626;" transform="translate(234.003094 68.457375)scale(0.1 -0.1)">
     <use xlink:href="#ArialMT-116"/>
     <use x="27.783203" xlink:href="#ArialMT-111"/>
     <use x="83.398438" xlink:href="#ArialMT-32"/>
     <use x="111.181641" xlink:href="#ArialMT-116"/>
     <use x="138.964844" xlink:href="#ArialMT-104"/>
     <use x="194.580078" xlink:href="#ArialMT-101"/>
     <use x="250.195312" xlink:href="#ArialMT-32"/>
     <use x="277.978516" xlink:href="#ArialMT-110"/>
     <use x="333.59375" xlink:href="#ArialMT-101"/>
     <use x="389.208984" xlink:href="#ArialMT-97"/>
     <use x="444.824219" xlink:href="#ArialMT-114"/>
     <use x="478.125" xlink:href="#ArialMT-101"/>
     <use x="533.740234" xlink:href="#ArialMT-115"/>
     <use x="583.740234" xlink:href="#ArialMT-116"/>
     <use x="611.523438" xlink:href="#ArialMT-32"/>
     <use x="639.306641" xlink:href="#ArialMT-119"/>
     <use x="711.523438" xlink:href="#ArialMT-104"/>
     <use x="767.138672" xlink:href="#ArialMT-111"/>
     <use x="822.753906" xlink:href="#ArialMT-108"/>
     <use x="844.970703" xlink:href="#ArialMT-101"/>
     <use x="900.585938" xlink:href="#ArialMT-32"/>
     <use x="928.369141" xlink:href="#ArialMT-112"/>
     <use x="983.984375" xlink:href="#ArialMT-105"/>
     <use x="1006.201172" xlink:href="#ArialMT-103"/>
     <use x="1061.816406" xlink:href="#ArialMT-101"/>
     <use x="1117.431641" xlink:href="#ArialMT-111"/>
     <use x="1173.046875" xlink:href="#ArialMT-110"/>
     <use x="1228.662109" xlink:href="#ArialMT-46"/>
    </g>
    <!-- Mean = 4.0, SD = 4.8, $n$ = 16 -->
    <defs>
     <path d="M 7.421875 0 
L 7.421875 71.578125 
L 21.6875 71.578125 
L 38.625 20.90625 
Q 40.96875 13.8125 42.046875 10.296875 
Q 43.265625 14.203125 45.84375 21.78125 
L 62.984375 71.578125 
L 75.734375 71.578125 
L 75.734375 0 
L 66.609375 0 
L 66.609375 59.90625 
L 45.796875 0 
L 37.25 0 
L 16.546875 60.9375 
L 16.546875 0 
z
" id="ArialMT-77"/>
     <path d="M 52.828125 42.09375 
L 5.5625 42.09375 
L 5.5625 50.296875 
L 52.828125 50.296875 
z
M 52.828125 20.359375 
L 5.5625 20.359375 
L 5.5625 28.5625 
L 52.828125 28.5625 
z
" id="ArialMT-61"/>
     <path d="M 32.328125 0 
L 32.328125 17.140625 
L 1.265625 17.140625 
L 1.265625 25.203125 
L 33.9375 71.578125 
L 41.109375 71.578125 
L 41.109375 25.203125 
L 50.78125 25.203125 
L 50.78125 17.140625 
L 41.109375 17.140625 
L 41.109375 0 
z
M 32.328125 25.203125 
L 32.328125 57.46875 
L 9.90625 25.203125 
z
" id="ArialMT-52"/>
     <path d="M 8.890625 0 
L 8.890625 10.015625 
L 18.890625 10.015625 
L 18.890625 0 
Q 18.890625 -5.515625 16.9375 -8.90625 
Q 14.984375 -12.3125 10.75 -14.15625 
L 8.296875 -10.40625 
Q 11.078125 -9.1875 12.390625 -6.8125 
Q 13.71875 -4.4375 13.875 0 
z
" id="ArialMT-44"/>
     <path d="M 4.5 23 
L 13.421875 23.78125 
Q 14.0625 18.40625 16.375 14.96875 
Q 18.703125 11.53125 23.578125 9.40625 
Q 28.46875 7.28125 34.578125 7.28125 
Q 39.984375 7.28125 44.140625 8.890625 
Q 48.296875 10.5 50.3125 13.296875 
Q 52.34375 16.109375 52.34375 19.4375 
Q 52.34375 22.796875 50.390625 25.3125 
Q 48.4375 27.828125 43.953125 29.546875 
Q 41.0625 30.671875 31.203125 33.03125 
Q 21.34375 35.40625 17.390625 37.5 
Q 12.25 40.1875 9.734375 44.15625 
Q 7.234375 48.140625 7.234375 53.078125 
Q 7.234375 58.5 10.296875 63.203125 
Q 13.375 67.921875 19.28125 70.359375 
Q 25.203125 72.796875 32.421875 72.796875 
Q 40.375 72.796875 46.453125 70.234375 
Q 52.546875 67.671875 55.8125 62.6875 
Q 59.078125 57.71875 59.328125 51.421875 
L 50.25 50.734375 
Q 49.515625 57.515625 45.28125 60.984375 
Q 41.0625 64.453125 32.8125 64.453125 
Q 24.21875 64.453125 20.28125 61.296875 
Q 16.359375 58.15625 16.359375 53.71875 
Q 16.359375 49.859375 19.140625 47.359375 
Q 21.875 44.875 33.421875 42.265625 
Q 44.96875 39.65625 49.265625 37.703125 
Q 55.515625 34.8125 58.484375 30.390625 
Q 61.46875 25.984375 61.46875 20.21875 
Q 61.46875 14.5 58.203125 9.4375 
Q 54.9375 4.390625 48.796875 1.578125 
Q 42.671875 -1.21875 35.015625 -1.21875 
Q 25.296875 -1.21875 18.71875 1.609375 
Q 12.15625 4.4375 8.421875 10.125 
Q 4.6875 15.828125 4.5 23 
z
" id="ArialMT-83"/>
     <path d="M 17.671875 38.8125 
Q 12.203125 40.828125 9.5625 44.53125 
Q 6.9375 48.25 6.9375 53.421875 
Q 6.9375 61.234375 12.546875 66.546875 
Q 18.171875 71.875 27.484375 71.875 
Q 36.859375 71.875 42.578125 66.421875 
Q 48.296875 60.984375 48.296875 53.171875 
Q 48.296875 48.1875 45.671875 44.5 
Q 43.0625 40.828125 37.75 38.8125 
Q 44.34375 36.671875 47.78125 31.875 
Q 51.21875 27.09375 51.21875 20.453125 
Q 51.21875 11.28125 44.71875 5.03125 
Q 38.234375 -1.21875 27.640625 -1.21875 
Q 17.046875 -1.21875 10.546875 5.046875 
Q 4.046875 11.328125 4.046875 20.703125 
Q 4.046875 27.6875 7.59375 32.390625 
Q 11.140625 37.109375 17.671875 38.8125 
z
M 15.921875 53.71875 
Q 15.921875 48.640625 19.1875 45.40625 
Q 22.46875 42.1875 27.6875 42.1875 
Q 32.765625 42.1875 36.015625 45.375 
Q 39.265625 48.578125 39.265625 53.21875 
Q 39.265625 58.0625 35.90625 61.359375 
Q 32.5625 64.65625 27.59375 64.65625 
Q 22.5625 64.65625 19.234375 61.421875 
Q 15.921875 58.203125 15.921875 53.71875 
z
M 13.09375 20.65625 
Q 13.09375 16.890625 14.875 13.375 
Q 16.65625 9.859375 20.171875 7.921875 
Q 23.6875 6 27.734375 6 
Q 34.03125 6 38.125 10.046875 
Q 42.234375 14.109375 42.234375 20.359375 
Q 42.234375 26.703125 38.015625 30.859375 
Q 33.796875 35.015625 27.4375 35.015625 
Q 21.234375 35.015625 17.15625 30.90625 
Q 13.09375 26.8125 13.09375 20.65625 
z
" id="ArialMT-56"/>
     <path d="M 55.71875 33.015625 
L 49.3125 0 
L 40.28125 0 
L 46.6875 32.671875 
Q 47.125 34.96875 47.359375 36.71875 
Q 47.609375 38.484375 47.609375 39.5 
Q 47.609375 43.609375 45.015625 45.890625 
Q 42.4375 48.1875 37.796875 48.1875 
Q 30.5625 48.1875 25.34375 43.375 
Q 20.125 38.578125 18.5 30.328125 
L 12.5 0 
L 3.515625 0 
L 14.109375 54.6875 
L 23.09375 54.6875 
L 21.296875 46.09375 
Q 25.046875 50.828125 30.3125 53.40625 
Q 35.59375 56 41.40625 56 
Q 48.640625 56 52.609375 52.09375 
Q 56.59375 48.1875 56.59375 41.109375 
Q 56.59375 39.359375 56.375 37.359375 
Q 56.15625 35.359375 55.71875 33.015625 
z
" id="DejaVuSans-Oblique-110"/>
     <path d="M 49.75 54.046875 
L 41.015625 53.375 
Q 39.84375 58.546875 37.703125 60.890625 
Q 34.125 64.65625 28.90625 64.65625 
Q 24.703125 64.65625 21.53125 62.3125 
Q 17.390625 59.28125 14.984375 53.46875 
Q 12.59375 47.65625 12.5 36.921875 
Q 15.671875 41.75 20.265625 44.09375 
Q 24.859375 46.4375 29.890625 46.4375 
Q 38.671875 46.4375 44.84375 39.96875 
Q 51.03125 33.5 51.03125 23.25 
Q 51.03125 16.5 48.125 10.71875 
Q 45.21875 4.9375 40.140625 1.859375 
Q 35.0625 -1.21875 28.609375 -1.21875 
Q 17.625 -1.21875 10.6875 6.859375 
Q 3.765625 14.9375 3.765625 33.5 
Q 3.765625 54.25 11.421875 63.671875 
Q 18.109375 71.875 29.4375 71.875 
Q 37.890625 71.875 43.28125 67.140625 
Q 48.6875 62.40625 49.75 54.046875 
z
M 13.875 23.1875 
Q 13.875 18.65625 15.796875 14.5 
Q 17.71875 10.359375 21.1875 8.171875 
Q 24.65625 6 28.46875 6 
Q 34.03125 6 38.03125 10.484375 
Q 42.046875 14.984375 42.046875 22.703125 
Q 42.046875 30.125 38.078125 34.390625 
Q 34.125 38.671875 28.125 38.671875 
Q 22.171875 38.671875 18.015625 34.390625 
Q 13.875 30.125 13.875 23.1875 
z
" id="ArialMT-54"/>
    </defs>
    <g style="fill:#262626;" transform="translate(234.003094 79.151437)scale(0.1 -0.1)">
     <use transform="translate(0 0.203125)" xlink:href="#ArialMT-77"/>
     <use transform="translate(83.300781 0.203125)" xlink:href="#ArialMT-101"/>
     <use transform="translate(138.916016 0.203125)" xlink:href="#ArialMT-97"/>
     <use transform="translate(194.53125 0.203125)" xlink:href="#ArialMT-110"/>
     <use transform="translate(250.146484 0.203125)" xlink:href="#ArialMT-32"/>
     <use transform="translate(277.929688 0.203125)" xlink:href="#ArialMT-61"/>
     <use transform="translate(336.328125 0.203125)" xlink:href="#ArialMT-32"/>
     <use transform="translate(364.111328 0.203125)" xlink:href="#ArialMT-52"/>
     <use transform="translate(419.726562 0.203125)" xlink:href="#ArialMT-46"/>
     <use transform="translate(447.509766 0.203125)" xlink:href="#ArialMT-48"/>
     <use transform="translate(503.125 0.203125)" xlink:href="#ArialMT-44"/>
     <use transform="translate(530.908203 0.203125)" xlink:href="#ArialMT-32"/>
     <use transform="translate(558.691406 0.203125)" xlink:href="#ArialMT-83"/>
     <use transform="translate(625.390625 0.203125)" xlink:href="#ArialMT-68"/>
     <use transform="translate(697.607422 0.203125)" xlink:href="#ArialMT-32"/>
     <use transform="translate(725.390625 0.203125)" xlink:href="#ArialMT-61"/>
     <use transform="translate(783.789062 0.203125)" xlink:href="#ArialMT-32"/>
     <use transform="translate(811.572266 0.203125)" xlink:href="#ArialMT-52"/>
     <use transform="translate(867.1875 0.203125)" xlink:href="#ArialMT-46"/>
     <use transform="translate(894.970703 0.203125)" xlink:href="#ArialMT-56"/>
     <use transform="translate(950.585938 0.203125)" xlink:href="#ArialMT-44"/>
     <use transform="translate(978.369141 0.203125)" xlink:href="#ArialMT-32"/>
     <use transform="translate(1006.152344 0.203125)" xlink:href="#DejaVuSans-Oblique-110"/>
     <use transform="translate(1069.53125 0.203125)" xlink:href="#ArialMT-32"/>
     <use transform="translate(1097.314453 0.203125)" xlink:href="#ArialMT-61"/>
     <use transform="translate(1155.712891 0.203125)" xlink:href="#ArialMT-32"/>
     <use transform="translate(1183.496094 0.203125)" xlink:href="#ArialMT-49"/>
     <use transform="translate(1239.111328 0.203125)" xlink:href="#ArialMT-54"/>
    </g>
   </g>
   <g id="text_15">
    <!-- A Survey of Tinder: -->
    <defs>
     <path d="M 21 0 
L 1.265625 51.859375 
L 10.546875 51.859375 
L 21.6875 20.796875 
Q 23.484375 15.765625 25 10.359375 
Q 26.171875 14.453125 28.265625 20.21875 
L 39.796875 51.859375 
L 48.828125 51.859375 
L 29.203125 0 
z
" id="ArialMT-118"/>
    </defs>
    <g style="fill:#262626;" transform="translate(202.099688 21.540375)scale(0.12 -0.12)">
     <use xlink:href="#ArialMT-65"/>
     <use x="66.621094" xlink:href="#ArialMT-32"/>
     <use x="94.404297" xlink:href="#ArialMT-83"/>
     <use x="161.103516" xlink:href="#ArialMT-117"/>
     <use x="216.71875" xlink:href="#ArialMT-114"/>
     <use x="250.019531" xlink:href="#ArialMT-118"/>
     <use x="300.019531" xlink:href="#ArialMT-101"/>
     <use x="355.634766" xlink:href="#ArialMT-121"/>
     <use x="405.634766" xlink:href="#ArialMT-32"/>
     <use x="433.417969" xlink:href="#ArialMT-111"/>
     <use x="489.033203" xlink:href="#ArialMT-102"/>
     <use x="516.816406" xlink:href="#ArialMT-32"/>
     <use x="544.583984" xlink:href="#ArialMT-84"/>
     <use x="605.621094" xlink:href="#ArialMT-105"/>
     <use x="627.837891" xlink:href="#ArialMT-110"/>
     <use x="683.453125" xlink:href="#ArialMT-100"/>
     <use x="739.068359" xlink:href="#ArialMT-101"/>
     <use x="794.683594" xlink:href="#ArialMT-114"/>
     <use x="827.984375" xlink:href="#ArialMT-58"/>
    </g>
    <!-- "How many pigeons do you think you could carry?" -->
    <defs>
     <path d="M 7.03125 46.234375 
L 4.59375 59.859375 
L 4.59375 71.578125 
L 14.59375 71.578125 
L 14.59375 59.859375 
L 12.40625 46.234375 
z
M 23.1875 46.234375 
L 20.796875 59.859375 
L 20.796875 71.578125 
L 30.8125 71.578125 
L 30.8125 59.859375 
L 28.46875 46.234375 
z
" id="ArialMT-34"/>
     <path d="M 8.015625 0 
L 8.015625 71.578125 
L 17.484375 71.578125 
L 17.484375 42.1875 
L 54.6875 42.1875 
L 54.6875 71.578125 
L 64.15625 71.578125 
L 64.15625 0 
L 54.6875 0 
L 54.6875 33.734375 
L 17.484375 33.734375 
L 17.484375 0 
z
" id="ArialMT-72"/>
     <path d="M 6.640625 0 
L 6.640625 71.578125 
L 15.4375 71.578125 
L 15.4375 30.765625 
L 36.234375 51.859375 
L 47.609375 51.859375 
L 27.78125 32.625 
L 49.609375 0 
L 38.765625 0 
L 21.625 26.515625 
L 15.4375 20.5625 
L 15.4375 0 
z
" id="ArialMT-107"/>
     <path d="M 23.046875 17.625 
Q 23 19.390625 23 20.265625 
Q 23 25.4375 24.46875 29.203125 
Q 25.53125 32.03125 27.9375 34.90625 
Q 29.6875 37.015625 34.25 41.03125 
Q 38.8125 45.0625 40.171875 47.453125 
Q 41.546875 49.859375 41.546875 52.6875 
Q 41.546875 57.8125 37.546875 61.6875 
Q 33.546875 65.578125 27.734375 65.578125 
Q 22.125 65.578125 18.359375 62.0625 
Q 14.59375 58.546875 13.421875 51.078125 
L 4.390625 52.15625 
Q 5.609375 62.15625 11.640625 67.46875 
Q 17.671875 72.796875 27.59375 72.796875 
Q 38.09375 72.796875 44.34375 67.078125 
Q 50.59375 61.375 50.59375 53.265625 
Q 50.59375 48.578125 48.390625 44.625 
Q 46.1875 40.671875 39.796875 35.015625 
Q 35.5 31.203125 34.171875 29.390625 
Q 32.859375 27.59375 32.21875 25.25 
Q 31.59375 22.90625 31.5 17.625 
z
M 22.515625 0 
L 22.515625 10.015625 
L 32.515625 10.015625 
L 32.515625 0 
z
" id="ArialMT-63"/>
    </defs>
    <g style="fill:#262626;" transform="translate(118.454063 34.54875)scale(0.12 -0.12)">
     <use xlink:href="#ArialMT-34"/>
     <use x="35.498047" xlink:href="#ArialMT-72"/>
     <use x="107.714844" xlink:href="#ArialMT-111"/>
     <use x="163.330078" xlink:href="#ArialMT-119"/>
     <use x="235.546875" xlink:href="#ArialMT-32"/>
     <use x="263.330078" xlink:href="#ArialMT-109"/>
     <use x="346.630859" xlink:href="#ArialMT-97"/>
     <use x="402.246094" xlink:href="#ArialMT-110"/>
     <use x="457.861328" xlink:href="#ArialMT-121"/>
     <use x="507.861328" xlink:href="#ArialMT-32"/>
     <use x="535.644531" xlink:href="#ArialMT-112"/>
     <use x="591.259766" xlink:href="#ArialMT-105"/>
     <use x="613.476562" xlink:href="#ArialMT-103"/>
     <use x="669.091797" xlink:href="#ArialMT-101"/>
     <use x="724.707031" xlink:href="#ArialMT-111"/>
     <use x="780.322266" xlink:href="#ArialMT-110"/>
     <use x="835.9375" xlink:href="#ArialMT-115"/>
     <use x="885.9375" xlink:href="#ArialMT-32"/>
     <use x="913.720703" xlink:href="#ArialMT-100"/>
     <use x="969.335938" xlink:href="#ArialMT-111"/>
     <use x="1024.951172" xlink:href="#ArialMT-32"/>
     <use x="1052.734375" xlink:href="#ArialMT-121"/>
     <use x="1102.734375" xlink:href="#ArialMT-111"/>
     <use x="1158.349609" xlink:href="#ArialMT-117"/>
     <use x="1213.964844" xlink:href="#ArialMT-32"/>
     <use x="1241.748047" xlink:href="#ArialMT-116"/>
     <use x="1269.53125" xlink:href="#ArialMT-104"/>
     <use x="1325.146484" xlink:href="#ArialMT-105"/>
     <use x="1347.363281" xlink:href="#ArialMT-110"/>
     <use x="1402.978516" xlink:href="#ArialMT-107"/>
     <use x="1452.978516" xlink:href="#ArialMT-32"/>
     <use x="1480.761719" xlink:href="#ArialMT-121"/>
     <use x="1530.761719" xlink:href="#ArialMT-111"/>
     <use x="1586.376953" xlink:href="#ArialMT-117"/>
     <use x="1641.992188" xlink:href="#ArialMT-32"/>
     <use x="1669.775391" xlink:href="#ArialMT-99"/>
     <use x="1719.775391" xlink:href="#ArialMT-111"/>
     <use x="1775.390625" xlink:href="#ArialMT-117"/>
     <use x="1831.005859" xlink:href="#ArialMT-108"/>
     <use x="1853.222656" xlink:href="#ArialMT-100"/>
     <use x="1908.837891" xlink:href="#ArialMT-32"/>
     <use x="1936.621094" xlink:href="#ArialMT-99"/>
     <use x="1986.621094" xlink:href="#ArialMT-97"/>
     <use x="2042.236328" xlink:href="#ArialMT-114"/>
     <use x="2075.537109" xlink:href="#ArialMT-114"/>
     <use x="2108.837891" xlink:href="#ArialMT-121"/>
     <use x="2158.837891" xlink:href="#ArialMT-63"/>
     <use x="2214.453125" xlink:href="#ArialMT-34"/>
    </g>
   </g>
   <g id="legend_1">
    <g id="patch_7">
     <path d="M 374.982188 80.468437 
L 440.14 80.468437 
Q 442.34 80.468437 442.34 78.268437 
L 442.34 48.24875 
Q 442.34 46.04875 440.14 46.04875 
L 374.982188 46.04875 
Q 372.782188 46.04875 372.782188 48.24875 
L 372.782188 78.268437 
Q 372.782188 80.468437 374.982188 80.468437 
z
" style="fill:#eaeaf2;opacity:0.8;stroke:#cccccc;stroke-linejoin:miter;"/>
    </g>
    <g id="line2d_12">
     <path d="M 377.182188 54.472344 
L 399.182188 54.472344 
" style="fill:none;stroke:#408fff;stroke-linecap:round;stroke-width:3;"/>
    </g>
    <g id="line2d_13"/>
    <g id="text_16">
     <!-- Model -->
     <g style="fill:#262626;" transform="translate(407.982188 58.322344)scale(0.11 -0.11)">
      <use xlink:href="#ArialMT-77"/>
      <use x="83.300781" xlink:href="#ArialMT-111"/>
      <use x="138.916016" xlink:href="#ArialMT-100"/>
      <use x="194.53125" xlink:href="#ArialMT-101"/>
      <use x="250.146484" xlink:href="#ArialMT-108"/>
     </g>
    </g>
    <g id="patch_8">
     <path d="M 377.182188 73.882187 
L 399.182188 73.882187 
L 399.182188 66.182187 
L 377.182188 66.182187 
z
" style="fill:#ff4063;stroke:#ffffff;stroke-linejoin:miter;"/>
    </g>
    <g id="text_17">
     <!-- Data -->
     <g style="fill:#262626;" transform="translate(407.982188 73.882187)scale(0.11 -0.11)">
      <use xlink:href="#ArialMT-68"/>
      <use x="72.216797" xlink:href="#ArialMT-97"/>
      <use x="127.832031" xlink:href="#ArialMT-116"/>
      <use x="155.615234" xlink:href="#ArialMT-97"/>
     </g>
    </g>
   </g>
   <g id="patch_9">
    <path clip-path="url(#p9e499eecc6)" d="M 76.718097 297.9 
L 93.549022 297.9 
L 93.549022 114.077679 
L 76.718097 114.077679 
z
" style="fill:#ff4063;stroke:#ffffff;stroke-linejoin:miter;"/>
   </g>
   <g id="patch_10">
    <path clip-path="url(#p9e499eecc6)" d="M 93.549022 297.9 
L 110.379947 297.9 
L 110.379947 236.625893 
L 93.549022 236.625893 
z
" style="fill:#ff4063;stroke:#ffffff;stroke-linejoin:miter;"/>
   </g>
   <g id="patch_11">
    <path clip-path="url(#p9e499eecc6)" d="M 110.379947 297.9 
L 127.210873 297.9 
L 127.210873 175.351786 
L 110.379947 175.351786 
z
" style="fill:#ff4063;stroke:#ffffff;stroke-linejoin:miter;"/>
   </g>
   <g id="patch_12">
    <path clip-path="url(#p9e499eecc6)" d="M 127.210873 297.9 
L 144.041798 297.9 
L 144.041798 52.803571 
L 127.210873 52.803571 
z
" style="fill:#ff4063;stroke:#ffffff;stroke-linejoin:miter;"/>
   </g>
   <g id="patch_13">
    <path clip-path="url(#p9e499eecc6)" d="M 144.041798 297.9 
L 160.872723 297.9 
L 160.872723 114.077679 
L 144.041798 114.077679 
z
" style="fill:#ff4063;stroke:#ffffff;stroke-linejoin:miter;"/>
   </g>
   <g id="patch_14">
    <path clip-path="url(#p9e499eecc6)" d="M 160.872723 297.9 
L 177.703649 297.9 
L 177.703649 236.625893 
L 160.872723 236.625893 
z
" style="fill:#ff4063;stroke:#ffffff;stroke-linejoin:miter;"/>
   </g>
   <g id="patch_15">
    <path clip-path="url(#p9e499eecc6)" d="M 177.703649 297.9 
L 194.534574 297.9 
L 194.534574 297.9 
L 177.703649 297.9 
z
" style="fill:#ff4063;stroke:#ffffff;stroke-linejoin:miter;"/>
   </g>
   <g id="patch_16">
    <path clip-path="url(#p9e499eecc6)" d="M 194.534574 297.9 
L 211.365499 297.9 
L 211.365499 297.9 
L 194.534574 297.9 
z
" style="fill:#ff4063;stroke:#ffffff;stroke-linejoin:miter;"/>
   </g>
   <g id="patch_17">
    <path clip-path="url(#p9e499eecc6)" d="M 211.365499 297.9 
L 228.196425 297.9 
L 228.196425 297.9 
L 211.365499 297.9 
z
" style="fill:#ff4063;stroke:#ffffff;stroke-linejoin:miter;"/>
   </g>
   <g id="patch_18">
    <path clip-path="url(#p9e499eecc6)" d="M 228.196425 297.9 
L 245.02735 297.9 
L 245.02735 297.9 
L 228.196425 297.9 
z
" style="fill:#ff4063;stroke:#ffffff;stroke-linejoin:miter;"/>
   </g>
   <g id="patch_19">
    <path clip-path="url(#p9e499eecc6)" d="M 245.02735 297.9 
L 261.858275 297.9 
L 261.858275 236.625893 
L 245.02735 236.625893 
z
" style="fill:#ff4063;stroke:#ffffff;stroke-linejoin:miter;"/>
   </g>
   <g id="patch_20">
    <path clip-path="url(#p9e499eecc6)" d="M 261.858275 297.9 
L 278.6892 297.9 
L 278.6892 297.9 
L 261.858275 297.9 
z
" style="fill:#ff4063;stroke:#ffffff;stroke-linejoin:miter;"/>
   </g>
   <g id="patch_21">
    <path clip-path="url(#p9e499eecc6)" d="M 278.6892 297.9 
L 295.520126 297.9 
L 295.520126 297.9 
L 278.6892 297.9 
z
" style="fill:#ff4063;stroke:#ffffff;stroke-linejoin:miter;"/>
   </g>
   <g id="patch_22">
    <path clip-path="url(#p9e499eecc6)" d="M 295.520126 297.9 
L 312.351051 297.9 
L 312.351051 297.9 
L 295.520126 297.9 
z
" style="fill:#ff4063;stroke:#ffffff;stroke-linejoin:miter;"/>
   </g>
   <g id="patch_23">
    <path clip-path="url(#p9e499eecc6)" d="M 312.351051 297.9 
L 329.181976 297.9 
L 329.181976 297.9 
L 312.351051 297.9 
z
" style="fill:#ff4063;stroke:#ffffff;stroke-linejoin:miter;"/>
   </g>
   <g id="patch_24">
    <path clip-path="url(#p9e499eecc6)" d="M 329.181976 297.9 
L 346.012902 297.9 
L 346.012902 297.9 
L 329.181976 297.9 
z
" style="fill:#ff4063;stroke:#ffffff;stroke-linejoin:miter;"/>
   </g>
   <g id="patch_25">
    <path clip-path="url(#p9e499eecc6)" d="M 346.012902 297.9 
L 362.843827 297.9 
L 362.843827 297.9 
L 346.012902 297.9 
z
" style="fill:#ff4063;stroke:#ffffff;stroke-linejoin:miter;"/>
   </g>
   <g id="patch_26">
    <path clip-path="url(#p9e499eecc6)" d="M 362.843827 297.9 
L 379.674752 297.9 
L 379.674752 297.9 
L 362.843827 297.9 
z
" style="fill:#ff4063;stroke:#ffffff;stroke-linejoin:miter;"/>
   </g>
   <g id="patch_27">
    <path clip-path="url(#p9e499eecc6)" d="M 379.674752 297.9 
L 396.505678 297.9 
L 396.505678 297.9 
L 379.674752 297.9 
z
" style="fill:#ff4063;stroke:#ffffff;stroke-linejoin:miter;"/>
   </g>
   <g id="patch_28">
    <path clip-path="url(#p9e499eecc6)" d="M 396.505678 297.9 
L 413.336603 297.9 
L 413.336603 297.9 
L 396.505678 297.9 
z
" style="fill:#ff4063;stroke:#ffffff;stroke-linejoin:miter;"/>
   </g>
   <g id="patch_29">
    <path clip-path="url(#p9e499eecc6)" d="M 413.336603 297.9 
L 430.167528 297.9 
L 430.167528 236.625893 
L 413.336603 236.625893 
z
" style="fill:#ff4063;stroke:#ffffff;stroke-linejoin:miter;"/>
   </g>
   <g id="PolyCollection_1">
    <defs>
     <path d="M 85.15039 -131.504822 
L 85.15039 -47.7 
L 85.841807 -47.7 
L 86.533224 -47.7 
L 87.224642 -47.7 
L 87.916059 -47.7 
L 88.607476 -47.7 
L 89.298893 -47.7 
L 89.99031 -47.7 
L 90.681727 -47.7 
L 91.373144 -47.7 
L 92.064561 -47.7 
L 92.755978 -47.7 
L 93.447396 -47.7 
L 94.138813 -47.7 
L 94.83023 -47.7 
L 95.521647 -47.7 
L 96.213064 -47.7 
L 96.904481 -47.7 
L 97.595898 -47.7 
L 98.287315 -47.7 
L 98.978732 -47.7 
L 99.67015 -47.7 
L 100.361567 -47.7 
L 101.052984 -47.7 
L 101.744401 -47.7 
L 102.435818 -47.7 
L 103.127235 -47.7 
L 103.818652 -47.7 
L 104.510069 -47.7 
L 105.201486 -47.7 
L 105.892903 -47.7 
L 106.584321 -47.7 
L 107.275738 -47.7 
L 107.967155 -47.7 
L 108.658572 -47.7 
L 109.349989 -47.7 
L 110.041406 -47.7 
L 110.732823 -47.7 
L 111.42424 -47.7 
L 112.115657 -47.7 
L 112.807075 -47.7 
L 113.498492 -47.7 
L 114.189909 -47.7 
L 114.881326 -47.7 
L 115.572743 -47.7 
L 116.26416 -47.7 
L 116.955577 -47.7 
L 117.646994 -47.7 
L 118.338411 -47.7 
L 119.029829 -47.7 
L 119.721246 -47.7 
L 120.412663 -47.7 
L 121.10408 -47.7 
L 121.795497 -47.7 
L 122.486914 -47.7 
L 123.178331 -47.7 
L 123.869748 -47.7 
L 124.561165 -47.7 
L 125.252583 -47.7 
L 125.944 -47.7 
L 126.635417 -47.7 
L 127.326834 -47.7 
L 128.018251 -47.7 
L 128.709668 -47.7 
L 129.401085 -47.7 
L 130.092502 -47.7 
L 130.783919 -47.7 
L 131.475337 -47.7 
L 132.166754 -47.7 
L 132.858171 -47.7 
L 133.549588 -47.7 
L 134.241005 -47.7 
L 134.932422 -47.7 
L 135.623839 -47.7 
L 136.315256 -47.7 
L 137.006673 -47.7 
L 137.698091 -47.7 
L 138.389508 -47.7 
L 139.080925 -47.7 
L 139.772342 -47.7 
L 140.463759 -47.7 
L 141.155176 -47.7 
L 141.846593 -47.7 
L 142.53801 -47.7 
L 143.229427 -47.7 
L 143.920845 -47.7 
L 144.612262 -47.7 
L 145.303679 -47.7 
L 145.995096 -47.7 
L 146.686513 -47.7 
L 147.37793 -47.7 
L 148.069347 -47.7 
L 148.760764 -47.7 
L 149.452181 -47.7 
L 150.143599 -47.7 
L 150.835016 -47.7 
L 151.526433 -47.7 
L 152.21785 -47.7 
L 152.909267 -47.7 
L 153.600684 -47.7 
L 154.292101 -47.7 
L 154.983518 -47.7 
L 155.674935 -47.7 
L 156.366353 -47.7 
L 157.05777 -47.7 
L 157.749187 -47.7 
L 158.440604 -47.7 
L 159.132021 -47.7 
L 159.823438 -47.7 
L 160.514855 -47.7 
L 161.206272 -47.7 
L 161.897689 -47.7 
L 162.589107 -47.7 
L 163.280524 -47.7 
L 163.971941 -47.7 
L 164.663358 -47.7 
L 165.354775 -47.7 
L 166.046192 -47.7 
L 166.737609 -47.7 
L 167.429026 -47.7 
L 168.120443 -47.7 
L 168.811861 -47.7 
L 169.503278 -47.7 
L 170.194695 -47.7 
L 170.886112 -47.7 
L 171.577529 -47.7 
L 172.268946 -47.7 
L 172.960363 -47.7 
L 173.65178 -47.7 
L 174.343197 -47.7 
L 175.034615 -47.7 
L 175.726032 -47.7 
L 176.417449 -47.7 
L 177.108866 -47.7 
L 177.800283 -47.7 
L 178.4917 -47.7 
L 179.183117 -47.7 
L 179.874534 -47.7 
L 180.565951 -47.7 
L 181.257369 -47.7 
L 181.948786 -47.7 
L 182.640203 -47.7 
L 183.33162 -47.7 
L 184.023037 -47.7 
L 184.714454 -47.7 
L 185.405871 -47.7 
L 186.097288 -47.7 
L 186.788705 -47.7 
L 187.480123 -47.7 
L 188.17154 -47.7 
L 188.862957 -47.7 
L 189.554374 -47.7 
L 190.245791 -47.7 
L 190.937208 -47.7 
L 191.628625 -47.7 
L 192.320042 -47.7 
L 193.011459 -47.7 
L 193.702877 -47.7 
L 194.394294 -47.7 
L 195.085711 -47.7 
L 195.777128 -47.7 
L 196.468545 -47.7 
L 197.159962 -47.7 
L 197.851379 -47.7 
L 198.542796 -47.7 
L 199.234213 -47.7 
L 199.925631 -47.7 
L 200.617048 -47.7 
L 201.308465 -47.7 
L 201.999882 -47.7 
L 202.691299 -47.7 
L 203.382716 -47.7 
L 204.074133 -47.7 
L 204.76555 -47.7 
L 205.456967 -47.7 
L 206.148385 -47.7 
L 206.839802 -47.7 
L 207.531219 -47.7 
L 208.222636 -47.7 
L 208.914053 -47.7 
L 209.60547 -47.7 
L 210.296887 -47.7 
L 210.988304 -47.7 
L 211.679721 -47.7 
L 212.371139 -47.7 
L 213.062556 -47.7 
L 213.753973 -47.7 
L 214.44539 -47.7 
L 215.136807 -47.7 
L 215.828224 -47.7 
L 216.519641 -47.7 
L 217.211058 -47.7 
L 217.902475 -47.7 
L 218.593893 -47.7 
L 219.28531 -47.7 
L 219.976727 -47.7 
L 220.668144 -47.7 
L 221.359561 -47.7 
L 222.050978 -47.7 
L 222.742395 -47.7 
L 223.433812 -47.7 
L 224.125229 -47.7 
L 224.816647 -47.7 
L 225.508064 -47.7 
L 226.199481 -47.7 
L 226.890898 -47.7 
L 227.582315 -47.7 
L 228.273732 -47.7 
L 228.965149 -47.7 
L 229.656566 -47.7 
L 230.347983 -47.7 
L 231.039401 -47.7 
L 231.730818 -47.7 
L 232.422235 -47.7 
L 233.113652 -47.7 
L 233.805069 -47.7 
L 234.496486 -47.7 
L 235.187903 -47.7 
L 235.87932 -47.7 
L 236.570737 -47.7 
L 237.262155 -47.7 
L 237.953572 -47.7 
L 238.644989 -47.7 
L 239.336406 -47.7 
L 240.027823 -47.7 
L 240.71924 -47.7 
L 241.410657 -47.7 
L 242.102074 -47.7 
L 242.793491 -47.7 
L 243.484909 -47.7 
L 244.176326 -47.7 
L 244.867743 -47.7 
L 245.55916 -47.7 
L 246.250577 -47.7 
L 246.941994 -47.7 
L 247.633411 -47.7 
L 248.324828 -47.7 
L 249.016245 -47.7 
L 249.707663 -47.7 
L 250.39908 -47.7 
L 251.090497 -47.7 
L 251.781914 -47.7 
L 252.473331 -47.7 
L 253.164748 -47.7 
L 253.856165 -47.7 
L 254.547582 -47.7 
L 255.238999 -47.7 
L 255.930417 -47.7 
L 256.621834 -47.7 
L 257.313251 -47.7 
L 258.004668 -47.7 
L 258.696085 -47.7 
L 259.387502 -47.7 
L 260.078919 -47.7 
L 260.770336 -47.7 
L 261.461753 -47.7 
L 262.153171 -47.7 
L 262.844588 -47.7 
L 263.536005 -47.7 
L 264.227422 -47.7 
L 264.918839 -47.7 
L 265.610256 -47.7 
L 266.301673 -47.7 
L 266.99309 -47.7 
L 267.684507 -47.7 
L 268.375925 -47.7 
L 269.067342 -47.7 
L 269.758759 -47.7 
L 270.450176 -47.7 
L 271.141593 -47.7 
L 271.83301 -47.7 
L 272.524427 -47.7 
L 273.215844 -47.7 
L 273.907261 -47.7 
L 274.598679 -47.7 
L 275.290096 -47.7 
L 275.981513 -47.7 
L 276.67293 -47.7 
L 277.364347 -47.7 
L 278.055764 -47.7 
L 278.747181 -47.7 
L 279.438598 -47.7 
L 280.130015 -47.7 
L 280.821433 -47.7 
L 281.51285 -47.7 
L 282.204267 -47.7 
L 282.895684 -47.7 
L 283.587101 -47.7 
L 284.278518 -47.7 
L 284.969935 -47.7 
L 285.661352 -47.7 
L 286.352769 -47.7 
L 287.044186 -47.7 
L 287.735604 -47.7 
L 288.427021 -47.7 
L 289.118438 -47.7 
L 289.809855 -47.7 
L 290.501272 -47.7 
L 291.192689 -47.7 
L 291.884106 -47.7 
L 292.575523 -47.7 
L 293.26694 -47.7 
L 293.958358 -47.7 
L 294.649775 -47.7 
L 295.341192 -47.7 
L 296.032609 -47.7 
L 296.724026 -47.7 
L 297.415443 -47.7 
L 298.10686 -47.7 
L 298.798277 -47.7 
L 299.489694 -47.7 
L 300.181112 -47.7 
L 300.872529 -47.7 
L 301.563946 -47.7 
L 302.255363 -47.7 
L 302.94678 -47.7 
L 303.638197 -47.7 
L 304.329614 -47.7 
L 305.021031 -47.7 
L 305.712448 -47.7 
L 306.403866 -47.7 
L 307.095283 -47.7 
L 307.7867 -47.7 
L 308.478117 -47.7 
L 309.169534 -47.7 
L 309.860951 -47.7 
L 310.552368 -47.7 
L 311.243785 -47.7 
L 311.935202 -47.7 
L 312.62662 -47.7 
L 313.318037 -47.7 
L 314.009454 -47.7 
L 314.700871 -47.7 
L 315.392288 -47.7 
L 316.083705 -47.7 
L 316.775122 -47.7 
L 317.466539 -47.7 
L 318.157956 -47.7 
L 318.849374 -47.7 
L 319.540791 -47.7 
L 320.232208 -47.7 
L 320.923625 -47.7 
L 321.615042 -47.7 
L 322.306459 -47.7 
L 322.997876 -47.7 
L 323.689293 -47.7 
L 324.38071 -47.7 
L 325.072128 -47.7 
L 325.763545 -47.7 
L 326.454962 -47.7 
L 327.146379 -47.7 
L 327.837796 -47.7 
L 328.529213 -47.7 
L 329.22063 -47.7 
L 329.912047 -47.7 
L 330.603464 -47.7 
L 331.294882 -47.7 
L 331.986299 -47.7 
L 332.677716 -47.7 
L 333.369133 -47.7 
L 334.06055 -47.7 
L 334.751967 -47.7 
L 335.443384 -47.7 
L 336.134801 -47.7 
L 336.826218 -47.7 
L 337.517636 -47.7 
L 338.209053 -47.7 
L 338.90047 -47.7 
L 339.591887 -47.7 
L 340.283304 -47.7 
L 340.974721 -47.7 
L 341.666138 -47.7 
L 342.357555 -47.7 
L 343.048972 -47.7 
L 343.74039 -47.7 
L 344.431807 -47.7 
L 345.123224 -47.7 
L 345.814641 -47.7 
L 346.506058 -47.7 
L 347.197475 -47.7 
L 347.888892 -47.7 
L 348.580309 -47.7 
L 349.271726 -47.7 
L 349.963144 -47.7 
L 350.654561 -47.7 
L 351.345978 -47.7 
L 352.037395 -47.7 
L 352.728812 -47.7 
L 353.420229 -47.7 
L 354.111646 -47.7 
L 354.803063 -47.7 
L 355.49448 -47.7 
L 356.185898 -47.7 
L 356.877315 -47.7 
L 357.568732 -47.7 
L 358.260149 -47.7 
L 358.951566 -47.7 
L 359.642983 -47.7 
L 360.3344 -47.7 
L 361.025817 -47.7 
L 361.717234 -47.7 
L 362.408652 -47.7 
L 363.100069 -47.7 
L 363.791486 -47.7 
L 364.482903 -47.7 
L 365.17432 -47.7 
L 365.865737 -47.7 
L 366.557154 -47.7 
L 367.248571 -47.7 
L 367.939988 -47.7 
L 368.631406 -47.7 
L 369.322823 -47.7 
L 370.01424 -47.7 
L 370.705657 -47.7 
L 371.397074 -47.7 
L 372.088491 -47.7 
L 372.779908 -47.7 
L 373.471325 -47.7 
L 374.162742 -47.7 
L 374.85416 -47.7 
L 375.545577 -47.7 
L 376.236994 -47.7 
L 376.928411 -47.7 
L 377.619828 -47.7 
L 378.311245 -47.7 
L 379.002662 -47.7 
L 379.694079 -47.7 
L 380.385496 -47.7 
L 381.076914 -47.7 
L 381.768331 -47.7 
L 382.459748 -47.7 
L 383.151165 -47.7 
L 383.842582 -47.7 
L 384.533999 -47.7 
L 385.225416 -47.7 
L 385.916833 -47.7 
L 386.60825 -47.7 
L 387.299668 -47.7 
L 387.991085 -47.7 
L 388.682502 -47.7 
L 389.373919 -47.7 
L 390.065336 -47.7 
L 390.756753 -47.7 
L 391.44817 -47.7 
L 392.139587 -47.7 
L 392.831004 -47.7 
L 393.522422 -47.7 
L 394.213839 -47.7 
L 394.905256 -47.7 
L 395.596673 -47.7 
L 396.28809 -47.7 
L 396.979507 -47.7 
L 397.670924 -47.7 
L 398.362341 -47.7 
L 399.053758 -47.7 
L 399.745176 -47.7 
L 400.436593 -47.7 
L 401.12801 -47.7 
L 401.819427 -47.7 
L 402.510844 -47.7 
L 403.202261 -47.7 
L 403.893678 -47.7 
L 404.585095 -47.7 
L 405.276512 -47.7 
L 405.96793 -47.7 
L 406.659347 -47.7 
L 407.350764 -47.7 
L 408.042181 -47.7 
L 408.733598 -47.7 
L 409.425015 -47.7 
L 410.116432 -47.7 
L 410.807849 -47.7 
L 411.499266 -47.7 
L 412.190684 -47.7 
L 412.882101 -47.7 
L 413.573518 -47.7 
L 414.264935 -47.7 
L 414.956352 -47.7 
L 415.647769 -47.7 
L 416.339186 -47.7 
L 417.030603 -47.7 
L 417.72202 -47.7 
L 418.413438 -47.7 
L 419.104855 -47.7 
L 419.796272 -47.7 
L 420.487689 -47.7 
L 421.179106 -47.7 
L 421.870523 -47.7 
L 422.56194 -47.7 
L 423.253357 -47.7 
L 423.944774 -47.7 
L 424.636192 -47.7 
L 425.327609 -47.7 
L 426.019026 -47.7 
L 426.710443 -47.7 
L 427.40186 -47.7 
L 428.093277 -47.7 
L 428.784694 -47.7 
L 429.476111 -47.7 
L 430.167528 -47.7 
L 430.167528 -47.749676 
L 430.167528 -47.749676 
L 429.476111 -47.751052 
L 428.784694 -47.752465 
L 428.093277 -47.753916 
L 427.40186 -47.755406 
L 426.710443 -47.756936 
L 426.019026 -47.758507 
L 425.327609 -47.76012 
L 424.636192 -47.761776 
L 423.944774 -47.763476 
L 423.253357 -47.765222 
L 422.56194 -47.767014 
L 421.870523 -47.768854 
L 421.179106 -47.770743 
L 420.487689 -47.772683 
L 419.796272 -47.774673 
L 419.104855 -47.776717 
L 418.413438 -47.778815 
L 417.72202 -47.780968 
L 417.030603 -47.783178 
L 416.339186 -47.785447 
L 415.647769 -47.787775 
L 414.956352 -47.790165 
L 414.264935 -47.792618 
L 413.573518 -47.795136 
L 412.882101 -47.79772 
L 412.190684 -47.800371 
L 411.499266 -47.803093 
L 410.807849 -47.805885 
L 410.116432 -47.808751 
L 409.425015 -47.811691 
L 408.733598 -47.814709 
L 408.042181 -47.817805 
L 407.350764 -47.820982 
L 406.659347 -47.824242 
L 405.96793 -47.827586 
L 405.276512 -47.831018 
L 404.585095 -47.834538 
L 403.893678 -47.83815 
L 403.202261 -47.841856 
L 402.510844 -47.845657 
L 401.819427 -47.849557 
L 401.12801 -47.853557 
L 400.436593 -47.85766 
L 399.745176 -47.86187 
L 399.053758 -47.866187 
L 398.362341 -47.870616 
L 397.670924 -47.875158 
L 396.979507 -47.879817 
L 396.28809 -47.884595 
L 395.596673 -47.889495 
L 394.905256 -47.894521 
L 394.213839 -47.899675 
L 393.522422 -47.90496 
L 392.831004 -47.91038 
L 392.139587 -47.915938 
L 391.44817 -47.921637 
L 390.756753 -47.927481 
L 390.065336 -47.933473 
L 389.373919 -47.939616 
L 388.682502 -47.945915 
L 387.991085 -47.952373 
L 387.299668 -47.958994 
L 386.60825 -47.965782 
L 385.916833 -47.97274 
L 385.225416 -47.979874 
L 384.533999 -47.987186 
L 383.842582 -47.994682 
L 383.151165 -48.002366 
L 382.459748 -48.010241 
L 381.768331 -48.018314 
L 381.076914 -48.026587 
L 380.385496 -48.035067 
L 379.694079 -48.043758 
L 379.002662 -48.052664 
L 378.311245 -48.061792 
L 377.619828 -48.071146 
L 376.928411 -48.080731 
L 376.236994 -48.090554 
L 375.545577 -48.100618 
L 374.85416 -48.110931 
L 374.162742 -48.121498 
L 373.471325 -48.132324 
L 372.779908 -48.143417 
L 372.088491 -48.154781 
L 371.397074 -48.166423 
L 370.705657 -48.17835 
L 370.01424 -48.190568 
L 369.322823 -48.203084 
L 368.631406 -48.215905 
L 367.939988 -48.229037 
L 367.248571 -48.242488 
L 366.557154 -48.256266 
L 365.865737 -48.270376 
L 365.17432 -48.284828 
L 364.482903 -48.299629 
L 363.791486 -48.314786 
L 363.100069 -48.330308 
L 362.408652 -48.346203 
L 361.717234 -48.36248 
L 361.025817 -48.379146 
L 360.3344 -48.396211 
L 359.642983 -48.413684 
L 358.951566 -48.431573 
L 358.260149 -48.449888 
L 357.568732 -48.468639 
L 356.877315 -48.487835 
L 356.185898 -48.507486 
L 355.49448 -48.527602 
L 354.803063 -48.548193 
L 354.111646 -48.569269 
L 353.420229 -48.590843 
L 352.728812 -48.612923 
L 352.037395 -48.635522 
L 351.345978 -48.65865 
L 350.654561 -48.68232 
L 349.963144 -48.706542 
L 349.271726 -48.73133 
L 348.580309 -48.756694 
L 347.888892 -48.782648 
L 347.197475 -48.809205 
L 346.506058 -48.836376 
L 345.814641 -48.864176 
L 345.123224 -48.892618 
L 344.431807 -48.921715 
L 343.74039 -48.951481 
L 343.048972 -48.981931 
L 342.357555 -49.013079 
L 341.666138 -49.04494 
L 340.974721 -49.077529 
L 340.283304 -49.110861 
L 339.591887 -49.144951 
L 338.90047 -49.179816 
L 338.209053 -49.215472 
L 337.517636 -49.251934 
L 336.826218 -49.289221 
L 336.134801 -49.327349 
L 335.443384 -49.366334 
L 334.751967 -49.406196 
L 334.06055 -49.446951 
L 333.369133 -49.488619 
L 332.677716 -49.531217 
L 331.986299 -49.574766 
L 331.294882 -49.619283 
L 330.603464 -49.664788 
L 329.912047 -49.711303 
L 329.22063 -49.758846 
L 328.529213 -49.807439 
L 327.837796 -49.857102 
L 327.146379 -49.907857 
L 326.454962 -49.959726 
L 325.763545 -50.01273 
L 325.072128 -50.066892 
L 324.38071 -50.122236 
L 323.689293 -50.178783 
L 322.997876 -50.236559 
L 322.306459 -50.295586 
L 321.615042 -50.355889 
L 320.923625 -50.417493 
L 320.232208 -50.480423 
L 319.540791 -50.544704 
L 318.849374 -50.610364 
L 318.157956 -50.677427 
L 317.466539 -50.74592 
L 316.775122 -50.815872 
L 316.083705 -50.88731 
L 315.392288 -50.960261 
L 314.700871 -51.034754 
L 314.009454 -51.110818 
L 313.318037 -51.188483 
L 312.62662 -51.267778 
L 311.935202 -51.348734 
L 311.243785 -51.431381 
L 310.552368 -51.51575 
L 309.860951 -51.601873 
L 309.169534 -51.689782 
L 308.478117 -51.77951 
L 307.7867 -51.87109 
L 307.095283 -51.964554 
L 306.403866 -52.059938 
L 305.712448 -52.157274 
L 305.021031 -52.2566 
L 304.329614 -52.357948 
L 303.638197 -52.461356 
L 302.94678 -52.56686 
L 302.255363 -52.674497 
L 301.563946 -52.784303 
L 300.872529 -52.896317 
L 300.181112 -53.010576 
L 299.489694 -53.12712 
L 298.798277 -53.245988 
L 298.10686 -53.36722 
L 297.415443 -53.490855 
L 296.724026 -53.616934 
L 296.032609 -53.7455 
L 295.341192 -53.876592 
L 294.649775 -54.010254 
L 293.958358 -54.146528 
L 293.26694 -54.285458 
L 292.575523 -54.427086 
L 291.884106 -54.571458 
L 291.192689 -54.718617 
L 290.501272 -54.86861 
L 289.809855 -55.02148 
L 289.118438 -55.177276 
L 288.427021 -55.336042 
L 287.735604 -55.497827 
L 287.044186 -55.662677 
L 286.352769 -55.830641 
L 285.661352 -56.001768 
L 284.969935 -56.176105 
L 284.278518 -56.353703 
L 283.587101 -56.534611 
L 282.895684 -56.718879 
L 282.204267 -56.906559 
L 281.51285 -57.097701 
L 280.821433 -57.292358 
L 280.130015 -57.49058 
L 279.438598 -57.692421 
L 278.747181 -57.897933 
L 278.055764 -58.107169 
L 277.364347 -58.320184 
L 276.67293 -58.537031 
L 275.981513 -58.757764 
L 275.290096 -58.982439 
L 274.598679 -59.21111 
L 273.907261 -59.443833 
L 273.215844 -59.680663 
L 272.524427 -59.921657 
L 271.83301 -60.166872 
L 271.141593 -60.416363 
L 270.450176 -60.670187 
L 269.758759 -60.928403 
L 269.067342 -61.191067 
L 268.375925 -61.458237 
L 267.684507 -61.729971 
L 266.99309 -62.006327 
L 266.301673 -62.287364 
L 265.610256 -62.573139 
L 264.918839 -62.863712 
L 264.227422 -63.159142 
L 263.536005 -63.459486 
L 262.844588 -63.764805 
L 262.153171 -64.075157 
L 261.461753 -64.390601 
L 260.770336 -64.711196 
L 260.078919 -65.037001 
L 259.387502 -65.368076 
L 258.696085 -65.704479 
L 258.004668 -66.046269 
L 257.313251 -66.393505 
L 256.621834 -66.746245 
L 255.930417 -67.104549 
L 255.238999 -67.468474 
L 254.547582 -67.838078 
L 253.856165 -68.21342 
L 253.164748 -68.594556 
L 252.473331 -68.981544 
L 251.781914 -69.374442 
L 251.090497 -69.773304 
L 250.39908 -70.178188 
L 249.707663 -70.589149 
L 249.016245 -71.006242 
L 248.324828 -71.429521 
L 247.633411 -71.859042 
L 246.941994 -72.294856 
L 246.250577 -72.737017 
L 245.55916 -73.185577 
L 244.867743 -73.640586 
L 244.176326 -74.102097 
L 243.484909 -74.570158 
L 242.793491 -75.044818 
L 242.102074 -75.526126 
L 241.410657 -76.014127 
L 240.71924 -76.508868 
L 240.027823 -77.010395 
L 239.336406 -77.51875 
L 238.644989 -78.033976 
L 237.953572 -78.556116 
L 237.262155 -79.085208 
L 236.570737 -79.621292 
L 235.87932 -80.164405 
L 235.187903 -80.714584 
L 234.496486 -81.271862 
L 233.805069 -81.836273 
L 233.113652 -82.407849 
L 232.422235 -82.986618 
L 231.730818 -83.57261 
L 231.039401 -84.165849 
L 230.347983 -84.766362 
L 229.656566 -85.37417 
L 228.965149 -85.989293 
L 228.273732 -86.61175 
L 227.582315 -87.241559 
L 226.890898 -87.878732 
L 226.199481 -88.523282 
L 225.508064 -89.175219 
L 224.816647 -89.834549 
L 224.125229 -90.501279 
L 223.433812 -91.17541 
L 222.742395 -91.856942 
L 222.050978 -92.545872 
L 221.359561 -93.242196 
L 220.668144 -93.945904 
L 219.976727 -94.656986 
L 219.28531 -95.375427 
L 218.593893 -96.10121 
L 217.902475 -96.834315 
L 217.211058 -97.57472 
L 216.519641 -98.322397 
L 215.828224 -99.077316 
L 215.136807 -99.839445 
L 214.44539 -100.608746 
L 213.753973 -101.38518 
L 213.062556 -102.168703 
L 212.371139 -102.959268 
L 211.679721 -103.756822 
L 210.988304 -104.561312 
L 210.296887 -105.372679 
L 209.60547 -106.190859 
L 208.914053 -107.015786 
L 208.222636 -107.847388 
L 207.531219 -108.685591 
L 206.839802 -109.530315 
L 206.148385 -110.381477 
L 205.456967 -111.238987 
L 204.76555 -112.102754 
L 204.074133 -112.97268 
L 203.382716 -113.848664 
L 202.691299 -114.730599 
L 201.999882 -115.618373 
L 201.308465 -116.511871 
L 200.617048 -117.410972 
L 199.925631 -118.31555 
L 199.234213 -119.225473 
L 198.542796 -120.140607 
L 197.851379 -121.060809 
L 197.159962 -121.985934 
L 196.468545 -122.915831 
L 195.777128 -123.850341 
L 195.085711 -124.789304 
L 194.394294 -125.732552 
L 193.702877 -126.679911 
L 193.011459 -127.631203 
L 192.320042 -128.586245 
L 191.628625 -129.544846 
L 190.937208 -130.506812 
L 190.245791 -131.471942 
L 189.554374 -132.440029 
L 188.862957 -133.410861 
L 188.17154 -134.38422 
L 187.480123 -135.359883 
L 186.788705 -136.33762 
L 186.097288 -137.317196 
L 185.405871 -138.298369 
L 184.714454 -139.280894 
L 184.023037 -140.264517 
L 183.33162 -141.248981 
L 182.640203 -142.23402 
L 181.948786 -143.219365 
L 181.257369 -144.204739 
L 180.565951 -145.189862 
L 179.874534 -146.174446 
L 179.183117 -147.158198 
L 178.4917 -148.140819 
L 177.800283 -149.122005 
L 177.108866 -150.101445 
L 176.417449 -151.078825 
L 175.726032 -152.053822 
L 175.034615 -153.026111 
L 174.343197 -153.995358 
L 173.65178 -154.961228 
L 172.960363 -155.923377 
L 172.268946 -156.881458 
L 171.577529 -157.835118 
L 170.886112 -158.783998 
L 170.194695 -159.727736 
L 169.503278 -160.665965 
L 168.811861 -161.598313 
L 168.120443 -162.524401 
L 167.429026 -163.44385 
L 166.737609 -164.356274 
L 166.046192 -165.261283 
L 165.354775 -166.158483 
L 164.663358 -167.047476 
L 163.971941 -167.927862 
L 163.280524 -168.799235 
L 162.589107 -169.661186 
L 161.897689 -170.513306 
L 161.206272 -171.355178 
L 160.514855 -172.186387 
L 159.823438 -173.006511 
L 159.132021 -173.815129 
L 158.440604 -174.611815 
L 157.749187 -175.396145 
L 157.05777 -176.167689 
L 156.366353 -176.926018 
L 155.674935 -177.670701 
L 154.983518 -178.401307 
L 154.292101 -179.117402 
L 153.600684 -179.818553 
L 152.909267 -180.504329 
L 152.21785 -181.174295 
L 151.526433 -181.828019 
L 150.835016 -182.465069 
L 150.143599 -183.085014 
L 149.452181 -183.687424 
L 148.760764 -184.271873 
L 148.069347 -184.837933 
L 147.37793 -185.385181 
L 146.686513 -185.913197 
L 145.995096 -186.421561 
L 145.303679 -186.90986 
L 144.612262 -187.377683 
L 143.920845 -187.824623 
L 143.229427 -188.250277 
L 142.53801 -188.654247 
L 141.846593 -189.036142 
L 141.155176 -189.395575 
L 140.463759 -189.732164 
L 139.772342 -190.045535 
L 139.080925 -190.335321 
L 138.389508 -190.60116 
L 137.698091 -190.8427 
L 137.006673 -191.059596 
L 136.315256 -191.251511 
L 135.623839 -191.418116 
L 134.932422 -191.559093 
L 134.241005 -191.674134 
L 133.549588 -191.762938 
L 132.858171 -191.825218 
L 132.166754 -191.860694 
L 131.475337 -191.869102 
L 130.783919 -191.850185 
L 130.092502 -191.803701 
L 129.401085 -191.72942 
L 128.709668 -191.627125 
L 128.018251 -191.49661 
L 127.326834 -191.337686 
L 126.635417 -191.150177 
L 125.944 -190.933921 
L 125.252583 -190.68877 
L 124.561165 -190.414593 
L 123.869748 -190.111275 
L 123.178331 -189.778715 
L 122.486914 -189.41683 
L 121.795497 -189.025552 
L 121.10408 -188.604832 
L 120.412663 -188.154638 
L 119.721246 -187.674955 
L 119.029829 -187.165785 
L 118.338411 -186.627151 
L 117.646994 -186.059093 
L 116.955577 -185.461669 
L 116.26416 -184.834959 
L 115.572743 -184.179059 
L 114.881326 -183.494087 
L 114.189909 -182.78018 
L 113.498492 -182.037495 
L 112.807075 -181.266209 
L 112.115657 -180.466519 
L 111.42424 -179.638643 
L 110.732823 -178.782821 
L 110.041406 -177.899311 
L 109.349989 -176.988394 
L 108.658572 -176.050371 
L 107.967155 -175.085563 
L 107.275738 -174.094313 
L 106.584321 -173.076986 
L 105.892903 -172.033964 
L 105.201486 -170.965655 
L 104.510069 -169.872483 
L 103.818652 -168.754896 
L 103.127235 -167.61336 
L 102.435818 -166.448363 
L 101.744401 -165.260413 
L 101.052984 -164.050037 
L 100.361567 -162.817782 
L 99.67015 -161.564215 
L 98.978732 -160.289922 
L 98.287315 -158.995507 
L 97.595898 -157.681592 
L 96.904481 -156.348819 
L 96.213064 -154.997846 
L 95.521647 -153.62935 
L 94.83023 -152.244022 
L 94.138813 -150.842571 
L 93.447396 -149.425721 
L 92.755978 -147.994212 
L 92.064561 -146.548798 
L 91.373144 -145.090247 
L 90.681727 -143.61934 
L 89.99031 -142.13687 
L 89.298893 -140.643644 
L 88.607476 -139.140478 
L 87.916059 -137.628199 
L 87.224642 -136.107644 
L 86.533224 -134.57966 
L 85.841807 -133.045099 
L 85.15039 -131.504822 
z
" id="m5703a204ca" style="stroke:#408fff;stroke-opacity:0.2;"/>
    </defs>
    <g clip-path="url(#p9e499eecc6)">
     <use style="fill:#408fff;fill-opacity:0.2;stroke:#408fff;stroke-opacity:0.2;" x="0" xlink:href="#m5703a204ca" y="345.6"/>
    </g>
   </g>
   <g id="line2d_14">
    <path clip-path="url(#p9e499eecc6)" d="M 85.15039 214.095178 
L 90.681727 201.98066 
L 94.83023 193.355978 
L 98.287315 186.604493 
L 101.744401 180.339587 
L 104.510069 175.727517 
L 107.275738 171.505687 
L 110.041406 167.700689 
L 112.807075 164.333791 
L 114.881326 162.105913 
L 116.955577 160.138331 
L 119.029829 158.434215 
L 121.10408 156.995168 
L 123.178331 155.821285 
L 125.252583 154.91123 
L 127.326834 154.262314 
L 129.401085 153.87058 
L 131.475337 153.730898 
L 133.549588 153.837062 
L 135.623839 154.181884 
L 137.698091 154.7573 
L 139.772342 155.554465 
L 141.846593 156.563858 
L 143.920845 157.775377 
L 146.686513 159.686803 
L 149.452181 161.912576 
L 152.21785 164.425705 
L 155.674935 167.929299 
L 159.132021 171.784871 
L 163.280524 176.800765 
L 168.120443 183.075599 
L 173.65178 190.638772 
L 183.33162 204.351019 
L 193.011459 217.968797 
L 199.234213 226.374527 
L 204.76555 233.497246 
L 209.60547 239.409141 
L 214.44539 244.991254 
L 219.28531 250.224573 
L 224.125229 255.098721 
L 228.273732 258.98825 
L 232.422235 262.613382 
L 236.570737 265.978708 
L 240.71924 269.091132 
L 244.867743 271.959414 
L 249.016245 274.593758 
L 253.856165 277.38658 
L 258.696085 279.895521 
L 263.536005 282.140514 
L 268.375925 284.141763 
L 273.215844 285.919337 
L 278.747181 287.702067 
L 284.278518 289.246297 
L 290.501272 290.73139 
L 296.724026 291.983066 
L 303.638197 293.138644 
L 311.243785 294.168619 
L 319.540791 295.055296 
L 328.529213 295.792561 
L 338.90047 296.420184 
L 351.345978 296.94135 
L 366.557154 297.343734 
L 386.60825 297.634218 
L 415.647769 297.812225 
L 430.167528 297.850324 
L 430.167528 297.850324 
" style="fill:none;stroke:#408fff;stroke-linecap:round;stroke-width:3;"/>
   </g>
  </g>
 </g>
 <defs>
  <clipPath id="p9e499eecc6">
   <rect height="257.35125" width="388.794375" x="59.045625" y="40.54875"/>
  </clipPath>
 </defs>
</svg>
