<?xml version="1.0" encoding="utf-8" standalone="no"?>
<!DOCTYPE svg PUBLIC "-//W3C//DTD SVG 1.1//EN"
  "http://www.w3.org/Graphics/SVG/1.1/DTD/svg11.dtd">
<!-- Created with matplotlib (https://matplotlib.org/) -->
<svg height="345.6pt" version="1.1" viewBox="0 0 460.8 345.6" width="460.8pt" xmlns="http://www.w3.org/2000/svg" xmlns:xlink="http://www.w3.org/1999/xlink">
 <defs>
  <style type="text/css">
*{stroke-linecap:butt;stroke-linejoin:round;}
  </style>
 </defs>
 <g id="figure_1">
  <g id="patch_1">
   <path d="M 0 345.6 
L 460.8 345.6 
L 460.8 0 
L 0 0 
z
" style="fill:#ffffff;"/>
  </g>
  <g id="axes_1">
   <g id="patch_2">
    <path d="M 59.045625 297.9 
L 447.84 297.9 
L 447.84 40.54875 
L 59.045625 40.54875 
z
" style="fill:#eaeaf2;"/>
   </g>
   <g id="matplotlib.axis_1">
    <g id="xtick_1">
     <g id="line2d_1">
      <path clip-path="url(#pf79ee3f82f)" d="M 85.133559 297.9 
L 85.133559 40.54875 
" style="fill:none;stroke:#ffffff;stroke-linecap:round;"/>
     </g>
     <g id="text_1">
      <!-- 0 -->
      <defs>
       <path d="M 4.15625 35.296875 
Q 4.15625 48 6.765625 55.734375 
Q 9.375 63.484375 14.515625 67.671875 
Q 19.671875 71.875 27.484375 71.875 
Q 33.25 71.875 37.59375 69.546875 
Q 41.9375 67.234375 44.765625 62.859375 
Q 47.609375 58.5 49.21875 52.21875 
Q 50.828125 45.953125 50.828125 35.296875 
Q 50.828125 22.703125 48.234375 14.96875 
Q 45.65625 7.234375 40.5 3 
Q 35.359375 -1.21875 27.484375 -1.21875 
Q 17.140625 -1.21875 11.234375 6.203125 
Q 4.15625 15.140625 4.15625 35.296875 
z
M 13.1875 35.296875 
Q 13.1875 17.671875 17.3125 11.828125 
Q 21.4375 6 27.484375 6 
Q 33.546875 6 37.671875 11.859375 
Q 41.796875 17.71875 41.796875 35.296875 
Q 41.796875 52.984375 37.671875 58.78125 
Q 33.546875 64.59375 27.390625 64.59375 
Q 21.34375 64.59375 17.71875 59.46875 
Q 13.1875 52.9375 13.1875 35.296875 
z
" id="ArialMT-48"/>
      </defs>
      <g style="fill:#262626;" transform="translate(82.075044 315.273594)scale(0.11 -0.11)">
       <use xlink:href="#ArialMT-48"/>
      </g>
     </g>
    </g>
    <g id="xtick_2">
     <g id="line2d_2">
      <path clip-path="url(#pf79ee3f82f)" d="M 169.288186 297.9 
L 169.288186 40.54875 
" style="fill:none;stroke:#ffffff;stroke-linecap:round;"/>
     </g>
     <g id="text_2">
      <!-- 5 -->
      <defs>
       <path d="M 4.15625 18.75 
L 13.375 19.53125 
Q 14.40625 12.796875 18.140625 9.390625 
Q 21.875 6 27.15625 6 
Q 33.5 6 37.890625 10.78125 
Q 42.28125 15.578125 42.28125 23.484375 
Q 42.28125 31 38.0625 35.34375 
Q 33.84375 39.703125 27 39.703125 
Q 22.75 39.703125 19.328125 37.765625 
Q 15.921875 35.84375 13.96875 32.765625 
L 5.71875 33.84375 
L 12.640625 70.609375 
L 48.25 70.609375 
L 48.25 62.203125 
L 19.671875 62.203125 
L 15.828125 42.96875 
Q 22.265625 47.46875 29.34375 47.46875 
Q 38.71875 47.46875 45.15625 40.96875 
Q 51.609375 34.46875 51.609375 24.265625 
Q 51.609375 14.546875 45.953125 7.46875 
Q 39.0625 -1.21875 27.15625 -1.21875 
Q 17.390625 -1.21875 11.203125 4.25 
Q 5.03125 9.71875 4.15625 18.75 
z
" id="ArialMT-53"/>
      </defs>
      <g style="fill:#262626;" transform="translate(166.22967 315.273594)scale(0.11 -0.11)">
       <use xlink:href="#ArialMT-53"/>
      </g>
     </g>
    </g>
    <g id="xtick_3">
     <g id="line2d_3">
      <path clip-path="url(#pf79ee3f82f)" d="M 253.442813 297.9 
L 253.442813 40.54875 
" style="fill:none;stroke:#ffffff;stroke-linecap:round;"/>
     </g>
     <g id="text_3">
      <!-- 10 -->
      <defs>
       <path d="M 37.25 0 
L 28.46875 0 
L 28.46875 56 
Q 25.296875 52.984375 20.140625 49.953125 
Q 14.984375 46.921875 10.890625 45.40625 
L 10.890625 53.90625 
Q 18.265625 57.375 23.78125 62.296875 
Q 29.296875 67.234375 31.59375 71.875 
L 37.25 71.875 
z
" id="ArialMT-49"/>
      </defs>
      <g style="fill:#262626;" transform="translate(247.325781 315.273594)scale(0.11 -0.11)">
       <use xlink:href="#ArialMT-49"/>
       <use x="55.615234" xlink:href="#ArialMT-48"/>
      </g>
     </g>
    </g>
    <g id="xtick_4">
     <g id="line2d_4">
      <path clip-path="url(#pf79ee3f82f)" d="M 337.597439 297.9 
L 337.597439 40.54875 
" style="fill:none;stroke:#ffffff;stroke-linecap:round;"/>
     </g>
     <g id="text_4">
      <!-- 15 -->
      <g style="fill:#262626;" transform="translate(331.480408 315.273594)scale(0.11 -0.11)">
       <use xlink:href="#ArialMT-49"/>
       <use x="55.615234" xlink:href="#ArialMT-53"/>
      </g>
     </g>
    </g>
    <g id="xtick_5">
     <g id="line2d_5">
      <path clip-path="url(#pf79ee3f82f)" d="M 421.752066 297.9 
L 421.752066 40.54875 
" style="fill:none;stroke:#ffffff;stroke-linecap:round;"/>
     </g>
     <g id="text_5">
      <!-- 20 -->
      <defs>
       <path d="M 50.34375 8.453125 
L 50.34375 0 
L 3.03125 0 
Q 2.9375 3.171875 4.046875 6.109375 
Q 5.859375 10.9375 9.828125 15.625 
Q 13.8125 20.3125 21.34375 26.46875 
Q 33.015625 36.03125 37.109375 41.625 
Q 41.21875 47.21875 41.21875 52.203125 
Q 41.21875 57.421875 37.46875 61 
Q 33.734375 64.59375 27.734375 64.59375 
Q 21.390625 64.59375 17.578125 60.78125 
Q 13.765625 56.984375 13.71875 50.25 
L 4.6875 51.171875 
Q 5.609375 61.28125 11.65625 66.578125 
Q 17.71875 71.875 27.9375 71.875 
Q 38.234375 71.875 44.234375 66.15625 
Q 50.25 60.453125 50.25 52 
Q 50.25 47.703125 48.484375 43.546875 
Q 46.734375 39.40625 42.65625 34.8125 
Q 38.578125 30.21875 29.109375 22.21875 
Q 21.1875 15.578125 18.9375 13.203125 
Q 16.703125 10.84375 15.234375 8.453125 
z
" id="ArialMT-50"/>
      </defs>
      <g style="fill:#262626;" transform="translate(415.635034 315.273594)scale(0.11 -0.11)">
       <use xlink:href="#ArialMT-50"/>
       <use x="55.615234" xlink:href="#ArialMT-48"/>
      </g>
     </g>
    </g>
    <g id="text_6">
     <!-- Number of Pigeons They Could Carry [pigeons] -->
     <defs>
      <path d="M 7.625 0 
L 7.625 71.578125 
L 17.328125 71.578125 
L 54.9375 15.375 
L 54.9375 71.578125 
L 64.015625 71.578125 
L 64.015625 0 
L 54.296875 0 
L 16.703125 56.25 
L 16.703125 0 
z
" id="ArialMT-78"/>
      <path d="M 40.578125 0 
L 40.578125 7.625 
Q 34.515625 -1.171875 24.125 -1.171875 
Q 19.53125 -1.171875 15.546875 0.578125 
Q 11.578125 2.34375 9.640625 5 
Q 7.71875 7.671875 6.9375 11.53125 
Q 6.390625 14.109375 6.390625 19.734375 
L 6.390625 51.859375 
L 15.1875 51.859375 
L 15.1875 23.09375 
Q 15.1875 16.21875 15.71875 13.8125 
Q 16.546875 10.359375 19.234375 8.375 
Q 21.921875 6.390625 25.875 6.390625 
Q 29.828125 6.390625 33.296875 8.421875 
Q 36.765625 10.453125 38.203125 13.9375 
Q 39.65625 17.4375 39.65625 24.078125 
L 39.65625 51.859375 
L 48.4375 51.859375 
L 48.4375 0 
z
" id="ArialMT-117"/>
      <path d="M 6.59375 0 
L 6.59375 51.859375 
L 14.453125 51.859375 
L 14.453125 44.578125 
Q 16.890625 48.390625 20.9375 50.703125 
Q 25 53.03125 30.171875 53.03125 
Q 35.9375 53.03125 39.625 50.640625 
Q 43.3125 48.25 44.828125 43.953125 
Q 50.984375 53.03125 60.84375 53.03125 
Q 68.5625 53.03125 72.703125 48.75 
Q 76.859375 44.484375 76.859375 35.59375 
L 76.859375 0 
L 68.109375 0 
L 68.109375 32.671875 
Q 68.109375 37.9375 67.25 40.25 
Q 66.40625 42.578125 64.15625 43.984375 
Q 61.921875 45.40625 58.890625 45.40625 
Q 53.421875 45.40625 49.796875 41.765625 
Q 46.1875 38.140625 46.1875 30.125 
L 46.1875 0 
L 37.40625 0 
L 37.40625 33.6875 
Q 37.40625 39.546875 35.25 42.46875 
Q 33.109375 45.40625 28.21875 45.40625 
Q 24.515625 45.40625 21.359375 43.453125 
Q 18.21875 41.5 16.796875 37.734375 
Q 15.375 33.984375 15.375 26.90625 
L 15.375 0 
z
" id="ArialMT-109"/>
      <path d="M 14.703125 0 
L 6.546875 0 
L 6.546875 71.578125 
L 15.328125 71.578125 
L 15.328125 46.046875 
Q 20.90625 53.03125 29.546875 53.03125 
Q 34.328125 53.03125 38.59375 51.09375 
Q 42.875 49.171875 45.625 45.671875 
Q 48.390625 42.1875 49.953125 37.25 
Q 51.515625 32.328125 51.515625 26.703125 
Q 51.515625 13.375 44.921875 6.09375 
Q 38.328125 -1.171875 29.109375 -1.171875 
Q 19.921875 -1.171875 14.703125 6.5 
z
M 14.59375 26.3125 
Q 14.59375 17 17.140625 12.84375 
Q 21.296875 6.0625 28.375 6.0625 
Q 34.125 6.0625 38.328125 11.0625 
Q 42.53125 16.0625 42.53125 25.984375 
Q 42.53125 36.140625 38.5 40.96875 
Q 34.46875 45.796875 28.765625 45.796875 
Q 23 45.796875 18.796875 40.796875 
Q 14.59375 35.796875 14.59375 26.3125 
z
" id="ArialMT-98"/>
      <path d="M 42.09375 16.703125 
L 51.171875 15.578125 
Q 49.03125 7.625 43.21875 3.21875 
Q 37.40625 -1.171875 28.375 -1.171875 
Q 17 -1.171875 10.328125 5.828125 
Q 3.65625 12.84375 3.65625 25.484375 
Q 3.65625 38.578125 10.390625 45.796875 
Q 17.140625 53.03125 27.875 53.03125 
Q 38.28125 53.03125 44.875 45.953125 
Q 51.46875 38.875 51.46875 26.03125 
Q 51.46875 25.25 51.421875 23.6875 
L 12.75 23.6875 
Q 13.234375 15.140625 17.578125 10.59375 
Q 21.921875 6.0625 28.421875 6.0625 
Q 33.25 6.0625 36.671875 8.59375 
Q 40.09375 11.140625 42.09375 16.703125 
z
M 13.234375 30.90625 
L 42.1875 30.90625 
Q 41.609375 37.453125 38.875 40.71875 
Q 34.671875 45.796875 27.984375 45.796875 
Q 21.921875 45.796875 17.796875 41.75 
Q 13.671875 37.703125 13.234375 30.90625 
z
" id="ArialMT-101"/>
      <path d="M 6.5 0 
L 6.5 51.859375 
L 14.40625 51.859375 
L 14.40625 44 
Q 17.4375 49.515625 20 51.265625 
Q 22.5625 53.03125 25.640625 53.03125 
Q 30.078125 53.03125 34.671875 50.203125 
L 31.640625 42.046875 
Q 28.421875 43.953125 25.203125 43.953125 
Q 22.3125 43.953125 20.015625 42.21875 
Q 17.71875 40.484375 16.75 37.40625 
Q 15.28125 32.71875 15.28125 27.15625 
L 15.28125 0 
z
" id="ArialMT-114"/>
      <path id="ArialMT-32"/>
      <path d="M 3.328125 25.921875 
Q 3.328125 40.328125 11.328125 47.265625 
Q 18.015625 53.03125 27.640625 53.03125 
Q 38.328125 53.03125 45.109375 46.015625 
Q 51.90625 39.015625 51.90625 26.65625 
Q 51.90625 16.65625 48.90625 10.90625 
Q 45.90625 5.171875 40.15625 2 
Q 34.421875 -1.171875 27.640625 -1.171875 
Q 16.75 -1.171875 10.03125 5.8125 
Q 3.328125 12.796875 3.328125 25.921875 
z
M 12.359375 25.921875 
Q 12.359375 15.96875 16.703125 11.015625 
Q 21.046875 6.0625 27.640625 6.0625 
Q 34.1875 6.0625 38.53125 11.03125 
Q 42.875 16.015625 42.875 26.21875 
Q 42.875 35.84375 38.5 40.796875 
Q 34.125 45.75 27.640625 45.75 
Q 21.046875 45.75 16.703125 40.8125 
Q 12.359375 35.890625 12.359375 25.921875 
z
" id="ArialMT-111"/>
      <path d="M 8.6875 0 
L 8.6875 45.015625 
L 0.921875 45.015625 
L 0.921875 51.859375 
L 8.6875 51.859375 
L 8.6875 57.375 
Q 8.6875 62.59375 9.625 65.140625 
Q 10.890625 68.5625 14.078125 70.671875 
Q 17.28125 72.796875 23.046875 72.796875 
Q 26.765625 72.796875 31.25 71.921875 
L 29.9375 64.265625 
Q 27.203125 64.75 24.75 64.75 
Q 20.75 64.75 19.09375 63.03125 
Q 17.4375 61.328125 17.4375 56.640625 
L 17.4375 51.859375 
L 27.546875 51.859375 
L 27.546875 45.015625 
L 17.4375 45.015625 
L 17.4375 0 
z
" id="ArialMT-102"/>
      <path d="M 7.71875 0 
L 7.71875 71.578125 
L 34.71875 71.578125 
Q 41.84375 71.578125 45.609375 70.90625 
Q 50.875 70.015625 54.4375 67.546875 
Q 58.015625 65.09375 60.1875 60.640625 
Q 62.359375 56.203125 62.359375 50.875 
Q 62.359375 41.75 56.546875 35.421875 
Q 50.734375 29.109375 35.546875 29.109375 
L 17.1875 29.109375 
L 17.1875 0 
z
M 17.1875 37.546875 
L 35.6875 37.546875 
Q 44.875 37.546875 48.734375 40.96875 
Q 52.59375 44.390625 52.59375 50.59375 
Q 52.59375 55.078125 50.3125 58.265625 
Q 48.046875 61.46875 44.34375 62.5 
Q 41.9375 63.140625 35.5 63.140625 
L 17.1875 63.140625 
z
" id="ArialMT-80"/>
      <path d="M 6.640625 61.46875 
L 6.640625 71.578125 
L 15.4375 71.578125 
L 15.4375 61.46875 
z
M 6.640625 0 
L 6.640625 51.859375 
L 15.4375 51.859375 
L 15.4375 0 
z
" id="ArialMT-105"/>
      <path d="M 4.984375 -4.296875 
L 13.53125 -5.5625 
Q 14.0625 -9.515625 16.5 -11.328125 
Q 19.78125 -13.765625 25.4375 -13.765625 
Q 31.546875 -13.765625 34.859375 -11.328125 
Q 38.1875 -8.890625 39.359375 -4.5 
Q 40.046875 -1.8125 39.984375 6.78125 
Q 34.234375 0 25.640625 0 
Q 14.9375 0 9.078125 7.71875 
Q 3.21875 15.4375 3.21875 26.21875 
Q 3.21875 33.640625 5.90625 39.90625 
Q 8.59375 46.1875 13.6875 49.609375 
Q 18.796875 53.03125 25.6875 53.03125 
Q 34.859375 53.03125 40.828125 45.609375 
L 40.828125 51.859375 
L 48.921875 51.859375 
L 48.921875 7.03125 
Q 48.921875 -5.078125 46.453125 -10.125 
Q 44 -15.1875 38.640625 -18.109375 
Q 33.296875 -21.046875 25.484375 -21.046875 
Q 16.21875 -21.046875 10.5 -16.875 
Q 4.78125 -12.703125 4.984375 -4.296875 
z
M 12.25 26.859375 
Q 12.25 16.65625 16.296875 11.96875 
Q 20.359375 7.28125 26.46875 7.28125 
Q 32.515625 7.28125 36.609375 11.9375 
Q 40.71875 16.609375 40.71875 26.5625 
Q 40.71875 36.078125 36.5 40.90625 
Q 32.28125 45.75 26.3125 45.75 
Q 20.453125 45.75 16.34375 40.984375 
Q 12.25 36.234375 12.25 26.859375 
z
" id="ArialMT-103"/>
      <path d="M 6.59375 0 
L 6.59375 51.859375 
L 14.5 51.859375 
L 14.5 44.484375 
Q 20.21875 53.03125 31 53.03125 
Q 35.6875 53.03125 39.625 51.34375 
Q 43.5625 49.65625 45.515625 46.921875 
Q 47.46875 44.1875 48.25 40.4375 
Q 48.734375 37.984375 48.734375 31.890625 
L 48.734375 0 
L 39.9375 0 
L 39.9375 31.546875 
Q 39.9375 36.921875 38.90625 39.578125 
Q 37.890625 42.234375 35.28125 43.8125 
Q 32.671875 45.40625 29.15625 45.40625 
Q 23.53125 45.40625 19.453125 41.84375 
Q 15.375 38.28125 15.375 28.328125 
L 15.375 0 
z
" id="ArialMT-110"/>
      <path d="M 3.078125 15.484375 
L 11.765625 16.84375 
Q 12.5 11.625 15.84375 8.84375 
Q 19.1875 6.0625 25.203125 6.0625 
Q 31.25 6.0625 34.171875 8.515625 
Q 37.109375 10.984375 37.109375 14.3125 
Q 37.109375 17.28125 34.515625 19 
Q 32.71875 20.171875 25.53125 21.96875 
Q 15.875 24.421875 12.140625 26.203125 
Q 8.40625 27.984375 6.46875 31.125 
Q 4.546875 34.28125 4.546875 38.09375 
Q 4.546875 41.546875 6.125 44.5 
Q 7.71875 47.46875 10.453125 49.421875 
Q 12.5 50.921875 16.03125 51.96875 
Q 19.578125 53.03125 23.640625 53.03125 
Q 29.734375 53.03125 34.34375 51.265625 
Q 38.96875 49.515625 41.15625 46.5 
Q 43.359375 43.5 44.1875 38.484375 
L 35.59375 37.3125 
Q 35.015625 41.3125 32.203125 43.546875 
Q 29.390625 45.796875 24.265625 45.796875 
Q 18.21875 45.796875 15.625 43.796875 
Q 13.03125 41.796875 13.03125 39.109375 
Q 13.03125 37.40625 14.109375 36.03125 
Q 15.1875 34.625 17.484375 33.6875 
Q 18.796875 33.203125 25.25 31.453125 
Q 34.578125 28.953125 38.25 27.359375 
Q 41.9375 25.78125 44.03125 22.75 
Q 46.140625 19.734375 46.140625 15.234375 
Q 46.140625 10.84375 43.578125 6.953125 
Q 41.015625 3.078125 36.171875 0.953125 
Q 31.34375 -1.171875 25.25 -1.171875 
Q 15.140625 -1.171875 9.84375 3.03125 
Q 4.546875 7.234375 3.078125 15.484375 
z
" id="ArialMT-115"/>
      <path d="M 25.921875 0 
L 25.921875 63.140625 
L 2.34375 63.140625 
L 2.34375 71.578125 
L 59.078125 71.578125 
L 59.078125 63.140625 
L 35.40625 63.140625 
L 35.40625 0 
z
" id="ArialMT-84"/>
      <path d="M 6.59375 0 
L 6.59375 71.578125 
L 15.375 71.578125 
L 15.375 45.90625 
Q 21.53125 53.03125 30.90625 53.03125 
Q 36.671875 53.03125 40.921875 50.75 
Q 45.171875 48.484375 47 44.484375 
Q 48.828125 40.484375 48.828125 32.859375 
L 48.828125 0 
L 40.046875 0 
L 40.046875 32.859375 
Q 40.046875 39.453125 37.1875 42.453125 
Q 34.328125 45.453125 29.109375 45.453125 
Q 25.203125 45.453125 21.75 43.421875 
Q 18.3125 41.40625 16.84375 37.9375 
Q 15.375 34.46875 15.375 28.375 
L 15.375 0 
z
" id="ArialMT-104"/>
      <path d="M 6.203125 -19.96875 
L 5.21875 -11.71875 
Q 8.109375 -12.5 10.25 -12.5 
Q 13.1875 -12.5 14.9375 -11.515625 
Q 16.703125 -10.546875 17.828125 -8.796875 
Q 18.65625 -7.46875 20.515625 -2.25 
Q 20.75 -1.515625 21.296875 -0.09375 
L 1.609375 51.859375 
L 11.078125 51.859375 
L 21.875 21.828125 
Q 23.96875 16.109375 25.640625 9.8125 
Q 27.15625 15.875 29.25 21.625 
L 40.328125 51.859375 
L 49.125 51.859375 
L 29.390625 -0.875 
Q 26.21875 -9.421875 24.46875 -12.640625 
Q 22.125 -17 19.09375 -19.015625 
Q 16.0625 -21.046875 11.859375 -21.046875 
Q 9.328125 -21.046875 6.203125 -19.96875 
z
" id="ArialMT-121"/>
      <path d="M 58.796875 25.09375 
L 68.265625 22.703125 
Q 65.28125 11.03125 57.546875 4.90625 
Q 49.8125 -1.21875 38.625 -1.21875 
Q 27.046875 -1.21875 19.796875 3.484375 
Q 12.546875 8.203125 8.765625 17.140625 
Q 4.984375 26.078125 4.984375 36.328125 
Q 4.984375 47.515625 9.25 55.828125 
Q 13.53125 64.15625 21.40625 68.46875 
Q 29.296875 72.796875 38.765625 72.796875 
Q 49.515625 72.796875 56.828125 67.328125 
Q 64.15625 61.859375 67.046875 51.953125 
L 57.71875 49.75 
Q 55.21875 57.5625 50.484375 61.125 
Q 45.75 64.703125 38.578125 64.703125 
Q 30.328125 64.703125 24.78125 60.734375 
Q 19.234375 56.78125 16.984375 50.109375 
Q 14.75 43.453125 14.75 36.375 
Q 14.75 27.25 17.40625 20.4375 
Q 20.0625 13.625 25.671875 10.25 
Q 31.296875 6.890625 37.84375 6.890625 
Q 45.796875 6.890625 51.3125 11.46875 
Q 56.84375 16.0625 58.796875 25.09375 
z
" id="ArialMT-67"/>
      <path d="M 6.390625 0 
L 6.390625 71.578125 
L 15.1875 71.578125 
L 15.1875 0 
z
" id="ArialMT-108"/>
      <path d="M 40.234375 0 
L 40.234375 6.546875 
Q 35.296875 -1.171875 25.734375 -1.171875 
Q 19.53125 -1.171875 14.328125 2.25 
Q 9.125 5.671875 6.265625 11.796875 
Q 3.421875 17.921875 3.421875 25.875 
Q 3.421875 33.640625 6 39.96875 
Q 8.59375 46.296875 13.765625 49.65625 
Q 18.953125 53.03125 25.34375 53.03125 
Q 30.03125 53.03125 33.6875 51.046875 
Q 37.359375 49.078125 39.65625 45.90625 
L 39.65625 71.578125 
L 48.390625 71.578125 
L 48.390625 0 
z
M 12.453125 25.875 
Q 12.453125 15.921875 16.640625 10.984375 
Q 20.84375 6.0625 26.5625 6.0625 
Q 32.328125 6.0625 36.34375 10.765625 
Q 40.375 15.484375 40.375 25.140625 
Q 40.375 35.796875 36.265625 40.765625 
Q 32.171875 45.75 26.171875 45.75 
Q 20.3125 45.75 16.375 40.96875 
Q 12.453125 36.1875 12.453125 25.875 
z
" id="ArialMT-100"/>
      <path d="M 40.4375 6.390625 
Q 35.546875 2.25 31.03125 0.53125 
Q 26.515625 -1.171875 21.34375 -1.171875 
Q 12.796875 -1.171875 8.203125 3 
Q 3.609375 7.171875 3.609375 13.671875 
Q 3.609375 17.484375 5.34375 20.625 
Q 7.078125 23.78125 9.890625 25.6875 
Q 12.703125 27.59375 16.21875 28.5625 
Q 18.796875 29.25 24.03125 29.890625 
Q 34.671875 31.15625 39.703125 32.90625 
Q 39.75 34.71875 39.75 35.203125 
Q 39.75 40.578125 37.25 42.78125 
Q 33.890625 45.75 27.25 45.75 
Q 21.046875 45.75 18.09375 43.578125 
Q 15.140625 41.40625 13.71875 35.890625 
L 5.125 37.0625 
Q 6.296875 42.578125 8.984375 45.96875 
Q 11.671875 49.359375 16.75 51.1875 
Q 21.828125 53.03125 28.515625 53.03125 
Q 35.15625 53.03125 39.296875 51.46875 
Q 43.453125 49.90625 45.40625 47.53125 
Q 47.359375 45.171875 48.140625 41.546875 
Q 48.578125 39.3125 48.578125 33.453125 
L 48.578125 21.734375 
Q 48.578125 9.46875 49.140625 6.21875 
Q 49.703125 2.984375 51.375 0 
L 42.1875 0 
Q 40.828125 2.734375 40.4375 6.390625 
z
M 39.703125 26.03125 
Q 34.90625 24.078125 25.34375 22.703125 
Q 19.921875 21.921875 17.671875 20.9375 
Q 15.4375 19.96875 14.203125 18.09375 
Q 12.984375 16.21875 12.984375 13.921875 
Q 12.984375 10.40625 15.640625 8.0625 
Q 18.3125 5.71875 23.4375 5.71875 
Q 28.515625 5.71875 32.46875 7.9375 
Q 36.421875 10.15625 38.28125 14.015625 
Q 39.703125 17 39.703125 22.796875 
z
" id="ArialMT-97"/>
      <path d="M 6.78125 -19.875 
L 6.78125 71.578125 
L 26.171875 71.578125 
L 26.171875 64.3125 
L 15.578125 64.3125 
L 15.578125 -12.59375 
L 26.171875 -12.59375 
L 26.171875 -19.875 
z
" id="ArialMT-91"/>
      <path d="M 6.59375 -19.875 
L 6.59375 51.859375 
L 14.59375 51.859375 
L 14.59375 45.125 
Q 17.4375 49.078125 21 51.046875 
Q 24.5625 53.03125 29.640625 53.03125 
Q 36.28125 53.03125 41.359375 49.609375 
Q 46.4375 46.1875 49.015625 39.953125 
Q 51.609375 33.734375 51.609375 26.3125 
Q 51.609375 18.359375 48.75 11.984375 
Q 45.90625 5.609375 40.453125 2.21875 
Q 35.015625 -1.171875 29 -1.171875 
Q 24.609375 -1.171875 21.109375 0.6875 
Q 17.625 2.546875 15.375 5.375 
L 15.375 -19.875 
z
M 14.546875 25.640625 
Q 14.546875 15.625 18.59375 10.84375 
Q 22.65625 6.0625 28.421875 6.0625 
Q 34.28125 6.0625 38.453125 11.015625 
Q 42.625 15.96875 42.625 26.375 
Q 42.625 36.28125 38.546875 41.203125 
Q 34.46875 46.140625 28.8125 46.140625 
Q 23.1875 46.140625 18.859375 40.890625 
Q 14.546875 35.640625 14.546875 25.640625 
z
" id="ArialMT-112"/>
      <path d="M 21.296875 -19.875 
L 1.90625 -19.875 
L 1.90625 -12.59375 
L 12.5 -12.59375 
L 12.5 64.3125 
L 1.90625 64.3125 
L 1.90625 71.578125 
L 21.296875 71.578125 
z
" id="ArialMT-93"/>
     </defs>
     <g style="fill:#262626;" transform="translate(127.390313 330.195469)scale(0.12 -0.12)">
      <use xlink:href="#ArialMT-78"/>
      <use x="72.216797" xlink:href="#ArialMT-117"/>
      <use x="127.832031" xlink:href="#ArialMT-109"/>
      <use x="211.132812" xlink:href="#ArialMT-98"/>
      <use x="266.748047" xlink:href="#ArialMT-101"/>
      <use x="322.363281" xlink:href="#ArialMT-114"/>
      <use x="355.664062" xlink:href="#ArialMT-32"/>
      <use x="383.447266" xlink:href="#ArialMT-111"/>
      <use x="439.0625" xlink:href="#ArialMT-102"/>
      <use x="466.845703" xlink:href="#ArialMT-32"/>
      <use x="494.628906" xlink:href="#ArialMT-80"/>
      <use x="561.328125" xlink:href="#ArialMT-105"/>
      <use x="583.544922" xlink:href="#ArialMT-103"/>
      <use x="639.160156" xlink:href="#ArialMT-101"/>
      <use x="694.775391" xlink:href="#ArialMT-111"/>
      <use x="750.390625" xlink:href="#ArialMT-110"/>
      <use x="806.005859" xlink:href="#ArialMT-115"/>
      <use x="856.005859" xlink:href="#ArialMT-32"/>
      <use x="883.773438" xlink:href="#ArialMT-84"/>
      <use x="944.857422" xlink:href="#ArialMT-104"/>
      <use x="1000.472656" xlink:href="#ArialMT-101"/>
      <use x="1056.087891" xlink:href="#ArialMT-121"/>
      <use x="1106.087891" xlink:href="#ArialMT-32"/>
      <use x="1133.871094" xlink:href="#ArialMT-67"/>
      <use x="1206.087891" xlink:href="#ArialMT-111"/>
      <use x="1261.703125" xlink:href="#ArialMT-117"/>
      <use x="1317.318359" xlink:href="#ArialMT-108"/>
      <use x="1339.535156" xlink:href="#ArialMT-100"/>
      <use x="1395.150391" xlink:href="#ArialMT-32"/>
      <use x="1422.933594" xlink:href="#ArialMT-67"/>
      <use x="1495.150391" xlink:href="#ArialMT-97"/>
      <use x="1550.765625" xlink:href="#ArialMT-114"/>
      <use x="1584.066406" xlink:href="#ArialMT-114"/>
      <use x="1617.367188" xlink:href="#ArialMT-121"/>
      <use x="1667.367188" xlink:href="#ArialMT-32"/>
      <use x="1695.150391" xlink:href="#ArialMT-91"/>
      <use x="1722.933594" xlink:href="#ArialMT-112"/>
      <use x="1778.548828" xlink:href="#ArialMT-105"/>
      <use x="1800.765625" xlink:href="#ArialMT-103"/>
      <use x="1856.380859" xlink:href="#ArialMT-101"/>
      <use x="1911.996094" xlink:href="#ArialMT-111"/>
      <use x="1967.611328" xlink:href="#ArialMT-110"/>
      <use x="2023.226562" xlink:href="#ArialMT-115"/>
      <use x="2073.226562" xlink:href="#ArialMT-93"/>
     </g>
    </g>
   </g>
   <g id="matplotlib.axis_2">
    <g id="ytick_1">
     <g id="line2d_6">
      <path clip-path="url(#pf79ee3f82f)" d="M 59.045625 297.9 
L 447.84 297.9 
" style="fill:none;stroke:#ffffff;stroke-linecap:round;"/>
     </g>
     <g id="text_7">
      <!-- 0.00 -->
      <defs>
       <path d="M 9.078125 0 
L 9.078125 10.015625 
L 19.09375 10.015625 
L 19.09375 0 
z
" id="ArialMT-46"/>
      </defs>
      <g style="fill:#262626;" transform="translate(28.138594 301.836797)scale(0.11 -0.11)">
       <use xlink:href="#ArialMT-48"/>
       <use x="55.615234" xlink:href="#ArialMT-46"/>
       <use x="83.398438" xlink:href="#ArialMT-48"/>
       <use x="139.013672" xlink:href="#ArialMT-48"/>
      </g>
     </g>
    </g>
    <g id="ytick_2">
     <g id="line2d_7">
      <path clip-path="url(#pf79ee3f82f)" d="M 59.045625 248.880714 
L 447.84 248.880714 
" style="fill:none;stroke:#ffffff;stroke-linecap:round;"/>
     </g>
     <g id="text_8">
      <!-- 0.05 -->
      <g style="fill:#262626;" transform="translate(28.138594 252.817511)scale(0.11 -0.11)">
       <use xlink:href="#ArialMT-48"/>
       <use x="55.615234" xlink:href="#ArialMT-46"/>
       <use x="83.398438" xlink:href="#ArialMT-48"/>
       <use x="139.013672" xlink:href="#ArialMT-53"/>
      </g>
     </g>
    </g>
    <g id="ytick_3">
     <g id="line2d_8">
      <path clip-path="url(#pf79ee3f82f)" d="M 59.045625 199.861429 
L 447.84 199.861429 
" style="fill:none;stroke:#ffffff;stroke-linecap:round;"/>
     </g>
     <g id="text_9">
      <!-- 0.10 -->
      <g style="fill:#262626;" transform="translate(28.138594 203.798225)scale(0.11 -0.11)">
       <use xlink:href="#ArialMT-48"/>
       <use x="55.615234" xlink:href="#ArialMT-46"/>
       <use x="83.398438" xlink:href="#ArialMT-49"/>
       <use x="139.013672" xlink:href="#ArialMT-48"/>
      </g>
     </g>
    </g>
    <g id="ytick_4">
     <g id="line2d_9">
      <path clip-path="url(#pf79ee3f82f)" d="M 59.045625 150.842143 
L 447.84 150.842143 
" style="fill:none;stroke:#ffffff;stroke-linecap:round;"/>
     </g>
     <g id="text_10">
      <!-- 0.15 -->
      <g style="fill:#262626;" transform="translate(28.138594 154.77894)scale(0.11 -0.11)">
       <use xlink:href="#ArialMT-48"/>
       <use x="55.615234" xlink:href="#ArialMT-46"/>
       <use x="83.398438" xlink:href="#ArialMT-49"/>
       <use x="139.013672" xlink:href="#ArialMT-53"/>
      </g>
     </g>
    </g>
    <g id="ytick_5">
     <g id="line2d_10">
      <path clip-path="url(#pf79ee3f82f)" d="M 59.045625 101.822857 
L 447.84 101.822857 
" style="fill:none;stroke:#ffffff;stroke-linecap:round;"/>
     </g>
     <g id="text_11">
      <!-- 0.20 -->
      <g style="fill:#262626;" transform="translate(28.138594 105.759654)scale(0.11 -0.11)">
       <use xlink:href="#ArialMT-48"/>
       <use x="55.615234" xlink:href="#ArialMT-46"/>
       <use x="83.398438" xlink:href="#ArialMT-50"/>
       <use x="139.013672" xlink:href="#ArialMT-48"/>
      </g>
     </g>
    </g>
    <g id="ytick_6">
     <g id="line2d_11">
      <path clip-path="url(#pf79ee3f82f)" d="M 59.045625 52.803571 
L 447.84 52.803571 
" style="fill:none;stroke:#ffffff;stroke-linecap:round;"/>
     </g>
     <g id="text_12">
      <!-- 0.25 -->
      <g style="fill:#262626;" transform="translate(28.138594 56.740368)scale(0.11 -0.11)">
       <use xlink:href="#ArialMT-48"/>
       <use x="55.615234" xlink:href="#ArialMT-46"/>
       <use x="83.398438" xlink:href="#ArialMT-50"/>
       <use x="139.013672" xlink:href="#ArialMT-53"/>
      </g>
     </g>
    </g>
    <g id="text_13">
     <!-- Probability Distribution Function [-] -->
     <defs>
      <path d="M 25.78125 7.859375 
L 27.046875 0.09375 
Q 23.34375 -0.6875 20.40625 -0.6875 
Q 15.625 -0.6875 12.984375 0.828125 
Q 10.359375 2.34375 9.28125 4.8125 
Q 8.203125 7.28125 8.203125 15.1875 
L 8.203125 45.015625 
L 1.765625 45.015625 
L 1.765625 51.859375 
L 8.203125 51.859375 
L 8.203125 64.703125 
L 16.9375 69.96875 
L 16.9375 51.859375 
L 25.78125 51.859375 
L 25.78125 45.015625 
L 16.9375 45.015625 
L 16.9375 14.703125 
Q 16.9375 10.9375 17.40625 9.859375 
Q 17.875 8.796875 18.921875 8.15625 
Q 19.96875 7.515625 21.921875 7.515625 
Q 23.390625 7.515625 25.78125 7.859375 
z
" id="ArialMT-116"/>
      <path d="M 7.71875 0 
L 7.71875 71.578125 
L 32.375 71.578125 
Q 40.71875 71.578125 45.125 70.5625 
Q 51.265625 69.140625 55.609375 65.4375 
Q 61.28125 60.640625 64.078125 53.1875 
Q 66.890625 45.75 66.890625 36.1875 
Q 66.890625 28.03125 64.984375 21.734375 
Q 63.09375 15.4375 60.109375 11.296875 
Q 57.125 7.171875 53.578125 4.796875 
Q 50.046875 2.4375 45.046875 1.21875 
Q 40.046875 0 33.546875 0 
z
M 17.1875 8.453125 
L 32.46875 8.453125 
Q 39.546875 8.453125 43.578125 9.765625 
Q 47.609375 11.078125 50 13.484375 
Q 53.375 16.84375 55.25 22.53125 
Q 57.125 28.21875 57.125 36.328125 
Q 57.125 47.5625 53.4375 53.59375 
Q 49.75 59.625 44.484375 61.671875 
Q 40.671875 63.140625 32.234375 63.140625 
L 17.1875 63.140625 
z
" id="ArialMT-68"/>
      <path d="M 8.203125 0 
L 8.203125 71.578125 
L 56.5 71.578125 
L 56.5 63.140625 
L 17.671875 63.140625 
L 17.671875 40.96875 
L 51.265625 40.96875 
L 51.265625 32.515625 
L 17.671875 32.515625 
L 17.671875 0 
z
" id="ArialMT-70"/>
      <path d="M 40.4375 19 
L 49.078125 17.875 
Q 47.65625 8.9375 41.8125 3.875 
Q 35.984375 -1.171875 27.484375 -1.171875 
Q 16.84375 -1.171875 10.375 5.78125 
Q 3.90625 12.75 3.90625 25.734375 
Q 3.90625 34.125 6.6875 40.421875 
Q 9.46875 46.734375 15.15625 49.875 
Q 20.84375 53.03125 27.546875 53.03125 
Q 35.984375 53.03125 41.359375 48.75 
Q 46.734375 44.484375 48.25 36.625 
L 39.703125 35.296875 
Q 38.484375 40.53125 35.375 43.15625 
Q 32.28125 45.796875 27.875 45.796875 
Q 21.234375 45.796875 17.078125 41.03125 
Q 12.9375 36.28125 12.9375 25.984375 
Q 12.9375 15.53125 16.9375 10.796875 
Q 20.953125 6.0625 27.390625 6.0625 
Q 32.5625 6.0625 36.03125 9.234375 
Q 39.5 12.40625 40.4375 19 
z
" id="ArialMT-99"/>
      <path d="M 3.171875 21.484375 
L 3.171875 30.328125 
L 30.171875 30.328125 
L 30.171875 21.484375 
z
" id="ArialMT-45"/>
     </defs>
     <g style="fill:#262626;" transform="translate(21.612969 260.590312)rotate(-90)scale(0.12 -0.12)">
      <use xlink:href="#ArialMT-80"/>
      <use x="66.699219" xlink:href="#ArialMT-114"/>
      <use x="100" xlink:href="#ArialMT-111"/>
      <use x="155.615234" xlink:href="#ArialMT-98"/>
      <use x="211.230469" xlink:href="#ArialMT-97"/>
      <use x="266.845703" xlink:href="#ArialMT-98"/>
      <use x="322.460938" xlink:href="#ArialMT-105"/>
      <use x="344.677734" xlink:href="#ArialMT-108"/>
      <use x="366.894531" xlink:href="#ArialMT-105"/>
      <use x="389.111328" xlink:href="#ArialMT-116"/>
      <use x="416.894531" xlink:href="#ArialMT-121"/>
      <use x="466.894531" xlink:href="#ArialMT-32"/>
      <use x="494.677734" xlink:href="#ArialMT-68"/>
      <use x="566.894531" xlink:href="#ArialMT-105"/>
      <use x="589.111328" xlink:href="#ArialMT-115"/>
      <use x="639.111328" xlink:href="#ArialMT-116"/>
      <use x="666.894531" xlink:href="#ArialMT-114"/>
      <use x="700.195312" xlink:href="#ArialMT-105"/>
      <use x="722.412109" xlink:href="#ArialMT-98"/>
      <use x="778.027344" xlink:href="#ArialMT-117"/>
      <use x="833.642578" xlink:href="#ArialMT-116"/>
      <use x="861.425781" xlink:href="#ArialMT-105"/>
      <use x="883.642578" xlink:href="#ArialMT-111"/>
      <use x="939.257812" xlink:href="#ArialMT-110"/>
      <use x="994.873047" xlink:href="#ArialMT-32"/>
      <use x="1022.65625" xlink:href="#ArialMT-70"/>
      <use x="1083.740234" xlink:href="#ArialMT-117"/>
      <use x="1139.355469" xlink:href="#ArialMT-110"/>
      <use x="1194.970703" xlink:href="#ArialMT-99"/>
      <use x="1244.970703" xlink:href="#ArialMT-116"/>
      <use x="1272.753906" xlink:href="#ArialMT-105"/>
      <use x="1294.970703" xlink:href="#ArialMT-111"/>
      <use x="1350.585938" xlink:href="#ArialMT-110"/>
      <use x="1406.201172" xlink:href="#ArialMT-32"/>
      <use x="1433.984375" xlink:href="#ArialMT-91"/>
      <use x="1461.767578" xlink:href="#ArialMT-45"/>
      <use x="1495.068359" xlink:href="#ArialMT-93"/>
     </g>
    </g>
   </g>
   <g id="patch_3">
    <path d="M 59.045625 297.9 
L 59.045625 40.54875 
" style="fill:none;stroke:#ffffff;stroke-linecap:square;stroke-linejoin:miter;stroke-width:1.25;"/>
   </g>
   <g id="patch_4">
    <path d="M 447.84 297.9 
L 447.84 40.54875 
" style="fill:none;stroke:#ffffff;stroke-linecap:square;stroke-linejoin:miter;stroke-width:1.25;"/>
   </g>
   <g id="patch_5">
    <path d="M 59.045625 297.9 
L 447.84 297.9 
" style="fill:none;stroke:#ffffff;stroke-linecap:square;stroke-linejoin:miter;stroke-width:1.25;"/>
   </g>
   <g id="patch_6">
    <path d="M 59.045625 40.54875 
L 447.84 40.54875 
" style="fill:none;stroke:#ffffff;stroke-linecap:square;stroke-linejoin:miter;stroke-width:1.25;"/>
   </g>
   <g id="text_14">
    <!-- Note: All responses rounded -->
    <defs>
     <path d="M 9.03125 41.84375 
L 9.03125 51.859375 
L 19.046875 51.859375 
L 19.046875 41.84375 
z
M 9.03125 0 
L 9.03125 10.015625 
L 19.046875 10.015625 
L 19.046875 0 
z
" id="ArialMT-58"/>
     <path d="M -0.140625 0 
L 27.34375 71.578125 
L 37.546875 71.578125 
L 66.84375 0 
L 56.0625 0 
L 47.703125 21.6875 
L 17.78125 21.6875 
L 9.90625 0 
z
M 20.515625 29.390625 
L 44.78125 29.390625 
L 37.3125 49.21875 
Q 33.890625 58.25 32.234375 64.0625 
Q 30.859375 57.171875 28.375 50.390625 
z
" id="ArialMT-65"/>
    </defs>
    <g style="fill:#262626;" transform="translate(234.003094 57.8805)scale(0.1 -0.1)">
     <use xlink:href="#ArialMT-78"/>
     <use x="72.216797" xlink:href="#ArialMT-111"/>
     <use x="127.832031" xlink:href="#ArialMT-116"/>
     <use x="155.615234" xlink:href="#ArialMT-101"/>
     <use x="211.230469" xlink:href="#ArialMT-58"/>
     <use x="239.013672" xlink:href="#ArialMT-32"/>
     <use x="266.71875" xlink:href="#ArialMT-65"/>
     <use x="333.417969" xlink:href="#ArialMT-108"/>
     <use x="355.634766" xlink:href="#ArialMT-108"/>
     <use x="377.851562" xlink:href="#ArialMT-32"/>
     <use x="405.634766" xlink:href="#ArialMT-114"/>
     <use x="438.935547" xlink:href="#ArialMT-101"/>
     <use x="494.550781" xlink:href="#ArialMT-115"/>
     <use x="544.550781" xlink:href="#ArialMT-112"/>
     <use x="600.166016" xlink:href="#ArialMT-111"/>
     <use x="655.78125" xlink:href="#ArialMT-110"/>
     <use x="711.396484" xlink:href="#ArialMT-115"/>
     <use x="761.396484" xlink:href="#ArialMT-101"/>
     <use x="817.011719" xlink:href="#ArialMT-115"/>
     <use x="867.011719" xlink:href="#ArialMT-32"/>
     <use x="894.794922" xlink:href="#ArialMT-114"/>
     <use x="928.095703" xlink:href="#ArialMT-111"/>
     <use x="983.710938" xlink:href="#ArialMT-117"/>
     <use x="1039.326172" xlink:href="#ArialMT-110"/>
     <use x="1094.941406" xlink:href="#ArialMT-100"/>
     <use x="1150.556641" xlink:href="#ArialMT-101"/>
     <use x="1206.171875" xlink:href="#ArialMT-100"/>
    </g>
    <!-- to the nearest whole pigeon. -->
    <defs>
     <path d="M 16.15625 0 
L 0.296875 51.859375 
L 9.375 51.859375 
L 17.625 21.921875 
L 20.703125 10.796875 
Q 20.90625 11.625 23.390625 21.484375 
L 31.640625 51.859375 
L 40.671875 51.859375 
L 48.4375 21.78125 
L 51.03125 11.859375 
L 54 21.875 
L 62.890625 51.859375 
L 71.4375 51.859375 
L 55.21875 0 
L 46.09375 0 
L 37.84375 31.0625 
L 35.84375 39.890625 
L 25.34375 0 
z
" id="ArialMT-119"/>
    </defs>
    <g style="fill:#262626;" transform="translate(234.003094 68.457375)scale(0.1 -0.1)">
     <use xlink:href="#ArialMT-116"/>
     <use x="27.783203" xlink:href="#ArialMT-111"/>
     <use x="83.398438" xlink:href="#ArialMT-32"/>
     <use x="111.181641" xlink:href="#ArialMT-116"/>
     <use x="138.964844" xlink:href="#ArialMT-104"/>
     <use x="194.580078" xlink:href="#ArialMT-101"/>
     <use x="250.195312" xlink:href="#ArialMT-32"/>
     <use x="277.978516" xlink:href="#ArialMT-110"/>
     <use x="333.59375" xlink:href="#ArialMT-101"/>
     <use x="389.208984" xlink:href="#ArialMT-97"/>
     <use x="444.824219" xlink:href="#ArialMT-114"/>
     <use x="478.125" xlink:href="#ArialMT-101"/>
     <use x="533.740234" xlink:href="#ArialMT-115"/>
     <use x="583.740234" xlink:href="#ArialMT-116"/>
     <use x="611.523438" xlink:href="#ArialMT-32"/>
     <use x="639.306641" xlink:href="#ArialMT-119"/>
     <use x="711.523438" xlink:href="#ArialMT-104"/>
     <use x="767.138672" xlink:href="#ArialMT-111"/>
     <use x="822.753906" xlink:href="#ArialMT-108"/>
     <use x="844.970703" xlink:href="#ArialMT-101"/>
     <use x="900.585938" xlink:href="#ArialMT-32"/>
     <use x="928.369141" xlink:href="#ArialMT-112"/>
     <use x="983.984375" xlink:href="#ArialMT-105"/>
     <use x="1006.201172" xlink:href="#ArialMT-103"/>
     <use x="1061.816406" xlink:href="#ArialMT-101"/>
     <use x="1117.431641" xlink:href="#ArialMT-111"/>
     <use x="1173.046875" xlink:href="#ArialMT-110"/>
     <use x="1228.662109" xlink:href="#ArialMT-46"/>
    </g>
    <!-- Mean = 4.9, SD = 5.4, $n$ = 20 -->
    <defs>
     <path d="M 7.421875 0 
L 7.421875 71.578125 
L 21.6875 71.578125 
L 38.625 20.90625 
Q 40.96875 13.8125 42.046875 10.296875 
Q 43.265625 14.203125 45.84375 21.78125 
L 62.984375 71.578125 
L 75.734375 71.578125 
L 75.734375 0 
L 66.609375 0 
L 66.609375 59.90625 
L 45.796875 0 
L 37.25 0 
L 16.546875 60.9375 
L 16.546875 0 
z
" id="ArialMT-77"/>
     <path d="M 52.828125 42.09375 
L 5.5625 42.09375 
L 5.5625 50.296875 
L 52.828125 50.296875 
z
M 52.828125 20.359375 
L 5.5625 20.359375 
L 5.5625 28.5625 
L 52.828125 28.5625 
z
" id="ArialMT-61"/>
     <path d="M 32.328125 0 
L 32.328125 17.140625 
L 1.265625 17.140625 
L 1.265625 25.203125 
L 33.9375 71.578125 
L 41.109375 71.578125 
L 41.109375 25.203125 
L 50.78125 25.203125 
L 50.78125 17.140625 
L 41.109375 17.140625 
L 41.109375 0 
z
M 32.328125 25.203125 
L 32.328125 57.46875 
L 9.90625 25.203125 
z
" id="ArialMT-52"/>
     <path d="M 5.46875 16.546875 
L 13.921875 17.328125 
Q 14.984375 11.375 18.015625 8.6875 
Q 21.046875 6 25.78125 6 
Q 29.828125 6 32.875 7.859375 
Q 35.9375 9.71875 37.890625 12.8125 
Q 39.84375 15.921875 41.15625 21.1875 
Q 42.484375 26.46875 42.484375 31.9375 
Q 42.484375 32.515625 42.4375 33.6875 
Q 39.796875 29.5 35.234375 26.875 
Q 30.671875 24.265625 25.34375 24.265625 
Q 16.453125 24.265625 10.296875 30.703125 
Q 4.15625 37.15625 4.15625 47.703125 
Q 4.15625 58.59375 10.578125 65.234375 
Q 17 71.875 26.65625 71.875 
Q 33.640625 71.875 39.421875 68.109375 
Q 45.21875 64.359375 48.21875 57.390625 
Q 51.21875 50.4375 51.21875 37.25 
Q 51.21875 23.53125 48.234375 15.40625 
Q 45.265625 7.28125 39.375 3.03125 
Q 33.5 -1.21875 25.59375 -1.21875 
Q 17.1875 -1.21875 11.859375 3.4375 
Q 6.546875 8.109375 5.46875 16.546875 
z
M 41.453125 48.140625 
Q 41.453125 55.71875 37.421875 60.15625 
Q 33.40625 64.59375 27.734375 64.59375 
Q 21.875 64.59375 17.53125 59.8125 
Q 13.1875 55.03125 13.1875 47.40625 
Q 13.1875 40.578125 17.3125 36.296875 
Q 21.4375 32.03125 27.484375 32.03125 
Q 33.59375 32.03125 37.515625 36.296875 
Q 41.453125 40.578125 41.453125 48.140625 
z
" id="ArialMT-57"/>
     <path d="M 8.890625 0 
L 8.890625 10.015625 
L 18.890625 10.015625 
L 18.890625 0 
Q 18.890625 -5.515625 16.9375 -8.90625 
Q 14.984375 -12.3125 10.75 -14.15625 
L 8.296875 -10.40625 
Q 11.078125 -9.1875 12.390625 -6.8125 
Q 13.71875 -4.4375 13.875 0 
z
" id="ArialMT-44"/>
     <path d="M 4.5 23 
L 13.421875 23.78125 
Q 14.0625 18.40625 16.375 14.96875 
Q 18.703125 11.53125 23.578125 9.40625 
Q 28.46875 7.28125 34.578125 7.28125 
Q 39.984375 7.28125 44.140625 8.890625 
Q 48.296875 10.5 50.3125 13.296875 
Q 52.34375 16.109375 52.34375 19.4375 
Q 52.34375 22.796875 50.390625 25.3125 
Q 48.4375 27.828125 43.953125 29.546875 
Q 41.0625 30.671875 31.203125 33.03125 
Q 21.34375 35.40625 17.390625 37.5 
Q 12.25 40.1875 9.734375 44.15625 
Q 7.234375 48.140625 7.234375 53.078125 
Q 7.234375 58.5 10.296875 63.203125 
Q 13.375 67.921875 19.28125 70.359375 
Q 25.203125 72.796875 32.421875 72.796875 
Q 40.375 72.796875 46.453125 70.234375 
Q 52.546875 67.671875 55.8125 62.6875 
Q 59.078125 57.71875 59.328125 51.421875 
L 50.25 50.734375 
Q 49.515625 57.515625 45.28125 60.984375 
Q 41.0625 64.453125 32.8125 64.453125 
Q 24.21875 64.453125 20.28125 61.296875 
Q 16.359375 58.15625 16.359375 53.71875 
Q 16.359375 49.859375 19.140625 47.359375 
Q 21.875 44.875 33.421875 42.265625 
Q 44.96875 39.65625 49.265625 37.703125 
Q 55.515625 34.8125 58.484375 30.390625 
Q 61.46875 25.984375 61.46875 20.21875 
Q 61.46875 14.5 58.203125 9.4375 
Q 54.9375 4.390625 48.796875 1.578125 
Q 42.671875 -1.21875 35.015625 -1.21875 
Q 25.296875 -1.21875 18.71875 1.609375 
Q 12.15625 4.4375 8.421875 10.125 
Q 4.6875 15.828125 4.5 23 
z
" id="ArialMT-83"/>
     <path d="M 55.71875 33.015625 
L 49.3125 0 
L 40.28125 0 
L 46.6875 32.671875 
Q 47.125 34.96875 47.359375 36.71875 
Q 47.609375 38.484375 47.609375 39.5 
Q 47.609375 43.609375 45.015625 45.890625 
Q 42.4375 48.1875 37.796875 48.1875 
Q 30.5625 48.1875 25.34375 43.375 
Q 20.125 38.578125 18.5 30.328125 
L 12.5 0 
L 3.515625 0 
L 14.109375 54.6875 
L 23.09375 54.6875 
L 21.296875 46.09375 
Q 25.046875 50.828125 30.3125 53.40625 
Q 35.59375 56 41.40625 56 
Q 48.640625 56 52.609375 52.09375 
Q 56.59375 48.1875 56.59375 41.109375 
Q 56.59375 39.359375 56.375 37.359375 
Q 56.15625 35.359375 55.71875 33.015625 
z
" id="DejaVuSans-Oblique-110"/>
    </defs>
    <g style="fill:#262626;" transform="translate(234.003094 79.151437)scale(0.1 -0.1)">
     <use transform="translate(0 0.203125)" xlink:href="#ArialMT-77"/>
     <use transform="translate(83.300781 0.203125)" xlink:href="#ArialMT-101"/>
     <use transform="translate(138.916016 0.203125)" xlink:href="#ArialMT-97"/>
     <use transform="translate(194.53125 0.203125)" xlink:href="#ArialMT-110"/>
     <use transform="translate(250.146484 0.203125)" xlink:href="#ArialMT-32"/>
     <use transform="translate(277.929688 0.203125)" xlink:href="#ArialMT-61"/>
     <use transform="translate(336.328125 0.203125)" xlink:href="#ArialMT-32"/>
     <use transform="translate(364.111328 0.203125)" xlink:href="#ArialMT-52"/>
     <use transform="translate(419.726562 0.203125)" xlink:href="#ArialMT-46"/>
     <use transform="translate(447.509766 0.203125)" xlink:href="#ArialMT-57"/>
     <use transform="translate(503.125 0.203125)" xlink:href="#ArialMT-44"/>
     <use transform="translate(530.908203 0.203125)" xlink:href="#ArialMT-32"/>
     <use transform="translate(558.691406 0.203125)" xlink:href="#ArialMT-83"/>
     <use transform="translate(625.390625 0.203125)" xlink:href="#ArialMT-68"/>
     <use transform="translate(697.607422 0.203125)" xlink:href="#ArialMT-32"/>
     <use transform="translate(725.390625 0.203125)" xlink:href="#ArialMT-61"/>
     <use transform="translate(783.789062 0.203125)" xlink:href="#ArialMT-32"/>
     <use transform="translate(811.572266 0.203125)" xlink:href="#ArialMT-53"/>
     <use transform="translate(867.1875 0.203125)" xlink:href="#ArialMT-46"/>
     <use transform="translate(894.970703 0.203125)" xlink:href="#ArialMT-52"/>
     <use transform="translate(950.585938 0.203125)" xlink:href="#ArialMT-44"/>
     <use transform="translate(978.369141 0.203125)" xlink:href="#ArialMT-32"/>
     <use transform="translate(1006.152344 0.203125)" xlink:href="#DejaVuSans-Oblique-110"/>
     <use transform="translate(1069.53125 0.203125)" xlink:href="#ArialMT-32"/>
     <use transform="translate(1097.314453 0.203125)" xlink:href="#ArialMT-61"/>
     <use transform="translate(1155.712891 0.203125)" xlink:href="#ArialMT-32"/>
     <use transform="translate(1183.496094 0.203125)" xlink:href="#ArialMT-50"/>
     <use transform="translate(1239.111328 0.203125)" xlink:href="#ArialMT-48"/>
    </g>
   </g>
   <g id="text_15">
    <!-- A Survey of Tinder: -->
    <defs>
     <path d="M 21 0 
L 1.265625 51.859375 
L 10.546875 51.859375 
L 21.6875 20.796875 
Q 23.484375 15.765625 25 10.359375 
Q 26.171875 14.453125 28.265625 20.21875 
L 39.796875 51.859375 
L 48.828125 51.859375 
L 29.203125 0 
z
" id="ArialMT-118"/>
    </defs>
    <g style="fill:#262626;" transform="translate(202.099688 21.540375)scale(0.12 -0.12)">
     <use xlink:href="#ArialMT-65"/>
     <use x="66.621094" xlink:href="#ArialMT-32"/>
     <use x="94.404297" xlink:href="#ArialMT-83"/>
     <use x="161.103516" xlink:href="#ArialMT-117"/>
     <use x="216.71875" xlink:href="#ArialMT-114"/>
     <use x="250.019531" xlink:href="#ArialMT-118"/>
     <use x="300.019531" xlink:href="#ArialMT-101"/>
     <use x="355.634766" xlink:href="#ArialMT-121"/>
     <use x="405.634766" xlink:href="#ArialMT-32"/>
     <use x="433.417969" xlink:href="#ArialMT-111"/>
     <use x="489.033203" xlink:href="#ArialMT-102"/>
     <use x="516.816406" xlink:href="#ArialMT-32"/>
     <use x="544.583984" xlink:href="#ArialMT-84"/>
     <use x="605.621094" xlink:href="#ArialMT-105"/>
     <use x="627.837891" xlink:href="#ArialMT-110"/>
     <use x="683.453125" xlink:href="#ArialMT-100"/>
     <use x="739.068359" xlink:href="#ArialMT-101"/>
     <use x="794.683594" xlink:href="#ArialMT-114"/>
     <use x="827.984375" xlink:href="#ArialMT-58"/>
    </g>
    <!-- "How many pigeons do you think you could carry?" -->
    <defs>
     <path d="M 7.03125 46.234375 
L 4.59375 59.859375 
L 4.59375 71.578125 
L 14.59375 71.578125 
L 14.59375 59.859375 
L 12.40625 46.234375 
z
M 23.1875 46.234375 
L 20.796875 59.859375 
L 20.796875 71.578125 
L 30.8125 71.578125 
L 30.8125 59.859375 
L 28.46875 46.234375 
z
" id="ArialMT-34"/>
     <path d="M 8.015625 0 
L 8.015625 71.578125 
L 17.484375 71.578125 
L 17.484375 42.1875 
L 54.6875 42.1875 
L 54.6875 71.578125 
L 64.15625 71.578125 
L 64.15625 0 
L 54.6875 0 
L 54.6875 33.734375 
L 17.484375 33.734375 
L 17.484375 0 
z
" id="ArialMT-72"/>
     <path d="M 6.640625 0 
L 6.640625 71.578125 
L 15.4375 71.578125 
L 15.4375 30.765625 
L 36.234375 51.859375 
L 47.609375 51.859375 
L 27.78125 32.625 
L 49.609375 0 
L 38.765625 0 
L 21.625 26.515625 
L 15.4375 20.5625 
L 15.4375 0 
z
" id="ArialMT-107"/>
     <path d="M 23.046875 17.625 
Q 23 19.390625 23 20.265625 
Q 23 25.4375 24.46875 29.203125 
Q 25.53125 32.03125 27.9375 34.90625 
Q 29.6875 37.015625 34.25 41.03125 
Q 38.8125 45.0625 40.171875 47.453125 
Q 41.546875 49.859375 41.546875 52.6875 
Q 41.546875 57.8125 37.546875 61.6875 
Q 33.546875 65.578125 27.734375 65.578125 
Q 22.125 65.578125 18.359375 62.0625 
Q 14.59375 58.546875 13.421875 51.078125 
L 4.390625 52.15625 
Q 5.609375 62.15625 11.640625 67.46875 
Q 17.671875 72.796875 27.59375 72.796875 
Q 38.09375 72.796875 44.34375 67.078125 
Q 50.59375 61.375 50.59375 53.265625 
Q 50.59375 48.578125 48.390625 44.625 
Q 46.1875 40.671875 39.796875 35.015625 
Q 35.5 31.203125 34.171875 29.390625 
Q 32.859375 27.59375 32.21875 25.25 
Q 31.59375 22.90625 31.5 17.625 
z
M 22.515625 0 
L 22.515625 10.015625 
L 32.515625 10.015625 
L 32.515625 0 
z
" id="ArialMT-63"/>
    </defs>
    <g style="fill:#262626;" transform="translate(118.454063 34.54875)scale(0.12 -0.12)">
     <use xlink:href="#ArialMT-34"/>
     <use x="35.498047" xlink:href="#ArialMT-72"/>
     <use x="107.714844" xlink:href="#ArialMT-111"/>
     <use x="163.330078" xlink:href="#ArialMT-119"/>
     <use x="235.546875" xlink:href="#ArialMT-32"/>
     <use x="263.330078" xlink:href="#ArialMT-109"/>
     <use x="346.630859" xlink:href="#ArialMT-97"/>
     <use x="402.246094" xlink:href="#ArialMT-110"/>
     <use x="457.861328" xlink:href="#ArialMT-121"/>
     <use x="507.861328" xlink:href="#ArialMT-32"/>
     <use x="535.644531" xlink:href="#ArialMT-112"/>
     <use x="591.259766" xlink:href="#ArialMT-105"/>
     <use x="613.476562" xlink:href="#ArialMT-103"/>
     <use x="669.091797" xlink:href="#ArialMT-101"/>
     <use x="724.707031" xlink:href="#ArialMT-111"/>
     <use x="780.322266" xlink:href="#ArialMT-110"/>
     <use x="835.9375" xlink:href="#ArialMT-115"/>
     <use x="885.9375" xlink:href="#ArialMT-32"/>
     <use x="913.720703" xlink:href="#ArialMT-100"/>
     <use x="969.335938" xlink:href="#ArialMT-111"/>
     <use x="1024.951172" xlink:href="#ArialMT-32"/>
     <use x="1052.734375" xlink:href="#ArialMT-121"/>
     <use x="1102.734375" xlink:href="#ArialMT-111"/>
     <use x="1158.349609" xlink:href="#ArialMT-117"/>
     <use x="1213.964844" xlink:href="#ArialMT-32"/>
     <use x="1241.748047" xlink:href="#ArialMT-116"/>
     <use x="1269.53125" xlink:href="#ArialMT-104"/>
     <use x="1325.146484" xlink:href="#ArialMT-105"/>
     <use x="1347.363281" xlink:href="#ArialMT-110"/>
     <use x="1402.978516" xlink:href="#ArialMT-107"/>
     <use x="1452.978516" xlink:href="#ArialMT-32"/>
     <use x="1480.761719" xlink:href="#ArialMT-121"/>
     <use x="1530.761719" xlink:href="#ArialMT-111"/>
     <use x="1586.376953" xlink:href="#ArialMT-117"/>
     <use x="1641.992188" xlink:href="#ArialMT-32"/>
     <use x="1669.775391" xlink:href="#ArialMT-99"/>
     <use x="1719.775391" xlink:href="#ArialMT-111"/>
     <use x="1775.390625" xlink:href="#ArialMT-117"/>
     <use x="1831.005859" xlink:href="#ArialMT-108"/>
     <use x="1853.222656" xlink:href="#ArialMT-100"/>
     <use x="1908.837891" xlink:href="#ArialMT-32"/>
     <use x="1936.621094" xlink:href="#ArialMT-99"/>
     <use x="1986.621094" xlink:href="#ArialMT-97"/>
     <use x="2042.236328" xlink:href="#ArialMT-114"/>
     <use x="2075.537109" xlink:href="#ArialMT-114"/>
     <use x="2108.837891" xlink:href="#ArialMT-121"/>
     <use x="2158.837891" xlink:href="#ArialMT-63"/>
     <use x="2214.453125" xlink:href="#ArialMT-34"/>
    </g>
   </g>
   <g id="legend_1">
    <g id="patch_7">
     <path d="M 374.982188 80.468437 
L 440.14 80.468437 
Q 442.34 80.468437 442.34 78.268437 
L 442.34 48.24875 
Q 442.34 46.04875 440.14 46.04875 
L 374.982188 46.04875 
Q 372.782188 46.04875 372.782188 48.24875 
L 372.782188 78.268437 
Q 372.782188 80.468437 374.982188 80.468437 
z
" style="fill:#eaeaf2;opacity:0.8;stroke:#cccccc;stroke-linejoin:miter;"/>
    </g>
    <g id="line2d_12">
     <path d="M 377.182188 54.472344 
L 399.182188 54.472344 
" style="fill:none;stroke:#408fff;stroke-linecap:round;stroke-width:3;"/>
    </g>
    <g id="line2d_13"/>
    <g id="text_16">
     <!-- Model -->
     <g style="fill:#262626;" transform="translate(407.982188 58.322344)scale(0.11 -0.11)">
      <use xlink:href="#ArialMT-77"/>
      <use x="83.300781" xlink:href="#ArialMT-111"/>
      <use x="138.916016" xlink:href="#ArialMT-100"/>
      <use x="194.53125" xlink:href="#ArialMT-101"/>
      <use x="250.146484" xlink:href="#ArialMT-108"/>
     </g>
    </g>
    <g id="patch_8">
     <path d="M 377.182188 73.882187 
L 399.182188 73.882187 
L 399.182188 66.182187 
L 377.182188 66.182187 
z
" style="fill:#ff4063;stroke:#ffffff;stroke-linejoin:miter;"/>
    </g>
    <g id="text_17">
     <!-- Data -->
     <g style="fill:#262626;" transform="translate(407.982188 73.882187)scale(0.11 -0.11)">
      <use xlink:href="#ArialMT-68"/>
      <use x="72.216797" xlink:href="#ArialMT-97"/>
      <use x="127.832031" xlink:href="#ArialMT-116"/>
      <use x="155.615234" xlink:href="#ArialMT-97"/>
     </g>
    </g>
   </g>
   <g id="patch_9">
    <path clip-path="url(#pf79ee3f82f)" d="M 76.718097 297.9 
L 93.549022 297.9 
L 93.549022 150.842143 
L 76.718097 150.842143 
z
" style="fill:#ff4063;stroke:#ffffff;stroke-linejoin:miter;"/>
   </g>
   <g id="patch_10">
    <path clip-path="url(#pf79ee3f82f)" d="M 93.549022 297.9 
L 110.379947 297.9 
L 110.379947 248.880714 
L 93.549022 248.880714 
z
" style="fill:#ff4063;stroke:#ffffff;stroke-linejoin:miter;"/>
   </g>
   <g id="patch_11">
    <path clip-path="url(#pf79ee3f82f)" d="M 110.379947 297.9 
L 127.210873 297.9 
L 127.210873 199.861429 
L 110.379947 199.861429 
z
" style="fill:#ff4063;stroke:#ffffff;stroke-linejoin:miter;"/>
   </g>
   <g id="patch_12">
    <path clip-path="url(#pf79ee3f82f)" d="M 127.210873 297.9 
L 144.041798 297.9 
L 144.041798 52.803571 
L 127.210873 52.803571 
z
" style="fill:#ff4063;stroke:#ffffff;stroke-linejoin:miter;"/>
   </g>
   <g id="patch_13">
    <path clip-path="url(#pf79ee3f82f)" d="M 144.041798 297.9 
L 160.872723 297.9 
L 160.872723 150.842143 
L 144.041798 150.842143 
z
" style="fill:#ff4063;stroke:#ffffff;stroke-linejoin:miter;"/>
   </g>
   <g id="patch_14">
    <path clip-path="url(#pf79ee3f82f)" d="M 160.872723 297.9 
L 177.703649 297.9 
L 177.703649 199.861429 
L 160.872723 199.861429 
z
" style="fill:#ff4063;stroke:#ffffff;stroke-linejoin:miter;"/>
   </g>
   <g id="patch_15">
    <path clip-path="url(#pf79ee3f82f)" d="M 177.703649 297.9 
L 194.534574 297.9 
L 194.534574 297.9 
L 177.703649 297.9 
z
" style="fill:#ff4063;stroke:#ffffff;stroke-linejoin:miter;"/>
   </g>
   <g id="patch_16">
    <path clip-path="url(#pf79ee3f82f)" d="M 194.534574 297.9 
L 211.365499 297.9 
L 211.365499 248.880714 
L 194.534574 248.880714 
z
" style="fill:#ff4063;stroke:#ffffff;stroke-linejoin:miter;"/>
   </g>
   <g id="patch_17">
    <path clip-path="url(#pf79ee3f82f)" d="M 211.365499 297.9 
L 228.196425 297.9 
L 228.196425 297.9 
L 211.365499 297.9 
z
" style="fill:#ff4063;stroke:#ffffff;stroke-linejoin:miter;"/>
   </g>
   <g id="patch_18">
    <path clip-path="url(#pf79ee3f82f)" d="M 228.196425 297.9 
L 245.02735 297.9 
L 245.02735 297.9 
L 228.196425 297.9 
z
" style="fill:#ff4063;stroke:#ffffff;stroke-linejoin:miter;"/>
   </g>
   <g id="patch_19">
    <path clip-path="url(#pf79ee3f82f)" d="M 245.02735 297.9 
L 261.858275 297.9 
L 261.858275 248.880714 
L 245.02735 248.880714 
z
" style="fill:#ff4063;stroke:#ffffff;stroke-linejoin:miter;"/>
   </g>
   <g id="patch_20">
    <path clip-path="url(#pf79ee3f82f)" d="M 261.858275 297.9 
L 278.6892 297.9 
L 278.6892 297.9 
L 261.858275 297.9 
z
" style="fill:#ff4063;stroke:#ffffff;stroke-linejoin:miter;"/>
   </g>
   <g id="patch_21">
    <path clip-path="url(#pf79ee3f82f)" d="M 278.6892 297.9 
L 295.520126 297.9 
L 295.520126 297.9 
L 278.6892 297.9 
z
" style="fill:#ff4063;stroke:#ffffff;stroke-linejoin:miter;"/>
   </g>
   <g id="patch_22">
    <path clip-path="url(#pf79ee3f82f)" d="M 295.520126 297.9 
L 312.351051 297.9 
L 312.351051 297.9 
L 295.520126 297.9 
z
" style="fill:#ff4063;stroke:#ffffff;stroke-linejoin:miter;"/>
   </g>
   <g id="patch_23">
    <path clip-path="url(#pf79ee3f82f)" d="M 312.351051 297.9 
L 329.181976 297.9 
L 329.181976 297.9 
L 312.351051 297.9 
z
" style="fill:#ff4063;stroke:#ffffff;stroke-linejoin:miter;"/>
   </g>
   <g id="patch_24">
    <path clip-path="url(#pf79ee3f82f)" d="M 329.181976 297.9 
L 346.012902 297.9 
L 346.012902 297.9 
L 329.181976 297.9 
z
" style="fill:#ff4063;stroke:#ffffff;stroke-linejoin:miter;"/>
   </g>
   <g id="patch_25">
    <path clip-path="url(#pf79ee3f82f)" d="M 346.012902 297.9 
L 362.843827 297.9 
L 362.843827 297.9 
L 346.012902 297.9 
z
" style="fill:#ff4063;stroke:#ffffff;stroke-linejoin:miter;"/>
   </g>
   <g id="patch_26">
    <path clip-path="url(#pf79ee3f82f)" d="M 362.843827 297.9 
L 379.674752 297.9 
L 379.674752 297.9 
L 362.843827 297.9 
z
" style="fill:#ff4063;stroke:#ffffff;stroke-linejoin:miter;"/>
   </g>
   <g id="patch_27">
    <path clip-path="url(#pf79ee3f82f)" d="M 379.674752 297.9 
L 396.505678 297.9 
L 396.505678 297.9 
L 379.674752 297.9 
z
" style="fill:#ff4063;stroke:#ffffff;stroke-linejoin:miter;"/>
   </g>
   <g id="patch_28">
    <path clip-path="url(#pf79ee3f82f)" d="M 396.505678 297.9 
L 413.336603 297.9 
L 413.336603 248.880714 
L 396.505678 248.880714 
z
" style="fill:#ff4063;stroke:#ffffff;stroke-linejoin:miter;"/>
   </g>
   <g id="patch_29">
    <path clip-path="url(#pf79ee3f82f)" d="M 413.336603 297.9 
L 430.167528 297.9 
L 430.167528 248.880714 
L 413.336603 248.880714 
z
" style="fill:#ff4063;stroke:#ffffff;stroke-linejoin:miter;"/>
   </g>
   <g id="PolyCollection_1">
    <defs>
     <path d="M 85.15039 -112.58076 
L 85.15039 -47.7 
L 85.841807 -47.7 
L 86.533224 -47.7 
L 87.224642 -47.7 
L 87.916059 -47.7 
L 88.607476 -47.7 
L 89.298893 -47.7 
L 89.99031 -47.7 
L 90.681727 -47.7 
L 91.373144 -47.7 
L 92.064561 -47.7 
L 92.755978 -47.7 
L 93.447396 -47.7 
L 94.138813 -47.7 
L 94.83023 -47.7 
L 95.521647 -47.7 
L 96.213064 -47.7 
L 96.904481 -47.7 
L 97.595898 -47.7 
L 98.287315 -47.7 
L 98.978732 -47.7 
L 99.67015 -47.7 
L 100.361567 -47.7 
L 101.052984 -47.7 
L 101.744401 -47.7 
L 102.435818 -47.7 
L 103.127235 -47.7 
L 103.818652 -47.7 
L 104.510069 -47.7 
L 105.201486 -47.7 
L 105.892903 -47.7 
L 106.584321 -47.7 
L 107.275738 -47.7 
L 107.967155 -47.7 
L 108.658572 -47.7 
L 109.349989 -47.7 
L 110.041406 -47.7 
L 110.732823 -47.7 
L 111.42424 -47.7 
L 112.115657 -47.7 
L 112.807075 -47.7 
L 113.498492 -47.7 
L 114.189909 -47.7 
L 114.881326 -47.7 
L 115.572743 -47.7 
L 116.26416 -47.7 
L 116.955577 -47.7 
L 117.646994 -47.7 
L 118.338411 -47.7 
L 119.029829 -47.7 
L 119.721246 -47.7 
L 120.412663 -47.7 
L 121.10408 -47.7 
L 121.795497 -47.7 
L 122.486914 -47.7 
L 123.178331 -47.7 
L 123.869748 -47.7 
L 124.561165 -47.7 
L 125.252583 -47.7 
L 125.944 -47.7 
L 126.635417 -47.7 
L 127.326834 -47.7 
L 128.018251 -47.7 
L 128.709668 -47.7 
L 129.401085 -47.7 
L 130.092502 -47.7 
L 130.783919 -47.7 
L 131.475337 -47.7 
L 132.166754 -47.7 
L 132.858171 -47.7 
L 133.549588 -47.7 
L 134.241005 -47.7 
L 134.932422 -47.7 
L 135.623839 -47.7 
L 136.315256 -47.7 
L 137.006673 -47.7 
L 137.698091 -47.7 
L 138.389508 -47.7 
L 139.080925 -47.7 
L 139.772342 -47.7 
L 140.463759 -47.7 
L 141.155176 -47.7 
L 141.846593 -47.7 
L 142.53801 -47.7 
L 143.229427 -47.7 
L 143.920845 -47.7 
L 144.612262 -47.7 
L 145.303679 -47.7 
L 145.995096 -47.7 
L 146.686513 -47.7 
L 147.37793 -47.7 
L 148.069347 -47.7 
L 148.760764 -47.7 
L 149.452181 -47.7 
L 150.143599 -47.7 
L 150.835016 -47.7 
L 151.526433 -47.7 
L 152.21785 -47.7 
L 152.909267 -47.7 
L 153.600684 -47.7 
L 154.292101 -47.7 
L 154.983518 -47.7 
L 155.674935 -47.7 
L 156.366353 -47.7 
L 157.05777 -47.7 
L 157.749187 -47.7 
L 158.440604 -47.7 
L 159.132021 -47.7 
L 159.823438 -47.7 
L 160.514855 -47.7 
L 161.206272 -47.7 
L 161.897689 -47.7 
L 162.589107 -47.7 
L 163.280524 -47.7 
L 163.971941 -47.7 
L 164.663358 -47.7 
L 165.354775 -47.7 
L 166.046192 -47.7 
L 166.737609 -47.7 
L 167.429026 -47.7 
L 168.120443 -47.7 
L 168.811861 -47.7 
L 169.503278 -47.7 
L 170.194695 -47.7 
L 170.886112 -47.7 
L 171.577529 -47.7 
L 172.268946 -47.7 
L 172.960363 -47.7 
L 173.65178 -47.7 
L 174.343197 -47.7 
L 175.034615 -47.7 
L 175.726032 -47.7 
L 176.417449 -47.7 
L 177.108866 -47.7 
L 177.800283 -47.7 
L 178.4917 -47.7 
L 179.183117 -47.7 
L 179.874534 -47.7 
L 180.565951 -47.7 
L 181.257369 -47.7 
L 181.948786 -47.7 
L 182.640203 -47.7 
L 183.33162 -47.7 
L 184.023037 -47.7 
L 184.714454 -47.7 
L 185.405871 -47.7 
L 186.097288 -47.7 
L 186.788705 -47.7 
L 187.480123 -47.7 
L 188.17154 -47.7 
L 188.862957 -47.7 
L 189.554374 -47.7 
L 190.245791 -47.7 
L 190.937208 -47.7 
L 191.628625 -47.7 
L 192.320042 -47.7 
L 193.011459 -47.7 
L 193.702877 -47.7 
L 194.394294 -47.7 
L 195.085711 -47.7 
L 195.777128 -47.7 
L 196.468545 -47.7 
L 197.159962 -47.7 
L 197.851379 -47.7 
L 198.542796 -47.7 
L 199.234213 -47.7 
L 199.925631 -47.7 
L 200.617048 -47.7 
L 201.308465 -47.7 
L 201.999882 -47.7 
L 202.691299 -47.7 
L 203.382716 -47.7 
L 204.074133 -47.7 
L 204.76555 -47.7 
L 205.456967 -47.7 
L 206.148385 -47.7 
L 206.839802 -47.7 
L 207.531219 -47.7 
L 208.222636 -47.7 
L 208.914053 -47.7 
L 209.60547 -47.7 
L 210.296887 -47.7 
L 210.988304 -47.7 
L 211.679721 -47.7 
L 212.371139 -47.7 
L 213.062556 -47.7 
L 213.753973 -47.7 
L 214.44539 -47.7 
L 215.136807 -47.7 
L 215.828224 -47.7 
L 216.519641 -47.7 
L 217.211058 -47.7 
L 217.902475 -47.7 
L 218.593893 -47.7 
L 219.28531 -47.7 
L 219.976727 -47.7 
L 220.668144 -47.7 
L 221.359561 -47.7 
L 222.050978 -47.7 
L 222.742395 -47.7 
L 223.433812 -47.7 
L 224.125229 -47.7 
L 224.816647 -47.7 
L 225.508064 -47.7 
L 226.199481 -47.7 
L 226.890898 -47.7 
L 227.582315 -47.7 
L 228.273732 -47.7 
L 228.965149 -47.7 
L 229.656566 -47.7 
L 230.347983 -47.7 
L 231.039401 -47.7 
L 231.730818 -47.7 
L 232.422235 -47.7 
L 233.113652 -47.7 
L 233.805069 -47.7 
L 234.496486 -47.7 
L 235.187903 -47.7 
L 235.87932 -47.7 
L 236.570737 -47.7 
L 237.262155 -47.7 
L 237.953572 -47.7 
L 238.644989 -47.7 
L 239.336406 -47.7 
L 240.027823 -47.7 
L 240.71924 -47.7 
L 241.410657 -47.7 
L 242.102074 -47.7 
L 242.793491 -47.7 
L 243.484909 -47.7 
L 244.176326 -47.7 
L 244.867743 -47.7 
L 245.55916 -47.7 
L 246.250577 -47.7 
L 246.941994 -47.7 
L 247.633411 -47.7 
L 248.324828 -47.7 
L 249.016245 -47.7 
L 249.707663 -47.7 
L 250.39908 -47.7 
L 251.090497 -47.7 
L 251.781914 -47.7 
L 252.473331 -47.7 
L 253.164748 -47.7 
L 253.856165 -47.7 
L 254.547582 -47.7 
L 255.238999 -47.7 
L 255.930417 -47.7 
L 256.621834 -47.7 
L 257.313251 -47.7 
L 258.004668 -47.7 
L 258.696085 -47.7 
L 259.387502 -47.7 
L 260.078919 -47.7 
L 260.770336 -47.7 
L 261.461753 -47.7 
L 262.153171 -47.7 
L 262.844588 -47.7 
L 263.536005 -47.7 
L 264.227422 -47.7 
L 264.918839 -47.7 
L 265.610256 -47.7 
L 266.301673 -47.7 
L 266.99309 -47.7 
L 267.684507 -47.7 
L 268.375925 -47.7 
L 269.067342 -47.7 
L 269.758759 -47.7 
L 270.450176 -47.7 
L 271.141593 -47.7 
L 271.83301 -47.7 
L 272.524427 -47.7 
L 273.215844 -47.7 
L 273.907261 -47.7 
L 274.598679 -47.7 
L 275.290096 -47.7 
L 275.981513 -47.7 
L 276.67293 -47.7 
L 277.364347 -47.7 
L 278.055764 -47.7 
L 278.747181 -47.7 
L 279.438598 -47.7 
L 280.130015 -47.7 
L 280.821433 -47.7 
L 281.51285 -47.7 
L 282.204267 -47.7 
L 282.895684 -47.7 
L 283.587101 -47.7 
L 284.278518 -47.7 
L 284.969935 -47.7 
L 285.661352 -47.7 
L 286.352769 -47.7 
L 287.044186 -47.7 
L 287.735604 -47.7 
L 288.427021 -47.7 
L 289.118438 -47.7 
L 289.809855 -47.7 
L 290.501272 -47.7 
L 291.192689 -47.7 
L 291.884106 -47.7 
L 292.575523 -47.7 
L 293.26694 -47.7 
L 293.958358 -47.7 
L 294.649775 -47.7 
L 295.341192 -47.7 
L 296.032609 -47.7 
L 296.724026 -47.7 
L 297.415443 -47.7 
L 298.10686 -47.7 
L 298.798277 -47.7 
L 299.489694 -47.7 
L 300.181112 -47.7 
L 300.872529 -47.7 
L 301.563946 -47.7 
L 302.255363 -47.7 
L 302.94678 -47.7 
L 303.638197 -47.7 
L 304.329614 -47.7 
L 305.021031 -47.7 
L 305.712448 -47.7 
L 306.403866 -47.7 
L 307.095283 -47.7 
L 307.7867 -47.7 
L 308.478117 -47.7 
L 309.169534 -47.7 
L 309.860951 -47.7 
L 310.552368 -47.7 
L 311.243785 -47.7 
L 311.935202 -47.7 
L 312.62662 -47.7 
L 313.318037 -47.7 
L 314.009454 -47.7 
L 314.700871 -47.7 
L 315.392288 -47.7 
L 316.083705 -47.7 
L 316.775122 -47.7 
L 317.466539 -47.7 
L 318.157956 -47.7 
L 318.849374 -47.7 
L 319.540791 -47.7 
L 320.232208 -47.7 
L 320.923625 -47.7 
L 321.615042 -47.7 
L 322.306459 -47.7 
L 322.997876 -47.7 
L 323.689293 -47.7 
L 324.38071 -47.7 
L 325.072128 -47.7 
L 325.763545 -47.7 
L 326.454962 -47.7 
L 327.146379 -47.7 
L 327.837796 -47.7 
L 328.529213 -47.7 
L 329.22063 -47.7 
L 329.912047 -47.7 
L 330.603464 -47.7 
L 331.294882 -47.7 
L 331.986299 -47.7 
L 332.677716 -47.7 
L 333.369133 -47.7 
L 334.06055 -47.7 
L 334.751967 -47.7 
L 335.443384 -47.7 
L 336.134801 -47.7 
L 336.826218 -47.7 
L 337.517636 -47.7 
L 338.209053 -47.7 
L 338.90047 -47.7 
L 339.591887 -47.7 
L 340.283304 -47.7 
L 340.974721 -47.7 
L 341.666138 -47.7 
L 342.357555 -47.7 
L 343.048972 -47.7 
L 343.74039 -47.7 
L 344.431807 -47.7 
L 345.123224 -47.7 
L 345.814641 -47.7 
L 346.506058 -47.7 
L 347.197475 -47.7 
L 347.888892 -47.7 
L 348.580309 -47.7 
L 349.271726 -47.7 
L 349.963144 -47.7 
L 350.654561 -47.7 
L 351.345978 -47.7 
L 352.037395 -47.7 
L 352.728812 -47.7 
L 353.420229 -47.7 
L 354.111646 -47.7 
L 354.803063 -47.7 
L 355.49448 -47.7 
L 356.185898 -47.7 
L 356.877315 -47.7 
L 357.568732 -47.7 
L 358.260149 -47.7 
L 358.951566 -47.7 
L 359.642983 -47.7 
L 360.3344 -47.7 
L 361.025817 -47.7 
L 361.717234 -47.7 
L 362.408652 -47.7 
L 363.100069 -47.7 
L 363.791486 -47.7 
L 364.482903 -47.7 
L 365.17432 -47.7 
L 365.865737 -47.7 
L 366.557154 -47.7 
L 367.248571 -47.7 
L 367.939988 -47.7 
L 368.631406 -47.7 
L 369.322823 -47.7 
L 370.01424 -47.7 
L 370.705657 -47.7 
L 371.397074 -47.7 
L 372.088491 -47.7 
L 372.779908 -47.7 
L 373.471325 -47.7 
L 374.162742 -47.7 
L 374.85416 -47.7 
L 375.545577 -47.7 
L 376.236994 -47.7 
L 376.928411 -47.7 
L 377.619828 -47.7 
L 378.311245 -47.7 
L 379.002662 -47.7 
L 379.694079 -47.7 
L 380.385496 -47.7 
L 381.076914 -47.7 
L 381.768331 -47.7 
L 382.459748 -47.7 
L 383.151165 -47.7 
L 383.842582 -47.7 
L 384.533999 -47.7 
L 385.225416 -47.7 
L 385.916833 -47.7 
L 386.60825 -47.7 
L 387.299668 -47.7 
L 387.991085 -47.7 
L 388.682502 -47.7 
L 389.373919 -47.7 
L 390.065336 -47.7 
L 390.756753 -47.7 
L 391.44817 -47.7 
L 392.139587 -47.7 
L 392.831004 -47.7 
L 393.522422 -47.7 
L 394.213839 -47.7 
L 394.905256 -47.7 
L 395.596673 -47.7 
L 396.28809 -47.7 
L 396.979507 -47.7 
L 397.670924 -47.7 
L 398.362341 -47.7 
L 399.053758 -47.7 
L 399.745176 -47.7 
L 400.436593 -47.7 
L 401.12801 -47.7 
L 401.819427 -47.7 
L 402.510844 -47.7 
L 403.202261 -47.7 
L 403.893678 -47.7 
L 404.585095 -47.7 
L 405.276512 -47.7 
L 405.96793 -47.7 
L 406.659347 -47.7 
L 407.350764 -47.7 
L 408.042181 -47.7 
L 408.733598 -47.7 
L 409.425015 -47.7 
L 410.116432 -47.7 
L 410.807849 -47.7 
L 411.499266 -47.7 
L 412.190684 -47.7 
L 412.882101 -47.7 
L 413.573518 -47.7 
L 414.264935 -47.7 
L 414.956352 -47.7 
L 415.647769 -47.7 
L 416.339186 -47.7 
L 417.030603 -47.7 
L 417.72202 -47.7 
L 418.413438 -47.7 
L 419.104855 -47.7 
L 419.796272 -47.7 
L 420.487689 -47.7 
L 421.179106 -47.7 
L 421.870523 -47.7 
L 422.56194 -47.7 
L 423.253357 -47.7 
L 423.944774 -47.7 
L 424.636192 -47.7 
L 425.327609 -47.7 
L 426.019026 -47.7 
L 426.710443 -47.7 
L 427.40186 -47.7 
L 428.093277 -47.7 
L 428.784694 -47.7 
L 429.476111 -47.7 
L 430.167528 -47.7 
L 430.167528 -48.193278 
L 430.167528 -48.193278 
L 429.476111 -48.203943 
L 428.784694 -48.214826 
L 428.093277 -48.225931 
L 427.40186 -48.237262 
L 426.710443 -48.248823 
L 426.019026 -48.260618 
L 425.327609 -48.272653 
L 424.636192 -48.284931 
L 423.944774 -48.297456 
L 423.253357 -48.310234 
L 422.56194 -48.32327 
L 421.870523 -48.336567 
L 421.179106 -48.350132 
L 420.487689 -48.363968 
L 419.796272 -48.378081 
L 419.104855 -48.392475 
L 418.413438 -48.407157 
L 417.72202 -48.422131 
L 417.030603 -48.437403 
L 416.339186 -48.452978 
L 415.647769 -48.468862 
L 414.956352 -48.48506 
L 414.264935 -48.501577 
L 413.573518 -48.518421 
L 412.882101 -48.535596 
L 412.190684 -48.553108 
L 411.499266 -48.570965 
L 410.807849 -48.589171 
L 410.116432 -48.607733 
L 409.425015 -48.626657 
L 408.733598 -48.645951 
L 408.042181 -48.665619 
L 407.350764 -48.68567 
L 406.659347 -48.70611 
L 405.96793 -48.726945 
L 405.276512 -48.748183 
L 404.585095 -48.76983 
L 403.893678 -48.791895 
L 403.202261 -48.814383 
L 402.510844 -48.837303 
L 401.819427 -48.860662 
L 401.12801 -48.884468 
L 400.436593 -48.908728 
L 399.745176 -48.933451 
L 399.053758 -48.958643 
L 398.362341 -48.984314 
L 397.670924 -49.010471 
L 396.979507 -49.037123 
L 396.28809 -49.064278 
L 395.596673 -49.091945 
L 394.905256 -49.120132 
L 394.213839 -49.148848 
L 393.522422 -49.178102 
L 392.831004 -49.207903 
L 392.139587 -49.238261 
L 391.44817 -49.269184 
L 390.756753 -49.300683 
L 390.065336 -49.332765 
L 389.373919 -49.365442 
L 388.682502 -49.398724 
L 387.991085 -49.432619 
L 387.299668 -49.467138 
L 386.60825 -49.502292 
L 385.916833 -49.53809 
L 385.225416 -49.574544 
L 384.533999 -49.611663 
L 383.842582 -49.649459 
L 383.151165 -49.687943 
L 382.459748 -49.727125 
L 381.768331 -49.767017 
L 381.076914 -49.80763 
L 380.385496 -49.848976 
L 379.694079 -49.891067 
L 379.002662 -49.933913 
L 378.311245 -49.977528 
L 377.619828 -50.021922 
L 376.928411 -50.06711 
L 376.236994 -50.113102 
L 375.545577 -50.159911 
L 374.85416 -50.207551 
L 374.162742 -50.256033 
L 373.471325 -50.305372 
L 372.779908 -50.355579 
L 372.088491 -50.40667 
L 371.397074 -50.458656 
L 370.705657 -50.511552 
L 370.01424 -50.565371 
L 369.322823 -50.620127 
L 368.631406 -50.675835 
L 367.939988 -50.732509 
L 367.248571 -50.790163 
L 366.557154 -50.848812 
L 365.865737 -50.908471 
L 365.17432 -50.969154 
L 364.482903 -51.030877 
L 363.791486 -51.093655 
L 363.100069 -51.157503 
L 362.408652 -51.222438 
L 361.717234 -51.288474 
L 361.025817 -51.355627 
L 360.3344 -51.423915 
L 359.642983 -51.493352 
L 358.951566 -51.563956 
L 358.260149 -51.635743 
L 357.568732 -51.70873 
L 356.877315 -51.782934 
L 356.185898 -51.858371 
L 355.49448 -51.93506 
L 354.803063 -52.013017 
L 354.111646 -52.09226 
L 353.420229 -52.172807 
L 352.728812 -52.254676 
L 352.037395 -52.337885 
L 351.345978 -52.422452 
L 350.654561 -52.508395 
L 349.963144 -52.595734 
L 349.271726 -52.684486 
L 348.580309 -52.774671 
L 347.888892 -52.866308 
L 347.197475 -52.959417 
L 346.506058 -53.054015 
L 345.814641 -53.150124 
L 345.123224 -53.247762 
L 344.431807 -53.34695 
L 343.74039 -53.447708 
L 343.048972 -53.550055 
L 342.357555 -53.654012 
L 341.666138 -53.7596 
L 340.974721 -53.866839 
L 340.283304 -53.97575 
L 339.591887 -54.086354 
L 338.90047 -54.198672 
L 338.209053 -54.312725 
L 337.517636 -54.428534 
L 336.826218 -54.546121 
L 336.134801 -54.665508 
L 335.443384 -54.786716 
L 334.751967 -54.909767 
L 334.06055 -55.034683 
L 333.369133 -55.161487 
L 332.677716 -55.2902 
L 331.986299 -55.420845 
L 331.294882 -55.553444 
L 330.603464 -55.688021 
L 329.912047 -55.824597 
L 329.22063 -55.963196 
L 328.529213 -56.10384 
L 327.837796 -56.246553 
L 327.146379 -56.391357 
L 326.454962 -56.538276 
L 325.763545 -56.687334 
L 325.072128 -56.838553 
L 324.38071 -56.991957 
L 323.689293 -57.147569 
L 322.997876 -57.305414 
L 322.306459 -57.465515 
L 321.615042 -57.627896 
L 320.923625 -57.79258 
L 320.232208 -57.959591 
L 319.540791 -58.128954 
L 318.849374 -58.300692 
L 318.157956 -58.474829 
L 317.466539 -58.65139 
L 316.775122 -58.830398 
L 316.083705 -59.011878 
L 315.392288 -59.195853 
L 314.700871 -59.382347 
L 314.009454 -59.571386 
L 313.318037 -59.762992 
L 312.62662 -59.957191 
L 311.935202 -60.154005 
L 311.243785 -60.35346 
L 310.552368 -60.555578 
L 309.860951 -60.760385 
L 309.169534 -60.967904 
L 308.478117 -61.178159 
L 307.7867 -61.391173 
L 307.095283 -61.606972 
L 306.403866 -61.825577 
L 305.712448 -62.047013 
L 305.021031 -62.271303 
L 304.329614 -62.498472 
L 303.638197 -62.728541 
L 302.94678 -62.961534 
L 302.255363 -63.197474 
L 301.563946 -63.436385 
L 300.872529 -63.678288 
L 300.181112 -63.923207 
L 299.489694 -64.171164 
L 298.798277 -64.42218 
L 298.10686 -64.676279 
L 297.415443 -64.933482 
L 296.724026 -65.193811 
L 296.032609 -65.457287 
L 295.341192 -65.723931 
L 294.649775 -65.993765 
L 293.958358 -66.266809 
L 293.26694 -66.543083 
L 292.575523 -66.822607 
L 291.884106 -67.105403 
L 291.192689 -67.391489 
L 290.501272 -67.680884 
L 289.809855 -67.973607 
L 289.118438 -68.269678 
L 288.427021 -68.569114 
L 287.735604 -68.871933 
L 287.044186 -69.178153 
L 286.352769 -69.487791 
L 285.661352 -69.800864 
L 284.969935 -70.117388 
L 284.278518 -70.437378 
L 283.587101 -70.760852 
L 282.895684 -71.087823 
L 282.204267 -71.418306 
L 281.51285 -71.752315 
L 280.821433 -72.089864 
L 280.130015 -72.430966 
L 279.438598 -72.775634 
L 278.747181 -73.123878 
L 278.055764 -73.475712 
L 277.364347 -73.831145 
L 276.67293 -74.190189 
L 275.981513 -74.552852 
L 275.290096 -74.919144 
L 274.598679 -75.289073 
L 273.907261 -75.662648 
L 273.215844 -76.039874 
L 272.524427 -76.420759 
L 271.83301 -76.805309 
L 271.141593 -77.193528 
L 270.450176 -77.585421 
L 269.758759 -77.980991 
L 269.067342 -78.380241 
L 268.375925 -78.783173 
L 267.684507 -79.189789 
L 266.99309 -79.600089 
L 266.301673 -80.014072 
L 265.610256 -80.431738 
L 264.918839 -80.853083 
L 264.227422 -81.278106 
L 263.536005 -81.706802 
L 262.844588 -82.139167 
L 262.153171 -82.575194 
L 261.461753 -83.014877 
L 260.770336 -83.458209 
L 260.078919 -83.905181 
L 259.387502 -84.355783 
L 258.696085 -84.810004 
L 258.004668 -85.267834 
L 257.313251 -85.729259 
L 256.621834 -86.194265 
L 255.930417 -86.662838 
L 255.238999 -87.134962 
L 254.547582 -87.61062 
L 253.856165 -88.089793 
L 253.164748 -88.572462 
L 252.473331 -89.058607 
L 251.781914 -89.548205 
L 251.090497 -90.041235 
L 250.39908 -90.537672 
L 249.707663 -91.03749 
L 249.016245 -91.540663 
L 248.324828 -92.047164 
L 247.633411 -92.556962 
L 246.941994 -93.070029 
L 246.250577 -93.586331 
L 245.55916 -94.105836 
L 244.867743 -94.628509 
L 244.176326 -95.154315 
L 243.484909 -95.683217 
L 242.793491 -96.215176 
L 242.102074 -96.750152 
L 241.410657 -97.288105 
L 240.71924 -97.82899 
L 240.027823 -98.372764 
L 239.336406 -98.919382 
L 238.644989 -99.468796 
L 237.953572 -100.020958 
L 237.262155 -100.575818 
L 236.570737 -101.133324 
L 235.87932 -101.693424 
L 235.187903 -102.256062 
L 234.496486 -102.821183 
L 233.805069 -103.388729 
L 233.113652 -103.95864 
L 232.422235 -104.530857 
L 231.730818 -105.105316 
L 231.039401 -105.681955 
L 230.347983 -106.260707 
L 229.656566 -106.841506 
L 228.965149 -107.424282 
L 228.273732 -108.008967 
L 227.582315 -108.595487 
L 226.890898 -109.183769 
L 226.199481 -109.77374 
L 225.508064 -110.36532 
L 224.816647 -110.958434 
L 224.125229 -111.552999 
L 223.433812 -112.148936 
L 222.742395 -112.746161 
L 222.050978 -113.344589 
L 221.359561 -113.944134 
L 220.668144 -114.544707 
L 219.976727 -115.14622 
L 219.28531 -115.74858 
L 218.593893 -116.351695 
L 217.902475 -116.955471 
L 217.211058 -117.559811 
L 216.519641 -118.164618 
L 215.828224 -118.769792 
L 215.136807 -119.375233 
L 214.44539 -119.980837 
L 213.753973 -120.586502 
L 213.062556 -121.192121 
L 212.371139 -121.797588 
L 211.679721 -122.402793 
L 210.988304 -123.007626 
L 210.296887 -123.611976 
L 209.60547 -124.215729 
L 208.914053 -124.818771 
L 208.222636 -125.420986 
L 207.531219 -126.022256 
L 206.839802 -126.622462 
L 206.148385 -127.221483 
L 205.456967 -127.819197 
L 204.76555 -128.415482 
L 204.074133 -129.010213 
L 203.382716 -129.603264 
L 202.691299 -130.194507 
L 201.999882 -130.783815 
L 201.308465 -131.371057 
L 200.617048 -131.956103 
L 199.925631 -132.538819 
L 199.234213 -133.119074 
L 198.542796 -133.696733 
L 197.851379 -134.271659 
L 197.159962 -134.843717 
L 196.468545 -135.412768 
L 195.777128 -135.978675 
L 195.085711 -136.541297 
L 194.394294 -137.100494 
L 193.702877 -137.656124 
L 193.011459 -138.208045 
L 192.320042 -138.756113 
L 191.628625 -139.300186 
L 190.937208 -139.840119 
L 190.245791 -140.375765 
L 189.554374 -140.906979 
L 188.862957 -141.433615 
L 188.17154 -141.955525 
L 187.480123 -142.472562 
L 186.788705 -142.984578 
L 186.097288 -143.491424 
L 185.405871 -143.992951 
L 184.714454 -144.489011 
L 184.023037 -144.979454 
L 183.33162 -145.46413 
L 182.640203 -145.94289 
L 181.948786 -146.415584 
L 181.257369 -146.882063 
L 180.565951 -147.342175 
L 179.874534 -147.795773 
L 179.183117 -148.242706 
L 178.4917 -148.682824 
L 177.800283 -149.11598 
L 177.108866 -149.542024 
L 176.417449 -149.960807 
L 175.726032 -150.372183 
L 175.034615 -150.776004 
L 174.343197 -151.172123 
L 173.65178 -151.560394 
L 172.960363 -151.940672 
L 172.268946 -152.312812 
L 171.577529 -152.676671 
L 170.886112 -153.032106 
L 170.194695 -153.378975 
L 169.503278 -153.717138 
L 168.811861 -154.046455 
L 168.120443 -154.366788 
L 167.429026 -154.678 
L 166.737609 -154.979955 
L 166.046192 -155.27252 
L 165.354775 -155.555561 
L 164.663358 -155.828948 
L 163.971941 -156.092551 
L 163.280524 -156.346243 
L 162.589107 -156.589898 
L 161.897689 -156.823391 
L 161.206272 -157.046601 
L 160.514855 -157.259408 
L 159.823438 -157.461693 
L 159.132021 -157.653342 
L 158.440604 -157.834241 
L 157.749187 -158.004279 
L 157.05777 -158.163346 
L 156.366353 -158.311338 
L 155.674935 -158.448149 
L 154.983518 -158.57368 
L 154.292101 -158.687833 
L 153.600684 -158.79051 
L 152.909267 -158.88162 
L 152.21785 -158.961074 
L 151.526433 -159.028784 
L 150.835016 -159.084666 
L 150.143599 -159.128641 
L 149.452181 -159.16063 
L 148.760764 -159.180561 
L 148.069347 -159.188361 
L 147.37793 -159.183964 
L 146.686513 -159.167307 
L 145.995096 -159.138328 
L 145.303679 -159.096971 
L 144.612262 -159.043183 
L 143.920845 -158.976916 
L 143.229427 -158.898123 
L 142.53801 -158.806762 
L 141.846593 -158.702797 
L 141.155176 -158.586194 
L 140.463759 -158.456922 
L 139.772342 -158.314957 
L 139.080925 -158.160276 
L 138.389508 -157.992863 
L 137.698091 -157.812704 
L 137.006673 -157.61979 
L 136.315256 -157.414118 
L 135.623839 -157.195687 
L 134.932422 -156.9645 
L 134.241005 -156.720568 
L 133.549588 -156.463903 
L 132.858171 -156.194523 
L 132.166754 -155.91245 
L 131.475337 -155.617711 
L 130.783919 -155.310337 
L 130.092502 -154.990364 
L 129.401085 -154.657834 
L 128.709668 -154.312791 
L 128.018251 -153.955285 
L 127.326834 -153.585372 
L 126.635417 -153.20311 
L 125.944 -152.808564 
L 125.252583 -152.401803 
L 124.561165 -151.982901 
L 123.869748 -151.551935 
L 123.178331 -151.108989 
L 122.486914 -150.654151 
L 121.795497 -150.187514 
L 121.10408 -149.709174 
L 120.412663 -149.219234 
L 119.721246 -148.7178 
L 119.029829 -148.204984 
L 118.338411 -147.680902 
L 117.646994 -147.145674 
L 116.955577 -146.599425 
L 116.26416 -146.042286 
L 115.572743 -145.474391 
L 114.881326 -144.895878 
L 114.189909 -144.30689 
L 113.498492 -143.707576 
L 112.807075 -143.098087 
L 112.115657 -142.47858 
L 111.42424 -141.849214 
L 110.732823 -141.210155 
L 110.041406 -140.561572 
L 109.349989 -139.903638 
L 108.658572 -139.236529 
L 107.967155 -138.560426 
L 107.275738 -137.875515 
L 106.584321 -137.181983 
L 105.892903 -136.480023 
L 105.201486 -135.769831 
L 104.510069 -135.051606 
L 103.818652 -134.325551 
L 103.127235 -133.591872 
L 102.435818 -132.850779 
L 101.744401 -132.102484 
L 101.052984 -131.347204 
L 100.361567 -130.585156 
L 99.67015 -129.816563 
L 98.978732 -129.041648 
L 98.287315 -128.26064 
L 97.595898 -127.473766 
L 96.904481 -126.681259 
L 96.213064 -125.883354 
L 95.521647 -125.080287 
L 94.83023 -124.272296 
L 94.138813 -123.459621 
L 93.447396 -122.642505 
L 92.755978 -121.821192 
L 92.064561 -120.995928 
L 91.373144 -120.166958 
L 90.681727 -119.334531 
L 89.99031 -118.498897 
L 89.298893 -117.660305 
L 88.607476 -116.819008 
L 87.916059 -115.975256 
L 87.224642 -115.129302 
L 86.533224 -114.281399 
L 85.841807 -113.431801 
L 85.15039 -112.58076 
z
" id="m9c535beddc" style="stroke:#408fff;stroke-opacity:0.2;"/>
    </defs>
    <g clip-path="url(#pf79ee3f82f)">
     <use style="fill:#408fff;fill-opacity:0.2;stroke:#408fff;stroke-opacity:0.2;" x="0" xlink:href="#m9c535beddc" y="345.6"/>
    </g>
   </g>
   <g id="line2d_14">
    <path clip-path="url(#pf79ee3f82f)" d="M 85.15039 233.01924 
L 93.447396 222.957495 
L 98.978732 216.558352 
L 103.818652 211.274449 
L 107.967155 207.039574 
L 112.115657 203.12142 
L 115.572743 200.125609 
L 119.029829 197.395016 
L 122.486914 194.945849 
L 125.944 192.791436 
L 129.401085 190.942166 
L 132.166754 189.68755 
L 134.932422 188.6355 
L 137.698091 187.787296 
L 140.463759 187.143078 
L 143.229427 186.701877 
L 145.995096 186.461672 
L 148.760764 186.419439 
L 151.526433 186.571216 
L 154.292101 186.912167 
L 157.05777 187.436654 
L 160.514855 188.340592 
L 163.971941 189.507449 
L 167.429026 190.922 
L 170.886112 192.567894 
L 175.034615 194.823996 
L 179.183117 197.357294 
L 183.33162 200.13587 
L 188.17154 203.644475 
L 193.702877 207.943876 
L 199.925631 213.061181 
L 208.914053 220.781229 
L 230.347983 239.339293 
L 237.953572 245.579042 
L 244.867743 250.971491 
L 251.090497 255.558765 
L 257.313251 259.870741 
L 263.536005 263.893198 
L 269.067342 267.219759 
L 274.598679 270.310927 
L 280.130015 273.169034 
L 285.661352 275.799136 
L 291.192689 278.208511 
L 297.415443 280.666518 
L 303.638197 282.871459 
L 309.860951 284.839615 
L 316.083705 286.588122 
L 322.997876 288.294586 
L 329.912047 289.775403 
L 337.517636 291.171466 
L 345.814641 292.449876 
L 354.111646 293.50774 
L 363.791486 294.506345 
L 374.162742 295.343967 
L 385.916833 296.06191 
L 399.053758 296.641357 
L 414.956352 297.11494 
L 430.167528 297.406722 
L 430.167528 297.406722 
" style="fill:none;stroke:#408fff;stroke-linecap:round;stroke-width:3;"/>
   </g>
  </g>
 </g>
 <defs>
  <clipPath id="pf79ee3f82f">
   <rect height="257.35125" width="388.794375" x="59.045625" y="40.54875"/>
  </clipPath>
 </defs>
</svg>
