<?xml version="1.0" encoding="utf-8" standalone="no"?>
<!DOCTYPE svg PUBLIC "-//W3C//DTD SVG 1.1//EN"
  "http://www.w3.org/Graphics/SVG/1.1/DTD/svg11.dtd">
<!-- Created with matplotlib (https://matplotlib.org/) -->
<svg height="345.6pt" version="1.1" viewBox="0 0 460.8 345.6" width="460.8pt" xmlns="http://www.w3.org/2000/svg" xmlns:xlink="http://www.w3.org/1999/xlink">
 <defs>
  <style type="text/css">
*{stroke-linecap:butt;stroke-linejoin:round;}
  </style>
 </defs>
 <g id="figure_1">
  <g id="patch_1">
   <path d="M 0 345.6 
L 460.8 345.6 
L 460.8 0 
L 0 0 
z
" style="fill:#ffffff;"/>
  </g>
  <g id="axes_1">
   <g id="patch_2">
    <path d="M 59.045625 297.9 
L 447.84 297.9 
L 447.84 40.54875 
L 59.045625 40.54875 
z
" style="fill:#eaeaf2;"/>
   </g>
   <g id="matplotlib.axis_1">
    <g id="xtick_1">
     <g id="line2d_1">
      <path clip-path="url(#p1a24a92751)" d="M 92.78398 297.9 
L 92.78398 40.54875 
" style="fill:none;stroke:#ffffff;stroke-linecap:round;"/>
     </g>
     <g id="text_1">
      <!-- 0 -->
      <defs>
       <path d="M 4.15625 35.296875 
Q 4.15625 48 6.765625 55.734375 
Q 9.375 63.484375 14.515625 67.671875 
Q 19.671875 71.875 27.484375 71.875 
Q 33.25 71.875 37.59375 69.546875 
Q 41.9375 67.234375 44.765625 62.859375 
Q 47.609375 58.5 49.21875 52.21875 
Q 50.828125 45.953125 50.828125 35.296875 
Q 50.828125 22.703125 48.234375 14.96875 
Q 45.65625 7.234375 40.5 3 
Q 35.359375 -1.21875 27.484375 -1.21875 
Q 17.140625 -1.21875 11.234375 6.203125 
Q 4.15625 15.140625 4.15625 35.296875 
z
M 13.1875 35.296875 
Q 13.1875 17.671875 17.3125 11.828125 
Q 21.4375 6 27.484375 6 
Q 33.546875 6 37.671875 11.859375 
Q 41.796875 17.71875 41.796875 35.296875 
Q 41.796875 52.984375 37.671875 58.78125 
Q 33.546875 64.59375 27.390625 64.59375 
Q 21.34375 64.59375 17.71875 59.46875 
Q 13.1875 52.9375 13.1875 35.296875 
z
" id="ArialMT-48"/>
      </defs>
      <g style="fill:#262626;" transform="translate(89.725464 315.273594)scale(0.11 -0.11)">
       <use xlink:href="#ArialMT-48"/>
      </g>
     </g>
    </g>
    <g id="xtick_2">
     <g id="line2d_2">
      <path clip-path="url(#p1a24a92751)" d="M 157.047513 297.9 
L 157.047513 40.54875 
" style="fill:none;stroke:#ffffff;stroke-linecap:round;"/>
     </g>
     <g id="text_2">
      <!-- 2 -->
      <defs>
       <path d="M 50.34375 8.453125 
L 50.34375 0 
L 3.03125 0 
Q 2.9375 3.171875 4.046875 6.109375 
Q 5.859375 10.9375 9.828125 15.625 
Q 13.8125 20.3125 21.34375 26.46875 
Q 33.015625 36.03125 37.109375 41.625 
Q 41.21875 47.21875 41.21875 52.203125 
Q 41.21875 57.421875 37.46875 61 
Q 33.734375 64.59375 27.734375 64.59375 
Q 21.390625 64.59375 17.578125 60.78125 
Q 13.765625 56.984375 13.71875 50.25 
L 4.6875 51.171875 
Q 5.609375 61.28125 11.65625 66.578125 
Q 17.71875 71.875 27.9375 71.875 
Q 38.234375 71.875 44.234375 66.15625 
Q 50.25 60.453125 50.25 52 
Q 50.25 47.703125 48.484375 43.546875 
Q 46.734375 39.40625 42.65625 34.8125 
Q 38.578125 30.21875 29.109375 22.21875 
Q 21.1875 15.578125 18.9375 13.203125 
Q 16.703125 10.84375 15.234375 8.453125 
z
" id="ArialMT-50"/>
      </defs>
      <g style="fill:#262626;" transform="translate(153.988997 315.273594)scale(0.11 -0.11)">
       <use xlink:href="#ArialMT-50"/>
      </g>
     </g>
    </g>
    <g id="xtick_3">
     <g id="line2d_3">
      <path clip-path="url(#p1a24a92751)" d="M 221.311046 297.9 
L 221.311046 40.54875 
" style="fill:none;stroke:#ffffff;stroke-linecap:round;"/>
     </g>
     <g id="text_3">
      <!-- 4 -->
      <defs>
       <path d="M 32.328125 0 
L 32.328125 17.140625 
L 1.265625 17.140625 
L 1.265625 25.203125 
L 33.9375 71.578125 
L 41.109375 71.578125 
L 41.109375 25.203125 
L 50.78125 25.203125 
L 50.78125 17.140625 
L 41.109375 17.140625 
L 41.109375 0 
z
M 32.328125 25.203125 
L 32.328125 57.46875 
L 9.90625 25.203125 
z
" id="ArialMT-52"/>
      </defs>
      <g style="fill:#262626;" transform="translate(218.25253 315.273594)scale(0.11 -0.11)">
       <use xlink:href="#ArialMT-52"/>
      </g>
     </g>
    </g>
    <g id="xtick_4">
     <g id="line2d_4">
      <path clip-path="url(#p1a24a92751)" d="M 285.574579 297.9 
L 285.574579 40.54875 
" style="fill:none;stroke:#ffffff;stroke-linecap:round;"/>
     </g>
     <g id="text_4">
      <!-- 6 -->
      <defs>
       <path d="M 49.75 54.046875 
L 41.015625 53.375 
Q 39.84375 58.546875 37.703125 60.890625 
Q 34.125 64.65625 28.90625 64.65625 
Q 24.703125 64.65625 21.53125 62.3125 
Q 17.390625 59.28125 14.984375 53.46875 
Q 12.59375 47.65625 12.5 36.921875 
Q 15.671875 41.75 20.265625 44.09375 
Q 24.859375 46.4375 29.890625 46.4375 
Q 38.671875 46.4375 44.84375 39.96875 
Q 51.03125 33.5 51.03125 23.25 
Q 51.03125 16.5 48.125 10.71875 
Q 45.21875 4.9375 40.140625 1.859375 
Q 35.0625 -1.21875 28.609375 -1.21875 
Q 17.625 -1.21875 10.6875 6.859375 
Q 3.765625 14.9375 3.765625 33.5 
Q 3.765625 54.25 11.421875 63.671875 
Q 18.109375 71.875 29.4375 71.875 
Q 37.890625 71.875 43.28125 67.140625 
Q 48.6875 62.40625 49.75 54.046875 
z
M 13.875 23.1875 
Q 13.875 18.65625 15.796875 14.5 
Q 17.71875 10.359375 21.1875 8.171875 
Q 24.65625 6 28.46875 6 
Q 34.03125 6 38.03125 10.484375 
Q 42.046875 14.984375 42.046875 22.703125 
Q 42.046875 30.125 38.078125 34.390625 
Q 34.125 38.671875 28.125 38.671875 
Q 22.171875 38.671875 18.015625 34.390625 
Q 13.875 30.125 13.875 23.1875 
z
" id="ArialMT-54"/>
      </defs>
      <g style="fill:#262626;" transform="translate(282.516063 315.273594)scale(0.11 -0.11)">
       <use xlink:href="#ArialMT-54"/>
      </g>
     </g>
    </g>
    <g id="xtick_5">
     <g id="line2d_5">
      <path clip-path="url(#p1a24a92751)" d="M 349.838112 297.9 
L 349.838112 40.54875 
" style="fill:none;stroke:#ffffff;stroke-linecap:round;"/>
     </g>
     <g id="text_5">
      <!-- 8 -->
      <defs>
       <path d="M 17.671875 38.8125 
Q 12.203125 40.828125 9.5625 44.53125 
Q 6.9375 48.25 6.9375 53.421875 
Q 6.9375 61.234375 12.546875 66.546875 
Q 18.171875 71.875 27.484375 71.875 
Q 36.859375 71.875 42.578125 66.421875 
Q 48.296875 60.984375 48.296875 53.171875 
Q 48.296875 48.1875 45.671875 44.5 
Q 43.0625 40.828125 37.75 38.8125 
Q 44.34375 36.671875 47.78125 31.875 
Q 51.21875 27.09375 51.21875 20.453125 
Q 51.21875 11.28125 44.71875 5.03125 
Q 38.234375 -1.21875 27.640625 -1.21875 
Q 17.046875 -1.21875 10.546875 5.046875 
Q 4.046875 11.328125 4.046875 20.703125 
Q 4.046875 27.6875 7.59375 32.390625 
Q 11.140625 37.109375 17.671875 38.8125 
z
M 15.921875 53.71875 
Q 15.921875 48.640625 19.1875 45.40625 
Q 22.46875 42.1875 27.6875 42.1875 
Q 32.765625 42.1875 36.015625 45.375 
Q 39.265625 48.578125 39.265625 53.21875 
Q 39.265625 58.0625 35.90625 61.359375 
Q 32.5625 64.65625 27.59375 64.65625 
Q 22.5625 64.65625 19.234375 61.421875 
Q 15.921875 58.203125 15.921875 53.71875 
z
M 13.09375 20.65625 
Q 13.09375 16.890625 14.875 13.375 
Q 16.65625 9.859375 20.171875 7.921875 
Q 23.6875 6 27.734375 6 
Q 34.03125 6 38.125 10.046875 
Q 42.234375 14.109375 42.234375 20.359375 
Q 42.234375 26.703125 38.015625 30.859375 
Q 33.796875 35.015625 27.4375 35.015625 
Q 21.234375 35.015625 17.15625 30.90625 
Q 13.09375 26.8125 13.09375 20.65625 
z
" id="ArialMT-56"/>
      </defs>
      <g style="fill:#262626;" transform="translate(346.779596 315.273594)scale(0.11 -0.11)">
       <use xlink:href="#ArialMT-56"/>
      </g>
     </g>
    </g>
    <g id="xtick_6">
     <g id="line2d_6">
      <path clip-path="url(#p1a24a92751)" d="M 414.101645 297.9 
L 414.101645 40.54875 
" style="fill:none;stroke:#ffffff;stroke-linecap:round;"/>
     </g>
     <g id="text_6">
      <!-- 10 -->
      <defs>
       <path d="M 37.25 0 
L 28.46875 0 
L 28.46875 56 
Q 25.296875 52.984375 20.140625 49.953125 
Q 14.984375 46.921875 10.890625 45.40625 
L 10.890625 53.90625 
Q 18.265625 57.375 23.78125 62.296875 
Q 29.296875 67.234375 31.59375 71.875 
L 37.25 71.875 
z
" id="ArialMT-49"/>
      </defs>
      <g style="fill:#262626;" transform="translate(407.984614 315.273594)scale(0.11 -0.11)">
       <use xlink:href="#ArialMT-49"/>
       <use x="55.615234" xlink:href="#ArialMT-48"/>
      </g>
     </g>
    </g>
    <g id="text_7">
     <!-- Number of Pigeons They Could Carry [pigeons] -->
     <defs>
      <path d="M 7.625 0 
L 7.625 71.578125 
L 17.328125 71.578125 
L 54.9375 15.375 
L 54.9375 71.578125 
L 64.015625 71.578125 
L 64.015625 0 
L 54.296875 0 
L 16.703125 56.25 
L 16.703125 0 
z
" id="ArialMT-78"/>
      <path d="M 40.578125 0 
L 40.578125 7.625 
Q 34.515625 -1.171875 24.125 -1.171875 
Q 19.53125 -1.171875 15.546875 0.578125 
Q 11.578125 2.34375 9.640625 5 
Q 7.71875 7.671875 6.9375 11.53125 
Q 6.390625 14.109375 6.390625 19.734375 
L 6.390625 51.859375 
L 15.1875 51.859375 
L 15.1875 23.09375 
Q 15.1875 16.21875 15.71875 13.8125 
Q 16.546875 10.359375 19.234375 8.375 
Q 21.921875 6.390625 25.875 6.390625 
Q 29.828125 6.390625 33.296875 8.421875 
Q 36.765625 10.453125 38.203125 13.9375 
Q 39.65625 17.4375 39.65625 24.078125 
L 39.65625 51.859375 
L 48.4375 51.859375 
L 48.4375 0 
z
" id="ArialMT-117"/>
      <path d="M 6.59375 0 
L 6.59375 51.859375 
L 14.453125 51.859375 
L 14.453125 44.578125 
Q 16.890625 48.390625 20.9375 50.703125 
Q 25 53.03125 30.171875 53.03125 
Q 35.9375 53.03125 39.625 50.640625 
Q 43.3125 48.25 44.828125 43.953125 
Q 50.984375 53.03125 60.84375 53.03125 
Q 68.5625 53.03125 72.703125 48.75 
Q 76.859375 44.484375 76.859375 35.59375 
L 76.859375 0 
L 68.109375 0 
L 68.109375 32.671875 
Q 68.109375 37.9375 67.25 40.25 
Q 66.40625 42.578125 64.15625 43.984375 
Q 61.921875 45.40625 58.890625 45.40625 
Q 53.421875 45.40625 49.796875 41.765625 
Q 46.1875 38.140625 46.1875 30.125 
L 46.1875 0 
L 37.40625 0 
L 37.40625 33.6875 
Q 37.40625 39.546875 35.25 42.46875 
Q 33.109375 45.40625 28.21875 45.40625 
Q 24.515625 45.40625 21.359375 43.453125 
Q 18.21875 41.5 16.796875 37.734375 
Q 15.375 33.984375 15.375 26.90625 
L 15.375 0 
z
" id="ArialMT-109"/>
      <path d="M 14.703125 0 
L 6.546875 0 
L 6.546875 71.578125 
L 15.328125 71.578125 
L 15.328125 46.046875 
Q 20.90625 53.03125 29.546875 53.03125 
Q 34.328125 53.03125 38.59375 51.09375 
Q 42.875 49.171875 45.625 45.671875 
Q 48.390625 42.1875 49.953125 37.25 
Q 51.515625 32.328125 51.515625 26.703125 
Q 51.515625 13.375 44.921875 6.09375 
Q 38.328125 -1.171875 29.109375 -1.171875 
Q 19.921875 -1.171875 14.703125 6.5 
z
M 14.59375 26.3125 
Q 14.59375 17 17.140625 12.84375 
Q 21.296875 6.0625 28.375 6.0625 
Q 34.125 6.0625 38.328125 11.0625 
Q 42.53125 16.0625 42.53125 25.984375 
Q 42.53125 36.140625 38.5 40.96875 
Q 34.46875 45.796875 28.765625 45.796875 
Q 23 45.796875 18.796875 40.796875 
Q 14.59375 35.796875 14.59375 26.3125 
z
" id="ArialMT-98"/>
      <path d="M 42.09375 16.703125 
L 51.171875 15.578125 
Q 49.03125 7.625 43.21875 3.21875 
Q 37.40625 -1.171875 28.375 -1.171875 
Q 17 -1.171875 10.328125 5.828125 
Q 3.65625 12.84375 3.65625 25.484375 
Q 3.65625 38.578125 10.390625 45.796875 
Q 17.140625 53.03125 27.875 53.03125 
Q 38.28125 53.03125 44.875 45.953125 
Q 51.46875 38.875 51.46875 26.03125 
Q 51.46875 25.25 51.421875 23.6875 
L 12.75 23.6875 
Q 13.234375 15.140625 17.578125 10.59375 
Q 21.921875 6.0625 28.421875 6.0625 
Q 33.25 6.0625 36.671875 8.59375 
Q 40.09375 11.140625 42.09375 16.703125 
z
M 13.234375 30.90625 
L 42.1875 30.90625 
Q 41.609375 37.453125 38.875 40.71875 
Q 34.671875 45.796875 27.984375 45.796875 
Q 21.921875 45.796875 17.796875 41.75 
Q 13.671875 37.703125 13.234375 30.90625 
z
" id="ArialMT-101"/>
      <path d="M 6.5 0 
L 6.5 51.859375 
L 14.40625 51.859375 
L 14.40625 44 
Q 17.4375 49.515625 20 51.265625 
Q 22.5625 53.03125 25.640625 53.03125 
Q 30.078125 53.03125 34.671875 50.203125 
L 31.640625 42.046875 
Q 28.421875 43.953125 25.203125 43.953125 
Q 22.3125 43.953125 20.015625 42.21875 
Q 17.71875 40.484375 16.75 37.40625 
Q 15.28125 32.71875 15.28125 27.15625 
L 15.28125 0 
z
" id="ArialMT-114"/>
      <path id="ArialMT-32"/>
      <path d="M 3.328125 25.921875 
Q 3.328125 40.328125 11.328125 47.265625 
Q 18.015625 53.03125 27.640625 53.03125 
Q 38.328125 53.03125 45.109375 46.015625 
Q 51.90625 39.015625 51.90625 26.65625 
Q 51.90625 16.65625 48.90625 10.90625 
Q 45.90625 5.171875 40.15625 2 
Q 34.421875 -1.171875 27.640625 -1.171875 
Q 16.75 -1.171875 10.03125 5.8125 
Q 3.328125 12.796875 3.328125 25.921875 
z
M 12.359375 25.921875 
Q 12.359375 15.96875 16.703125 11.015625 
Q 21.046875 6.0625 27.640625 6.0625 
Q 34.1875 6.0625 38.53125 11.03125 
Q 42.875 16.015625 42.875 26.21875 
Q 42.875 35.84375 38.5 40.796875 
Q 34.125 45.75 27.640625 45.75 
Q 21.046875 45.75 16.703125 40.8125 
Q 12.359375 35.890625 12.359375 25.921875 
z
" id="ArialMT-111"/>
      <path d="M 8.6875 0 
L 8.6875 45.015625 
L 0.921875 45.015625 
L 0.921875 51.859375 
L 8.6875 51.859375 
L 8.6875 57.375 
Q 8.6875 62.59375 9.625 65.140625 
Q 10.890625 68.5625 14.078125 70.671875 
Q 17.28125 72.796875 23.046875 72.796875 
Q 26.765625 72.796875 31.25 71.921875 
L 29.9375 64.265625 
Q 27.203125 64.75 24.75 64.75 
Q 20.75 64.75 19.09375 63.03125 
Q 17.4375 61.328125 17.4375 56.640625 
L 17.4375 51.859375 
L 27.546875 51.859375 
L 27.546875 45.015625 
L 17.4375 45.015625 
L 17.4375 0 
z
" id="ArialMT-102"/>
      <path d="M 7.71875 0 
L 7.71875 71.578125 
L 34.71875 71.578125 
Q 41.84375 71.578125 45.609375 70.90625 
Q 50.875 70.015625 54.4375 67.546875 
Q 58.015625 65.09375 60.1875 60.640625 
Q 62.359375 56.203125 62.359375 50.875 
Q 62.359375 41.75 56.546875 35.421875 
Q 50.734375 29.109375 35.546875 29.109375 
L 17.1875 29.109375 
L 17.1875 0 
z
M 17.1875 37.546875 
L 35.6875 37.546875 
Q 44.875 37.546875 48.734375 40.96875 
Q 52.59375 44.390625 52.59375 50.59375 
Q 52.59375 55.078125 50.3125 58.265625 
Q 48.046875 61.46875 44.34375 62.5 
Q 41.9375 63.140625 35.5 63.140625 
L 17.1875 63.140625 
z
" id="ArialMT-80"/>
      <path d="M 6.640625 61.46875 
L 6.640625 71.578125 
L 15.4375 71.578125 
L 15.4375 61.46875 
z
M 6.640625 0 
L 6.640625 51.859375 
L 15.4375 51.859375 
L 15.4375 0 
z
" id="ArialMT-105"/>
      <path d="M 4.984375 -4.296875 
L 13.53125 -5.5625 
Q 14.0625 -9.515625 16.5 -11.328125 
Q 19.78125 -13.765625 25.4375 -13.765625 
Q 31.546875 -13.765625 34.859375 -11.328125 
Q 38.1875 -8.890625 39.359375 -4.5 
Q 40.046875 -1.8125 39.984375 6.78125 
Q 34.234375 0 25.640625 0 
Q 14.9375 0 9.078125 7.71875 
Q 3.21875 15.4375 3.21875 26.21875 
Q 3.21875 33.640625 5.90625 39.90625 
Q 8.59375 46.1875 13.6875 49.609375 
Q 18.796875 53.03125 25.6875 53.03125 
Q 34.859375 53.03125 40.828125 45.609375 
L 40.828125 51.859375 
L 48.921875 51.859375 
L 48.921875 7.03125 
Q 48.921875 -5.078125 46.453125 -10.125 
Q 44 -15.1875 38.640625 -18.109375 
Q 33.296875 -21.046875 25.484375 -21.046875 
Q 16.21875 -21.046875 10.5 -16.875 
Q 4.78125 -12.703125 4.984375 -4.296875 
z
M 12.25 26.859375 
Q 12.25 16.65625 16.296875 11.96875 
Q 20.359375 7.28125 26.46875 7.28125 
Q 32.515625 7.28125 36.609375 11.9375 
Q 40.71875 16.609375 40.71875 26.5625 
Q 40.71875 36.078125 36.5 40.90625 
Q 32.28125 45.75 26.3125 45.75 
Q 20.453125 45.75 16.34375 40.984375 
Q 12.25 36.234375 12.25 26.859375 
z
" id="ArialMT-103"/>
      <path d="M 6.59375 0 
L 6.59375 51.859375 
L 14.5 51.859375 
L 14.5 44.484375 
Q 20.21875 53.03125 31 53.03125 
Q 35.6875 53.03125 39.625 51.34375 
Q 43.5625 49.65625 45.515625 46.921875 
Q 47.46875 44.1875 48.25 40.4375 
Q 48.734375 37.984375 48.734375 31.890625 
L 48.734375 0 
L 39.9375 0 
L 39.9375 31.546875 
Q 39.9375 36.921875 38.90625 39.578125 
Q 37.890625 42.234375 35.28125 43.8125 
Q 32.671875 45.40625 29.15625 45.40625 
Q 23.53125 45.40625 19.453125 41.84375 
Q 15.375 38.28125 15.375 28.328125 
L 15.375 0 
z
" id="ArialMT-110"/>
      <path d="M 3.078125 15.484375 
L 11.765625 16.84375 
Q 12.5 11.625 15.84375 8.84375 
Q 19.1875 6.0625 25.203125 6.0625 
Q 31.25 6.0625 34.171875 8.515625 
Q 37.109375 10.984375 37.109375 14.3125 
Q 37.109375 17.28125 34.515625 19 
Q 32.71875 20.171875 25.53125 21.96875 
Q 15.875 24.421875 12.140625 26.203125 
Q 8.40625 27.984375 6.46875 31.125 
Q 4.546875 34.28125 4.546875 38.09375 
Q 4.546875 41.546875 6.125 44.5 
Q 7.71875 47.46875 10.453125 49.421875 
Q 12.5 50.921875 16.03125 51.96875 
Q 19.578125 53.03125 23.640625 53.03125 
Q 29.734375 53.03125 34.34375 51.265625 
Q 38.96875 49.515625 41.15625 46.5 
Q 43.359375 43.5 44.1875 38.484375 
L 35.59375 37.3125 
Q 35.015625 41.3125 32.203125 43.546875 
Q 29.390625 45.796875 24.265625 45.796875 
Q 18.21875 45.796875 15.625 43.796875 
Q 13.03125 41.796875 13.03125 39.109375 
Q 13.03125 37.40625 14.109375 36.03125 
Q 15.1875 34.625 17.484375 33.6875 
Q 18.796875 33.203125 25.25 31.453125 
Q 34.578125 28.953125 38.25 27.359375 
Q 41.9375 25.78125 44.03125 22.75 
Q 46.140625 19.734375 46.140625 15.234375 
Q 46.140625 10.84375 43.578125 6.953125 
Q 41.015625 3.078125 36.171875 0.953125 
Q 31.34375 -1.171875 25.25 -1.171875 
Q 15.140625 -1.171875 9.84375 3.03125 
Q 4.546875 7.234375 3.078125 15.484375 
z
" id="ArialMT-115"/>
      <path d="M 25.921875 0 
L 25.921875 63.140625 
L 2.34375 63.140625 
L 2.34375 71.578125 
L 59.078125 71.578125 
L 59.078125 63.140625 
L 35.40625 63.140625 
L 35.40625 0 
z
" id="ArialMT-84"/>
      <path d="M 6.59375 0 
L 6.59375 71.578125 
L 15.375 71.578125 
L 15.375 45.90625 
Q 21.53125 53.03125 30.90625 53.03125 
Q 36.671875 53.03125 40.921875 50.75 
Q 45.171875 48.484375 47 44.484375 
Q 48.828125 40.484375 48.828125 32.859375 
L 48.828125 0 
L 40.046875 0 
L 40.046875 32.859375 
Q 40.046875 39.453125 37.1875 42.453125 
Q 34.328125 45.453125 29.109375 45.453125 
Q 25.203125 45.453125 21.75 43.421875 
Q 18.3125 41.40625 16.84375 37.9375 
Q 15.375 34.46875 15.375 28.375 
L 15.375 0 
z
" id="ArialMT-104"/>
      <path d="M 6.203125 -19.96875 
L 5.21875 -11.71875 
Q 8.109375 -12.5 10.25 -12.5 
Q 13.1875 -12.5 14.9375 -11.515625 
Q 16.703125 -10.546875 17.828125 -8.796875 
Q 18.65625 -7.46875 20.515625 -2.25 
Q 20.75 -1.515625 21.296875 -0.09375 
L 1.609375 51.859375 
L 11.078125 51.859375 
L 21.875 21.828125 
Q 23.96875 16.109375 25.640625 9.8125 
Q 27.15625 15.875 29.25 21.625 
L 40.328125 51.859375 
L 49.125 51.859375 
L 29.390625 -0.875 
Q 26.21875 -9.421875 24.46875 -12.640625 
Q 22.125 -17 19.09375 -19.015625 
Q 16.0625 -21.046875 11.859375 -21.046875 
Q 9.328125 -21.046875 6.203125 -19.96875 
z
" id="ArialMT-121"/>
      <path d="M 58.796875 25.09375 
L 68.265625 22.703125 
Q 65.28125 11.03125 57.546875 4.90625 
Q 49.8125 -1.21875 38.625 -1.21875 
Q 27.046875 -1.21875 19.796875 3.484375 
Q 12.546875 8.203125 8.765625 17.140625 
Q 4.984375 26.078125 4.984375 36.328125 
Q 4.984375 47.515625 9.25 55.828125 
Q 13.53125 64.15625 21.40625 68.46875 
Q 29.296875 72.796875 38.765625 72.796875 
Q 49.515625 72.796875 56.828125 67.328125 
Q 64.15625 61.859375 67.046875 51.953125 
L 57.71875 49.75 
Q 55.21875 57.5625 50.484375 61.125 
Q 45.75 64.703125 38.578125 64.703125 
Q 30.328125 64.703125 24.78125 60.734375 
Q 19.234375 56.78125 16.984375 50.109375 
Q 14.75 43.453125 14.75 36.375 
Q 14.75 27.25 17.40625 20.4375 
Q 20.0625 13.625 25.671875 10.25 
Q 31.296875 6.890625 37.84375 6.890625 
Q 45.796875 6.890625 51.3125 11.46875 
Q 56.84375 16.0625 58.796875 25.09375 
z
" id="ArialMT-67"/>
      <path d="M 6.390625 0 
L 6.390625 71.578125 
L 15.1875 71.578125 
L 15.1875 0 
z
" id="ArialMT-108"/>
      <path d="M 40.234375 0 
L 40.234375 6.546875 
Q 35.296875 -1.171875 25.734375 -1.171875 
Q 19.53125 -1.171875 14.328125 2.25 
Q 9.125 5.671875 6.265625 11.796875 
Q 3.421875 17.921875 3.421875 25.875 
Q 3.421875 33.640625 6 39.96875 
Q 8.59375 46.296875 13.765625 49.65625 
Q 18.953125 53.03125 25.34375 53.03125 
Q 30.03125 53.03125 33.6875 51.046875 
Q 37.359375 49.078125 39.65625 45.90625 
L 39.65625 71.578125 
L 48.390625 71.578125 
L 48.390625 0 
z
M 12.453125 25.875 
Q 12.453125 15.921875 16.640625 10.984375 
Q 20.84375 6.0625 26.5625 6.0625 
Q 32.328125 6.0625 36.34375 10.765625 
Q 40.375 15.484375 40.375 25.140625 
Q 40.375 35.796875 36.265625 40.765625 
Q 32.171875 45.75 26.171875 45.75 
Q 20.3125 45.75 16.375 40.96875 
Q 12.453125 36.1875 12.453125 25.875 
z
" id="ArialMT-100"/>
      <path d="M 40.4375 6.390625 
Q 35.546875 2.25 31.03125 0.53125 
Q 26.515625 -1.171875 21.34375 -1.171875 
Q 12.796875 -1.171875 8.203125 3 
Q 3.609375 7.171875 3.609375 13.671875 
Q 3.609375 17.484375 5.34375 20.625 
Q 7.078125 23.78125 9.890625 25.6875 
Q 12.703125 27.59375 16.21875 28.5625 
Q 18.796875 29.25 24.03125 29.890625 
Q 34.671875 31.15625 39.703125 32.90625 
Q 39.75 34.71875 39.75 35.203125 
Q 39.75 40.578125 37.25 42.78125 
Q 33.890625 45.75 27.25 45.75 
Q 21.046875 45.75 18.09375 43.578125 
Q 15.140625 41.40625 13.71875 35.890625 
L 5.125 37.0625 
Q 6.296875 42.578125 8.984375 45.96875 
Q 11.671875 49.359375 16.75 51.1875 
Q 21.828125 53.03125 28.515625 53.03125 
Q 35.15625 53.03125 39.296875 51.46875 
Q 43.453125 49.90625 45.40625 47.53125 
Q 47.359375 45.171875 48.140625 41.546875 
Q 48.578125 39.3125 48.578125 33.453125 
L 48.578125 21.734375 
Q 48.578125 9.46875 49.140625 6.21875 
Q 49.703125 2.984375 51.375 0 
L 42.1875 0 
Q 40.828125 2.734375 40.4375 6.390625 
z
M 39.703125 26.03125 
Q 34.90625 24.078125 25.34375 22.703125 
Q 19.921875 21.921875 17.671875 20.9375 
Q 15.4375 19.96875 14.203125 18.09375 
Q 12.984375 16.21875 12.984375 13.921875 
Q 12.984375 10.40625 15.640625 8.0625 
Q 18.3125 5.71875 23.4375 5.71875 
Q 28.515625 5.71875 32.46875 7.9375 
Q 36.421875 10.15625 38.28125 14.015625 
Q 39.703125 17 39.703125 22.796875 
z
" id="ArialMT-97"/>
      <path d="M 6.78125 -19.875 
L 6.78125 71.578125 
L 26.171875 71.578125 
L 26.171875 64.3125 
L 15.578125 64.3125 
L 15.578125 -12.59375 
L 26.171875 -12.59375 
L 26.171875 -19.875 
z
" id="ArialMT-91"/>
      <path d="M 6.59375 -19.875 
L 6.59375 51.859375 
L 14.59375 51.859375 
L 14.59375 45.125 
Q 17.4375 49.078125 21 51.046875 
Q 24.5625 53.03125 29.640625 53.03125 
Q 36.28125 53.03125 41.359375 49.609375 
Q 46.4375 46.1875 49.015625 39.953125 
Q 51.609375 33.734375 51.609375 26.3125 
Q 51.609375 18.359375 48.75 11.984375 
Q 45.90625 5.609375 40.453125 2.21875 
Q 35.015625 -1.171875 29 -1.171875 
Q 24.609375 -1.171875 21.109375 0.6875 
Q 17.625 2.546875 15.375 5.375 
L 15.375 -19.875 
z
M 14.546875 25.640625 
Q 14.546875 15.625 18.59375 10.84375 
Q 22.65625 6.0625 28.421875 6.0625 
Q 34.28125 6.0625 38.453125 11.015625 
Q 42.625 15.96875 42.625 26.375 
Q 42.625 36.28125 38.546875 41.203125 
Q 34.46875 46.140625 28.8125 46.140625 
Q 23.1875 46.140625 18.859375 40.890625 
Q 14.546875 35.640625 14.546875 25.640625 
z
" id="ArialMT-112"/>
      <path d="M 21.296875 -19.875 
L 1.90625 -19.875 
L 1.90625 -12.59375 
L 12.5 -12.59375 
L 12.5 64.3125 
L 1.90625 64.3125 
L 1.90625 71.578125 
L 21.296875 71.578125 
z
" id="ArialMT-93"/>
     </defs>
     <g style="fill:#262626;" transform="translate(127.390313 330.195469)scale(0.12 -0.12)">
      <use xlink:href="#ArialMT-78"/>
      <use x="72.216797" xlink:href="#ArialMT-117"/>
      <use x="127.832031" xlink:href="#ArialMT-109"/>
      <use x="211.132812" xlink:href="#ArialMT-98"/>
      <use x="266.748047" xlink:href="#ArialMT-101"/>
      <use x="322.363281" xlink:href="#ArialMT-114"/>
      <use x="355.664062" xlink:href="#ArialMT-32"/>
      <use x="383.447266" xlink:href="#ArialMT-111"/>
      <use x="439.0625" xlink:href="#ArialMT-102"/>
      <use x="466.845703" xlink:href="#ArialMT-32"/>
      <use x="494.628906" xlink:href="#ArialMT-80"/>
      <use x="561.328125" xlink:href="#ArialMT-105"/>
      <use x="583.544922" xlink:href="#ArialMT-103"/>
      <use x="639.160156" xlink:href="#ArialMT-101"/>
      <use x="694.775391" xlink:href="#ArialMT-111"/>
      <use x="750.390625" xlink:href="#ArialMT-110"/>
      <use x="806.005859" xlink:href="#ArialMT-115"/>
      <use x="856.005859" xlink:href="#ArialMT-32"/>
      <use x="883.773438" xlink:href="#ArialMT-84"/>
      <use x="944.857422" xlink:href="#ArialMT-104"/>
      <use x="1000.472656" xlink:href="#ArialMT-101"/>
      <use x="1056.087891" xlink:href="#ArialMT-121"/>
      <use x="1106.087891" xlink:href="#ArialMT-32"/>
      <use x="1133.871094" xlink:href="#ArialMT-67"/>
      <use x="1206.087891" xlink:href="#ArialMT-111"/>
      <use x="1261.703125" xlink:href="#ArialMT-117"/>
      <use x="1317.318359" xlink:href="#ArialMT-108"/>
      <use x="1339.535156" xlink:href="#ArialMT-100"/>
      <use x="1395.150391" xlink:href="#ArialMT-32"/>
      <use x="1422.933594" xlink:href="#ArialMT-67"/>
      <use x="1495.150391" xlink:href="#ArialMT-97"/>
      <use x="1550.765625" xlink:href="#ArialMT-114"/>
      <use x="1584.066406" xlink:href="#ArialMT-114"/>
      <use x="1617.367188" xlink:href="#ArialMT-121"/>
      <use x="1667.367188" xlink:href="#ArialMT-32"/>
      <use x="1695.150391" xlink:href="#ArialMT-91"/>
      <use x="1722.933594" xlink:href="#ArialMT-112"/>
      <use x="1778.548828" xlink:href="#ArialMT-105"/>
      <use x="1800.765625" xlink:href="#ArialMT-103"/>
      <use x="1856.380859" xlink:href="#ArialMT-101"/>
      <use x="1911.996094" xlink:href="#ArialMT-111"/>
      <use x="1967.611328" xlink:href="#ArialMT-110"/>
      <use x="2023.226562" xlink:href="#ArialMT-115"/>
      <use x="2073.226562" xlink:href="#ArialMT-93"/>
     </g>
    </g>
   </g>
   <g id="matplotlib.axis_2">
    <g id="ytick_1">
     <g id="line2d_7">
      <path clip-path="url(#p1a24a92751)" d="M 59.045625 297.9 
L 447.84 297.9 
" style="fill:none;stroke:#ffffff;stroke-linecap:round;"/>
     </g>
     <g id="text_8">
      <!-- 0.00 -->
      <defs>
       <path d="M 9.078125 0 
L 9.078125 10.015625 
L 19.09375 10.015625 
L 19.09375 0 
z
" id="ArialMT-46"/>
      </defs>
      <g style="fill:#262626;" transform="translate(28.138594 301.836797)scale(0.11 -0.11)">
       <use xlink:href="#ArialMT-48"/>
       <use x="55.615234" xlink:href="#ArialMT-46"/>
       <use x="83.398438" xlink:href="#ArialMT-48"/>
       <use x="139.013672" xlink:href="#ArialMT-48"/>
      </g>
     </g>
    </g>
    <g id="ytick_2">
     <g id="line2d_8">
      <path clip-path="url(#p1a24a92751)" d="M 59.045625 261.135536 
L 447.84 261.135536 
" style="fill:none;stroke:#ffffff;stroke-linecap:round;"/>
     </g>
     <g id="text_9">
      <!-- 0.05 -->
      <defs>
       <path d="M 4.15625 18.75 
L 13.375 19.53125 
Q 14.40625 12.796875 18.140625 9.390625 
Q 21.875 6 27.15625 6 
Q 33.5 6 37.890625 10.78125 
Q 42.28125 15.578125 42.28125 23.484375 
Q 42.28125 31 38.0625 35.34375 
Q 33.84375 39.703125 27 39.703125 
Q 22.75 39.703125 19.328125 37.765625 
Q 15.921875 35.84375 13.96875 32.765625 
L 5.71875 33.84375 
L 12.640625 70.609375 
L 48.25 70.609375 
L 48.25 62.203125 
L 19.671875 62.203125 
L 15.828125 42.96875 
Q 22.265625 47.46875 29.34375 47.46875 
Q 38.71875 47.46875 45.15625 40.96875 
Q 51.609375 34.46875 51.609375 24.265625 
Q 51.609375 14.546875 45.953125 7.46875 
Q 39.0625 -1.21875 27.15625 -1.21875 
Q 17.390625 -1.21875 11.203125 4.25 
Q 5.03125 9.71875 4.15625 18.75 
z
" id="ArialMT-53"/>
      </defs>
      <g style="fill:#262626;" transform="translate(28.138594 265.072333)scale(0.11 -0.11)">
       <use xlink:href="#ArialMT-48"/>
       <use x="55.615234" xlink:href="#ArialMT-46"/>
       <use x="83.398438" xlink:href="#ArialMT-48"/>
       <use x="139.013672" xlink:href="#ArialMT-53"/>
      </g>
     </g>
    </g>
    <g id="ytick_3">
     <g id="line2d_9">
      <path clip-path="url(#p1a24a92751)" d="M 59.045625 224.371071 
L 447.84 224.371071 
" style="fill:none;stroke:#ffffff;stroke-linecap:round;"/>
     </g>
     <g id="text_10">
      <!-- 0.10 -->
      <g style="fill:#262626;" transform="translate(28.138594 228.307868)scale(0.11 -0.11)">
       <use xlink:href="#ArialMT-48"/>
       <use x="55.615234" xlink:href="#ArialMT-46"/>
       <use x="83.398438" xlink:href="#ArialMT-49"/>
       <use x="139.013672" xlink:href="#ArialMT-48"/>
      </g>
     </g>
    </g>
    <g id="ytick_4">
     <g id="line2d_10">
      <path clip-path="url(#p1a24a92751)" d="M 59.045625 187.606607 
L 447.84 187.606607 
" style="fill:none;stroke:#ffffff;stroke-linecap:round;"/>
     </g>
     <g id="text_11">
      <!-- 0.15 -->
      <g style="fill:#262626;" transform="translate(28.138594 191.543404)scale(0.11 -0.11)">
       <use xlink:href="#ArialMT-48"/>
       <use x="55.615234" xlink:href="#ArialMT-46"/>
       <use x="83.398438" xlink:href="#ArialMT-49"/>
       <use x="139.013672" xlink:href="#ArialMT-53"/>
      </g>
     </g>
    </g>
    <g id="ytick_5">
     <g id="line2d_11">
      <path clip-path="url(#p1a24a92751)" d="M 59.045625 150.842143 
L 447.84 150.842143 
" style="fill:none;stroke:#ffffff;stroke-linecap:round;"/>
     </g>
     <g id="text_12">
      <!-- 0.20 -->
      <g style="fill:#262626;" transform="translate(28.138594 154.77894)scale(0.11 -0.11)">
       <use xlink:href="#ArialMT-48"/>
       <use x="55.615234" xlink:href="#ArialMT-46"/>
       <use x="83.398438" xlink:href="#ArialMT-50"/>
       <use x="139.013672" xlink:href="#ArialMT-48"/>
      </g>
     </g>
    </g>
    <g id="ytick_6">
     <g id="line2d_12">
      <path clip-path="url(#p1a24a92751)" d="M 59.045625 114.077679 
L 447.84 114.077679 
" style="fill:none;stroke:#ffffff;stroke-linecap:round;"/>
     </g>
     <g id="text_13">
      <!-- 0.25 -->
      <g style="fill:#262626;" transform="translate(28.138594 118.014475)scale(0.11 -0.11)">
       <use xlink:href="#ArialMT-48"/>
       <use x="55.615234" xlink:href="#ArialMT-46"/>
       <use x="83.398438" xlink:href="#ArialMT-50"/>
       <use x="139.013672" xlink:href="#ArialMT-53"/>
      </g>
     </g>
    </g>
    <g id="ytick_7">
     <g id="line2d_13">
      <path clip-path="url(#p1a24a92751)" d="M 59.045625 77.313214 
L 447.84 77.313214 
" style="fill:none;stroke:#ffffff;stroke-linecap:round;"/>
     </g>
     <g id="text_14">
      <!-- 0.30 -->
      <defs>
       <path d="M 4.203125 18.890625 
L 12.984375 20.0625 
Q 14.5 12.59375 18.140625 9.296875 
Q 21.78125 6 27 6 
Q 33.203125 6 37.46875 10.296875 
Q 41.75 14.59375 41.75 20.953125 
Q 41.75 27 37.796875 30.921875 
Q 33.84375 34.859375 27.734375 34.859375 
Q 25.25 34.859375 21.53125 33.890625 
L 22.515625 41.609375 
Q 23.390625 41.5 23.921875 41.5 
Q 29.546875 41.5 34.03125 44.421875 
Q 38.53125 47.359375 38.53125 53.46875 
Q 38.53125 58.296875 35.25 61.46875 
Q 31.984375 64.65625 26.8125 64.65625 
Q 21.6875 64.65625 18.265625 61.421875 
Q 14.84375 58.203125 13.875 51.765625 
L 5.078125 53.328125 
Q 6.6875 62.15625 12.390625 67.015625 
Q 18.109375 71.875 26.609375 71.875 
Q 32.46875 71.875 37.390625 69.359375 
Q 42.328125 66.84375 44.9375 62.5 
Q 47.5625 58.15625 47.5625 53.265625 
Q 47.5625 48.640625 45.0625 44.828125 
Q 42.578125 41.015625 37.703125 38.765625 
Q 44.046875 37.3125 47.5625 32.6875 
Q 51.078125 28.078125 51.078125 21.140625 
Q 51.078125 11.765625 44.234375 5.25 
Q 37.40625 -1.265625 26.953125 -1.265625 
Q 17.53125 -1.265625 11.296875 4.34375 
Q 5.078125 9.96875 4.203125 18.890625 
z
" id="ArialMT-51"/>
      </defs>
      <g style="fill:#262626;" transform="translate(28.138594 81.250011)scale(0.11 -0.11)">
       <use xlink:href="#ArialMT-48"/>
       <use x="55.615234" xlink:href="#ArialMT-46"/>
       <use x="83.398438" xlink:href="#ArialMT-51"/>
       <use x="139.013672" xlink:href="#ArialMT-48"/>
      </g>
     </g>
    </g>
    <g id="ytick_8">
     <g id="line2d_14">
      <path clip-path="url(#p1a24a92751)" d="M 59.045625 40.54875 
L 447.84 40.54875 
" style="fill:none;stroke:#ffffff;stroke-linecap:round;"/>
     </g>
     <g id="text_15">
      <!-- 0.35 -->
      <g style="fill:#262626;" transform="translate(28.138594 44.485547)scale(0.11 -0.11)">
       <use xlink:href="#ArialMT-48"/>
       <use x="55.615234" xlink:href="#ArialMT-46"/>
       <use x="83.398438" xlink:href="#ArialMT-51"/>
       <use x="139.013672" xlink:href="#ArialMT-53"/>
      </g>
     </g>
    </g>
    <g id="text_16">
     <!-- Probability Distribution Function [-] -->
     <defs>
      <path d="M 25.78125 7.859375 
L 27.046875 0.09375 
Q 23.34375 -0.6875 20.40625 -0.6875 
Q 15.625 -0.6875 12.984375 0.828125 
Q 10.359375 2.34375 9.28125 4.8125 
Q 8.203125 7.28125 8.203125 15.1875 
L 8.203125 45.015625 
L 1.765625 45.015625 
L 1.765625 51.859375 
L 8.203125 51.859375 
L 8.203125 64.703125 
L 16.9375 69.96875 
L 16.9375 51.859375 
L 25.78125 51.859375 
L 25.78125 45.015625 
L 16.9375 45.015625 
L 16.9375 14.703125 
Q 16.9375 10.9375 17.40625 9.859375 
Q 17.875 8.796875 18.921875 8.15625 
Q 19.96875 7.515625 21.921875 7.515625 
Q 23.390625 7.515625 25.78125 7.859375 
z
" id="ArialMT-116"/>
      <path d="M 7.71875 0 
L 7.71875 71.578125 
L 32.375 71.578125 
Q 40.71875 71.578125 45.125 70.5625 
Q 51.265625 69.140625 55.609375 65.4375 
Q 61.28125 60.640625 64.078125 53.1875 
Q 66.890625 45.75 66.890625 36.1875 
Q 66.890625 28.03125 64.984375 21.734375 
Q 63.09375 15.4375 60.109375 11.296875 
Q 57.125 7.171875 53.578125 4.796875 
Q 50.046875 2.4375 45.046875 1.21875 
Q 40.046875 0 33.546875 0 
z
M 17.1875 8.453125 
L 32.46875 8.453125 
Q 39.546875 8.453125 43.578125 9.765625 
Q 47.609375 11.078125 50 13.484375 
Q 53.375 16.84375 55.25 22.53125 
Q 57.125 28.21875 57.125 36.328125 
Q 57.125 47.5625 53.4375 53.59375 
Q 49.75 59.625 44.484375 61.671875 
Q 40.671875 63.140625 32.234375 63.140625 
L 17.1875 63.140625 
z
" id="ArialMT-68"/>
      <path d="M 8.203125 0 
L 8.203125 71.578125 
L 56.5 71.578125 
L 56.5 63.140625 
L 17.671875 63.140625 
L 17.671875 40.96875 
L 51.265625 40.96875 
L 51.265625 32.515625 
L 17.671875 32.515625 
L 17.671875 0 
z
" id="ArialMT-70"/>
      <path d="M 40.4375 19 
L 49.078125 17.875 
Q 47.65625 8.9375 41.8125 3.875 
Q 35.984375 -1.171875 27.484375 -1.171875 
Q 16.84375 -1.171875 10.375 5.78125 
Q 3.90625 12.75 3.90625 25.734375 
Q 3.90625 34.125 6.6875 40.421875 
Q 9.46875 46.734375 15.15625 49.875 
Q 20.84375 53.03125 27.546875 53.03125 
Q 35.984375 53.03125 41.359375 48.75 
Q 46.734375 44.484375 48.25 36.625 
L 39.703125 35.296875 
Q 38.484375 40.53125 35.375 43.15625 
Q 32.28125 45.796875 27.875 45.796875 
Q 21.234375 45.796875 17.078125 41.03125 
Q 12.9375 36.28125 12.9375 25.984375 
Q 12.9375 15.53125 16.9375 10.796875 
Q 20.953125 6.0625 27.390625 6.0625 
Q 32.5625 6.0625 36.03125 9.234375 
Q 39.5 12.40625 40.4375 19 
z
" id="ArialMT-99"/>
      <path d="M 3.171875 21.484375 
L 3.171875 30.328125 
L 30.171875 30.328125 
L 30.171875 21.484375 
z
" id="ArialMT-45"/>
     </defs>
     <g style="fill:#262626;" transform="translate(21.612969 260.590312)rotate(-90)scale(0.12 -0.12)">
      <use xlink:href="#ArialMT-80"/>
      <use x="66.699219" xlink:href="#ArialMT-114"/>
      <use x="100" xlink:href="#ArialMT-111"/>
      <use x="155.615234" xlink:href="#ArialMT-98"/>
      <use x="211.230469" xlink:href="#ArialMT-97"/>
      <use x="266.845703" xlink:href="#ArialMT-98"/>
      <use x="322.460938" xlink:href="#ArialMT-105"/>
      <use x="344.677734" xlink:href="#ArialMT-108"/>
      <use x="366.894531" xlink:href="#ArialMT-105"/>
      <use x="389.111328" xlink:href="#ArialMT-116"/>
      <use x="416.894531" xlink:href="#ArialMT-121"/>
      <use x="466.894531" xlink:href="#ArialMT-32"/>
      <use x="494.677734" xlink:href="#ArialMT-68"/>
      <use x="566.894531" xlink:href="#ArialMT-105"/>
      <use x="589.111328" xlink:href="#ArialMT-115"/>
      <use x="639.111328" xlink:href="#ArialMT-116"/>
      <use x="666.894531" xlink:href="#ArialMT-114"/>
      <use x="700.195312" xlink:href="#ArialMT-105"/>
      <use x="722.412109" xlink:href="#ArialMT-98"/>
      <use x="778.027344" xlink:href="#ArialMT-117"/>
      <use x="833.642578" xlink:href="#ArialMT-116"/>
      <use x="861.425781" xlink:href="#ArialMT-105"/>
      <use x="883.642578" xlink:href="#ArialMT-111"/>
      <use x="939.257812" xlink:href="#ArialMT-110"/>
      <use x="994.873047" xlink:href="#ArialMT-32"/>
      <use x="1022.65625" xlink:href="#ArialMT-70"/>
      <use x="1083.740234" xlink:href="#ArialMT-117"/>
      <use x="1139.355469" xlink:href="#ArialMT-110"/>
      <use x="1194.970703" xlink:href="#ArialMT-99"/>
      <use x="1244.970703" xlink:href="#ArialMT-116"/>
      <use x="1272.753906" xlink:href="#ArialMT-105"/>
      <use x="1294.970703" xlink:href="#ArialMT-111"/>
      <use x="1350.585938" xlink:href="#ArialMT-110"/>
      <use x="1406.201172" xlink:href="#ArialMT-32"/>
      <use x="1433.984375" xlink:href="#ArialMT-91"/>
      <use x="1461.767578" xlink:href="#ArialMT-45"/>
      <use x="1495.068359" xlink:href="#ArialMT-93"/>
     </g>
    </g>
   </g>
   <g id="patch_3">
    <path d="M 59.045625 297.9 
L 59.045625 40.54875 
" style="fill:none;stroke:#ffffff;stroke-linecap:square;stroke-linejoin:miter;stroke-width:1.25;"/>
   </g>
   <g id="patch_4">
    <path d="M 447.84 297.9 
L 447.84 40.54875 
" style="fill:none;stroke:#ffffff;stroke-linecap:square;stroke-linejoin:miter;stroke-width:1.25;"/>
   </g>
   <g id="patch_5">
    <path d="M 59.045625 297.9 
L 447.84 297.9 
" style="fill:none;stroke:#ffffff;stroke-linecap:square;stroke-linejoin:miter;stroke-width:1.25;"/>
   </g>
   <g id="patch_6">
    <path d="M 59.045625 40.54875 
L 447.84 40.54875 
" style="fill:none;stroke:#ffffff;stroke-linecap:square;stroke-linejoin:miter;stroke-width:1.25;"/>
   </g>
   <g id="text_17">
    <!-- Note: All responses rounded -->
    <defs>
     <path d="M 9.03125 41.84375 
L 9.03125 51.859375 
L 19.046875 51.859375 
L 19.046875 41.84375 
z
M 9.03125 0 
L 9.03125 10.015625 
L 19.046875 10.015625 
L 19.046875 0 
z
" id="ArialMT-58"/>
     <path d="M -0.140625 0 
L 27.34375 71.578125 
L 37.546875 71.578125 
L 66.84375 0 
L 56.0625 0 
L 47.703125 21.6875 
L 17.78125 21.6875 
L 9.90625 0 
z
M 20.515625 29.390625 
L 44.78125 29.390625 
L 37.3125 49.21875 
Q 33.890625 58.25 32.234375 64.0625 
Q 30.859375 57.171875 28.375 50.390625 
z
" id="ArialMT-65"/>
    </defs>
    <g style="fill:#262626;" transform="translate(234.003094 55.707)scale(0.1 -0.1)">
     <use xlink:href="#ArialMT-78"/>
     <use x="72.216797" xlink:href="#ArialMT-111"/>
     <use x="127.832031" xlink:href="#ArialMT-116"/>
     <use x="155.615234" xlink:href="#ArialMT-101"/>
     <use x="211.230469" xlink:href="#ArialMT-58"/>
     <use x="239.013672" xlink:href="#ArialMT-32"/>
     <use x="266.71875" xlink:href="#ArialMT-65"/>
     <use x="333.417969" xlink:href="#ArialMT-108"/>
     <use x="355.634766" xlink:href="#ArialMT-108"/>
     <use x="377.851562" xlink:href="#ArialMT-32"/>
     <use x="405.634766" xlink:href="#ArialMT-114"/>
     <use x="438.935547" xlink:href="#ArialMT-101"/>
     <use x="494.550781" xlink:href="#ArialMT-115"/>
     <use x="544.550781" xlink:href="#ArialMT-112"/>
     <use x="600.166016" xlink:href="#ArialMT-111"/>
     <use x="655.78125" xlink:href="#ArialMT-110"/>
     <use x="711.396484" xlink:href="#ArialMT-115"/>
     <use x="761.396484" xlink:href="#ArialMT-101"/>
     <use x="817.011719" xlink:href="#ArialMT-115"/>
     <use x="867.011719" xlink:href="#ArialMT-32"/>
     <use x="894.794922" xlink:href="#ArialMT-114"/>
     <use x="928.095703" xlink:href="#ArialMT-111"/>
     <use x="983.710938" xlink:href="#ArialMT-117"/>
     <use x="1039.326172" xlink:href="#ArialMT-110"/>
     <use x="1094.941406" xlink:href="#ArialMT-100"/>
     <use x="1150.556641" xlink:href="#ArialMT-101"/>
     <use x="1206.171875" xlink:href="#ArialMT-100"/>
    </g>
    <!-- to the nearest whole pigeon. -->
    <defs>
     <path d="M 16.15625 0 
L 0.296875 51.859375 
L 9.375 51.859375 
L 17.625 21.921875 
L 20.703125 10.796875 
Q 20.90625 11.625 23.390625 21.484375 
L 31.640625 51.859375 
L 40.671875 51.859375 
L 48.4375 21.78125 
L 51.03125 11.859375 
L 54 21.875 
L 62.890625 51.859375 
L 71.4375 51.859375 
L 55.21875 0 
L 46.09375 0 
L 37.84375 31.0625 
L 35.84375 39.890625 
L 25.34375 0 
z
" id="ArialMT-119"/>
    </defs>
    <g style="fill:#262626;" transform="translate(234.003094 66.283875)scale(0.1 -0.1)">
     <use xlink:href="#ArialMT-116"/>
     <use x="27.783203" xlink:href="#ArialMT-111"/>
     <use x="83.398438" xlink:href="#ArialMT-32"/>
     <use x="111.181641" xlink:href="#ArialMT-116"/>
     <use x="138.964844" xlink:href="#ArialMT-104"/>
     <use x="194.580078" xlink:href="#ArialMT-101"/>
     <use x="250.195312" xlink:href="#ArialMT-32"/>
     <use x="277.978516" xlink:href="#ArialMT-110"/>
     <use x="333.59375" xlink:href="#ArialMT-101"/>
     <use x="389.208984" xlink:href="#ArialMT-97"/>
     <use x="444.824219" xlink:href="#ArialMT-114"/>
     <use x="478.125" xlink:href="#ArialMT-101"/>
     <use x="533.740234" xlink:href="#ArialMT-115"/>
     <use x="583.740234" xlink:href="#ArialMT-116"/>
     <use x="611.523438" xlink:href="#ArialMT-32"/>
     <use x="639.306641" xlink:href="#ArialMT-119"/>
     <use x="711.523438" xlink:href="#ArialMT-104"/>
     <use x="767.138672" xlink:href="#ArialMT-111"/>
     <use x="822.753906" xlink:href="#ArialMT-108"/>
     <use x="844.970703" xlink:href="#ArialMT-101"/>
     <use x="900.585938" xlink:href="#ArialMT-32"/>
     <use x="928.369141" xlink:href="#ArialMT-112"/>
     <use x="983.984375" xlink:href="#ArialMT-105"/>
     <use x="1006.201172" xlink:href="#ArialMT-103"/>
     <use x="1061.816406" xlink:href="#ArialMT-101"/>
     <use x="1117.431641" xlink:href="#ArialMT-111"/>
     <use x="1173.046875" xlink:href="#ArialMT-110"/>
     <use x="1228.662109" xlink:href="#ArialMT-46"/>
    </g>
   </g>
   <g id="text_18">
    <!-- A Survey of Tinder: -->
    <defs>
     <path d="M 4.5 23 
L 13.421875 23.78125 
Q 14.0625 18.40625 16.375 14.96875 
Q 18.703125 11.53125 23.578125 9.40625 
Q 28.46875 7.28125 34.578125 7.28125 
Q 39.984375 7.28125 44.140625 8.890625 
Q 48.296875 10.5 50.3125 13.296875 
Q 52.34375 16.109375 52.34375 19.4375 
Q 52.34375 22.796875 50.390625 25.3125 
Q 48.4375 27.828125 43.953125 29.546875 
Q 41.0625 30.671875 31.203125 33.03125 
Q 21.34375 35.40625 17.390625 37.5 
Q 12.25 40.1875 9.734375 44.15625 
Q 7.234375 48.140625 7.234375 53.078125 
Q 7.234375 58.5 10.296875 63.203125 
Q 13.375 67.921875 19.28125 70.359375 
Q 25.203125 72.796875 32.421875 72.796875 
Q 40.375 72.796875 46.453125 70.234375 
Q 52.546875 67.671875 55.8125 62.6875 
Q 59.078125 57.71875 59.328125 51.421875 
L 50.25 50.734375 
Q 49.515625 57.515625 45.28125 60.984375 
Q 41.0625 64.453125 32.8125 64.453125 
Q 24.21875 64.453125 20.28125 61.296875 
Q 16.359375 58.15625 16.359375 53.71875 
Q 16.359375 49.859375 19.140625 47.359375 
Q 21.875 44.875 33.421875 42.265625 
Q 44.96875 39.65625 49.265625 37.703125 
Q 55.515625 34.8125 58.484375 30.390625 
Q 61.46875 25.984375 61.46875 20.21875 
Q 61.46875 14.5 58.203125 9.4375 
Q 54.9375 4.390625 48.796875 1.578125 
Q 42.671875 -1.21875 35.015625 -1.21875 
Q 25.296875 -1.21875 18.71875 1.609375 
Q 12.15625 4.4375 8.421875 10.125 
Q 4.6875 15.828125 4.5 23 
z
" id="ArialMT-83"/>
     <path d="M 21 0 
L 1.265625 51.859375 
L 10.546875 51.859375 
L 21.6875 20.796875 
Q 23.484375 15.765625 25 10.359375 
Q 26.171875 14.453125 28.265625 20.21875 
L 39.796875 51.859375 
L 48.828125 51.859375 
L 29.203125 0 
z
" id="ArialMT-118"/>
    </defs>
    <g style="fill:#262626;" transform="translate(202.099688 21.540375)scale(0.12 -0.12)">
     <use xlink:href="#ArialMT-65"/>
     <use x="66.621094" xlink:href="#ArialMT-32"/>
     <use x="94.404297" xlink:href="#ArialMT-83"/>
     <use x="161.103516" xlink:href="#ArialMT-117"/>
     <use x="216.71875" xlink:href="#ArialMT-114"/>
     <use x="250.019531" xlink:href="#ArialMT-118"/>
     <use x="300.019531" xlink:href="#ArialMT-101"/>
     <use x="355.634766" xlink:href="#ArialMT-121"/>
     <use x="405.634766" xlink:href="#ArialMT-32"/>
     <use x="433.417969" xlink:href="#ArialMT-111"/>
     <use x="489.033203" xlink:href="#ArialMT-102"/>
     <use x="516.816406" xlink:href="#ArialMT-32"/>
     <use x="544.583984" xlink:href="#ArialMT-84"/>
     <use x="605.621094" xlink:href="#ArialMT-105"/>
     <use x="627.837891" xlink:href="#ArialMT-110"/>
     <use x="683.453125" xlink:href="#ArialMT-100"/>
     <use x="739.068359" xlink:href="#ArialMT-101"/>
     <use x="794.683594" xlink:href="#ArialMT-114"/>
     <use x="827.984375" xlink:href="#ArialMT-58"/>
    </g>
    <!-- "How many pigeons do you think you could carry?" -->
    <defs>
     <path d="M 7.03125 46.234375 
L 4.59375 59.859375 
L 4.59375 71.578125 
L 14.59375 71.578125 
L 14.59375 59.859375 
L 12.40625 46.234375 
z
M 23.1875 46.234375 
L 20.796875 59.859375 
L 20.796875 71.578125 
L 30.8125 71.578125 
L 30.8125 59.859375 
L 28.46875 46.234375 
z
" id="ArialMT-34"/>
     <path d="M 8.015625 0 
L 8.015625 71.578125 
L 17.484375 71.578125 
L 17.484375 42.1875 
L 54.6875 42.1875 
L 54.6875 71.578125 
L 64.15625 71.578125 
L 64.15625 0 
L 54.6875 0 
L 54.6875 33.734375 
L 17.484375 33.734375 
L 17.484375 0 
z
" id="ArialMT-72"/>
     <path d="M 6.640625 0 
L 6.640625 71.578125 
L 15.4375 71.578125 
L 15.4375 30.765625 
L 36.234375 51.859375 
L 47.609375 51.859375 
L 27.78125 32.625 
L 49.609375 0 
L 38.765625 0 
L 21.625 26.515625 
L 15.4375 20.5625 
L 15.4375 0 
z
" id="ArialMT-107"/>
     <path d="M 23.046875 17.625 
Q 23 19.390625 23 20.265625 
Q 23 25.4375 24.46875 29.203125 
Q 25.53125 32.03125 27.9375 34.90625 
Q 29.6875 37.015625 34.25 41.03125 
Q 38.8125 45.0625 40.171875 47.453125 
Q 41.546875 49.859375 41.546875 52.6875 
Q 41.546875 57.8125 37.546875 61.6875 
Q 33.546875 65.578125 27.734375 65.578125 
Q 22.125 65.578125 18.359375 62.0625 
Q 14.59375 58.546875 13.421875 51.078125 
L 4.390625 52.15625 
Q 5.609375 62.15625 11.640625 67.46875 
Q 17.671875 72.796875 27.59375 72.796875 
Q 38.09375 72.796875 44.34375 67.078125 
Q 50.59375 61.375 50.59375 53.265625 
Q 50.59375 48.578125 48.390625 44.625 
Q 46.1875 40.671875 39.796875 35.015625 
Q 35.5 31.203125 34.171875 29.390625 
Q 32.859375 27.59375 32.21875 25.25 
Q 31.59375 22.90625 31.5 17.625 
z
M 22.515625 0 
L 22.515625 10.015625 
L 32.515625 10.015625 
L 32.515625 0 
z
" id="ArialMT-63"/>
    </defs>
    <g style="fill:#262626;" transform="translate(118.454063 34.54875)scale(0.12 -0.12)">
     <use xlink:href="#ArialMT-34"/>
     <use x="35.498047" xlink:href="#ArialMT-72"/>
     <use x="107.714844" xlink:href="#ArialMT-111"/>
     <use x="163.330078" xlink:href="#ArialMT-119"/>
     <use x="235.546875" xlink:href="#ArialMT-32"/>
     <use x="263.330078" xlink:href="#ArialMT-109"/>
     <use x="346.630859" xlink:href="#ArialMT-97"/>
     <use x="402.246094" xlink:href="#ArialMT-110"/>
     <use x="457.861328" xlink:href="#ArialMT-121"/>
     <use x="507.861328" xlink:href="#ArialMT-32"/>
     <use x="535.644531" xlink:href="#ArialMT-112"/>
     <use x="591.259766" xlink:href="#ArialMT-105"/>
     <use x="613.476562" xlink:href="#ArialMT-103"/>
     <use x="669.091797" xlink:href="#ArialMT-101"/>
     <use x="724.707031" xlink:href="#ArialMT-111"/>
     <use x="780.322266" xlink:href="#ArialMT-110"/>
     <use x="835.9375" xlink:href="#ArialMT-115"/>
     <use x="885.9375" xlink:href="#ArialMT-32"/>
     <use x="913.720703" xlink:href="#ArialMT-100"/>
     <use x="969.335938" xlink:href="#ArialMT-111"/>
     <use x="1024.951172" xlink:href="#ArialMT-32"/>
     <use x="1052.734375" xlink:href="#ArialMT-121"/>
     <use x="1102.734375" xlink:href="#ArialMT-111"/>
     <use x="1158.349609" xlink:href="#ArialMT-117"/>
     <use x="1213.964844" xlink:href="#ArialMT-32"/>
     <use x="1241.748047" xlink:href="#ArialMT-116"/>
     <use x="1269.53125" xlink:href="#ArialMT-104"/>
     <use x="1325.146484" xlink:href="#ArialMT-105"/>
     <use x="1347.363281" xlink:href="#ArialMT-110"/>
     <use x="1402.978516" xlink:href="#ArialMT-107"/>
     <use x="1452.978516" xlink:href="#ArialMT-32"/>
     <use x="1480.761719" xlink:href="#ArialMT-121"/>
     <use x="1530.761719" xlink:href="#ArialMT-111"/>
     <use x="1586.376953" xlink:href="#ArialMT-117"/>
     <use x="1641.992188" xlink:href="#ArialMT-32"/>
     <use x="1669.775391" xlink:href="#ArialMT-99"/>
     <use x="1719.775391" xlink:href="#ArialMT-111"/>
     <use x="1775.390625" xlink:href="#ArialMT-117"/>
     <use x="1831.005859" xlink:href="#ArialMT-108"/>
     <use x="1853.222656" xlink:href="#ArialMT-100"/>
     <use x="1908.837891" xlink:href="#ArialMT-32"/>
     <use x="1936.621094" xlink:href="#ArialMT-99"/>
     <use x="1986.621094" xlink:href="#ArialMT-97"/>
     <use x="2042.236328" xlink:href="#ArialMT-114"/>
     <use x="2075.537109" xlink:href="#ArialMT-114"/>
     <use x="2108.837891" xlink:href="#ArialMT-121"/>
     <use x="2158.837891" xlink:href="#ArialMT-63"/>
     <use x="2214.453125" xlink:href="#ArialMT-34"/>
    </g>
   </g>
   <g id="legend_1">
    <g id="patch_7">
     <path d="M 374.982188 80.468437 
L 440.14 80.468437 
Q 442.34 80.468437 442.34 78.268437 
L 442.34 48.24875 
Q 442.34 46.04875 440.14 46.04875 
L 374.982188 46.04875 
Q 372.782188 46.04875 372.782188 48.24875 
L 372.782188 78.268437 
Q 372.782188 80.468437 374.982188 80.468437 
z
" style="fill:#eaeaf2;opacity:0.8;stroke:#cccccc;stroke-linejoin:miter;"/>
    </g>
    <g id="line2d_15">
     <path d="M 377.182188 54.472344 
L 399.182188 54.472344 
" style="fill:none;stroke:#408fff;stroke-linecap:round;stroke-width:3;"/>
    </g>
    <g id="line2d_16"/>
    <g id="text_19">
     <!-- Model -->
     <defs>
      <path d="M 7.421875 0 
L 7.421875 71.578125 
L 21.6875 71.578125 
L 38.625 20.90625 
Q 40.96875 13.8125 42.046875 10.296875 
Q 43.265625 14.203125 45.84375 21.78125 
L 62.984375 71.578125 
L 75.734375 71.578125 
L 75.734375 0 
L 66.609375 0 
L 66.609375 59.90625 
L 45.796875 0 
L 37.25 0 
L 16.546875 60.9375 
L 16.546875 0 
z
" id="ArialMT-77"/>
     </defs>
     <g style="fill:#262626;" transform="translate(407.982188 58.322344)scale(0.11 -0.11)">
      <use xlink:href="#ArialMT-77"/>
      <use x="83.300781" xlink:href="#ArialMT-111"/>
      <use x="138.916016" xlink:href="#ArialMT-100"/>
      <use x="194.53125" xlink:href="#ArialMT-101"/>
      <use x="250.146484" xlink:href="#ArialMT-108"/>
     </g>
    </g>
    <g id="patch_8">
     <path d="M 377.182188 73.882187 
L 399.182188 73.882187 
L 399.182188 66.182187 
L 377.182188 66.182187 
z
" style="fill:#ff4063;stroke:#ffffff;stroke-linejoin:miter;"/>
    </g>
    <g id="text_20">
     <!-- Data -->
     <g style="fill:#262626;" transform="translate(407.982188 73.882187)scale(0.11 -0.11)">
      <use xlink:href="#ArialMT-68"/>
      <use x="72.216797" xlink:href="#ArialMT-97"/>
      <use x="127.832031" xlink:href="#ArialMT-116"/>
      <use x="155.615234" xlink:href="#ArialMT-97"/>
     </g>
    </g>
   </g>
   <g id="patch_9">
    <path clip-path="url(#p1a24a92751)" d="M 76.718097 297.9 
L 108.849863 297.9 
L 108.849863 134.502381 
L 76.718097 134.502381 
z
" style="fill:#ff4063;stroke:#ffffff;stroke-linejoin:miter;"/>
   </g>
   <g id="patch_10">
    <path clip-path="url(#p1a24a92751)" d="M 108.849863 297.9 
L 140.98163 297.9 
L 140.98163 216.20119 
L 108.849863 216.20119 
z
" style="fill:#ff4063;stroke:#ffffff;stroke-linejoin:miter;"/>
   </g>
   <g id="patch_11">
    <path clip-path="url(#p1a24a92751)" d="M 140.98163 297.9 
L 173.113396 297.9 
L 173.113396 216.20119 
L 140.98163 216.20119 
z
" style="fill:#ff4063;stroke:#ffffff;stroke-linejoin:miter;"/>
   </g>
   <g id="patch_12">
    <path clip-path="url(#p1a24a92751)" d="M 173.113396 297.9 
L 205.245163 297.9 
L 205.245163 52.803571 
L 173.113396 52.803571 
z
" style="fill:#ff4063;stroke:#ffffff;stroke-linejoin:miter;"/>
   </g>
   <g id="patch_13">
    <path clip-path="url(#p1a24a92751)" d="M 205.245163 297.9 
L 237.376929 297.9 
L 237.376929 216.20119 
L 205.245163 216.20119 
z
" style="fill:#ff4063;stroke:#ffffff;stroke-linejoin:miter;"/>
   </g>
   <g id="patch_14">
    <path clip-path="url(#p1a24a92751)" d="M 237.376929 297.9 
L 269.508696 297.9 
L 269.508696 297.9 
L 237.376929 297.9 
z
" style="fill:#ff4063;stroke:#ffffff;stroke-linejoin:miter;"/>
   </g>
   <g id="patch_15">
    <path clip-path="url(#p1a24a92751)" d="M 269.508696 297.9 
L 301.640462 297.9 
L 301.640462 297.9 
L 269.508696 297.9 
z
" style="fill:#ff4063;stroke:#ffffff;stroke-linejoin:miter;"/>
   </g>
   <g id="patch_16">
    <path clip-path="url(#p1a24a92751)" d="M 301.640462 297.9 
L 333.772229 297.9 
L 333.772229 297.9 
L 301.640462 297.9 
z
" style="fill:#ff4063;stroke:#ffffff;stroke-linejoin:miter;"/>
   </g>
   <g id="patch_17">
    <path clip-path="url(#p1a24a92751)" d="M 333.772229 297.9 
L 365.903995 297.9 
L 365.903995 297.9 
L 333.772229 297.9 
z
" style="fill:#ff4063;stroke:#ffffff;stroke-linejoin:miter;"/>
   </g>
   <g id="patch_18">
    <path clip-path="url(#p1a24a92751)" d="M 365.903995 297.9 
L 398.035762 297.9 
L 398.035762 297.9 
L 365.903995 297.9 
z
" style="fill:#ff4063;stroke:#ffffff;stroke-linejoin:miter;"/>
   </g>
   <g id="patch_19">
    <path clip-path="url(#p1a24a92751)" d="M 398.035762 297.9 
L 430.167528 297.9 
L 430.167528 216.20119 
L 398.035762 216.20119 
z
" style="fill:#ff4063;stroke:#ffffff;stroke-linejoin:miter;"/>
   </g>
   <g id="PolyCollection_1">
    <defs>
     <path d="M 92.78398 -47.7 
L 92.78398 -47.7 
L 92.78398 -47.7 
L 93.460099 -47.7 
L 94.136219 -47.7 
L 94.812338 -47.7 
L 95.488457 -47.7 
L 96.164577 -47.7 
L 96.840696 -47.7 
L 97.516815 -47.7 
L 98.192935 -47.7 
L 98.869054 -47.7 
L 99.545173 -47.7 
L 100.221293 -47.7 
L 100.897412 -47.7 
L 101.573531 -47.7 
L 102.249651 -47.7 
L 102.92577 -47.7 
L 103.601889 -47.7 
L 104.278009 -47.7 
L 104.954128 -47.7 
L 105.630247 -47.7 
L 106.306367 -47.7 
L 106.982486 -47.7 
L 107.658605 -47.7 
L 108.334725 -47.7 
L 109.010844 -47.7 
L 109.686963 -47.7 
L 110.363083 -47.7 
L 111.039202 -47.7 
L 111.715321 -47.7 
L 112.391441 -47.7 
L 113.06756 -47.7 
L 113.743679 -47.7 
L 114.419799 -47.7 
L 115.095918 -47.7 
L 115.772037 -47.7 
L 116.448157 -47.7 
L 117.124276 -47.7 
L 117.800395 -47.7 
L 118.476515 -47.7 
L 119.152634 -47.7 
L 119.828753 -47.7 
L 120.504873 -47.7 
L 121.180992 -47.7 
L 121.857111 -47.7 
L 122.533231 -47.7 
L 123.20935 -47.7 
L 123.885469 -47.7 
L 124.561589 -47.7 
L 125.237708 -47.7 
L 125.913827 -47.7 
L 126.589947 -47.7 
L 127.266066 -47.7 
L 127.942185 -47.7 
L 128.618305 -47.7 
L 129.294424 -47.7 
L 129.970543 -47.7 
L 130.646663 -47.7 
L 131.322782 -47.7 
L 131.998901 -47.7 
L 132.675021 -47.7 
L 133.35114 -47.7 
L 134.027259 -47.7 
L 134.703379 -47.7 
L 135.379498 -47.7 
L 136.055617 -47.7 
L 136.731737 -47.7 
L 137.407856 -47.7 
L 138.083975 -47.7 
L 138.760095 -47.7 
L 139.436214 -47.7 
L 140.112333 -47.7 
L 140.788453 -47.7 
L 141.464572 -47.7 
L 142.140691 -47.7 
L 142.816811 -47.7 
L 143.49293 -47.7 
L 144.169049 -47.7 
L 144.845169 -47.7 
L 145.521288 -47.7 
L 146.197407 -47.7 
L 146.873527 -47.7 
L 147.549646 -47.7 
L 148.225765 -47.7 
L 148.901885 -47.7 
L 149.578004 -47.7 
L 150.254123 -47.7 
L 150.930243 -47.7 
L 151.606362 -47.7 
L 152.282481 -47.7 
L 152.958601 -47.7 
L 153.63472 -47.7 
L 154.310839 -47.7 
L 154.986959 -47.7 
L 155.663078 -47.7 
L 156.339197 -47.7 
L 157.015317 -47.7 
L 157.691436 -47.7 
L 158.367555 -47.7 
L 159.043675 -47.7 
L 159.719794 -47.7 
L 160.395913 -47.7 
L 161.072033 -47.7 
L 161.748152 -47.7 
L 162.424271 -47.7 
L 163.100391 -47.7 
L 163.77651 -47.7 
L 164.452629 -47.7 
L 165.128749 -47.7 
L 165.804868 -47.7 
L 166.480987 -47.7 
L 167.157107 -47.7 
L 167.833226 -47.7 
L 168.509345 -47.7 
L 169.185465 -47.7 
L 169.861584 -47.7 
L 170.537703 -47.7 
L 171.213823 -47.7 
L 171.889942 -47.7 
L 172.566061 -47.7 
L 173.242181 -47.7 
L 173.9183 -47.7 
L 174.594419 -47.7 
L 175.270539 -47.7 
L 175.946658 -47.7 
L 176.622777 -47.7 
L 177.298897 -47.7 
L 177.975016 -47.7 
L 178.651135 -47.7 
L 179.327255 -47.7 
L 180.003374 -47.7 
L 180.679494 -47.7 
L 181.355613 -47.7 
L 182.031732 -47.7 
L 182.707852 -47.7 
L 183.383971 -47.7 
L 184.06009 -47.7 
L 184.73621 -47.7 
L 185.412329 -47.7 
L 186.088448 -47.7 
L 186.764568 -47.7 
L 187.440687 -47.7 
L 188.116806 -47.7 
L 188.792926 -47.7 
L 189.469045 -47.7 
L 190.145164 -47.7 
L 190.821284 -47.7 
L 191.497403 -47.7 
L 192.173522 -47.7 
L 192.849642 -47.7 
L 193.525761 -47.7 
L 194.20188 -47.7 
L 194.878 -47.7 
L 195.554119 -47.7 
L 196.230238 -47.7 
L 196.906358 -47.7 
L 197.582477 -47.7 
L 198.258596 -47.7 
L 198.934716 -47.7 
L 199.610835 -47.7 
L 200.286954 -47.7 
L 200.963074 -47.7 
L 201.639193 -47.7 
L 202.315312 -47.7 
L 202.991432 -47.7 
L 203.667551 -47.7 
L 204.34367 -47.7 
L 205.01979 -47.7 
L 205.695909 -47.7 
L 206.372028 -47.7 
L 207.048148 -47.7 
L 207.724267 -47.7 
L 208.400386 -47.7 
L 209.076506 -47.7 
L 209.752625 -47.7 
L 210.428744 -47.7 
L 211.104864 -47.7 
L 211.780983 -47.7 
L 212.457102 -47.7 
L 213.133222 -47.7 
L 213.809341 -47.7 
L 214.48546 -47.7 
L 215.16158 -47.7 
L 215.837699 -47.7 
L 216.513818 -47.7 
L 217.189938 -47.7 
L 217.866057 -47.7 
L 218.542176 -47.7 
L 219.218296 -47.7 
L 219.894415 -47.7 
L 220.570534 -47.7 
L 221.246654 -47.7 
L 221.922773 -47.7 
L 222.598892 -47.7 
L 223.275012 -47.7 
L 223.951131 -47.7 
L 224.62725 -47.7 
L 225.30337 -47.7 
L 225.979489 -47.7 
L 226.655608 -47.7 
L 227.331728 -47.7 
L 228.007847 -47.7 
L 228.683966 -47.7 
L 229.360086 -47.7 
L 230.036205 -47.7 
L 230.712324 -47.7 
L 231.388444 -47.7 
L 232.064563 -47.7 
L 232.740682 -47.7 
L 233.416802 -47.7 
L 234.092921 -47.7 
L 234.76904 -47.7 
L 235.44516 -47.7 
L 236.121279 -47.7 
L 236.797398 -47.7 
L 237.473518 -47.7 
L 238.149637 -47.7 
L 238.825756 -47.7 
L 239.501876 -47.7 
L 240.177995 -47.7 
L 240.854114 -47.7 
L 241.530234 -47.7 
L 242.206353 -47.7 
L 242.882472 -47.7 
L 243.558592 -47.7 
L 244.234711 -47.7 
L 244.91083 -47.7 
L 245.58695 -47.7 
L 246.263069 -47.7 
L 246.939188 -47.7 
L 247.615308 -47.7 
L 248.291427 -47.7 
L 248.967546 -47.7 
L 249.643666 -47.7 
L 250.319785 -47.7 
L 250.995904 -47.7 
L 251.672024 -47.7 
L 252.348143 -47.7 
L 253.024262 -47.7 
L 253.700382 -47.7 
L 254.376501 -47.7 
L 255.05262 -47.7 
L 255.72874 -47.7 
L 256.404859 -47.7 
L 257.080978 -47.7 
L 257.757098 -47.7 
L 258.433217 -47.7 
L 259.109336 -47.7 
L 259.785456 -47.7 
L 260.461575 -47.7 
L 261.137694 -47.7 
L 261.813814 -47.7 
L 262.489933 -47.7 
L 263.166052 -47.7 
L 263.842172 -47.7 
L 264.518291 -47.7 
L 265.19441 -47.7 
L 265.87053 -47.7 
L 266.546649 -47.7 
L 267.222768 -47.7 
L 267.898888 -47.7 
L 268.575007 -47.7 
L 269.251126 -47.7 
L 269.927246 -47.7 
L 270.603365 -47.7 
L 271.279485 -47.7 
L 271.955604 -47.7 
L 272.631723 -47.7 
L 273.307843 -47.7 
L 273.983962 -47.7 
L 274.660081 -47.7 
L 275.336201 -47.7 
L 276.01232 -47.7 
L 276.688439 -47.7 
L 277.364559 -47.7 
L 278.040678 -47.7 
L 278.716797 -47.7 
L 279.392917 -47.7 
L 280.069036 -47.7 
L 280.745155 -47.7 
L 281.421275 -47.7 
L 282.097394 -47.7 
L 282.773513 -47.7 
L 283.449633 -47.7 
L 284.125752 -47.7 
L 284.801871 -47.7 
L 285.477991 -47.7 
L 286.15411 -47.7 
L 286.830229 -47.7 
L 287.506349 -47.7 
L 288.182468 -47.7 
L 288.858587 -47.7 
L 289.534707 -47.7 
L 290.210826 -47.7 
L 290.886945 -47.7 
L 291.563065 -47.7 
L 292.239184 -47.7 
L 292.915303 -47.7 
L 293.591423 -47.7 
L 294.267542 -47.7 
L 294.943661 -47.7 
L 295.619781 -47.7 
L 296.2959 -47.7 
L 296.972019 -47.7 
L 297.648139 -47.7 
L 298.324258 -47.7 
L 299.000377 -47.7 
L 299.676497 -47.7 
L 300.352616 -47.7 
L 301.028735 -47.7 
L 301.704855 -47.7 
L 302.380974 -47.7 
L 303.057093 -47.7 
L 303.733213 -47.7 
L 304.409332 -47.7 
L 305.085451 -47.7 
L 305.761571 -47.7 
L 306.43769 -47.7 
L 307.113809 -47.7 
L 307.789929 -47.7 
L 308.466048 -47.7 
L 309.142167 -47.7 
L 309.818287 -47.7 
L 310.494406 -47.7 
L 311.170525 -47.7 
L 311.846645 -47.7 
L 312.522764 -47.7 
L 313.198883 -47.7 
L 313.875003 -47.7 
L 314.551122 -47.7 
L 315.227241 -47.7 
L 315.903361 -47.7 
L 316.57948 -47.7 
L 317.255599 -47.7 
L 317.931719 -47.7 
L 318.607838 -47.7 
L 319.283957 -47.7 
L 319.960077 -47.7 
L 320.636196 -47.7 
L 321.312315 -47.7 
L 321.988435 -47.7 
L 322.664554 -47.7 
L 323.340673 -47.7 
L 324.016793 -47.7 
L 324.692912 -47.7 
L 325.369031 -47.7 
L 326.045151 -47.7 
L 326.72127 -47.7 
L 327.397389 -47.7 
L 328.073509 -47.7 
L 328.749628 -47.7 
L 329.425747 -47.7 
L 330.101867 -47.7 
L 330.777986 -47.7 
L 331.454105 -47.7 
L 332.130225 -47.7 
L 332.806344 -47.7 
L 333.482463 -47.7 
L 334.158583 -47.7 
L 334.834702 -47.7 
L 335.510821 -47.7 
L 336.186941 -47.7 
L 336.86306 -47.7 
L 337.539179 -47.7 
L 338.215299 -47.7 
L 338.891418 -47.7 
L 339.567537 -47.7 
L 340.243657 -47.7 
L 340.919776 -47.7 
L 341.595895 -47.7 
L 342.272015 -47.7 
L 342.948134 -47.7 
L 343.624253 -47.7 
L 344.300373 -47.7 
L 344.976492 -47.7 
L 345.652611 -47.7 
L 346.328731 -47.7 
L 347.00485 -47.7 
L 347.680969 -47.7 
L 348.357089 -47.7 
L 349.033208 -47.7 
L 349.709327 -47.7 
L 350.385447 -47.7 
L 351.061566 -47.7 
L 351.737685 -47.7 
L 352.413805 -47.7 
L 353.089924 -47.7 
L 353.766043 -47.7 
L 354.442163 -47.7 
L 355.118282 -47.7 
L 355.794401 -47.7 
L 356.470521 -47.7 
L 357.14664 -47.7 
L 357.822759 -47.7 
L 358.498879 -47.7 
L 359.174998 -47.7 
L 359.851117 -47.7 
L 360.527237 -47.7 
L 361.203356 -47.7 
L 361.879475 -47.7 
L 362.555595 -47.7 
L 363.231714 -47.7 
L 363.907834 -47.7 
L 364.583953 -47.7 
L 365.260072 -47.7 
L 365.936192 -47.7 
L 366.612311 -47.7 
L 367.28843 -47.7 
L 367.96455 -47.7 
L 368.640669 -47.7 
L 369.316788 -47.7 
L 369.992908 -47.7 
L 370.669027 -47.7 
L 371.345146 -47.7 
L 372.021266 -47.7 
L 372.697385 -47.7 
L 373.373504 -47.7 
L 374.049624 -47.7 
L 374.725743 -47.7 
L 375.401862 -47.7 
L 376.077982 -47.7 
L 376.754101 -47.7 
L 377.43022 -47.7 
L 378.10634 -47.7 
L 378.782459 -47.7 
L 379.458578 -47.7 
L 380.134698 -47.7 
L 380.810817 -47.7 
L 381.486936 -47.7 
L 382.163056 -47.7 
L 382.839175 -47.7 
L 383.515294 -47.7 
L 384.191414 -47.7 
L 384.867533 -47.7 
L 385.543652 -47.7 
L 386.219772 -47.7 
L 386.895891 -47.7 
L 387.57201 -47.7 
L 388.24813 -47.7 
L 388.924249 -47.7 
L 389.600368 -47.7 
L 390.276488 -47.7 
L 390.952607 -47.7 
L 391.628726 -47.7 
L 392.304846 -47.7 
L 392.980965 -47.7 
L 393.657084 -47.7 
L 394.333204 -47.7 
L 395.009323 -47.7 
L 395.685442 -47.7 
L 396.361562 -47.7 
L 397.037681 -47.7 
L 397.7138 -47.7 
L 398.38992 -47.7 
L 399.066039 -47.7 
L 399.742158 -47.7 
L 400.418278 -47.7 
L 401.094397 -47.7 
L 401.770516 -47.7 
L 402.446636 -47.7 
L 403.122755 -47.7 
L 403.798874 -47.7 
L 404.474994 -47.7 
L 405.151113 -47.7 
L 405.827232 -47.7 
L 406.503352 -47.7 
L 407.179471 -47.7 
L 407.85559 -47.7 
L 408.53171 -47.7 
L 409.207829 -47.7 
L 409.883948 -47.7 
L 410.560068 -47.7 
L 411.236187 -47.7 
L 411.912306 -47.7 
L 412.588426 -47.7 
L 413.264545 -47.7 
L 413.940664 -47.7 
L 414.616784 -47.7 
L 415.292903 -47.7 
L 415.969022 -47.7 
L 416.645142 -47.7 
L 417.321261 -47.7 
L 417.99738 -47.7 
L 418.6735 -47.7 
L 419.349619 -47.7 
L 420.025738 -47.7 
L 420.701858 -47.7 
L 421.377977 -47.7 
L 422.054096 -47.7 
L 422.730216 -47.7 
L 423.406335 -47.7 
L 424.082454 -47.7 
L 424.758574 -47.7 
L 425.434693 -47.7 
L 426.110812 -47.7 
L 426.786932 -47.7 
L 427.463051 -47.7 
L 428.13917 -47.7 
L 428.81529 -47.7 
L 429.491409 -47.7 
L 430.167528 -47.7 
L 430.167528 -51.112702 
L 430.167528 -51.112702 
L 429.491409 -51.180765 
L 428.81529 -51.249991 
L 428.13917 -51.320396 
L 427.463051 -51.391996 
L 426.786932 -51.464806 
L 426.110812 -51.538842 
L 425.434693 -51.614119 
L 424.758574 -51.690655 
L 424.082454 -51.768465 
L 423.406335 -51.847565 
L 422.730216 -51.927972 
L 422.054096 -52.009702 
L 421.377977 -52.092772 
L 420.701858 -52.177199 
L 420.025738 -52.262998 
L 419.349619 -52.350187 
L 418.6735 -52.438784 
L 417.99738 -52.528804 
L 417.321261 -52.620266 
L 416.645142 -52.713185 
L 415.969022 -52.80758 
L 415.292903 -52.903469 
L 414.616784 -53.000867 
L 413.940664 -53.099793 
L 413.264545 -53.200265 
L 412.588426 -53.3023 
L 411.912306 -53.405916 
L 411.236187 -53.511131 
L 410.560068 -53.617962 
L 409.883948 -53.726427 
L 409.207829 -53.836546 
L 408.53171 -53.948334 
L 407.85559 -54.061811 
L 407.179471 -54.176995 
L 406.503352 -54.293904 
L 405.827232 -54.412556 
L 405.151113 -54.53297 
L 404.474994 -54.655164 
L 403.798874 -54.779155 
L 403.122755 -54.904963 
L 402.446636 -55.032606 
L 401.770516 -55.162103 
L 401.094397 -55.293471 
L 400.418278 -55.426729 
L 399.742158 -55.561896 
L 399.066039 -55.698991 
L 398.38992 -55.838031 
L 397.7138 -55.979035 
L 397.037681 -56.122022 
L 396.361562 -56.26701 
L 395.685442 -56.414018 
L 395.009323 -56.563063 
L 394.333204 -56.714165 
L 393.657084 -56.867342 
L 392.980965 -57.022613 
L 392.304846 -57.179994 
L 391.628726 -57.339506 
L 390.952607 -57.501166 
L 390.276488 -57.664992 
L 389.600368 -57.831003 
L 388.924249 -57.999216 
L 388.24813 -58.169649 
L 387.57201 -58.342322 
L 386.895891 -58.51725 
L 386.219772 -58.694453 
L 385.543652 -58.873948 
L 384.867533 -59.055752 
L 384.191414 -59.239884 
L 383.515294 -59.42636 
L 382.839175 -59.615197 
L 382.163056 -59.806414 
L 381.486936 -60.000028 
L 380.810817 -60.196054 
L 380.134698 -60.39451 
L 379.458578 -60.595414 
L 378.782459 -60.79878 
L 378.10634 -61.004626 
L 377.43022 -61.212969 
L 376.754101 -61.423823 
L 376.077982 -61.637206 
L 375.401862 -61.853133 
L 374.725743 -62.071619 
L 374.049624 -62.29268 
L 373.373504 -62.516332 
L 372.697385 -62.742589 
L 372.021266 -62.971466 
L 371.345146 -63.202978 
L 370.669027 -63.437139 
L 369.992908 -63.673964 
L 369.316788 -63.913466 
L 368.640669 -64.155659 
L 367.96455 -64.400557 
L 367.28843 -64.648174 
L 366.612311 -64.898521 
L 365.936192 -65.151612 
L 365.260072 -65.407459 
L 364.583953 -65.666076 
L 363.907834 -65.927472 
L 363.231714 -66.191661 
L 362.555595 -66.458653 
L 361.879475 -66.72846 
L 361.203356 -67.001093 
L 360.527237 -67.276561 
L 359.851117 -67.554875 
L 359.174998 -67.836045 
L 358.498879 -68.12008 
L 357.822759 -68.40699 
L 357.14664 -68.696783 
L 356.470521 -68.989468 
L 355.794401 -69.285053 
L 355.118282 -69.583545 
L 354.442163 -69.884951 
L 353.766043 -70.18928 
L 353.089924 -70.496537 
L 352.413805 -70.806728 
L 351.737685 -71.11986 
L 351.061566 -71.435938 
L 350.385447 -71.754966 
L 349.709327 -72.07695 
L 349.033208 -72.401892 
L 348.357089 -72.729798 
L 347.680969 -73.06067 
L 347.00485 -73.394511 
L 346.328731 -73.731324 
L 345.652611 -74.07111 
L 344.976492 -74.41387 
L 344.300373 -74.759606 
L 343.624253 -75.108319 
L 342.948134 -75.460007 
L 342.272015 -75.814671 
L 341.595895 -76.172309 
L 340.919776 -76.532921 
L 340.243657 -76.896503 
L 339.567537 -77.263054 
L 338.891418 -77.63257 
L 338.215299 -78.005048 
L 337.539179 -78.380484 
L 336.86306 -78.758873 
L 336.186941 -79.14021 
L 335.510821 -79.524489 
L 334.834702 -79.911703 
L 334.158583 -80.301847 
L 333.482463 -80.694912 
L 332.806344 -81.09089 
L 332.130225 -81.489773 
L 331.454105 -81.891552 
L 330.777986 -82.296217 
L 330.101867 -82.703757 
L 329.425747 -83.114162 
L 328.749628 -83.52742 
L 328.073509 -83.943518 
L 327.397389 -84.362445 
L 326.72127 -84.784187 
L 326.045151 -85.208729 
L 325.369031 -85.636058 
L 324.692912 -86.066157 
L 324.016793 -86.499012 
L 323.340673 -86.934604 
L 322.664554 -87.372919 
L 321.988435 -87.813936 
L 321.312315 -88.257639 
L 320.636196 -88.704008 
L 319.960077 -89.153023 
L 319.283957 -89.604665 
L 318.607838 -90.058911 
L 317.931719 -90.51574 
L 317.255599 -90.97513 
L 316.57948 -91.437057 
L 315.903361 -91.901499 
L 315.227241 -92.368431 
L 314.551122 -92.837827 
L 313.875003 -93.309662 
L 313.198883 -93.78391 
L 312.522764 -94.260544 
L 311.846645 -94.739535 
L 311.170525 -95.220857 
L 310.494406 -95.704478 
L 309.818287 -96.19037 
L 309.142167 -96.678503 
L 308.466048 -97.168845 
L 307.789929 -97.661364 
L 307.113809 -98.156028 
L 306.43769 -98.652805 
L 305.761571 -99.151659 
L 305.085451 -99.652557 
L 304.409332 -100.155463 
L 303.733213 -100.660343 
L 303.057093 -101.167158 
L 302.380974 -101.675873 
L 301.704855 -102.186448 
L 301.028735 -102.698847 
L 300.352616 -103.213029 
L 299.676497 -103.728955 
L 299.000377 -104.246584 
L 298.324258 -104.765876 
L 297.648139 -105.286788 
L 296.972019 -105.809278 
L 296.2959 -106.333303 
L 295.619781 -106.858819 
L 294.943661 -107.385782 
L 294.267542 -107.914147 
L 293.591423 -108.443869 
L 292.915303 -108.9749 
L 292.239184 -109.507195 
L 291.563065 -110.040705 
L 290.886945 -110.575383 
L 290.210826 -111.11118 
L 289.534707 -111.648046 
L 288.858587 -112.185932 
L 288.182468 -112.724788 
L 287.506349 -113.264561 
L 286.830229 -113.805201 
L 286.15411 -114.346656 
L 285.477991 -114.888872 
L 284.801871 -115.431796 
L 284.125752 -115.975374 
L 283.449633 -116.519553 
L 282.773513 -117.064276 
L 282.097394 -117.609489 
L 281.421275 -118.155135 
L 280.745155 -118.701159 
L 280.069036 -119.247502 
L 279.392917 -119.794108 
L 278.716797 -120.340918 
L 278.040678 -120.887874 
L 277.364559 -121.434917 
L 276.688439 -121.981988 
L 276.01232 -122.529027 
L 275.336201 -123.075973 
L 274.660081 -123.622766 
L 273.983962 -124.169345 
L 273.307843 -124.715648 
L 272.631723 -125.261614 
L 271.955604 -125.80718 
L 271.279485 -126.352283 
L 270.603365 -126.89686 
L 269.927246 -127.440848 
L 269.251126 -127.984183 
L 268.575007 -128.526802 
L 267.898888 -129.068639 
L 267.222768 -129.609631 
L 266.546649 -130.149711 
L 265.87053 -130.688815 
L 265.19441 -131.226878 
L 264.518291 -131.763833 
L 263.842172 -132.299615 
L 263.166052 -132.834157 
L 262.489933 -133.367393 
L 261.813814 -133.899256 
L 261.137694 -134.42968 
L 260.461575 -134.958596 
L 259.785456 -135.485939 
L 259.109336 -136.01164 
L 258.433217 -136.535633 
L 257.757098 -137.05785 
L 257.080978 -137.578222 
L 256.404859 -138.096682 
L 255.72874 -138.613163 
L 255.05262 -139.127596 
L 254.376501 -139.639913 
L 253.700382 -140.150047 
L 253.024262 -140.657929 
L 252.348143 -141.163491 
L 251.672024 -141.666665 
L 250.995904 -142.167384 
L 250.319785 -142.665578 
L 249.643666 -143.161181 
L 248.967546 -143.654124 
L 248.291427 -144.14434 
L 247.615308 -144.63176 
L 246.939188 -145.116318 
L 246.263069 -145.597946 
L 245.58695 -146.076576 
L 244.91083 -146.552143 
L 244.234711 -147.024577 
L 243.558592 -147.493814 
L 242.882472 -147.959786 
L 242.206353 -148.422427 
L 241.530234 -148.88167 
L 240.854114 -149.337451 
L 240.177995 -149.789704 
L 239.501876 -150.238363 
L 238.825756 -150.683363 
L 238.149637 -151.12464 
L 237.473518 -151.562129 
L 236.797398 -151.995767 
L 236.121279 -152.42549 
L 235.44516 -152.851234 
L 234.76904 -153.272938 
L 234.092921 -153.690537 
L 233.416802 -154.103971 
L 232.740682 -154.513178 
L 232.064563 -154.918097 
L 231.388444 -155.318667 
L 230.712324 -155.714828 
L 230.036205 -156.106521 
L 229.360086 -156.493686 
L 228.683966 -156.876264 
L 228.007847 -157.254199 
L 227.331728 -157.627431 
L 226.655608 -157.995905 
L 225.979489 -158.359564 
L 225.30337 -158.718353 
L 224.62725 -159.072216 
L 223.951131 -159.421098 
L 223.275012 -159.764947 
L 222.598892 -160.103708 
L 221.922773 -160.43733 
L 221.246654 -160.76576 
L 220.570534 -161.088948 
L 219.894415 -161.406843 
L 219.218296 -161.719396 
L 218.542176 -162.026557 
L 217.866057 -162.328278 
L 217.189938 -162.624513 
L 216.513818 -162.915214 
L 215.837699 -163.200336 
L 215.16158 -163.479833 
L 214.48546 -163.753661 
L 213.809341 -164.021778 
L 213.133222 -164.28414 
L 212.457102 -164.540706 
L 211.780983 -164.791435 
L 211.104864 -165.036286 
L 210.428744 -165.275222 
L 209.752625 -165.508203 
L 209.076506 -165.735193 
L 208.400386 -165.956154 
L 207.724267 -166.171052 
L 207.048148 -166.379852 
L 206.372028 -166.582521 
L 205.695909 -166.779025 
L 205.01979 -166.969333 
L 204.34367 -167.153414 
L 203.667551 -167.331239 
L 202.991432 -167.502779 
L 202.315312 -167.668006 
L 201.639193 -167.826893 
L 200.963074 -167.979414 
L 200.286954 -168.125545 
L 199.610835 -168.265262 
L 198.934716 -168.398543 
L 198.258596 -168.525364 
L 197.582477 -168.645707 
L 196.906358 -168.75955 
L 196.230238 -168.866877 
L 195.554119 -168.967668 
L 194.878 -169.061908 
L 194.20188 -169.149582 
L 193.525761 -169.230674 
L 192.849642 -169.305172 
L 192.173522 -169.373063 
L 191.497403 -169.434337 
L 190.821284 -169.488983 
L 190.145164 -169.536993 
L 189.469045 -169.578358 
L 188.792926 -169.613071 
L 188.116806 -169.641128 
L 187.440687 -169.662523 
L 186.764568 -169.677253 
L 186.088448 -169.685316 
L 185.412329 -169.68671 
L 184.73621 -169.681435 
L 184.06009 -169.669491 
L 183.383971 -169.650882 
L 182.707852 -169.625609 
L 182.031732 -169.593677 
L 181.355613 -169.555091 
L 180.679494 -169.509858 
L 180.003374 -169.457985 
L 179.327255 -169.399481 
L 178.651135 -169.334354 
L 177.975016 -169.262616 
L 177.298897 -169.184279 
L 176.622777 -169.099354 
L 175.946658 -169.007857 
L 175.270539 -168.909802 
L 174.594419 -168.805205 
L 173.9183 -168.694084 
L 173.242181 -168.576455 
L 172.566061 -168.45234 
L 171.889942 -168.321756 
L 171.213823 -168.184727 
L 170.537703 -168.041274 
L 169.861584 -167.891421 
L 169.185465 -167.735192 
L 168.509345 -167.572612 
L 167.833226 -167.403707 
L 167.157107 -167.228506 
L 166.480987 -167.047036 
L 165.804868 -166.859327 
L 165.128749 -166.665409 
L 164.452629 -166.465313 
L 163.77651 -166.259072 
L 163.100391 -166.046719 
L 162.424271 -165.828288 
L 161.748152 -165.603813 
L 161.072033 -165.373332 
L 160.395913 -165.136881 
L 159.719794 -164.894497 
L 159.043675 -164.64622 
L 158.367555 -164.392089 
L 157.691436 -164.132145 
L 157.015317 -163.866429 
L 156.339197 -163.594982 
L 155.663078 -163.317849 
L 154.986959 -163.035073 
L 154.310839 -162.746699 
L 153.63472 -162.452771 
L 152.958601 -162.153338 
L 152.282481 -161.848444 
L 151.606362 -161.538139 
L 150.930243 -161.222472 
L 150.254123 -160.90149 
L 149.578004 -160.575245 
L 148.901885 -160.243787 
L 148.225765 -159.907167 
L 147.549646 -159.565439 
L 146.873527 -159.218654 
L 146.197407 -158.866866 
L 145.521288 -158.51013 
L 144.845169 -158.1485 
L 144.169049 -157.782032 
L 143.49293 -157.410781 
L 142.816811 -157.034805 
L 142.140691 -156.654161 
L 141.464572 -156.268906 
L 140.788453 -155.879099 
L 140.112333 -155.484798 
L 139.436214 -155.086064 
L 138.760095 -154.682955 
L 138.083975 -154.275533 
L 137.407856 -153.863859 
L 136.731737 -153.447993 
L 136.055617 -153.027997 
L 135.379498 -152.603934 
L 134.703379 -152.175867 
L 134.027259 -151.743858 
L 133.35114 -151.30797 
L 132.675021 -150.868269 
L 131.998901 -150.424817 
L 131.322782 -149.977679 
L 130.646663 -149.526921 
L 129.970543 -149.072607 
L 129.294424 -148.614803 
L 128.618305 -148.153574 
L 127.942185 -147.688986 
L 127.266066 -147.221106 
L 126.589947 -146.75 
L 125.913827 -146.275735 
L 125.237708 -145.798377 
L 124.561589 -145.317994 
L 123.885469 -144.834652 
L 123.20935 -144.34842 
L 122.533231 -143.859364 
L 121.857111 -143.367553 
L 121.180992 -142.873054 
L 120.504873 -142.375935 
L 119.828753 -141.876263 
L 119.152634 -141.374107 
L 118.476515 -140.869535 
L 117.800395 -140.362614 
L 117.124276 -139.853413 
L 116.448157 -139.342001 
L 115.772037 -138.828444 
L 115.095918 -138.312811 
L 114.419799 -137.795169 
L 113.743679 -137.275588 
L 113.06756 -136.754134 
L 112.391441 -136.230876 
L 111.715321 -135.70588 
L 111.039202 -135.179215 
L 110.363083 -134.650948 
L 109.686963 -134.121147 
L 109.010844 -133.589877 
L 108.334725 -133.057207 
L 107.658605 -132.523203 
L 106.982486 -131.987931 
L 106.306367 -131.451458 
L 105.630247 -130.91385 
L 104.954128 -130.375173 
L 104.278009 -129.835493 
L 103.601889 -129.294874 
L 102.92577 -128.753383 
L 102.249651 -128.211083 
L 101.573531 -127.668039 
L 100.897412 -127.124316 
L 100.221293 -126.579978 
L 99.545173 -126.035087 
L 98.869054 -125.489707 
L 98.192935 -124.943901 
L 97.516815 -124.397731 
L 96.840696 -123.85126 
L 96.164577 -123.304549 
L 95.488457 -122.757659 
L 94.812338 -122.210652 
L 94.136219 -121.663587 
L 93.460099 -121.116525 
L 92.78398 -120.569525 
L 92.78398 -47.7 
z
" id="me24330e6bf" style="stroke:#408fff;stroke-opacity:0.2;"/>
    </defs>
    <g clip-path="url(#p1a24a92751)">
     <use style="fill:#408fff;fill-opacity:0.2;stroke:#408fff;stroke-opacity:0.2;" x="0" xlink:href="#me24330e6bf" y="345.6"/>
    </g>
   </g>
   <g id="line2d_17">
    <path clip-path="url(#p1a24a92751)" d="M 92.78398 297.9 
L 92.78398 225.030475 
L 110.363083 210.949052 
L 118.476515 204.730465 
L 125.237708 199.801623 
L 131.322782 195.622321 
L 136.731737 192.152007 
L 142.140691 188.945839 
L 146.873527 186.381346 
L 151.606362 184.061861 
L 156.339197 182.005018 
L 160.395913 180.463119 
L 164.452629 179.134687 
L 168.509345 178.027388 
L 172.566061 177.14766 
L 176.622777 176.500646 
L 180.679494 176.090142 
L 184.73621 175.918565 
L 188.792926 175.986929 
L 192.849642 176.294828 
L 196.906358 176.84045 
L 200.963074 177.620586 
L 205.01979 178.630667 
L 209.076506 179.864807 
L 213.133222 181.31586 
L 217.189938 182.975487 
L 221.922773 185.16267 
L 226.655608 187.604095 
L 231.388444 190.281333 
L 236.797398 193.604233 
L 242.206353 197.177573 
L 248.291427 201.45566 
L 255.05262 206.472404 
L 263.166052 212.765843 
L 275.336201 222.524027 
L 293.591423 237.156131 
L 303.057093 244.432842 
L 311.170525 250.379143 
L 318.607838 255.541089 
L 325.369031 259.963942 
L 332.130225 264.110227 
L 338.215299 267.594952 
L 344.300373 270.840394 
L 350.385447 273.845034 
L 356.470521 276.610532 
L 362.555595 279.141347 
L 368.640669 281.444341 
L 374.725743 283.528381 
L 381.486936 285.599972 
L 388.24813 287.430351 
L 395.009323 289.036937 
L 402.446636 290.567394 
L 409.883948 291.873573 
L 417.99738 293.071196 
L 426.786932 294.135194 
L 430.167528 294.487298 
L 430.167528 294.487298 
" style="fill:none;stroke:#408fff;stroke-linecap:round;stroke-width:3;"/>
   </g>
  </g>
 </g>
 <defs>
  <clipPath id="p1a24a92751">
   <rect height="257.35125" width="388.794375" x="59.045625" y="40.54875"/>
  </clipPath>
 </defs>
</svg>
