<?xml version="1.0" encoding="utf-8" standalone="no"?>
<!DOCTYPE svg PUBLIC "-//W3C//DTD SVG 1.1//EN"
  "http://www.w3.org/Graphics/SVG/1.1/DTD/svg11.dtd">
<!-- Created with matplotlib (https://matplotlib.org/) -->
<svg height="345.6pt" version="1.1" viewBox="0 0 460.8 345.6" width="460.8pt" xmlns="http://www.w3.org/2000/svg" xmlns:xlink="http://www.w3.org/1999/xlink">
 <defs>
  <style type="text/css">
*{stroke-linecap:butt;stroke-linejoin:round;}
  </style>
 </defs>
 <g id="figure_1">
  <g id="patch_1">
   <path d="M 0 345.6 
L 460.8 345.6 
L 460.8 0 
L 0 0 
z
" style="fill:#ffffff;"/>
  </g>
  <g id="axes_1">
   <g id="patch_2">
    <path d="M 59.045625 297.9 
L 447.84 297.9 
L 447.84 40.54875 
L 59.045625 40.54875 
z
" style="fill:#eaeaf2;"/>
   </g>
   <g id="matplotlib.axis_1">
    <g id="xtick_1">
     <g id="line2d_1">
      <path clip-path="url(#p4d6f444f16)" d="M 85.133559 297.9 
L 85.133559 40.54875 
" style="fill:none;stroke:#ffffff;stroke-linecap:round;"/>
     </g>
     <g id="text_1">
      <!-- 0 -->
      <defs>
       <path d="M 4.15625 35.296875 
Q 4.15625 48 6.765625 55.734375 
Q 9.375 63.484375 14.515625 67.671875 
Q 19.671875 71.875 27.484375 71.875 
Q 33.25 71.875 37.59375 69.546875 
Q 41.9375 67.234375 44.765625 62.859375 
Q 47.609375 58.5 49.21875 52.21875 
Q 50.828125 45.953125 50.828125 35.296875 
Q 50.828125 22.703125 48.234375 14.96875 
Q 45.65625 7.234375 40.5 3 
Q 35.359375 -1.21875 27.484375 -1.21875 
Q 17.140625 -1.21875 11.234375 6.203125 
Q 4.15625 15.140625 4.15625 35.296875 
z
M 13.1875 35.296875 
Q 13.1875 17.671875 17.3125 11.828125 
Q 21.4375 6 27.484375 6 
Q 33.546875 6 37.671875 11.859375 
Q 41.796875 17.71875 41.796875 35.296875 
Q 41.796875 52.984375 37.671875 58.78125 
Q 33.546875 64.59375 27.390625 64.59375 
Q 21.34375 64.59375 17.71875 59.46875 
Q 13.1875 52.9375 13.1875 35.296875 
z
" id="ArialMT-48"/>
      </defs>
      <g style="fill:#262626;" transform="translate(82.075044 315.273594)scale(0.11 -0.11)">
       <use xlink:href="#ArialMT-48"/>
      </g>
     </g>
    </g>
    <g id="xtick_2">
     <g id="line2d_2">
      <path clip-path="url(#p4d6f444f16)" d="M 169.288186 297.9 
L 169.288186 40.54875 
" style="fill:none;stroke:#ffffff;stroke-linecap:round;"/>
     </g>
     <g id="text_2">
      <!-- 5 -->
      <defs>
       <path d="M 4.15625 18.75 
L 13.375 19.53125 
Q 14.40625 12.796875 18.140625 9.390625 
Q 21.875 6 27.15625 6 
Q 33.5 6 37.890625 10.78125 
Q 42.28125 15.578125 42.28125 23.484375 
Q 42.28125 31 38.0625 35.34375 
Q 33.84375 39.703125 27 39.703125 
Q 22.75 39.703125 19.328125 37.765625 
Q 15.921875 35.84375 13.96875 32.765625 
L 5.71875 33.84375 
L 12.640625 70.609375 
L 48.25 70.609375 
L 48.25 62.203125 
L 19.671875 62.203125 
L 15.828125 42.96875 
Q 22.265625 47.46875 29.34375 47.46875 
Q 38.71875 47.46875 45.15625 40.96875 
Q 51.609375 34.46875 51.609375 24.265625 
Q 51.609375 14.546875 45.953125 7.46875 
Q 39.0625 -1.21875 27.15625 -1.21875 
Q 17.390625 -1.21875 11.203125 4.25 
Q 5.03125 9.71875 4.15625 18.75 
z
" id="ArialMT-53"/>
      </defs>
      <g style="fill:#262626;" transform="translate(166.22967 315.273594)scale(0.11 -0.11)">
       <use xlink:href="#ArialMT-53"/>
      </g>
     </g>
    </g>
    <g id="xtick_3">
     <g id="line2d_3">
      <path clip-path="url(#p4d6f444f16)" d="M 253.442813 297.9 
L 253.442813 40.54875 
" style="fill:none;stroke:#ffffff;stroke-linecap:round;"/>
     </g>
     <g id="text_3">
      <!-- 10 -->
      <defs>
       <path d="M 37.25 0 
L 28.46875 0 
L 28.46875 56 
Q 25.296875 52.984375 20.140625 49.953125 
Q 14.984375 46.921875 10.890625 45.40625 
L 10.890625 53.90625 
Q 18.265625 57.375 23.78125 62.296875 
Q 29.296875 67.234375 31.59375 71.875 
L 37.25 71.875 
z
" id="ArialMT-49"/>
      </defs>
      <g style="fill:#262626;" transform="translate(247.325781 315.273594)scale(0.11 -0.11)">
       <use xlink:href="#ArialMT-49"/>
       <use x="55.615234" xlink:href="#ArialMT-48"/>
      </g>
     </g>
    </g>
    <g id="xtick_4">
     <g id="line2d_4">
      <path clip-path="url(#p4d6f444f16)" d="M 337.597439 297.9 
L 337.597439 40.54875 
" style="fill:none;stroke:#ffffff;stroke-linecap:round;"/>
     </g>
     <g id="text_4">
      <!-- 15 -->
      <g style="fill:#262626;" transform="translate(331.480408 315.273594)scale(0.11 -0.11)">
       <use xlink:href="#ArialMT-49"/>
       <use x="55.615234" xlink:href="#ArialMT-53"/>
      </g>
     </g>
    </g>
    <g id="xtick_5">
     <g id="line2d_5">
      <path clip-path="url(#p4d6f444f16)" d="M 421.752066 297.9 
L 421.752066 40.54875 
" style="fill:none;stroke:#ffffff;stroke-linecap:round;"/>
     </g>
     <g id="text_5">
      <!-- 20 -->
      <defs>
       <path d="M 50.34375 8.453125 
L 50.34375 0 
L 3.03125 0 
Q 2.9375 3.171875 4.046875 6.109375 
Q 5.859375 10.9375 9.828125 15.625 
Q 13.8125 20.3125 21.34375 26.46875 
Q 33.015625 36.03125 37.109375 41.625 
Q 41.21875 47.21875 41.21875 52.203125 
Q 41.21875 57.421875 37.46875 61 
Q 33.734375 64.59375 27.734375 64.59375 
Q 21.390625 64.59375 17.578125 60.78125 
Q 13.765625 56.984375 13.71875 50.25 
L 4.6875 51.171875 
Q 5.609375 61.28125 11.65625 66.578125 
Q 17.71875 71.875 27.9375 71.875 
Q 38.234375 71.875 44.234375 66.15625 
Q 50.25 60.453125 50.25 52 
Q 50.25 47.703125 48.484375 43.546875 
Q 46.734375 39.40625 42.65625 34.8125 
Q 38.578125 30.21875 29.109375 22.21875 
Q 21.1875 15.578125 18.9375 13.203125 
Q 16.703125 10.84375 15.234375 8.453125 
z
" id="ArialMT-50"/>
      </defs>
      <g style="fill:#262626;" transform="translate(415.635034 315.273594)scale(0.11 -0.11)">
       <use xlink:href="#ArialMT-50"/>
       <use x="55.615234" xlink:href="#ArialMT-48"/>
      </g>
     </g>
    </g>
    <g id="text_6">
     <!-- Number of Pigeons They Could Carry [pigeons] -->
     <defs>
      <path d="M 7.625 0 
L 7.625 71.578125 
L 17.328125 71.578125 
L 54.9375 15.375 
L 54.9375 71.578125 
L 64.015625 71.578125 
L 64.015625 0 
L 54.296875 0 
L 16.703125 56.25 
L 16.703125 0 
z
" id="ArialMT-78"/>
      <path d="M 40.578125 0 
L 40.578125 7.625 
Q 34.515625 -1.171875 24.125 -1.171875 
Q 19.53125 -1.171875 15.546875 0.578125 
Q 11.578125 2.34375 9.640625 5 
Q 7.71875 7.671875 6.9375 11.53125 
Q 6.390625 14.109375 6.390625 19.734375 
L 6.390625 51.859375 
L 15.1875 51.859375 
L 15.1875 23.09375 
Q 15.1875 16.21875 15.71875 13.8125 
Q 16.546875 10.359375 19.234375 8.375 
Q 21.921875 6.390625 25.875 6.390625 
Q 29.828125 6.390625 33.296875 8.421875 
Q 36.765625 10.453125 38.203125 13.9375 
Q 39.65625 17.4375 39.65625 24.078125 
L 39.65625 51.859375 
L 48.4375 51.859375 
L 48.4375 0 
z
" id="ArialMT-117"/>
      <path d="M 6.59375 0 
L 6.59375 51.859375 
L 14.453125 51.859375 
L 14.453125 44.578125 
Q 16.890625 48.390625 20.9375 50.703125 
Q 25 53.03125 30.171875 53.03125 
Q 35.9375 53.03125 39.625 50.640625 
Q 43.3125 48.25 44.828125 43.953125 
Q 50.984375 53.03125 60.84375 53.03125 
Q 68.5625 53.03125 72.703125 48.75 
Q 76.859375 44.484375 76.859375 35.59375 
L 76.859375 0 
L 68.109375 0 
L 68.109375 32.671875 
Q 68.109375 37.9375 67.25 40.25 
Q 66.40625 42.578125 64.15625 43.984375 
Q 61.921875 45.40625 58.890625 45.40625 
Q 53.421875 45.40625 49.796875 41.765625 
Q 46.1875 38.140625 46.1875 30.125 
L 46.1875 0 
L 37.40625 0 
L 37.40625 33.6875 
Q 37.40625 39.546875 35.25 42.46875 
Q 33.109375 45.40625 28.21875 45.40625 
Q 24.515625 45.40625 21.359375 43.453125 
Q 18.21875 41.5 16.796875 37.734375 
Q 15.375 33.984375 15.375 26.90625 
L 15.375 0 
z
" id="ArialMT-109"/>
      <path d="M 14.703125 0 
L 6.546875 0 
L 6.546875 71.578125 
L 15.328125 71.578125 
L 15.328125 46.046875 
Q 20.90625 53.03125 29.546875 53.03125 
Q 34.328125 53.03125 38.59375 51.09375 
Q 42.875 49.171875 45.625 45.671875 
Q 48.390625 42.1875 49.953125 37.25 
Q 51.515625 32.328125 51.515625 26.703125 
Q 51.515625 13.375 44.921875 6.09375 
Q 38.328125 -1.171875 29.109375 -1.171875 
Q 19.921875 -1.171875 14.703125 6.5 
z
M 14.59375 26.3125 
Q 14.59375 17 17.140625 12.84375 
Q 21.296875 6.0625 28.375 6.0625 
Q 34.125 6.0625 38.328125 11.0625 
Q 42.53125 16.0625 42.53125 25.984375 
Q 42.53125 36.140625 38.5 40.96875 
Q 34.46875 45.796875 28.765625 45.796875 
Q 23 45.796875 18.796875 40.796875 
Q 14.59375 35.796875 14.59375 26.3125 
z
" id="ArialMT-98"/>
      <path d="M 42.09375 16.703125 
L 51.171875 15.578125 
Q 49.03125 7.625 43.21875 3.21875 
Q 37.40625 -1.171875 28.375 -1.171875 
Q 17 -1.171875 10.328125 5.828125 
Q 3.65625 12.84375 3.65625 25.484375 
Q 3.65625 38.578125 10.390625 45.796875 
Q 17.140625 53.03125 27.875 53.03125 
Q 38.28125 53.03125 44.875 45.953125 
Q 51.46875 38.875 51.46875 26.03125 
Q 51.46875 25.25 51.421875 23.6875 
L 12.75 23.6875 
Q 13.234375 15.140625 17.578125 10.59375 
Q 21.921875 6.0625 28.421875 6.0625 
Q 33.25 6.0625 36.671875 8.59375 
Q 40.09375 11.140625 42.09375 16.703125 
z
M 13.234375 30.90625 
L 42.1875 30.90625 
Q 41.609375 37.453125 38.875 40.71875 
Q 34.671875 45.796875 27.984375 45.796875 
Q 21.921875 45.796875 17.796875 41.75 
Q 13.671875 37.703125 13.234375 30.90625 
z
" id="ArialMT-101"/>
      <path d="M 6.5 0 
L 6.5 51.859375 
L 14.40625 51.859375 
L 14.40625 44 
Q 17.4375 49.515625 20 51.265625 
Q 22.5625 53.03125 25.640625 53.03125 
Q 30.078125 53.03125 34.671875 50.203125 
L 31.640625 42.046875 
Q 28.421875 43.953125 25.203125 43.953125 
Q 22.3125 43.953125 20.015625 42.21875 
Q 17.71875 40.484375 16.75 37.40625 
Q 15.28125 32.71875 15.28125 27.15625 
L 15.28125 0 
z
" id="ArialMT-114"/>
      <path id="ArialMT-32"/>
      <path d="M 3.328125 25.921875 
Q 3.328125 40.328125 11.328125 47.265625 
Q 18.015625 53.03125 27.640625 53.03125 
Q 38.328125 53.03125 45.109375 46.015625 
Q 51.90625 39.015625 51.90625 26.65625 
Q 51.90625 16.65625 48.90625 10.90625 
Q 45.90625 5.171875 40.15625 2 
Q 34.421875 -1.171875 27.640625 -1.171875 
Q 16.75 -1.171875 10.03125 5.8125 
Q 3.328125 12.796875 3.328125 25.921875 
z
M 12.359375 25.921875 
Q 12.359375 15.96875 16.703125 11.015625 
Q 21.046875 6.0625 27.640625 6.0625 
Q 34.1875 6.0625 38.53125 11.03125 
Q 42.875 16.015625 42.875 26.21875 
Q 42.875 35.84375 38.5 40.796875 
Q 34.125 45.75 27.640625 45.75 
Q 21.046875 45.75 16.703125 40.8125 
Q 12.359375 35.890625 12.359375 25.921875 
z
" id="ArialMT-111"/>
      <path d="M 8.6875 0 
L 8.6875 45.015625 
L 0.921875 45.015625 
L 0.921875 51.859375 
L 8.6875 51.859375 
L 8.6875 57.375 
Q 8.6875 62.59375 9.625 65.140625 
Q 10.890625 68.5625 14.078125 70.671875 
Q 17.28125 72.796875 23.046875 72.796875 
Q 26.765625 72.796875 31.25 71.921875 
L 29.9375 64.265625 
Q 27.203125 64.75 24.75 64.75 
Q 20.75 64.75 19.09375 63.03125 
Q 17.4375 61.328125 17.4375 56.640625 
L 17.4375 51.859375 
L 27.546875 51.859375 
L 27.546875 45.015625 
L 17.4375 45.015625 
L 17.4375 0 
z
" id="ArialMT-102"/>
      <path d="M 7.71875 0 
L 7.71875 71.578125 
L 34.71875 71.578125 
Q 41.84375 71.578125 45.609375 70.90625 
Q 50.875 70.015625 54.4375 67.546875 
Q 58.015625 65.09375 60.1875 60.640625 
Q 62.359375 56.203125 62.359375 50.875 
Q 62.359375 41.75 56.546875 35.421875 
Q 50.734375 29.109375 35.546875 29.109375 
L 17.1875 29.109375 
L 17.1875 0 
z
M 17.1875 37.546875 
L 35.6875 37.546875 
Q 44.875 37.546875 48.734375 40.96875 
Q 52.59375 44.390625 52.59375 50.59375 
Q 52.59375 55.078125 50.3125 58.265625 
Q 48.046875 61.46875 44.34375 62.5 
Q 41.9375 63.140625 35.5 63.140625 
L 17.1875 63.140625 
z
" id="ArialMT-80"/>
      <path d="M 6.640625 61.46875 
L 6.640625 71.578125 
L 15.4375 71.578125 
L 15.4375 61.46875 
z
M 6.640625 0 
L 6.640625 51.859375 
L 15.4375 51.859375 
L 15.4375 0 
z
" id="ArialMT-105"/>
      <path d="M 4.984375 -4.296875 
L 13.53125 -5.5625 
Q 14.0625 -9.515625 16.5 -11.328125 
Q 19.78125 -13.765625 25.4375 -13.765625 
Q 31.546875 -13.765625 34.859375 -11.328125 
Q 38.1875 -8.890625 39.359375 -4.5 
Q 40.046875 -1.8125 39.984375 6.78125 
Q 34.234375 0 25.640625 0 
Q 14.9375 0 9.078125 7.71875 
Q 3.21875 15.4375 3.21875 26.21875 
Q 3.21875 33.640625 5.90625 39.90625 
Q 8.59375 46.1875 13.6875 49.609375 
Q 18.796875 53.03125 25.6875 53.03125 
Q 34.859375 53.03125 40.828125 45.609375 
L 40.828125 51.859375 
L 48.921875 51.859375 
L 48.921875 7.03125 
Q 48.921875 -5.078125 46.453125 -10.125 
Q 44 -15.1875 38.640625 -18.109375 
Q 33.296875 -21.046875 25.484375 -21.046875 
Q 16.21875 -21.046875 10.5 -16.875 
Q 4.78125 -12.703125 4.984375 -4.296875 
z
M 12.25 26.859375 
Q 12.25 16.65625 16.296875 11.96875 
Q 20.359375 7.28125 26.46875 7.28125 
Q 32.515625 7.28125 36.609375 11.9375 
Q 40.71875 16.609375 40.71875 26.5625 
Q 40.71875 36.078125 36.5 40.90625 
Q 32.28125 45.75 26.3125 45.75 
Q 20.453125 45.75 16.34375 40.984375 
Q 12.25 36.234375 12.25 26.859375 
z
" id="ArialMT-103"/>
      <path d="M 6.59375 0 
L 6.59375 51.859375 
L 14.5 51.859375 
L 14.5 44.484375 
Q 20.21875 53.03125 31 53.03125 
Q 35.6875 53.03125 39.625 51.34375 
Q 43.5625 49.65625 45.515625 46.921875 
Q 47.46875 44.1875 48.25 40.4375 
Q 48.734375 37.984375 48.734375 31.890625 
L 48.734375 0 
L 39.9375 0 
L 39.9375 31.546875 
Q 39.9375 36.921875 38.90625 39.578125 
Q 37.890625 42.234375 35.28125 43.8125 
Q 32.671875 45.40625 29.15625 45.40625 
Q 23.53125 45.40625 19.453125 41.84375 
Q 15.375 38.28125 15.375 28.328125 
L 15.375 0 
z
" id="ArialMT-110"/>
      <path d="M 3.078125 15.484375 
L 11.765625 16.84375 
Q 12.5 11.625 15.84375 8.84375 
Q 19.1875 6.0625 25.203125 6.0625 
Q 31.25 6.0625 34.171875 8.515625 
Q 37.109375 10.984375 37.109375 14.3125 
Q 37.109375 17.28125 34.515625 19 
Q 32.71875 20.171875 25.53125 21.96875 
Q 15.875 24.421875 12.140625 26.203125 
Q 8.40625 27.984375 6.46875 31.125 
Q 4.546875 34.28125 4.546875 38.09375 
Q 4.546875 41.546875 6.125 44.5 
Q 7.71875 47.46875 10.453125 49.421875 
Q 12.5 50.921875 16.03125 51.96875 
Q 19.578125 53.03125 23.640625 53.03125 
Q 29.734375 53.03125 34.34375 51.265625 
Q 38.96875 49.515625 41.15625 46.5 
Q 43.359375 43.5 44.1875 38.484375 
L 35.59375 37.3125 
Q 35.015625 41.3125 32.203125 43.546875 
Q 29.390625 45.796875 24.265625 45.796875 
Q 18.21875 45.796875 15.625 43.796875 
Q 13.03125 41.796875 13.03125 39.109375 
Q 13.03125 37.40625 14.109375 36.03125 
Q 15.1875 34.625 17.484375 33.6875 
Q 18.796875 33.203125 25.25 31.453125 
Q 34.578125 28.953125 38.25 27.359375 
Q 41.9375 25.78125 44.03125 22.75 
Q 46.140625 19.734375 46.140625 15.234375 
Q 46.140625 10.84375 43.578125 6.953125 
Q 41.015625 3.078125 36.171875 0.953125 
Q 31.34375 -1.171875 25.25 -1.171875 
Q 15.140625 -1.171875 9.84375 3.03125 
Q 4.546875 7.234375 3.078125 15.484375 
z
" id="ArialMT-115"/>
      <path d="M 25.921875 0 
L 25.921875 63.140625 
L 2.34375 63.140625 
L 2.34375 71.578125 
L 59.078125 71.578125 
L 59.078125 63.140625 
L 35.40625 63.140625 
L 35.40625 0 
z
" id="ArialMT-84"/>
      <path d="M 6.59375 0 
L 6.59375 71.578125 
L 15.375 71.578125 
L 15.375 45.90625 
Q 21.53125 53.03125 30.90625 53.03125 
Q 36.671875 53.03125 40.921875 50.75 
Q 45.171875 48.484375 47 44.484375 
Q 48.828125 40.484375 48.828125 32.859375 
L 48.828125 0 
L 40.046875 0 
L 40.046875 32.859375 
Q 40.046875 39.453125 37.1875 42.453125 
Q 34.328125 45.453125 29.109375 45.453125 
Q 25.203125 45.453125 21.75 43.421875 
Q 18.3125 41.40625 16.84375 37.9375 
Q 15.375 34.46875 15.375 28.375 
L 15.375 0 
z
" id="ArialMT-104"/>
      <path d="M 6.203125 -19.96875 
L 5.21875 -11.71875 
Q 8.109375 -12.5 10.25 -12.5 
Q 13.1875 -12.5 14.9375 -11.515625 
Q 16.703125 -10.546875 17.828125 -8.796875 
Q 18.65625 -7.46875 20.515625 -2.25 
Q 20.75 -1.515625 21.296875 -0.09375 
L 1.609375 51.859375 
L 11.078125 51.859375 
L 21.875 21.828125 
Q 23.96875 16.109375 25.640625 9.8125 
Q 27.15625 15.875 29.25 21.625 
L 40.328125 51.859375 
L 49.125 51.859375 
L 29.390625 -0.875 
Q 26.21875 -9.421875 24.46875 -12.640625 
Q 22.125 -17 19.09375 -19.015625 
Q 16.0625 -21.046875 11.859375 -21.046875 
Q 9.328125 -21.046875 6.203125 -19.96875 
z
" id="ArialMT-121"/>
      <path d="M 58.796875 25.09375 
L 68.265625 22.703125 
Q 65.28125 11.03125 57.546875 4.90625 
Q 49.8125 -1.21875 38.625 -1.21875 
Q 27.046875 -1.21875 19.796875 3.484375 
Q 12.546875 8.203125 8.765625 17.140625 
Q 4.984375 26.078125 4.984375 36.328125 
Q 4.984375 47.515625 9.25 55.828125 
Q 13.53125 64.15625 21.40625 68.46875 
Q 29.296875 72.796875 38.765625 72.796875 
Q 49.515625 72.796875 56.828125 67.328125 
Q 64.15625 61.859375 67.046875 51.953125 
L 57.71875 49.75 
Q 55.21875 57.5625 50.484375 61.125 
Q 45.75 64.703125 38.578125 64.703125 
Q 30.328125 64.703125 24.78125 60.734375 
Q 19.234375 56.78125 16.984375 50.109375 
Q 14.75 43.453125 14.75 36.375 
Q 14.75 27.25 17.40625 20.4375 
Q 20.0625 13.625 25.671875 10.25 
Q 31.296875 6.890625 37.84375 6.890625 
Q 45.796875 6.890625 51.3125 11.46875 
Q 56.84375 16.0625 58.796875 25.09375 
z
" id="ArialMT-67"/>
      <path d="M 6.390625 0 
L 6.390625 71.578125 
L 15.1875 71.578125 
L 15.1875 0 
z
" id="ArialMT-108"/>
      <path d="M 40.234375 0 
L 40.234375 6.546875 
Q 35.296875 -1.171875 25.734375 -1.171875 
Q 19.53125 -1.171875 14.328125 2.25 
Q 9.125 5.671875 6.265625 11.796875 
Q 3.421875 17.921875 3.421875 25.875 
Q 3.421875 33.640625 6 39.96875 
Q 8.59375 46.296875 13.765625 49.65625 
Q 18.953125 53.03125 25.34375 53.03125 
Q 30.03125 53.03125 33.6875 51.046875 
Q 37.359375 49.078125 39.65625 45.90625 
L 39.65625 71.578125 
L 48.390625 71.578125 
L 48.390625 0 
z
M 12.453125 25.875 
Q 12.453125 15.921875 16.640625 10.984375 
Q 20.84375 6.0625 26.5625 6.0625 
Q 32.328125 6.0625 36.34375 10.765625 
Q 40.375 15.484375 40.375 25.140625 
Q 40.375 35.796875 36.265625 40.765625 
Q 32.171875 45.75 26.171875 45.75 
Q 20.3125 45.75 16.375 40.96875 
Q 12.453125 36.1875 12.453125 25.875 
z
" id="ArialMT-100"/>
      <path d="M 40.4375 6.390625 
Q 35.546875 2.25 31.03125 0.53125 
Q 26.515625 -1.171875 21.34375 -1.171875 
Q 12.796875 -1.171875 8.203125 3 
Q 3.609375 7.171875 3.609375 13.671875 
Q 3.609375 17.484375 5.34375 20.625 
Q 7.078125 23.78125 9.890625 25.6875 
Q 12.703125 27.59375 16.21875 28.5625 
Q 18.796875 29.25 24.03125 29.890625 
Q 34.671875 31.15625 39.703125 32.90625 
Q 39.75 34.71875 39.75 35.203125 
Q 39.75 40.578125 37.25 42.78125 
Q 33.890625 45.75 27.25 45.75 
Q 21.046875 45.75 18.09375 43.578125 
Q 15.140625 41.40625 13.71875 35.890625 
L 5.125 37.0625 
Q 6.296875 42.578125 8.984375 45.96875 
Q 11.671875 49.359375 16.75 51.1875 
Q 21.828125 53.03125 28.515625 53.03125 
Q 35.15625 53.03125 39.296875 51.46875 
Q 43.453125 49.90625 45.40625 47.53125 
Q 47.359375 45.171875 48.140625 41.546875 
Q 48.578125 39.3125 48.578125 33.453125 
L 48.578125 21.734375 
Q 48.578125 9.46875 49.140625 6.21875 
Q 49.703125 2.984375 51.375 0 
L 42.1875 0 
Q 40.828125 2.734375 40.4375 6.390625 
z
M 39.703125 26.03125 
Q 34.90625 24.078125 25.34375 22.703125 
Q 19.921875 21.921875 17.671875 20.9375 
Q 15.4375 19.96875 14.203125 18.09375 
Q 12.984375 16.21875 12.984375 13.921875 
Q 12.984375 10.40625 15.640625 8.0625 
Q 18.3125 5.71875 23.4375 5.71875 
Q 28.515625 5.71875 32.46875 7.9375 
Q 36.421875 10.15625 38.28125 14.015625 
Q 39.703125 17 39.703125 22.796875 
z
" id="ArialMT-97"/>
      <path d="M 6.78125 -19.875 
L 6.78125 71.578125 
L 26.171875 71.578125 
L 26.171875 64.3125 
L 15.578125 64.3125 
L 15.578125 -12.59375 
L 26.171875 -12.59375 
L 26.171875 -19.875 
z
" id="ArialMT-91"/>
      <path d="M 6.59375 -19.875 
L 6.59375 51.859375 
L 14.59375 51.859375 
L 14.59375 45.125 
Q 17.4375 49.078125 21 51.046875 
Q 24.5625 53.03125 29.640625 53.03125 
Q 36.28125 53.03125 41.359375 49.609375 
Q 46.4375 46.1875 49.015625 39.953125 
Q 51.609375 33.734375 51.609375 26.3125 
Q 51.609375 18.359375 48.75 11.984375 
Q 45.90625 5.609375 40.453125 2.21875 
Q 35.015625 -1.171875 29 -1.171875 
Q 24.609375 -1.171875 21.109375 0.6875 
Q 17.625 2.546875 15.375 5.375 
L 15.375 -19.875 
z
M 14.546875 25.640625 
Q 14.546875 15.625 18.59375 10.84375 
Q 22.65625 6.0625 28.421875 6.0625 
Q 34.28125 6.0625 38.453125 11.015625 
Q 42.625 15.96875 42.625 26.375 
Q 42.625 36.28125 38.546875 41.203125 
Q 34.46875 46.140625 28.8125 46.140625 
Q 23.1875 46.140625 18.859375 40.890625 
Q 14.546875 35.640625 14.546875 25.640625 
z
" id="ArialMT-112"/>
      <path d="M 21.296875 -19.875 
L 1.90625 -19.875 
L 1.90625 -12.59375 
L 12.5 -12.59375 
L 12.5 64.3125 
L 1.90625 64.3125 
L 1.90625 71.578125 
L 21.296875 71.578125 
z
" id="ArialMT-93"/>
     </defs>
     <g style="fill:#262626;" transform="translate(127.390313 330.195469)scale(0.12 -0.12)">
      <use xlink:href="#ArialMT-78"/>
      <use x="72.216797" xlink:href="#ArialMT-117"/>
      <use x="127.832031" xlink:href="#ArialMT-109"/>
      <use x="211.132812" xlink:href="#ArialMT-98"/>
      <use x="266.748047" xlink:href="#ArialMT-101"/>
      <use x="322.363281" xlink:href="#ArialMT-114"/>
      <use x="355.664062" xlink:href="#ArialMT-32"/>
      <use x="383.447266" xlink:href="#ArialMT-111"/>
      <use x="439.0625" xlink:href="#ArialMT-102"/>
      <use x="466.845703" xlink:href="#ArialMT-32"/>
      <use x="494.628906" xlink:href="#ArialMT-80"/>
      <use x="561.328125" xlink:href="#ArialMT-105"/>
      <use x="583.544922" xlink:href="#ArialMT-103"/>
      <use x="639.160156" xlink:href="#ArialMT-101"/>
      <use x="694.775391" xlink:href="#ArialMT-111"/>
      <use x="750.390625" xlink:href="#ArialMT-110"/>
      <use x="806.005859" xlink:href="#ArialMT-115"/>
      <use x="856.005859" xlink:href="#ArialMT-32"/>
      <use x="883.773438" xlink:href="#ArialMT-84"/>
      <use x="944.857422" xlink:href="#ArialMT-104"/>
      <use x="1000.472656" xlink:href="#ArialMT-101"/>
      <use x="1056.087891" xlink:href="#ArialMT-121"/>
      <use x="1106.087891" xlink:href="#ArialMT-32"/>
      <use x="1133.871094" xlink:href="#ArialMT-67"/>
      <use x="1206.087891" xlink:href="#ArialMT-111"/>
      <use x="1261.703125" xlink:href="#ArialMT-117"/>
      <use x="1317.318359" xlink:href="#ArialMT-108"/>
      <use x="1339.535156" xlink:href="#ArialMT-100"/>
      <use x="1395.150391" xlink:href="#ArialMT-32"/>
      <use x="1422.933594" xlink:href="#ArialMT-67"/>
      <use x="1495.150391" xlink:href="#ArialMT-97"/>
      <use x="1550.765625" xlink:href="#ArialMT-114"/>
      <use x="1584.066406" xlink:href="#ArialMT-114"/>
      <use x="1617.367188" xlink:href="#ArialMT-121"/>
      <use x="1667.367188" xlink:href="#ArialMT-32"/>
      <use x="1695.150391" xlink:href="#ArialMT-91"/>
      <use x="1722.933594" xlink:href="#ArialMT-112"/>
      <use x="1778.548828" xlink:href="#ArialMT-105"/>
      <use x="1800.765625" xlink:href="#ArialMT-103"/>
      <use x="1856.380859" xlink:href="#ArialMT-101"/>
      <use x="1911.996094" xlink:href="#ArialMT-111"/>
      <use x="1967.611328" xlink:href="#ArialMT-110"/>
      <use x="2023.226562" xlink:href="#ArialMT-115"/>
      <use x="2073.226562" xlink:href="#ArialMT-93"/>
     </g>
    </g>
   </g>
   <g id="matplotlib.axis_2">
    <g id="ytick_1">
     <g id="line2d_6">
      <path clip-path="url(#p4d6f444f16)" d="M 59.045625 297.9 
L 447.84 297.9 
" style="fill:none;stroke:#ffffff;stroke-linecap:round;"/>
     </g>
     <g id="text_7">
      <!-- 0.00 -->
      <defs>
       <path d="M 9.078125 0 
L 9.078125 10.015625 
L 19.09375 10.015625 
L 19.09375 0 
z
" id="ArialMT-46"/>
      </defs>
      <g style="fill:#262626;" transform="translate(28.138594 301.836797)scale(0.11 -0.11)">
       <use xlink:href="#ArialMT-48"/>
       <use x="55.615234" xlink:href="#ArialMT-46"/>
       <use x="83.398438" xlink:href="#ArialMT-48"/>
       <use x="139.013672" xlink:href="#ArialMT-48"/>
      </g>
     </g>
    </g>
    <g id="ytick_2">
     <g id="line2d_7">
      <path clip-path="url(#p4d6f444f16)" d="M 59.045625 248.880714 
L 447.84 248.880714 
" style="fill:none;stroke:#ffffff;stroke-linecap:round;"/>
     </g>
     <g id="text_8">
      <!-- 0.05 -->
      <g style="fill:#262626;" transform="translate(28.138594 252.817511)scale(0.11 -0.11)">
       <use xlink:href="#ArialMT-48"/>
       <use x="55.615234" xlink:href="#ArialMT-46"/>
       <use x="83.398438" xlink:href="#ArialMT-48"/>
       <use x="139.013672" xlink:href="#ArialMT-53"/>
      </g>
     </g>
    </g>
    <g id="ytick_3">
     <g id="line2d_8">
      <path clip-path="url(#p4d6f444f16)" d="M 59.045625 199.861429 
L 447.84 199.861429 
" style="fill:none;stroke:#ffffff;stroke-linecap:round;"/>
     </g>
     <g id="text_9">
      <!-- 0.10 -->
      <g style="fill:#262626;" transform="translate(28.138594 203.798225)scale(0.11 -0.11)">
       <use xlink:href="#ArialMT-48"/>
       <use x="55.615234" xlink:href="#ArialMT-46"/>
       <use x="83.398438" xlink:href="#ArialMT-49"/>
       <use x="139.013672" xlink:href="#ArialMT-48"/>
      </g>
     </g>
    </g>
    <g id="ytick_4">
     <g id="line2d_9">
      <path clip-path="url(#p4d6f444f16)" d="M 59.045625 150.842143 
L 447.84 150.842143 
" style="fill:none;stroke:#ffffff;stroke-linecap:round;"/>
     </g>
     <g id="text_10">
      <!-- 0.15 -->
      <g style="fill:#262626;" transform="translate(28.138594 154.77894)scale(0.11 -0.11)">
       <use xlink:href="#ArialMT-48"/>
       <use x="55.615234" xlink:href="#ArialMT-46"/>
       <use x="83.398438" xlink:href="#ArialMT-49"/>
       <use x="139.013672" xlink:href="#ArialMT-53"/>
      </g>
     </g>
    </g>
    <g id="ytick_5">
     <g id="line2d_10">
      <path clip-path="url(#p4d6f444f16)" d="M 59.045625 101.822857 
L 447.84 101.822857 
" style="fill:none;stroke:#ffffff;stroke-linecap:round;"/>
     </g>
     <g id="text_11">
      <!-- 0.20 -->
      <g style="fill:#262626;" transform="translate(28.138594 105.759654)scale(0.11 -0.11)">
       <use xlink:href="#ArialMT-48"/>
       <use x="55.615234" xlink:href="#ArialMT-46"/>
       <use x="83.398438" xlink:href="#ArialMT-50"/>
       <use x="139.013672" xlink:href="#ArialMT-48"/>
      </g>
     </g>
    </g>
    <g id="ytick_6">
     <g id="line2d_11">
      <path clip-path="url(#p4d6f444f16)" d="M 59.045625 52.803571 
L 447.84 52.803571 
" style="fill:none;stroke:#ffffff;stroke-linecap:round;"/>
     </g>
     <g id="text_12">
      <!-- 0.25 -->
      <g style="fill:#262626;" transform="translate(28.138594 56.740368)scale(0.11 -0.11)">
       <use xlink:href="#ArialMT-48"/>
       <use x="55.615234" xlink:href="#ArialMT-46"/>
       <use x="83.398438" xlink:href="#ArialMT-50"/>
       <use x="139.013672" xlink:href="#ArialMT-53"/>
      </g>
     </g>
    </g>
    <g id="text_13">
     <!-- Probability Distribution Function [-] -->
     <defs>
      <path d="M 25.78125 7.859375 
L 27.046875 0.09375 
Q 23.34375 -0.6875 20.40625 -0.6875 
Q 15.625 -0.6875 12.984375 0.828125 
Q 10.359375 2.34375 9.28125 4.8125 
Q 8.203125 7.28125 8.203125 15.1875 
L 8.203125 45.015625 
L 1.765625 45.015625 
L 1.765625 51.859375 
L 8.203125 51.859375 
L 8.203125 64.703125 
L 16.9375 69.96875 
L 16.9375 51.859375 
L 25.78125 51.859375 
L 25.78125 45.015625 
L 16.9375 45.015625 
L 16.9375 14.703125 
Q 16.9375 10.9375 17.40625 9.859375 
Q 17.875 8.796875 18.921875 8.15625 
Q 19.96875 7.515625 21.921875 7.515625 
Q 23.390625 7.515625 25.78125 7.859375 
z
" id="ArialMT-116"/>
      <path d="M 7.71875 0 
L 7.71875 71.578125 
L 32.375 71.578125 
Q 40.71875 71.578125 45.125 70.5625 
Q 51.265625 69.140625 55.609375 65.4375 
Q 61.28125 60.640625 64.078125 53.1875 
Q 66.890625 45.75 66.890625 36.1875 
Q 66.890625 28.03125 64.984375 21.734375 
Q 63.09375 15.4375 60.109375 11.296875 
Q 57.125 7.171875 53.578125 4.796875 
Q 50.046875 2.4375 45.046875 1.21875 
Q 40.046875 0 33.546875 0 
z
M 17.1875 8.453125 
L 32.46875 8.453125 
Q 39.546875 8.453125 43.578125 9.765625 
Q 47.609375 11.078125 50 13.484375 
Q 53.375 16.84375 55.25 22.53125 
Q 57.125 28.21875 57.125 36.328125 
Q 57.125 47.5625 53.4375 53.59375 
Q 49.75 59.625 44.484375 61.671875 
Q 40.671875 63.140625 32.234375 63.140625 
L 17.1875 63.140625 
z
" id="ArialMT-68"/>
      <path d="M 8.203125 0 
L 8.203125 71.578125 
L 56.5 71.578125 
L 56.5 63.140625 
L 17.671875 63.140625 
L 17.671875 40.96875 
L 51.265625 40.96875 
L 51.265625 32.515625 
L 17.671875 32.515625 
L 17.671875 0 
z
" id="ArialMT-70"/>
      <path d="M 40.4375 19 
L 49.078125 17.875 
Q 47.65625 8.9375 41.8125 3.875 
Q 35.984375 -1.171875 27.484375 -1.171875 
Q 16.84375 -1.171875 10.375 5.78125 
Q 3.90625 12.75 3.90625 25.734375 
Q 3.90625 34.125 6.6875 40.421875 
Q 9.46875 46.734375 15.15625 49.875 
Q 20.84375 53.03125 27.546875 53.03125 
Q 35.984375 53.03125 41.359375 48.75 
Q 46.734375 44.484375 48.25 36.625 
L 39.703125 35.296875 
Q 38.484375 40.53125 35.375 43.15625 
Q 32.28125 45.796875 27.875 45.796875 
Q 21.234375 45.796875 17.078125 41.03125 
Q 12.9375 36.28125 12.9375 25.984375 
Q 12.9375 15.53125 16.9375 10.796875 
Q 20.953125 6.0625 27.390625 6.0625 
Q 32.5625 6.0625 36.03125 9.234375 
Q 39.5 12.40625 40.4375 19 
z
" id="ArialMT-99"/>
      <path d="M 3.171875 21.484375 
L 3.171875 30.328125 
L 30.171875 30.328125 
L 30.171875 21.484375 
z
" id="ArialMT-45"/>
     </defs>
     <g style="fill:#262626;" transform="translate(21.612969 260.590312)rotate(-90)scale(0.12 -0.12)">
      <use xlink:href="#ArialMT-80"/>
      <use x="66.699219" xlink:href="#ArialMT-114"/>
      <use x="100" xlink:href="#ArialMT-111"/>
      <use x="155.615234" xlink:href="#ArialMT-98"/>
      <use x="211.230469" xlink:href="#ArialMT-97"/>
      <use x="266.845703" xlink:href="#ArialMT-98"/>
      <use x="322.460938" xlink:href="#ArialMT-105"/>
      <use x="344.677734" xlink:href="#ArialMT-108"/>
      <use x="366.894531" xlink:href="#ArialMT-105"/>
      <use x="389.111328" xlink:href="#ArialMT-116"/>
      <use x="416.894531" xlink:href="#ArialMT-121"/>
      <use x="466.894531" xlink:href="#ArialMT-32"/>
      <use x="494.677734" xlink:href="#ArialMT-68"/>
      <use x="566.894531" xlink:href="#ArialMT-105"/>
      <use x="589.111328" xlink:href="#ArialMT-115"/>
      <use x="639.111328" xlink:href="#ArialMT-116"/>
      <use x="666.894531" xlink:href="#ArialMT-114"/>
      <use x="700.195312" xlink:href="#ArialMT-105"/>
      <use x="722.412109" xlink:href="#ArialMT-98"/>
      <use x="778.027344" xlink:href="#ArialMT-117"/>
      <use x="833.642578" xlink:href="#ArialMT-116"/>
      <use x="861.425781" xlink:href="#ArialMT-105"/>
      <use x="883.642578" xlink:href="#ArialMT-111"/>
      <use x="939.257812" xlink:href="#ArialMT-110"/>
      <use x="994.873047" xlink:href="#ArialMT-32"/>
      <use x="1022.65625" xlink:href="#ArialMT-70"/>
      <use x="1083.740234" xlink:href="#ArialMT-117"/>
      <use x="1139.355469" xlink:href="#ArialMT-110"/>
      <use x="1194.970703" xlink:href="#ArialMT-99"/>
      <use x="1244.970703" xlink:href="#ArialMT-116"/>
      <use x="1272.753906" xlink:href="#ArialMT-105"/>
      <use x="1294.970703" xlink:href="#ArialMT-111"/>
      <use x="1350.585938" xlink:href="#ArialMT-110"/>
      <use x="1406.201172" xlink:href="#ArialMT-32"/>
      <use x="1433.984375" xlink:href="#ArialMT-91"/>
      <use x="1461.767578" xlink:href="#ArialMT-45"/>
      <use x="1495.068359" xlink:href="#ArialMT-93"/>
     </g>
    </g>
   </g>
   <g id="patch_3">
    <path d="M 59.045625 297.9 
L 59.045625 40.54875 
" style="fill:none;stroke:#ffffff;stroke-linecap:square;stroke-linejoin:miter;stroke-width:1.25;"/>
   </g>
   <g id="patch_4">
    <path d="M 447.84 297.9 
L 447.84 40.54875 
" style="fill:none;stroke:#ffffff;stroke-linecap:square;stroke-linejoin:miter;stroke-width:1.25;"/>
   </g>
   <g id="patch_5">
    <path d="M 59.045625 297.9 
L 447.84 297.9 
" style="fill:none;stroke:#ffffff;stroke-linecap:square;stroke-linejoin:miter;stroke-width:1.25;"/>
   </g>
   <g id="patch_6">
    <path d="M 59.045625 40.54875 
L 447.84 40.54875 
" style="fill:none;stroke:#ffffff;stroke-linecap:square;stroke-linejoin:miter;stroke-width:1.25;"/>
   </g>
   <g id="text_14">
    <!-- Note: All responses rounded -->
    <defs>
     <path d="M 9.03125 41.84375 
L 9.03125 51.859375 
L 19.046875 51.859375 
L 19.046875 41.84375 
z
M 9.03125 0 
L 9.03125 10.015625 
L 19.046875 10.015625 
L 19.046875 0 
z
" id="ArialMT-58"/>
     <path d="M -0.140625 0 
L 27.34375 71.578125 
L 37.546875 71.578125 
L 66.84375 0 
L 56.0625 0 
L 47.703125 21.6875 
L 17.78125 21.6875 
L 9.90625 0 
z
M 20.515625 29.390625 
L 44.78125 29.390625 
L 37.3125 49.21875 
Q 33.890625 58.25 32.234375 64.0625 
Q 30.859375 57.171875 28.375 50.390625 
z
" id="ArialMT-65"/>
    </defs>
    <g style="fill:#262626;" transform="translate(234.003094 57.8805)scale(0.1 -0.1)">
     <use xlink:href="#ArialMT-78"/>
     <use x="72.216797" xlink:href="#ArialMT-111"/>
     <use x="127.832031" xlink:href="#ArialMT-116"/>
     <use x="155.615234" xlink:href="#ArialMT-101"/>
     <use x="211.230469" xlink:href="#ArialMT-58"/>
     <use x="239.013672" xlink:href="#ArialMT-32"/>
     <use x="266.71875" xlink:href="#ArialMT-65"/>
     <use x="333.417969" xlink:href="#ArialMT-108"/>
     <use x="355.634766" xlink:href="#ArialMT-108"/>
     <use x="377.851562" xlink:href="#ArialMT-32"/>
     <use x="405.634766" xlink:href="#ArialMT-114"/>
     <use x="438.935547" xlink:href="#ArialMT-101"/>
     <use x="494.550781" xlink:href="#ArialMT-115"/>
     <use x="544.550781" xlink:href="#ArialMT-112"/>
     <use x="600.166016" xlink:href="#ArialMT-111"/>
     <use x="655.78125" xlink:href="#ArialMT-110"/>
     <use x="711.396484" xlink:href="#ArialMT-115"/>
     <use x="761.396484" xlink:href="#ArialMT-101"/>
     <use x="817.011719" xlink:href="#ArialMT-115"/>
     <use x="867.011719" xlink:href="#ArialMT-32"/>
     <use x="894.794922" xlink:href="#ArialMT-114"/>
     <use x="928.095703" xlink:href="#ArialMT-111"/>
     <use x="983.710938" xlink:href="#ArialMT-117"/>
     <use x="1039.326172" xlink:href="#ArialMT-110"/>
     <use x="1094.941406" xlink:href="#ArialMT-100"/>
     <use x="1150.556641" xlink:href="#ArialMT-101"/>
     <use x="1206.171875" xlink:href="#ArialMT-100"/>
    </g>
    <!-- to the nearest whole pigeon. -->
    <defs>
     <path d="M 16.15625 0 
L 0.296875 51.859375 
L 9.375 51.859375 
L 17.625 21.921875 
L 20.703125 10.796875 
Q 20.90625 11.625 23.390625 21.484375 
L 31.640625 51.859375 
L 40.671875 51.859375 
L 48.4375 21.78125 
L 51.03125 11.859375 
L 54 21.875 
L 62.890625 51.859375 
L 71.4375 51.859375 
L 55.21875 0 
L 46.09375 0 
L 37.84375 31.0625 
L 35.84375 39.890625 
L 25.34375 0 
z
" id="ArialMT-119"/>
    </defs>
    <g style="fill:#262626;" transform="translate(234.003094 68.457375)scale(0.1 -0.1)">
     <use xlink:href="#ArialMT-116"/>
     <use x="27.783203" xlink:href="#ArialMT-111"/>
     <use x="83.398438" xlink:href="#ArialMT-32"/>
     <use x="111.181641" xlink:href="#ArialMT-116"/>
     <use x="138.964844" xlink:href="#ArialMT-104"/>
     <use x="194.580078" xlink:href="#ArialMT-101"/>
     <use x="250.195312" xlink:href="#ArialMT-32"/>
     <use x="277.978516" xlink:href="#ArialMT-110"/>
     <use x="333.59375" xlink:href="#ArialMT-101"/>
     <use x="389.208984" xlink:href="#ArialMT-97"/>
     <use x="444.824219" xlink:href="#ArialMT-114"/>
     <use x="478.125" xlink:href="#ArialMT-101"/>
     <use x="533.740234" xlink:href="#ArialMT-115"/>
     <use x="583.740234" xlink:href="#ArialMT-116"/>
     <use x="611.523438" xlink:href="#ArialMT-32"/>
     <use x="639.306641" xlink:href="#ArialMT-119"/>
     <use x="711.523438" xlink:href="#ArialMT-104"/>
     <use x="767.138672" xlink:href="#ArialMT-111"/>
     <use x="822.753906" xlink:href="#ArialMT-108"/>
     <use x="844.970703" xlink:href="#ArialMT-101"/>
     <use x="900.585938" xlink:href="#ArialMT-32"/>
     <use x="928.369141" xlink:href="#ArialMT-112"/>
     <use x="983.984375" xlink:href="#ArialMT-105"/>
     <use x="1006.201172" xlink:href="#ArialMT-103"/>
     <use x="1061.816406" xlink:href="#ArialMT-101"/>
     <use x="1117.431641" xlink:href="#ArialMT-111"/>
     <use x="1173.046875" xlink:href="#ArialMT-110"/>
     <use x="1228.662109" xlink:href="#ArialMT-46"/>
    </g>
    <!-- Mean = 4.6, $n$ = 12 -->
    <defs>
     <path d="M 7.421875 0 
L 7.421875 71.578125 
L 21.6875 71.578125 
L 38.625 20.90625 
Q 40.96875 13.8125 42.046875 10.296875 
Q 43.265625 14.203125 45.84375 21.78125 
L 62.984375 71.578125 
L 75.734375 71.578125 
L 75.734375 0 
L 66.609375 0 
L 66.609375 59.90625 
L 45.796875 0 
L 37.25 0 
L 16.546875 60.9375 
L 16.546875 0 
z
" id="ArialMT-77"/>
     <path d="M 52.828125 42.09375 
L 5.5625 42.09375 
L 5.5625 50.296875 
L 52.828125 50.296875 
z
M 52.828125 20.359375 
L 5.5625 20.359375 
L 5.5625 28.5625 
L 52.828125 28.5625 
z
" id="ArialMT-61"/>
     <path d="M 32.328125 0 
L 32.328125 17.140625 
L 1.265625 17.140625 
L 1.265625 25.203125 
L 33.9375 71.578125 
L 41.109375 71.578125 
L 41.109375 25.203125 
L 50.78125 25.203125 
L 50.78125 17.140625 
L 41.109375 17.140625 
L 41.109375 0 
z
M 32.328125 25.203125 
L 32.328125 57.46875 
L 9.90625 25.203125 
z
" id="ArialMT-52"/>
     <path d="M 49.75 54.046875 
L 41.015625 53.375 
Q 39.84375 58.546875 37.703125 60.890625 
Q 34.125 64.65625 28.90625 64.65625 
Q 24.703125 64.65625 21.53125 62.3125 
Q 17.390625 59.28125 14.984375 53.46875 
Q 12.59375 47.65625 12.5 36.921875 
Q 15.671875 41.75 20.265625 44.09375 
Q 24.859375 46.4375 29.890625 46.4375 
Q 38.671875 46.4375 44.84375 39.96875 
Q 51.03125 33.5 51.03125 23.25 
Q 51.03125 16.5 48.125 10.71875 
Q 45.21875 4.9375 40.140625 1.859375 
Q 35.0625 -1.21875 28.609375 -1.21875 
Q 17.625 -1.21875 10.6875 6.859375 
Q 3.765625 14.9375 3.765625 33.5 
Q 3.765625 54.25 11.421875 63.671875 
Q 18.109375 71.875 29.4375 71.875 
Q 37.890625 71.875 43.28125 67.140625 
Q 48.6875 62.40625 49.75 54.046875 
z
M 13.875 23.1875 
Q 13.875 18.65625 15.796875 14.5 
Q 17.71875 10.359375 21.1875 8.171875 
Q 24.65625 6 28.46875 6 
Q 34.03125 6 38.03125 10.484375 
Q 42.046875 14.984375 42.046875 22.703125 
Q 42.046875 30.125 38.078125 34.390625 
Q 34.125 38.671875 28.125 38.671875 
Q 22.171875 38.671875 18.015625 34.390625 
Q 13.875 30.125 13.875 23.1875 
z
" id="ArialMT-54"/>
     <path d="M 8.890625 0 
L 8.890625 10.015625 
L 18.890625 10.015625 
L 18.890625 0 
Q 18.890625 -5.515625 16.9375 -8.90625 
Q 14.984375 -12.3125 10.75 -14.15625 
L 8.296875 -10.40625 
Q 11.078125 -9.1875 12.390625 -6.8125 
Q 13.71875 -4.4375 13.875 0 
z
" id="ArialMT-44"/>
     <path d="M 55.71875 33.015625 
L 49.3125 0 
L 40.28125 0 
L 46.6875 32.671875 
Q 47.125 34.96875 47.359375 36.71875 
Q 47.609375 38.484375 47.609375 39.5 
Q 47.609375 43.609375 45.015625 45.890625 
Q 42.4375 48.1875 37.796875 48.1875 
Q 30.5625 48.1875 25.34375 43.375 
Q 20.125 38.578125 18.5 30.328125 
L 12.5 0 
L 3.515625 0 
L 14.109375 54.6875 
L 23.09375 54.6875 
L 21.296875 46.09375 
Q 25.046875 50.828125 30.3125 53.40625 
Q 35.59375 56 41.40625 56 
Q 48.640625 56 52.609375 52.09375 
Q 56.59375 48.1875 56.59375 41.109375 
Q 56.59375 39.359375 56.375 37.359375 
Q 56.15625 35.359375 55.71875 33.015625 
z
" id="DejaVuSans-Oblique-110"/>
    </defs>
    <g style="fill:#262626;" transform="translate(234.003094 79.151437)scale(0.1 -0.1)">
     <use transform="translate(0 0.125)" xlink:href="#ArialMT-77"/>
     <use transform="translate(83.300781 0.125)" xlink:href="#ArialMT-101"/>
     <use transform="translate(138.916016 0.125)" xlink:href="#ArialMT-97"/>
     <use transform="translate(194.53125 0.125)" xlink:href="#ArialMT-110"/>
     <use transform="translate(250.146484 0.125)" xlink:href="#ArialMT-32"/>
     <use transform="translate(277.929688 0.125)" xlink:href="#ArialMT-61"/>
     <use transform="translate(336.328125 0.125)" xlink:href="#ArialMT-32"/>
     <use transform="translate(364.111328 0.125)" xlink:href="#ArialMT-52"/>
     <use transform="translate(419.726562 0.125)" xlink:href="#ArialMT-46"/>
     <use transform="translate(447.509766 0.125)" xlink:href="#ArialMT-54"/>
     <use transform="translate(503.125 0.125)" xlink:href="#ArialMT-44"/>
     <use transform="translate(530.908203 0.125)" xlink:href="#ArialMT-32"/>
     <use transform="translate(558.691406 0.125)" xlink:href="#DejaVuSans-Oblique-110"/>
     <use transform="translate(622.070312 0.125)" xlink:href="#ArialMT-32"/>
     <use transform="translate(649.853516 0.125)" xlink:href="#ArialMT-61"/>
     <use transform="translate(708.251953 0.125)" xlink:href="#ArialMT-32"/>
     <use transform="translate(736.035156 0.125)" xlink:href="#ArialMT-49"/>
     <use transform="translate(791.650391 0.125)" xlink:href="#ArialMT-50"/>
    </g>
   </g>
   <g id="text_15">
    <!-- A Survey of Tinder: -->
    <defs>
     <path d="M 4.5 23 
L 13.421875 23.78125 
Q 14.0625 18.40625 16.375 14.96875 
Q 18.703125 11.53125 23.578125 9.40625 
Q 28.46875 7.28125 34.578125 7.28125 
Q 39.984375 7.28125 44.140625 8.890625 
Q 48.296875 10.5 50.3125 13.296875 
Q 52.34375 16.109375 52.34375 19.4375 
Q 52.34375 22.796875 50.390625 25.3125 
Q 48.4375 27.828125 43.953125 29.546875 
Q 41.0625 30.671875 31.203125 33.03125 
Q 21.34375 35.40625 17.390625 37.5 
Q 12.25 40.1875 9.734375 44.15625 
Q 7.234375 48.140625 7.234375 53.078125 
Q 7.234375 58.5 10.296875 63.203125 
Q 13.375 67.921875 19.28125 70.359375 
Q 25.203125 72.796875 32.421875 72.796875 
Q 40.375 72.796875 46.453125 70.234375 
Q 52.546875 67.671875 55.8125 62.6875 
Q 59.078125 57.71875 59.328125 51.421875 
L 50.25 50.734375 
Q 49.515625 57.515625 45.28125 60.984375 
Q 41.0625 64.453125 32.8125 64.453125 
Q 24.21875 64.453125 20.28125 61.296875 
Q 16.359375 58.15625 16.359375 53.71875 
Q 16.359375 49.859375 19.140625 47.359375 
Q 21.875 44.875 33.421875 42.265625 
Q 44.96875 39.65625 49.265625 37.703125 
Q 55.515625 34.8125 58.484375 30.390625 
Q 61.46875 25.984375 61.46875 20.21875 
Q 61.46875 14.5 58.203125 9.4375 
Q 54.9375 4.390625 48.796875 1.578125 
Q 42.671875 -1.21875 35.015625 -1.21875 
Q 25.296875 -1.21875 18.71875 1.609375 
Q 12.15625 4.4375 8.421875 10.125 
Q 4.6875 15.828125 4.5 23 
z
" id="ArialMT-83"/>
     <path d="M 21 0 
L 1.265625 51.859375 
L 10.546875 51.859375 
L 21.6875 20.796875 
Q 23.484375 15.765625 25 10.359375 
Q 26.171875 14.453125 28.265625 20.21875 
L 39.796875 51.859375 
L 48.828125 51.859375 
L 29.203125 0 
z
" id="ArialMT-118"/>
    </defs>
    <g style="fill:#262626;" transform="translate(202.099688 21.540375)scale(0.12 -0.12)">
     <use xlink:href="#ArialMT-65"/>
     <use x="66.621094" xlink:href="#ArialMT-32"/>
     <use x="94.404297" xlink:href="#ArialMT-83"/>
     <use x="161.103516" xlink:href="#ArialMT-117"/>
     <use x="216.71875" xlink:href="#ArialMT-114"/>
     <use x="250.019531" xlink:href="#ArialMT-118"/>
     <use x="300.019531" xlink:href="#ArialMT-101"/>
     <use x="355.634766" xlink:href="#ArialMT-121"/>
     <use x="405.634766" xlink:href="#ArialMT-32"/>
     <use x="433.417969" xlink:href="#ArialMT-111"/>
     <use x="489.033203" xlink:href="#ArialMT-102"/>
     <use x="516.816406" xlink:href="#ArialMT-32"/>
     <use x="544.583984" xlink:href="#ArialMT-84"/>
     <use x="605.621094" xlink:href="#ArialMT-105"/>
     <use x="627.837891" xlink:href="#ArialMT-110"/>
     <use x="683.453125" xlink:href="#ArialMT-100"/>
     <use x="739.068359" xlink:href="#ArialMT-101"/>
     <use x="794.683594" xlink:href="#ArialMT-114"/>
     <use x="827.984375" xlink:href="#ArialMT-58"/>
    </g>
    <!-- "How many pigeons do you think you could carry?" -->
    <defs>
     <path d="M 7.03125 46.234375 
L 4.59375 59.859375 
L 4.59375 71.578125 
L 14.59375 71.578125 
L 14.59375 59.859375 
L 12.40625 46.234375 
z
M 23.1875 46.234375 
L 20.796875 59.859375 
L 20.796875 71.578125 
L 30.8125 71.578125 
L 30.8125 59.859375 
L 28.46875 46.234375 
z
" id="ArialMT-34"/>
     <path d="M 8.015625 0 
L 8.015625 71.578125 
L 17.484375 71.578125 
L 17.484375 42.1875 
L 54.6875 42.1875 
L 54.6875 71.578125 
L 64.15625 71.578125 
L 64.15625 0 
L 54.6875 0 
L 54.6875 33.734375 
L 17.484375 33.734375 
L 17.484375 0 
z
" id="ArialMT-72"/>
     <path d="M 6.640625 0 
L 6.640625 71.578125 
L 15.4375 71.578125 
L 15.4375 30.765625 
L 36.234375 51.859375 
L 47.609375 51.859375 
L 27.78125 32.625 
L 49.609375 0 
L 38.765625 0 
L 21.625 26.515625 
L 15.4375 20.5625 
L 15.4375 0 
z
" id="ArialMT-107"/>
     <path d="M 23.046875 17.625 
Q 23 19.390625 23 20.265625 
Q 23 25.4375 24.46875 29.203125 
Q 25.53125 32.03125 27.9375 34.90625 
Q 29.6875 37.015625 34.25 41.03125 
Q 38.8125 45.0625 40.171875 47.453125 
Q 41.546875 49.859375 41.546875 52.6875 
Q 41.546875 57.8125 37.546875 61.6875 
Q 33.546875 65.578125 27.734375 65.578125 
Q 22.125 65.578125 18.359375 62.0625 
Q 14.59375 58.546875 13.421875 51.078125 
L 4.390625 52.15625 
Q 5.609375 62.15625 11.640625 67.46875 
Q 17.671875 72.796875 27.59375 72.796875 
Q 38.09375 72.796875 44.34375 67.078125 
Q 50.59375 61.375 50.59375 53.265625 
Q 50.59375 48.578125 48.390625 44.625 
Q 46.1875 40.671875 39.796875 35.015625 
Q 35.5 31.203125 34.171875 29.390625 
Q 32.859375 27.59375 32.21875 25.25 
Q 31.59375 22.90625 31.5 17.625 
z
M 22.515625 0 
L 22.515625 10.015625 
L 32.515625 10.015625 
L 32.515625 0 
z
" id="ArialMT-63"/>
    </defs>
    <g style="fill:#262626;" transform="translate(118.454063 34.54875)scale(0.12 -0.12)">
     <use xlink:href="#ArialMT-34"/>
     <use x="35.498047" xlink:href="#ArialMT-72"/>
     <use x="107.714844" xlink:href="#ArialMT-111"/>
     <use x="163.330078" xlink:href="#ArialMT-119"/>
     <use x="235.546875" xlink:href="#ArialMT-32"/>
     <use x="263.330078" xlink:href="#ArialMT-109"/>
     <use x="346.630859" xlink:href="#ArialMT-97"/>
     <use x="402.246094" xlink:href="#ArialMT-110"/>
     <use x="457.861328" xlink:href="#ArialMT-121"/>
     <use x="507.861328" xlink:href="#ArialMT-32"/>
     <use x="535.644531" xlink:href="#ArialMT-112"/>
     <use x="591.259766" xlink:href="#ArialMT-105"/>
     <use x="613.476562" xlink:href="#ArialMT-103"/>
     <use x="669.091797" xlink:href="#ArialMT-101"/>
     <use x="724.707031" xlink:href="#ArialMT-111"/>
     <use x="780.322266" xlink:href="#ArialMT-110"/>
     <use x="835.9375" xlink:href="#ArialMT-115"/>
     <use x="885.9375" xlink:href="#ArialMT-32"/>
     <use x="913.720703" xlink:href="#ArialMT-100"/>
     <use x="969.335938" xlink:href="#ArialMT-111"/>
     <use x="1024.951172" xlink:href="#ArialMT-32"/>
     <use x="1052.734375" xlink:href="#ArialMT-121"/>
     <use x="1102.734375" xlink:href="#ArialMT-111"/>
     <use x="1158.349609" xlink:href="#ArialMT-117"/>
     <use x="1213.964844" xlink:href="#ArialMT-32"/>
     <use x="1241.748047" xlink:href="#ArialMT-116"/>
     <use x="1269.53125" xlink:href="#ArialMT-104"/>
     <use x="1325.146484" xlink:href="#ArialMT-105"/>
     <use x="1347.363281" xlink:href="#ArialMT-110"/>
     <use x="1402.978516" xlink:href="#ArialMT-107"/>
     <use x="1452.978516" xlink:href="#ArialMT-32"/>
     <use x="1480.761719" xlink:href="#ArialMT-121"/>
     <use x="1530.761719" xlink:href="#ArialMT-111"/>
     <use x="1586.376953" xlink:href="#ArialMT-117"/>
     <use x="1641.992188" xlink:href="#ArialMT-32"/>
     <use x="1669.775391" xlink:href="#ArialMT-99"/>
     <use x="1719.775391" xlink:href="#ArialMT-111"/>
     <use x="1775.390625" xlink:href="#ArialMT-117"/>
     <use x="1831.005859" xlink:href="#ArialMT-108"/>
     <use x="1853.222656" xlink:href="#ArialMT-100"/>
     <use x="1908.837891" xlink:href="#ArialMT-32"/>
     <use x="1936.621094" xlink:href="#ArialMT-99"/>
     <use x="1986.621094" xlink:href="#ArialMT-97"/>
     <use x="2042.236328" xlink:href="#ArialMT-114"/>
     <use x="2075.537109" xlink:href="#ArialMT-114"/>
     <use x="2108.837891" xlink:href="#ArialMT-121"/>
     <use x="2158.837891" xlink:href="#ArialMT-63"/>
     <use x="2214.453125" xlink:href="#ArialMT-34"/>
    </g>
   </g>
   <g id="legend_1">
    <g id="patch_7">
     <path d="M 374.982188 80.468437 
L 440.14 80.468437 
Q 442.34 80.468437 442.34 78.268437 
L 442.34 48.24875 
Q 442.34 46.04875 440.14 46.04875 
L 374.982188 46.04875 
Q 372.782188 46.04875 372.782188 48.24875 
L 372.782188 78.268437 
Q 372.782188 80.468437 374.982188 80.468437 
z
" style="fill:#eaeaf2;opacity:0.8;stroke:#cccccc;stroke-linejoin:miter;"/>
    </g>
    <g id="line2d_12">
     <path d="M 377.182188 54.472344 
L 399.182188 54.472344 
" style="fill:none;stroke:#408fff;stroke-linecap:round;stroke-width:3;"/>
    </g>
    <g id="line2d_13"/>
    <g id="text_16">
     <!-- Model -->
     <g style="fill:#262626;" transform="translate(407.982188 58.322344)scale(0.11 -0.11)">
      <use xlink:href="#ArialMT-77"/>
      <use x="83.300781" xlink:href="#ArialMT-111"/>
      <use x="138.916016" xlink:href="#ArialMT-100"/>
      <use x="194.53125" xlink:href="#ArialMT-101"/>
      <use x="250.146484" xlink:href="#ArialMT-108"/>
     </g>
    </g>
    <g id="patch_8">
     <path d="M 377.182188 73.882187 
L 399.182188 73.882187 
L 399.182188 66.182187 
L 377.182188 66.182187 
z
" style="fill:#ff4063;stroke:#ffffff;stroke-linejoin:miter;"/>
    </g>
    <g id="text_17">
     <!-- Data -->
     <g style="fill:#262626;" transform="translate(407.982188 73.882187)scale(0.11 -0.11)">
      <use xlink:href="#ArialMT-68"/>
      <use x="72.216797" xlink:href="#ArialMT-97"/>
      <use x="127.832031" xlink:href="#ArialMT-116"/>
      <use x="155.615234" xlink:href="#ArialMT-97"/>
     </g>
    </g>
   </g>
   <g id="patch_9">
    <path clip-path="url(#p4d6f444f16)" d="M 76.718097 297.9 
L 93.549022 297.9 
L 93.549022 134.502381 
L 76.718097 134.502381 
z
" style="fill:#ff4063;stroke:#ffffff;stroke-linejoin:miter;"/>
   </g>
   <g id="patch_10">
    <path clip-path="url(#p4d6f444f16)" d="M 93.549022 297.9 
L 110.379947 297.9 
L 110.379947 216.20119 
L 93.549022 216.20119 
z
" style="fill:#ff4063;stroke:#ffffff;stroke-linejoin:miter;"/>
   </g>
   <g id="patch_11">
    <path clip-path="url(#p4d6f444f16)" d="M 110.379947 297.9 
L 127.210873 297.9 
L 127.210873 216.20119 
L 110.379947 216.20119 
z
" style="fill:#ff4063;stroke:#ffffff;stroke-linejoin:miter;"/>
   </g>
   <g id="patch_12">
    <path clip-path="url(#p4d6f444f16)" d="M 127.210873 297.9 
L 144.041798 297.9 
L 144.041798 52.803571 
L 127.210873 52.803571 
z
" style="fill:#ff4063;stroke:#ffffff;stroke-linejoin:miter;"/>
   </g>
   <g id="patch_13">
    <path clip-path="url(#p4d6f444f16)" d="M 144.041798 297.9 
L 160.872723 297.9 
L 160.872723 134.502381 
L 144.041798 134.502381 
z
" style="fill:#ff4063;stroke:#ffffff;stroke-linejoin:miter;"/>
   </g>
   <g id="patch_14">
    <path clip-path="url(#p4d6f444f16)" d="M 160.872723 297.9 
L 177.703649 297.9 
L 177.703649 216.20119 
L 160.872723 216.20119 
z
" style="fill:#ff4063;stroke:#ffffff;stroke-linejoin:miter;"/>
   </g>
   <g id="patch_15">
    <path clip-path="url(#p4d6f444f16)" d="M 177.703649 297.9 
L 194.534574 297.9 
L 194.534574 297.9 
L 177.703649 297.9 
z
" style="fill:#ff4063;stroke:#ffffff;stroke-linejoin:miter;"/>
   </g>
   <g id="patch_16">
    <path clip-path="url(#p4d6f444f16)" d="M 194.534574 297.9 
L 211.365499 297.9 
L 211.365499 297.9 
L 194.534574 297.9 
z
" style="fill:#ff4063;stroke:#ffffff;stroke-linejoin:miter;"/>
   </g>
   <g id="patch_17">
    <path clip-path="url(#p4d6f444f16)" d="M 211.365499 297.9 
L 228.196425 297.9 
L 228.196425 297.9 
L 211.365499 297.9 
z
" style="fill:#ff4063;stroke:#ffffff;stroke-linejoin:miter;"/>
   </g>
   <g id="patch_18">
    <path clip-path="url(#p4d6f444f16)" d="M 228.196425 297.9 
L 245.02735 297.9 
L 245.02735 297.9 
L 228.196425 297.9 
z
" style="fill:#ff4063;stroke:#ffffff;stroke-linejoin:miter;"/>
   </g>
   <g id="patch_19">
    <path clip-path="url(#p4d6f444f16)" d="M 245.02735 297.9 
L 261.858275 297.9 
L 261.858275 216.20119 
L 245.02735 216.20119 
z
" style="fill:#ff4063;stroke:#ffffff;stroke-linejoin:miter;"/>
   </g>
   <g id="patch_20">
    <path clip-path="url(#p4d6f444f16)" d="M 261.858275 297.9 
L 278.6892 297.9 
L 278.6892 297.9 
L 261.858275 297.9 
z
" style="fill:#ff4063;stroke:#ffffff;stroke-linejoin:miter;"/>
   </g>
   <g id="patch_21">
    <path clip-path="url(#p4d6f444f16)" d="M 278.6892 297.9 
L 295.520126 297.9 
L 295.520126 297.9 
L 278.6892 297.9 
z
" style="fill:#ff4063;stroke:#ffffff;stroke-linejoin:miter;"/>
   </g>
   <g id="patch_22">
    <path clip-path="url(#p4d6f444f16)" d="M 295.520126 297.9 
L 312.351051 297.9 
L 312.351051 297.9 
L 295.520126 297.9 
z
" style="fill:#ff4063;stroke:#ffffff;stroke-linejoin:miter;"/>
   </g>
   <g id="patch_23">
    <path clip-path="url(#p4d6f444f16)" d="M 312.351051 297.9 
L 329.181976 297.9 
L 329.181976 297.9 
L 312.351051 297.9 
z
" style="fill:#ff4063;stroke:#ffffff;stroke-linejoin:miter;"/>
   </g>
   <g id="patch_24">
    <path clip-path="url(#p4d6f444f16)" d="M 329.181976 297.9 
L 346.012902 297.9 
L 346.012902 297.9 
L 329.181976 297.9 
z
" style="fill:#ff4063;stroke:#ffffff;stroke-linejoin:miter;"/>
   </g>
   <g id="patch_25">
    <path clip-path="url(#p4d6f444f16)" d="M 346.012902 297.9 
L 362.843827 297.9 
L 362.843827 297.9 
L 346.012902 297.9 
z
" style="fill:#ff4063;stroke:#ffffff;stroke-linejoin:miter;"/>
   </g>
   <g id="patch_26">
    <path clip-path="url(#p4d6f444f16)" d="M 362.843827 297.9 
L 379.674752 297.9 
L 379.674752 297.9 
L 362.843827 297.9 
z
" style="fill:#ff4063;stroke:#ffffff;stroke-linejoin:miter;"/>
   </g>
   <g id="patch_27">
    <path clip-path="url(#p4d6f444f16)" d="M 379.674752 297.9 
L 396.505678 297.9 
L 396.505678 297.9 
L 379.674752 297.9 
z
" style="fill:#ff4063;stroke:#ffffff;stroke-linejoin:miter;"/>
   </g>
   <g id="patch_28">
    <path clip-path="url(#p4d6f444f16)" d="M 396.505678 297.9 
L 413.336603 297.9 
L 413.336603 297.9 
L 396.505678 297.9 
z
" style="fill:#ff4063;stroke:#ffffff;stroke-linejoin:miter;"/>
   </g>
   <g id="patch_29">
    <path clip-path="url(#p4d6f444f16)" d="M 413.336603 297.9 
L 430.167528 297.9 
L 430.167528 216.20119 
L 413.336603 216.20119 
z
" style="fill:#ff4063;stroke:#ffffff;stroke-linejoin:miter;"/>
   </g>
   <g id="PolyCollection_1">
    <defs>
     <path d="M 85.133559 -47.7 
L 85.133559 -47.7 
L 85.133559 -47.7 
L 85.82501 -47.7 
L 86.516461 -47.7 
L 87.207912 -47.7 
L 87.899363 -47.7 
L 88.590813 -47.7 
L 89.282264 -47.7 
L 89.973715 -47.7 
L 90.665166 -47.7 
L 91.356617 -47.7 
L 92.048068 -47.7 
L 92.739518 -47.7 
L 93.430969 -47.7 
L 94.12242 -47.7 
L 94.813871 -47.7 
L 95.505322 -47.7 
L 96.196773 -47.7 
L 96.888224 -47.7 
L 97.579674 -47.7 
L 98.271125 -47.7 
L 98.962576 -47.7 
L 99.654027 -47.7 
L 100.345478 -47.7 
L 101.036929 -47.7 
L 101.728379 -47.7 
L 102.41983 -47.7 
L 103.111281 -47.7 
L 103.802732 -47.7 
L 104.494183 -47.7 
L 105.185634 -47.7 
L 105.877084 -47.7 
L 106.568535 -47.7 
L 107.259986 -47.7 
L 107.951437 -47.7 
L 108.642888 -47.7 
L 109.334339 -47.7 
L 110.025789 -47.7 
L 110.71724 -47.7 
L 111.408691 -47.7 
L 112.100142 -47.7 
L 112.791593 -47.7 
L 113.483044 -47.7 
L 114.174495 -47.7 
L 114.865945 -47.7 
L 115.557396 -47.7 
L 116.248847 -47.7 
L 116.940298 -47.7 
L 117.631749 -47.7 
L 118.3232 -47.7 
L 119.01465 -47.7 
L 119.706101 -47.7 
L 120.397552 -47.7 
L 121.089003 -47.7 
L 121.780454 -47.7 
L 122.471905 -47.7 
L 123.163355 -47.7 
L 123.854806 -47.7 
L 124.546257 -47.7 
L 125.237708 -47.7 
L 125.929159 -47.7 
L 126.62061 -47.7 
L 127.31206 -47.7 
L 128.003511 -47.7 
L 128.694962 -47.7 
L 129.386413 -47.7 
L 130.077864 -47.7 
L 130.769315 -47.7 
L 131.460766 -47.7 
L 132.152216 -47.7 
L 132.843667 -47.7 
L 133.535118 -47.7 
L 134.226569 -47.7 
L 134.91802 -47.7 
L 135.609471 -47.7 
L 136.300921 -47.7 
L 136.992372 -47.7 
L 137.683823 -47.7 
L 138.375274 -47.7 
L 139.066725 -47.7 
L 139.758176 -47.7 
L 140.449626 -47.7 
L 141.141077 -47.7 
L 141.832528 -47.7 
L 142.523979 -47.7 
L 143.21543 -47.7 
L 143.906881 -47.7 
L 144.598331 -47.7 
L 145.289782 -47.7 
L 145.981233 -47.7 
L 146.672684 -47.7 
L 147.364135 -47.7 
L 148.055586 -47.7 
L 148.747037 -47.7 
L 149.438487 -47.7 
L 150.129938 -47.7 
L 150.821389 -47.7 
L 151.51284 -47.7 
L 152.204291 -47.7 
L 152.895742 -47.7 
L 153.587192 -47.7 
L 154.278643 -47.7 
L 154.970094 -47.7 
L 155.661545 -47.7 
L 156.352996 -47.7 
L 157.044447 -47.7 
L 157.735897 -47.7 
L 158.427348 -47.7 
L 159.118799 -47.7 
L 159.81025 -47.7 
L 160.501701 -47.7 
L 161.193152 -47.7 
L 161.884602 -47.7 
L 162.576053 -47.7 
L 163.267504 -47.7 
L 163.958955 -47.7 
L 164.650406 -47.7 
L 165.341857 -47.7 
L 166.033308 -47.7 
L 166.724758 -47.7 
L 167.416209 -47.7 
L 168.10766 -47.7 
L 168.799111 -47.7 
L 169.490562 -47.7 
L 170.182013 -47.7 
L 170.873463 -47.7 
L 171.564914 -47.7 
L 172.256365 -47.7 
L 172.947816 -47.7 
L 173.639267 -47.7 
L 174.330718 -47.7 
L 175.022168 -47.7 
L 175.713619 -47.7 
L 176.40507 -47.7 
L 177.096521 -47.7 
L 177.787972 -47.7 
L 178.479423 -47.7 
L 179.170873 -47.7 
L 179.862324 -47.7 
L 180.553775 -47.7 
L 181.245226 -47.7 
L 181.936677 -47.7 
L 182.628128 -47.7 
L 183.319579 -47.7 
L 184.011029 -47.7 
L 184.70248 -47.7 
L 185.393931 -47.7 
L 186.085382 -47.7 
L 186.776833 -47.7 
L 187.468284 -47.7 
L 188.159734 -47.7 
L 188.851185 -47.7 
L 189.542636 -47.7 
L 190.234087 -47.7 
L 190.925538 -47.7 
L 191.616989 -47.7 
L 192.308439 -47.7 
L 192.99989 -47.7 
L 193.691341 -47.7 
L 194.382792 -47.7 
L 195.074243 -47.7 
L 195.765694 -47.7 
L 196.457144 -47.7 
L 197.148595 -47.7 
L 197.840046 -47.7 
L 198.531497 -47.7 
L 199.222948 -47.7 
L 199.914399 -47.7 
L 200.60585 -47.7 
L 201.2973 -47.7 
L 201.988751 -47.7 
L 202.680202 -47.7 
L 203.371653 -47.7 
L 204.063104 -47.7 
L 204.754555 -47.7 
L 205.446005 -47.7 
L 206.137456 -47.7 
L 206.828907 -47.7 
L 207.520358 -47.7 
L 208.211809 -47.7 
L 208.90326 -47.7 
L 209.59471 -47.7 
L 210.286161 -47.7 
L 210.977612 -47.7 
L 211.669063 -47.7 
L 212.360514 -47.7 
L 213.051965 -47.7 
L 213.743415 -47.7 
L 214.434866 -47.7 
L 215.126317 -47.7 
L 215.817768 -47.7 
L 216.509219 -47.7 
L 217.20067 -47.7 
L 217.892121 -47.7 
L 218.583571 -47.7 
L 219.275022 -47.7 
L 219.966473 -47.7 
L 220.657924 -47.7 
L 221.349375 -47.7 
L 222.040826 -47.7 
L 222.732276 -47.7 
L 223.423727 -47.7 
L 224.115178 -47.7 
L 224.806629 -47.7 
L 225.49808 -47.7 
L 226.189531 -47.7 
L 226.880981 -47.7 
L 227.572432 -47.7 
L 228.263883 -47.7 
L 228.955334 -47.7 
L 229.646785 -47.7 
L 230.338236 -47.7 
L 231.029686 -47.7 
L 231.721137 -47.7 
L 232.412588 -47.7 
L 233.104039 -47.7 
L 233.79549 -47.7 
L 234.486941 -47.7 
L 235.178392 -47.7 
L 235.869842 -47.7 
L 236.561293 -47.7 
L 237.252744 -47.7 
L 237.944195 -47.7 
L 238.635646 -47.7 
L 239.327097 -47.7 
L 240.018547 -47.7 
L 240.709998 -47.7 
L 241.401449 -47.7 
L 242.0929 -47.7 
L 242.784351 -47.7 
L 243.475802 -47.7 
L 244.167252 -47.7 
L 244.858703 -47.7 
L 245.550154 -47.7 
L 246.241605 -47.7 
L 246.933056 -47.7 
L 247.624507 -47.7 
L 248.315957 -47.7 
L 249.007408 -47.7 
L 249.698859 -47.7 
L 250.39031 -47.7 
L 251.081761 -47.7 
L 251.773212 -47.7 
L 252.464663 -47.7 
L 253.156113 -47.7 
L 253.847564 -47.7 
L 254.539015 -47.7 
L 255.230466 -47.7 
L 255.921917 -47.7 
L 256.613368 -47.7 
L 257.304818 -47.7 
L 257.996269 -47.7 
L 258.68772 -47.7 
L 259.379171 -47.7 
L 260.070622 -47.7 
L 260.762073 -47.7 
L 261.453523 -47.7 
L 262.144974 -47.7 
L 262.836425 -47.7 
L 263.527876 -47.7 
L 264.219327 -47.7 
L 264.910778 -47.7 
L 265.602228 -47.7 
L 266.293679 -47.7 
L 266.98513 -47.7 
L 267.676581 -47.7 
L 268.368032 -47.7 
L 269.059483 -47.7 
L 269.750934 -47.7 
L 270.442384 -47.7 
L 271.133835 -47.7 
L 271.825286 -47.7 
L 272.516737 -47.7 
L 273.208188 -47.7 
L 273.899639 -47.7 
L 274.591089 -47.7 
L 275.28254 -47.7 
L 275.973991 -47.7 
L 276.665442 -47.7 
L 277.356893 -47.7 
L 278.048344 -47.7 
L 278.739794 -47.7 
L 279.431245 -47.7 
L 280.122696 -47.7 
L 280.814147 -47.7 
L 281.505598 -47.7 
L 282.197049 -47.7 
L 282.888499 -47.7 
L 283.57995 -47.7 
L 284.271401 -47.7 
L 284.962852 -47.7 
L 285.654303 -47.7 
L 286.345754 -47.7 
L 287.037205 -47.7 
L 287.728655 -47.7 
L 288.420106 -47.7 
L 289.111557 -47.7 
L 289.803008 -47.7 
L 290.494459 -47.7 
L 291.18591 -47.7 
L 291.87736 -47.7 
L 292.568811 -47.7 
L 293.260262 -47.7 
L 293.951713 -47.7 
L 294.643164 -47.7 
L 295.334615 -47.7 
L 296.026065 -47.7 
L 296.717516 -47.7 
L 297.408967 -47.7 
L 298.100418 -47.7 
L 298.791869 -47.7 
L 299.48332 -47.7 
L 300.17477 -47.7 
L 300.866221 -47.7 
L 301.557672 -47.7 
L 302.249123 -47.7 
L 302.940574 -47.7 
L 303.632025 -47.7 
L 304.323476 -47.7 
L 305.014926 -47.7 
L 305.706377 -47.7 
L 306.397828 -47.7 
L 307.089279 -47.7 
L 307.78073 -47.7 
L 308.472181 -47.7 
L 309.163631 -47.7 
L 309.855082 -47.7 
L 310.546533 -47.7 
L 311.237984 -47.7 
L 311.929435 -47.7 
L 312.620886 -47.7 
L 313.312336 -47.7 
L 314.003787 -47.7 
L 314.695238 -47.7 
L 315.386689 -47.7 
L 316.07814 -47.7 
L 316.769591 -47.7 
L 317.461041 -47.7 
L 318.152492 -47.7 
L 318.843943 -47.7 
L 319.535394 -47.7 
L 320.226845 -47.7 
L 320.918296 -47.7 
L 321.609747 -47.7 
L 322.301197 -47.7 
L 322.992648 -47.7 
L 323.684099 -47.7 
L 324.37555 -47.7 
L 325.067001 -47.7 
L 325.758452 -47.7 
L 326.449902 -47.7 
L 327.141353 -47.7 
L 327.832804 -47.7 
L 328.524255 -47.7 
L 329.215706 -47.7 
L 329.907157 -47.7 
L 330.598607 -47.7 
L 331.290058 -47.7 
L 331.981509 -47.7 
L 332.67296 -47.7 
L 333.364411 -47.7 
L 334.055862 -47.7 
L 334.747312 -47.7 
L 335.438763 -47.7 
L 336.130214 -47.7 
L 336.821665 -47.7 
L 337.513116 -47.7 
L 338.204567 -47.7 
L 338.896018 -47.7 
L 339.587468 -47.7 
L 340.278919 -47.7 
L 340.97037 -47.7 
L 341.661821 -47.7 
L 342.353272 -47.7 
L 343.044723 -47.7 
L 343.736173 -47.7 
L 344.427624 -47.7 
L 345.119075 -47.7 
L 345.810526 -47.7 
L 346.501977 -47.7 
L 347.193428 -47.7 
L 347.884878 -47.7 
L 348.576329 -47.7 
L 349.26778 -47.7 
L 349.959231 -47.7 
L 350.650682 -47.7 
L 351.342133 -47.7 
L 352.033583 -47.7 
L 352.725034 -47.7 
L 353.416485 -47.7 
L 354.107936 -47.7 
L 354.799387 -47.7 
L 355.490838 -47.7 
L 356.182289 -47.7 
L 356.873739 -47.7 
L 357.56519 -47.7 
L 358.256641 -47.7 
L 358.948092 -47.7 
L 359.639543 -47.7 
L 360.330994 -47.7 
L 361.022444 -47.7 
L 361.713895 -47.7 
L 362.405346 -47.7 
L 363.096797 -47.7 
L 363.788248 -47.7 
L 364.479699 -47.7 
L 365.171149 -47.7 
L 365.8626 -47.7 
L 366.554051 -47.7 
L 367.245502 -47.7 
L 367.936953 -47.7 
L 368.628404 -47.7 
L 369.319854 -47.7 
L 370.011305 -47.7 
L 370.702756 -47.7 
L 371.394207 -47.7 
L 372.085658 -47.7 
L 372.777109 -47.7 
L 373.46856 -47.7 
L 374.16001 -47.7 
L 374.851461 -47.7 
L 375.542912 -47.7 
L 376.234363 -47.7 
L 376.925814 -47.7 
L 377.617265 -47.7 
L 378.308715 -47.7 
L 379.000166 -47.7 
L 379.691617 -47.7 
L 380.383068 -47.7 
L 381.074519 -47.7 
L 381.76597 -47.7 
L 382.45742 -47.7 
L 383.148871 -47.7 
L 383.840322 -47.7 
L 384.531773 -47.7 
L 385.223224 -47.7 
L 385.914675 -47.7 
L 386.606125 -47.7 
L 387.297576 -47.7 
L 387.989027 -47.7 
L 388.680478 -47.7 
L 389.371929 -47.7 
L 390.06338 -47.7 
L 390.754831 -47.7 
L 391.446281 -47.7 
L 392.137732 -47.7 
L 392.829183 -47.7 
L 393.520634 -47.7 
L 394.212085 -47.7 
L 394.903536 -47.7 
L 395.594986 -47.7 
L 396.286437 -47.7 
L 396.977888 -47.7 
L 397.669339 -47.7 
L 398.36079 -47.7 
L 399.052241 -47.7 
L 399.743691 -47.7 
L 400.435142 -47.7 
L 401.126593 -47.7 
L 401.818044 -47.7 
L 402.509495 -47.7 
L 403.200946 -47.7 
L 403.892396 -47.7 
L 404.583847 -47.7 
L 405.275298 -47.7 
L 405.966749 -47.7 
L 406.6582 -47.7 
L 407.349651 -47.7 
L 408.041102 -47.7 
L 408.732552 -47.7 
L 409.424003 -47.7 
L 410.115454 -47.7 
L 410.806905 -47.7 
L 411.498356 -47.7 
L 412.189807 -47.7 
L 412.881257 -47.7 
L 413.572708 -47.7 
L 414.264159 -47.7 
L 414.95561 -47.7 
L 415.647061 -47.7 
L 416.338512 -47.7 
L 417.029962 -47.7 
L 417.721413 -47.7 
L 418.412864 -47.7 
L 419.104315 -47.7 
L 419.795766 -47.7 
L 420.487217 -47.7 
L 421.178667 -47.7 
L 421.870118 -47.7 
L 422.561569 -47.7 
L 423.25302 -47.7 
L 423.944471 -47.7 
L 424.635922 -47.7 
L 425.327373 -47.7 
L 426.018823 -47.7 
L 426.710274 -47.7 
L 427.401725 -47.7 
L 428.093176 -47.7 
L 428.784627 -47.7 
L 429.476078 -47.7 
L 430.167528 -47.7 
L 430.167528 -48.70501 
L 430.167528 -48.70501 
L 429.476078 -48.72866 
L 428.784627 -48.752803 
L 428.093176 -48.777448 
L 427.401725 -48.802604 
L 426.710274 -48.82828 
L 426.018823 -48.854484 
L 425.327373 -48.881225 
L 424.635922 -48.908514 
L 423.944471 -48.936358 
L 423.25302 -48.964768 
L 422.561569 -48.993753 
L 421.870118 -49.023322 
L 421.178667 -49.053486 
L 420.487217 -49.084255 
L 419.795766 -49.115638 
L 419.104315 -49.147645 
L 418.412864 -49.180287 
L 417.721413 -49.213574 
L 417.029962 -49.247516 
L 416.338512 -49.282125 
L 415.647061 -49.31741 
L 414.95561 -49.353383 
L 414.264159 -49.390054 
L 413.572708 -49.427435 
L 412.881257 -49.465537 
L 412.189807 -49.50437 
L 411.498356 -49.543947 
L 410.806905 -49.584278 
L 410.115454 -49.625376 
L 409.424003 -49.667252 
L 408.732552 -49.709918 
L 408.041102 -49.753386 
L 407.349651 -49.797668 
L 406.6582 -49.842776 
L 405.966749 -49.888723 
L 405.275298 -49.93552 
L 404.583847 -49.983181 
L 403.892396 -50.031717 
L 403.200946 -50.081142 
L 402.509495 -50.131469 
L 401.818044 -50.18271 
L 401.126593 -50.234879 
L 400.435142 -50.287988 
L 399.743691 -50.342051 
L 399.052241 -50.397082 
L 398.36079 -50.453093 
L 397.669339 -50.510098 
L 396.977888 -50.568111 
L 396.286437 -50.627146 
L 395.594986 -50.687217 
L 394.903536 -50.748337 
L 394.212085 -50.81052 
L 393.520634 -50.873782 
L 392.829183 -50.938135 
L 392.137732 -51.003595 
L 391.446281 -51.070175 
L 390.754831 -51.13789 
L 390.06338 -51.206755 
L 389.371929 -51.276785 
L 388.680478 -51.347994 
L 387.989027 -51.420396 
L 387.297576 -51.494008 
L 386.606125 -51.568844 
L 385.914675 -51.644918 
L 385.223224 -51.722247 
L 384.531773 -51.800845 
L 383.840322 -51.880728 
L 383.148871 -51.96191 
L 382.45742 -52.044408 
L 381.76597 -52.128236 
L 381.074519 -52.213411 
L 380.383068 -52.299947 
L 379.691617 -52.387861 
L 379.000166 -52.477167 
L 378.308715 -52.567883 
L 377.617265 -52.660023 
L 376.925814 -52.753603 
L 376.234363 -52.848639 
L 375.542912 -52.945147 
L 374.851461 -53.043143 
L 374.16001 -53.142642 
L 373.46856 -53.243662 
L 372.777109 -53.346216 
L 372.085658 -53.450323 
L 371.394207 -53.555996 
L 370.702756 -53.663254 
L 370.011305 -53.772111 
L 369.319854 -53.882583 
L 368.628404 -53.994686 
L 367.936953 -54.108438 
L 367.245502 -54.223852 
L 366.554051 -54.340946 
L 365.8626 -54.459735 
L 365.171149 -54.580236 
L 364.479699 -54.702463 
L 363.788248 -54.826434 
L 363.096797 -54.952163 
L 362.405346 -55.079667 
L 361.713895 -55.208962 
L 361.022444 -55.340062 
L 360.330994 -55.472984 
L 359.639543 -55.607743 
L 358.948092 -55.744355 
L 358.256641 -55.882835 
L 357.56519 -56.023198 
L 356.873739 -56.165461 
L 356.182289 -56.309637 
L 355.490838 -56.455742 
L 354.799387 -56.603792 
L 354.107936 -56.753801 
L 353.416485 -56.905784 
L 352.725034 -57.059755 
L 352.033583 -57.215729 
L 351.342133 -57.373721 
L 350.650682 -57.533746 
L 349.959231 -57.695816 
L 349.26778 -57.859947 
L 348.576329 -58.026152 
L 347.884878 -58.194445 
L 347.193428 -58.36484 
L 346.501977 -58.53735 
L 345.810526 -58.711988 
L 345.119075 -58.888768 
L 344.427624 -59.067703 
L 343.736173 -59.248805 
L 343.044723 -59.432087 
L 342.353272 -59.617561 
L 341.661821 -59.80524 
L 340.97037 -59.995135 
L 340.278919 -60.187258 
L 339.587468 -60.381621 
L 338.896018 -60.578235 
L 338.204567 -60.777112 
L 337.513116 -60.978261 
L 336.821665 -61.181694 
L 336.130214 -61.387421 
L 335.438763 -61.595452 
L 334.747312 -61.805796 
L 334.055862 -62.018465 
L 333.364411 -62.233465 
L 332.67296 -62.450808 
L 331.981509 -62.6705 
L 331.290058 -62.892552 
L 330.598607 -63.11697 
L 329.907157 -63.343763 
L 329.215706 -63.572938 
L 328.524255 -63.804502 
L 327.832804 -64.038462 
L 327.141353 -64.274825 
L 326.449902 -64.513596 
L 325.758452 -64.754782 
L 325.067001 -64.998387 
L 324.37555 -65.244418 
L 323.684099 -65.492878 
L 322.992648 -65.743772 
L 322.301197 -65.997104 
L 321.609747 -66.252877 
L 320.918296 -66.511095 
L 320.226845 -66.771761 
L 319.535394 -67.034876 
L 318.843943 -67.300443 
L 318.152492 -67.568463 
L 317.461041 -67.838937 
L 316.769591 -68.111866 
L 316.07814 -68.387251 
L 315.386689 -68.665091 
L 314.695238 -68.945384 
L 314.003787 -69.228132 
L 313.312336 -69.513331 
L 312.620886 -69.800979 
L 311.929435 -70.091075 
L 311.237984 -70.383615 
L 310.546533 -70.678595 
L 309.855082 -70.976012 
L 309.163631 -71.275862 
L 308.472181 -71.578139 
L 307.78073 -71.882838 
L 307.089279 -72.189952 
L 306.397828 -72.499476 
L 305.706377 -72.811403 
L 305.014926 -73.125725 
L 304.323476 -73.442433 
L 303.632025 -73.76152 
L 302.940574 -74.082976 
L 302.249123 -74.406791 
L 301.557672 -74.732956 
L 300.866221 -75.06146 
L 300.17477 -75.39229 
L 299.48332 -75.725437 
L 298.791869 -76.060886 
L 298.100418 -76.398625 
L 297.408967 -76.73864 
L 296.717516 -77.080917 
L 296.026065 -77.425442 
L 295.334615 -77.7722 
L 294.643164 -78.121173 
L 293.951713 -78.472347 
L 293.260262 -78.825703 
L 292.568811 -79.181224 
L 291.87736 -79.538892 
L 291.18591 -79.898688 
L 290.494459 -80.260592 
L 289.803008 -80.624585 
L 289.111557 -80.990646 
L 288.420106 -81.358753 
L 287.728655 -81.728885 
L 287.037205 -82.101019 
L 286.345754 -82.475132 
L 285.654303 -82.851201 
L 284.962852 -83.229201 
L 284.271401 -83.609107 
L 283.57995 -83.990893 
L 282.888499 -84.374534 
L 282.197049 -84.760003 
L 281.505598 -85.147272 
L 280.814147 -85.536314 
L 280.122696 -85.927099 
L 279.431245 -86.319599 
L 278.739794 -86.713784 
L 278.048344 -87.109623 
L 277.356893 -87.507085 
L 276.665442 -87.906139 
L 275.973991 -88.306752 
L 275.28254 -88.708892 
L 274.591089 -89.112524 
L 273.899639 -89.517616 
L 273.208188 -89.924132 
L 272.516737 -90.332036 
L 271.825286 -90.741294 
L 271.133835 -91.151869 
L 270.442384 -91.563723 
L 269.750934 -91.97682 
L 269.059483 -92.39112 
L 268.368032 -92.806585 
L 267.676581 -93.223177 
L 266.98513 -93.640853 
L 266.293679 -94.059576 
L 265.602228 -94.479302 
L 264.910778 -94.899991 
L 264.219327 -95.321601 
L 263.527876 -95.744088 
L 262.836425 -96.167411 
L 262.144974 -96.591524 
L 261.453523 -97.016383 
L 260.762073 -97.441945 
L 260.070622 -97.868162 
L 259.379171 -98.294991 
L 258.68772 -98.722383 
L 257.996269 -99.150293 
L 257.304818 -99.578673 
L 256.613368 -100.007476 
L 255.921917 -100.436652 
L 255.230466 -100.866154 
L 254.539015 -101.295932 
L 253.847564 -101.725936 
L 253.156113 -102.156117 
L 252.464663 -102.586424 
L 251.773212 -103.016805 
L 251.081761 -103.44721 
L 250.39031 -103.877587 
L 249.698859 -104.307883 
L 249.007408 -104.738046 
L 248.315957 -105.168024 
L 247.624507 -105.597763 
L 246.933056 -106.027208 
L 246.241605 -106.456307 
L 245.550154 -106.885005 
L 244.858703 -107.313247 
L 244.167252 -107.740978 
L 243.475802 -108.168144 
L 242.784351 -108.594688 
L 242.0929 -109.020554 
L 241.401449 -109.445687 
L 240.709998 -109.87003 
L 240.018547 -110.293527 
L 239.327097 -110.71612 
L 238.635646 -111.137753 
L 237.944195 -111.558368 
L 237.252744 -111.977907 
L 236.561293 -112.396314 
L 235.869842 -112.813531 
L 235.178392 -113.229498 
L 234.486941 -113.644159 
L 233.79549 -114.057455 
L 233.104039 -114.469327 
L 232.412588 -114.879717 
L 231.721137 -115.288566 
L 231.029686 -115.695816 
L 230.338236 -116.101408 
L 229.646785 -116.505283 
L 228.955334 -116.907383 
L 228.263883 -117.307648 
L 227.572432 -117.706019 
L 226.880981 -118.102439 
L 226.189531 -118.496847 
L 225.49808 -118.889185 
L 224.806629 -119.279394 
L 224.115178 -119.667416 
L 223.423727 -120.053192 
L 222.732276 -120.436664 
L 222.040826 -120.817772 
L 221.349375 -121.196459 
L 220.657924 -121.572667 
L 219.966473 -121.946337 
L 219.275022 -122.317411 
L 218.583571 -122.685832 
L 217.892121 -123.051543 
L 217.20067 -123.414486 
L 216.509219 -123.774604 
L 215.817768 -124.13184 
L 215.126317 -124.486137 
L 214.434866 -124.83744 
L 213.743415 -125.185692 
L 213.051965 -125.530837 
L 212.360514 -125.872821 
L 211.669063 -126.211587 
L 210.977612 -126.547082 
L 210.286161 -126.879251 
L 209.59471 -127.208039 
L 208.90326 -127.533394 
L 208.211809 -127.855261 
L 207.520358 -128.173588 
L 206.828907 -128.488323 
L 206.137456 -128.799414 
L 205.446005 -129.106809 
L 204.754555 -129.410458 
L 204.063104 -129.710308 
L 203.371653 -130.006312 
L 202.680202 -130.298418 
L 201.988751 -130.586578 
L 201.2973 -130.870744 
L 200.60585 -131.150868 
L 199.914399 -131.426902 
L 199.222948 -131.698799 
L 198.531497 -131.966514 
L 197.840046 -132.23 
L 197.148595 -132.489214 
L 196.457144 -132.744109 
L 195.765694 -132.994644 
L 195.074243 -133.240774 
L 194.382792 -133.482458 
L 193.691341 -133.719654 
L 192.99989 -133.952321 
L 192.308439 -134.180418 
L 191.616989 -134.403906 
L 190.925538 -134.622747 
L 190.234087 -134.836902 
L 189.542636 -135.046333 
L 188.851185 -135.251005 
L 188.159734 -135.450881 
L 187.468284 -135.645927 
L 186.776833 -135.836108 
L 186.085382 -136.021391 
L 185.393931 -136.201744 
L 184.70248 -136.377133 
L 184.011029 -136.54753 
L 183.319579 -136.712903 
L 182.628128 -136.873223 
L 181.936677 -137.028461 
L 181.245226 -137.178592 
L 180.553775 -137.323586 
L 179.862324 -137.46342 
L 179.170873 -137.598068 
L 178.479423 -137.727506 
L 177.787972 -137.85171 
L 177.096521 -137.97066 
L 176.40507 -138.084333 
L 175.713619 -138.192709 
L 175.022168 -138.295769 
L 174.330718 -138.393495 
L 173.639267 -138.485868 
L 172.947816 -138.572873 
L 172.256365 -138.654493 
L 171.564914 -138.730714 
L 170.873463 -138.801523 
L 170.182013 -138.866907 
L 169.490562 -138.926853 
L 168.799111 -138.981351 
L 168.10766 -139.030392 
L 167.416209 -139.073966 
L 166.724758 -139.112066 
L 166.033308 -139.144685 
L 165.341857 -139.171816 
L 164.650406 -139.193455 
L 163.958955 -139.209599 
L 163.267504 -139.220243 
L 162.576053 -139.225387 
L 161.884602 -139.225029 
L 161.193152 -139.21917 
L 160.501701 -139.20781 
L 159.81025 -139.190951 
L 159.118799 -139.168597 
L 158.427348 -139.140752 
L 157.735897 -139.10742 
L 157.044447 -139.068608 
L 156.352996 -139.024322 
L 155.661545 -138.974571 
L 154.970094 -138.919363 
L 154.278643 -138.858709 
L 153.587192 -138.792619 
L 152.895742 -138.721105 
L 152.204291 -138.644181 
L 151.51284 -138.561859 
L 150.821389 -138.474155 
L 150.129938 -138.381085 
L 149.438487 -138.282664 
L 148.747037 -138.178912 
L 148.055586 -138.069845 
L 147.364135 -137.955485 
L 146.672684 -137.83585 
L 145.981233 -137.710964 
L 145.289782 -137.580847 
L 144.598331 -137.445523 
L 143.906881 -137.305017 
L 143.21543 -137.159352 
L 142.523979 -137.008556 
L 141.832528 -136.852655 
L 141.141077 -136.691676 
L 140.449626 -136.525648 
L 139.758176 -136.3546 
L 139.066725 -136.178563 
L 138.375274 -135.997568 
L 137.683823 -135.811646 
L 136.992372 -135.62083 
L 136.300921 -135.425154 
L 135.609471 -135.224652 
L 134.91802 -135.019358 
L 134.226569 -134.80931 
L 133.535118 -134.594544 
L 132.843667 -134.375097 
L 132.152216 -134.151007 
L 131.460766 -133.922313 
L 130.769315 -133.689055 
L 130.077864 -133.451273 
L 129.386413 -133.209008 
L 128.694962 -132.962302 
L 128.003511 -132.711198 
L 127.31206 -132.455738 
L 126.62061 -132.195966 
L 125.929159 -131.931927 
L 125.237708 -131.663666 
L 124.546257 -131.391228 
L 123.854806 -131.114659 
L 123.163355 -130.834007 
L 122.471905 -130.549319 
L 121.780454 -130.260643 
L 121.089003 -129.968027 
L 120.397552 -129.67152 
L 119.706101 -129.371172 
L 119.01465 -129.067034 
L 118.3232 -128.759155 
L 117.631749 -128.447587 
L 116.940298 -128.132382 
L 116.248847 -127.813591 
L 115.557396 -127.491267 
L 114.865945 -127.165463 
L 114.174495 -126.836232 
L 113.483044 -126.503628 
L 112.791593 -126.167704 
L 112.100142 -125.828516 
L 111.408691 -125.486118 
L 110.71724 -125.140565 
L 110.025789 -124.791913 
L 109.334339 -124.440218 
L 108.642888 -124.085535 
L 107.951437 -123.727921 
L 107.259986 -123.367432 
L 106.568535 -123.004126 
L 105.877084 -122.63806 
L 105.185634 -122.26929 
L 104.494183 -121.897875 
L 103.802732 -121.523872 
L 103.111281 -121.147338 
L 102.41983 -120.768333 
L 101.728379 -120.386914 
L 101.036929 -120.003139 
L 100.345478 -119.617068 
L 99.654027 -119.228758 
L 98.962576 -118.838268 
L 98.271125 -118.445657 
L 97.579674 -118.050984 
L 96.888224 -117.654308 
L 96.196773 -117.255687 
L 95.505322 -116.85518 
L 94.813871 -116.452846 
L 94.12242 -116.048744 
L 93.430969 -115.642933 
L 92.739518 -115.235472 
L 92.048068 -114.826418 
L 91.356617 -114.415832 
L 90.665166 -114.003772 
L 89.973715 -113.590295 
L 89.282264 -113.175461 
L 88.590813 -112.759328 
L 87.899363 -112.341954 
L 87.207912 -111.923396 
L 86.516461 -111.503713 
L 85.82501 -111.082962 
L 85.133559 -110.661201 
L 85.133559 -47.7 
z
" id="m02b22771e1" style="stroke:#408fff;stroke-opacity:0.2;"/>
    </defs>
    <g clip-path="url(#p4d6f444f16)">
     <use style="fill:#408fff;fill-opacity:0.2;stroke:#408fff;stroke-opacity:0.2;" x="0" xlink:href="#m02b22771e1" y="345.6"/>
    </g>
   </g>
   <g id="line2d_14">
    <path clip-path="url(#p4d6f444f16)" d="M 85.133559 297.9 
L 85.133559 234.938799 
L 94.813871 229.147154 
L 102.41983 224.831667 
L 109.334339 221.159782 
L 115.557396 218.108733 
L 121.089003 215.631973 
L 126.62061 213.404034 
L 131.460766 211.677687 
L 136.300921 210.174846 
L 141.141077 208.908324 
L 145.981233 207.889036 
L 150.821389 207.125845 
L 154.970094 206.680637 
L 159.118799 206.431403 
L 163.267504 206.379757 
L 167.416209 206.526034 
L 171.564914 206.869286 
L 175.713619 207.407291 
L 180.553775 208.276414 
L 185.393931 209.398256 
L 190.234087 210.763098 
L 195.074243 212.359226 
L 199.914399 214.173098 
L 205.446005 216.493191 
L 210.977612 219.052918 
L 217.20067 222.185514 
L 224.115178 225.932584 
L 231.721137 230.311434 
L 241.401449 236.154313 
L 275.973991 257.293248 
L 284.271401 261.990893 
L 291.87736 266.061108 
L 299.48332 269.874563 
L 306.397828 273.100524 
L 313.312336 276.086669 
L 320.226845 278.828239 
L 327.141353 281.325175 
L 334.055862 283.581535 
L 340.97037 285.604865 
L 347.884878 287.405555 
L 355.490838 289.144258 
L 363.096797 290.647837 
L 371.394207 292.044004 
L 379.691617 293.212139 
L 388.680478 294.252006 
L 398.36079 295.146907 
L 409.424003 295.932748 
L 421.870118 296.576678 
L 430.167528 296.89499 
L 430.167528 296.89499 
" style="fill:none;stroke:#408fff;stroke-linecap:round;stroke-width:3;"/>
   </g>
  </g>
 </g>
 <defs>
  <clipPath id="p4d6f444f16">
   <rect height="257.35125" width="388.794375" x="59.045625" y="40.54875"/>
  </clipPath>
 </defs>
</svg>
