<?xml version="1.0" encoding="utf-8" standalone="no"?>
<!DOCTYPE svg PUBLIC "-//W3C//DTD SVG 1.1//EN"
  "http://www.w3.org/Graphics/SVG/1.1/DTD/svg11.dtd">
<!-- Created with matplotlib (https://matplotlib.org/) -->
<svg height="345.6pt" version="1.1" viewBox="0 0 460.8 345.6" width="460.8pt" xmlns="http://www.w3.org/2000/svg" xmlns:xlink="http://www.w3.org/1999/xlink">
 <defs>
  <style type="text/css">
*{stroke-linecap:butt;stroke-linejoin:round;}
  </style>
 </defs>
 <g id="figure_1">
  <g id="patch_1">
   <path d="M 0 345.6 
L 460.8 345.6 
L 460.8 0 
L 0 0 
z
" style="fill:#ffffff;"/>
  </g>
  <g id="axes_1">
   <g id="patch_2">
    <path d="M 59.045625 297.9 
L 447.84 297.9 
L 447.84 40.54875 
L 59.045625 40.54875 
z
" style="fill:#eaeaf2;"/>
   </g>
   <g id="matplotlib.axis_1">
    <g id="xtick_1">
     <g id="line2d_1">
      <path clip-path="url(#pbd1c7532ab)" d="M 85.133559 297.9 
L 85.133559 40.54875 
" style="fill:none;stroke:#ffffff;stroke-linecap:round;"/>
     </g>
     <g id="text_1">
      <!-- 0 -->
      <defs>
       <path d="M 4.15625 35.296875 
Q 4.15625 48 6.765625 55.734375 
Q 9.375 63.484375 14.515625 67.671875 
Q 19.671875 71.875 27.484375 71.875 
Q 33.25 71.875 37.59375 69.546875 
Q 41.9375 67.234375 44.765625 62.859375 
Q 47.609375 58.5 49.21875 52.21875 
Q 50.828125 45.953125 50.828125 35.296875 
Q 50.828125 22.703125 48.234375 14.96875 
Q 45.65625 7.234375 40.5 3 
Q 35.359375 -1.21875 27.484375 -1.21875 
Q 17.140625 -1.21875 11.234375 6.203125 
Q 4.15625 15.140625 4.15625 35.296875 
z
M 13.1875 35.296875 
Q 13.1875 17.671875 17.3125 11.828125 
Q 21.4375 6 27.484375 6 
Q 33.546875 6 37.671875 11.859375 
Q 41.796875 17.71875 41.796875 35.296875 
Q 41.796875 52.984375 37.671875 58.78125 
Q 33.546875 64.59375 27.390625 64.59375 
Q 21.34375 64.59375 17.71875 59.46875 
Q 13.1875 52.9375 13.1875 35.296875 
z
" id="ArialMT-48"/>
      </defs>
      <g style="fill:#262626;" transform="translate(82.075044 315.273594)scale(0.11 -0.11)">
       <use xlink:href="#ArialMT-48"/>
      </g>
     </g>
    </g>
    <g id="xtick_2">
     <g id="line2d_2">
      <path clip-path="url(#pbd1c7532ab)" d="M 118.79541 297.9 
L 118.79541 40.54875 
" style="fill:none;stroke:#ffffff;stroke-linecap:round;"/>
     </g>
     <g id="text_2">
      <!-- 2 -->
      <defs>
       <path d="M 50.34375 8.453125 
L 50.34375 0 
L 3.03125 0 
Q 2.9375 3.171875 4.046875 6.109375 
Q 5.859375 10.9375 9.828125 15.625 
Q 13.8125 20.3125 21.34375 26.46875 
Q 33.015625 36.03125 37.109375 41.625 
Q 41.21875 47.21875 41.21875 52.203125 
Q 41.21875 57.421875 37.46875 61 
Q 33.734375 64.59375 27.734375 64.59375 
Q 21.390625 64.59375 17.578125 60.78125 
Q 13.765625 56.984375 13.71875 50.25 
L 4.6875 51.171875 
Q 5.609375 61.28125 11.65625 66.578125 
Q 17.71875 71.875 27.9375 71.875 
Q 38.234375 71.875 44.234375 66.15625 
Q 50.25 60.453125 50.25 52 
Q 50.25 47.703125 48.484375 43.546875 
Q 46.734375 39.40625 42.65625 34.8125 
Q 38.578125 30.21875 29.109375 22.21875 
Q 21.1875 15.578125 18.9375 13.203125 
Q 16.703125 10.84375 15.234375 8.453125 
z
" id="ArialMT-50"/>
      </defs>
      <g style="fill:#262626;" transform="translate(115.736894 315.273594)scale(0.11 -0.11)">
       <use xlink:href="#ArialMT-50"/>
      </g>
     </g>
    </g>
    <g id="xtick_3">
     <g id="line2d_3">
      <path clip-path="url(#pbd1c7532ab)" d="M 152.457261 297.9 
L 152.457261 40.54875 
" style="fill:none;stroke:#ffffff;stroke-linecap:round;"/>
     </g>
     <g id="text_3">
      <!-- 4 -->
      <defs>
       <path d="M 32.328125 0 
L 32.328125 17.140625 
L 1.265625 17.140625 
L 1.265625 25.203125 
L 33.9375 71.578125 
L 41.109375 71.578125 
L 41.109375 25.203125 
L 50.78125 25.203125 
L 50.78125 17.140625 
L 41.109375 17.140625 
L 41.109375 0 
z
M 32.328125 25.203125 
L 32.328125 57.46875 
L 9.90625 25.203125 
z
" id="ArialMT-52"/>
      </defs>
      <g style="fill:#262626;" transform="translate(149.398745 315.273594)scale(0.11 -0.11)">
       <use xlink:href="#ArialMT-52"/>
      </g>
     </g>
    </g>
    <g id="xtick_4">
     <g id="line2d_4">
      <path clip-path="url(#pbd1c7532ab)" d="M 186.119111 297.9 
L 186.119111 40.54875 
" style="fill:none;stroke:#ffffff;stroke-linecap:round;"/>
     </g>
     <g id="text_4">
      <!-- 6 -->
      <defs>
       <path d="M 49.75 54.046875 
L 41.015625 53.375 
Q 39.84375 58.546875 37.703125 60.890625 
Q 34.125 64.65625 28.90625 64.65625 
Q 24.703125 64.65625 21.53125 62.3125 
Q 17.390625 59.28125 14.984375 53.46875 
Q 12.59375 47.65625 12.5 36.921875 
Q 15.671875 41.75 20.265625 44.09375 
Q 24.859375 46.4375 29.890625 46.4375 
Q 38.671875 46.4375 44.84375 39.96875 
Q 51.03125 33.5 51.03125 23.25 
Q 51.03125 16.5 48.125 10.71875 
Q 45.21875 4.9375 40.140625 1.859375 
Q 35.0625 -1.21875 28.609375 -1.21875 
Q 17.625 -1.21875 10.6875 6.859375 
Q 3.765625 14.9375 3.765625 33.5 
Q 3.765625 54.25 11.421875 63.671875 
Q 18.109375 71.875 29.4375 71.875 
Q 37.890625 71.875 43.28125 67.140625 
Q 48.6875 62.40625 49.75 54.046875 
z
M 13.875 23.1875 
Q 13.875 18.65625 15.796875 14.5 
Q 17.71875 10.359375 21.1875 8.171875 
Q 24.65625 6 28.46875 6 
Q 34.03125 6 38.03125 10.484375 
Q 42.046875 14.984375 42.046875 22.703125 
Q 42.046875 30.125 38.078125 34.390625 
Q 34.125 38.671875 28.125 38.671875 
Q 22.171875 38.671875 18.015625 34.390625 
Q 13.875 30.125 13.875 23.1875 
z
" id="ArialMT-54"/>
      </defs>
      <g style="fill:#262626;" transform="translate(183.060596 315.273594)scale(0.11 -0.11)">
       <use xlink:href="#ArialMT-54"/>
      </g>
     </g>
    </g>
    <g id="xtick_5">
     <g id="line2d_5">
      <path clip-path="url(#pbd1c7532ab)" d="M 219.780962 297.9 
L 219.780962 40.54875 
" style="fill:none;stroke:#ffffff;stroke-linecap:round;"/>
     </g>
     <g id="text_5">
      <!-- 8 -->
      <defs>
       <path d="M 17.671875 38.8125 
Q 12.203125 40.828125 9.5625 44.53125 
Q 6.9375 48.25 6.9375 53.421875 
Q 6.9375 61.234375 12.546875 66.546875 
Q 18.171875 71.875 27.484375 71.875 
Q 36.859375 71.875 42.578125 66.421875 
Q 48.296875 60.984375 48.296875 53.171875 
Q 48.296875 48.1875 45.671875 44.5 
Q 43.0625 40.828125 37.75 38.8125 
Q 44.34375 36.671875 47.78125 31.875 
Q 51.21875 27.09375 51.21875 20.453125 
Q 51.21875 11.28125 44.71875 5.03125 
Q 38.234375 -1.21875 27.640625 -1.21875 
Q 17.046875 -1.21875 10.546875 5.046875 
Q 4.046875 11.328125 4.046875 20.703125 
Q 4.046875 27.6875 7.59375 32.390625 
Q 11.140625 37.109375 17.671875 38.8125 
z
M 15.921875 53.71875 
Q 15.921875 48.640625 19.1875 45.40625 
Q 22.46875 42.1875 27.6875 42.1875 
Q 32.765625 42.1875 36.015625 45.375 
Q 39.265625 48.578125 39.265625 53.21875 
Q 39.265625 58.0625 35.90625 61.359375 
Q 32.5625 64.65625 27.59375 64.65625 
Q 22.5625 64.65625 19.234375 61.421875 
Q 15.921875 58.203125 15.921875 53.71875 
z
M 13.09375 20.65625 
Q 13.09375 16.890625 14.875 13.375 
Q 16.65625 9.859375 20.171875 7.921875 
Q 23.6875 6 27.734375 6 
Q 34.03125 6 38.125 10.046875 
Q 42.234375 14.109375 42.234375 20.359375 
Q 42.234375 26.703125 38.015625 30.859375 
Q 33.796875 35.015625 27.4375 35.015625 
Q 21.234375 35.015625 17.15625 30.90625 
Q 13.09375 26.8125 13.09375 20.65625 
z
" id="ArialMT-56"/>
      </defs>
      <g style="fill:#262626;" transform="translate(216.722446 315.273594)scale(0.11 -0.11)">
       <use xlink:href="#ArialMT-56"/>
      </g>
     </g>
    </g>
    <g id="xtick_6">
     <g id="line2d_6">
      <path clip-path="url(#pbd1c7532ab)" d="M 253.442813 297.9 
L 253.442813 40.54875 
" style="fill:none;stroke:#ffffff;stroke-linecap:round;"/>
     </g>
     <g id="text_6">
      <!-- 10 -->
      <defs>
       <path d="M 37.25 0 
L 28.46875 0 
L 28.46875 56 
Q 25.296875 52.984375 20.140625 49.953125 
Q 14.984375 46.921875 10.890625 45.40625 
L 10.890625 53.90625 
Q 18.265625 57.375 23.78125 62.296875 
Q 29.296875 67.234375 31.59375 71.875 
L 37.25 71.875 
z
" id="ArialMT-49"/>
      </defs>
      <g style="fill:#262626;" transform="translate(247.325781 315.273594)scale(0.11 -0.11)">
       <use xlink:href="#ArialMT-49"/>
       <use x="55.615234" xlink:href="#ArialMT-48"/>
      </g>
     </g>
    </g>
    <g id="xtick_7">
     <g id="line2d_7">
      <path clip-path="url(#pbd1c7532ab)" d="M 287.104663 297.9 
L 287.104663 40.54875 
" style="fill:none;stroke:#ffffff;stroke-linecap:round;"/>
     </g>
     <g id="text_7">
      <!-- 12 -->
      <g style="fill:#262626;" transform="translate(280.987632 315.273594)scale(0.11 -0.11)">
       <use xlink:href="#ArialMT-49"/>
       <use x="55.615234" xlink:href="#ArialMT-50"/>
      </g>
     </g>
    </g>
    <g id="xtick_8">
     <g id="line2d_8">
      <path clip-path="url(#pbd1c7532ab)" d="M 320.766514 297.9 
L 320.766514 40.54875 
" style="fill:none;stroke:#ffffff;stroke-linecap:round;"/>
     </g>
     <g id="text_8">
      <!-- 14 -->
      <g style="fill:#262626;" transform="translate(314.649483 315.273594)scale(0.11 -0.11)">
       <use xlink:href="#ArialMT-49"/>
       <use x="55.615234" xlink:href="#ArialMT-52"/>
      </g>
     </g>
    </g>
    <g id="xtick_9">
     <g id="line2d_9">
      <path clip-path="url(#pbd1c7532ab)" d="M 354.428364 297.9 
L 354.428364 40.54875 
" style="fill:none;stroke:#ffffff;stroke-linecap:round;"/>
     </g>
     <g id="text_9">
      <!-- 16 -->
      <g style="fill:#262626;" transform="translate(348.311333 315.273594)scale(0.11 -0.11)">
       <use xlink:href="#ArialMT-49"/>
       <use x="55.615234" xlink:href="#ArialMT-54"/>
      </g>
     </g>
    </g>
    <g id="xtick_10">
     <g id="line2d_10">
      <path clip-path="url(#pbd1c7532ab)" d="M 388.090215 297.9 
L 388.090215 40.54875 
" style="fill:none;stroke:#ffffff;stroke-linecap:round;"/>
     </g>
     <g id="text_10">
      <!-- 18 -->
      <g style="fill:#262626;" transform="translate(381.973184 315.273594)scale(0.11 -0.11)">
       <use xlink:href="#ArialMT-49"/>
       <use x="55.615234" xlink:href="#ArialMT-56"/>
      </g>
     </g>
    </g>
    <g id="xtick_11">
     <g id="line2d_11">
      <path clip-path="url(#pbd1c7532ab)" d="M 421.752066 297.9 
L 421.752066 40.54875 
" style="fill:none;stroke:#ffffff;stroke-linecap:round;"/>
     </g>
     <g id="text_11">
      <!-- 20 -->
      <g style="fill:#262626;" transform="translate(415.635034 315.273594)scale(0.11 -0.11)">
       <use xlink:href="#ArialMT-50"/>
       <use x="55.615234" xlink:href="#ArialMT-48"/>
      </g>
     </g>
    </g>
    <g id="text_12">
     <!-- Number of Pigeons They Could Carry [pigeons] -->
     <defs>
      <path d="M 7.625 0 
L 7.625 71.578125 
L 17.328125 71.578125 
L 54.9375 15.375 
L 54.9375 71.578125 
L 64.015625 71.578125 
L 64.015625 0 
L 54.296875 0 
L 16.703125 56.25 
L 16.703125 0 
z
" id="ArialMT-78"/>
      <path d="M 40.578125 0 
L 40.578125 7.625 
Q 34.515625 -1.171875 24.125 -1.171875 
Q 19.53125 -1.171875 15.546875 0.578125 
Q 11.578125 2.34375 9.640625 5 
Q 7.71875 7.671875 6.9375 11.53125 
Q 6.390625 14.109375 6.390625 19.734375 
L 6.390625 51.859375 
L 15.1875 51.859375 
L 15.1875 23.09375 
Q 15.1875 16.21875 15.71875 13.8125 
Q 16.546875 10.359375 19.234375 8.375 
Q 21.921875 6.390625 25.875 6.390625 
Q 29.828125 6.390625 33.296875 8.421875 
Q 36.765625 10.453125 38.203125 13.9375 
Q 39.65625 17.4375 39.65625 24.078125 
L 39.65625 51.859375 
L 48.4375 51.859375 
L 48.4375 0 
z
" id="ArialMT-117"/>
      <path d="M 6.59375 0 
L 6.59375 51.859375 
L 14.453125 51.859375 
L 14.453125 44.578125 
Q 16.890625 48.390625 20.9375 50.703125 
Q 25 53.03125 30.171875 53.03125 
Q 35.9375 53.03125 39.625 50.640625 
Q 43.3125 48.25 44.828125 43.953125 
Q 50.984375 53.03125 60.84375 53.03125 
Q 68.5625 53.03125 72.703125 48.75 
Q 76.859375 44.484375 76.859375 35.59375 
L 76.859375 0 
L 68.109375 0 
L 68.109375 32.671875 
Q 68.109375 37.9375 67.25 40.25 
Q 66.40625 42.578125 64.15625 43.984375 
Q 61.921875 45.40625 58.890625 45.40625 
Q 53.421875 45.40625 49.796875 41.765625 
Q 46.1875 38.140625 46.1875 30.125 
L 46.1875 0 
L 37.40625 0 
L 37.40625 33.6875 
Q 37.40625 39.546875 35.25 42.46875 
Q 33.109375 45.40625 28.21875 45.40625 
Q 24.515625 45.40625 21.359375 43.453125 
Q 18.21875 41.5 16.796875 37.734375 
Q 15.375 33.984375 15.375 26.90625 
L 15.375 0 
z
" id="ArialMT-109"/>
      <path d="M 14.703125 0 
L 6.546875 0 
L 6.546875 71.578125 
L 15.328125 71.578125 
L 15.328125 46.046875 
Q 20.90625 53.03125 29.546875 53.03125 
Q 34.328125 53.03125 38.59375 51.09375 
Q 42.875 49.171875 45.625 45.671875 
Q 48.390625 42.1875 49.953125 37.25 
Q 51.515625 32.328125 51.515625 26.703125 
Q 51.515625 13.375 44.921875 6.09375 
Q 38.328125 -1.171875 29.109375 -1.171875 
Q 19.921875 -1.171875 14.703125 6.5 
z
M 14.59375 26.3125 
Q 14.59375 17 17.140625 12.84375 
Q 21.296875 6.0625 28.375 6.0625 
Q 34.125 6.0625 38.328125 11.0625 
Q 42.53125 16.0625 42.53125 25.984375 
Q 42.53125 36.140625 38.5 40.96875 
Q 34.46875 45.796875 28.765625 45.796875 
Q 23 45.796875 18.796875 40.796875 
Q 14.59375 35.796875 14.59375 26.3125 
z
" id="ArialMT-98"/>
      <path d="M 42.09375 16.703125 
L 51.171875 15.578125 
Q 49.03125 7.625 43.21875 3.21875 
Q 37.40625 -1.171875 28.375 -1.171875 
Q 17 -1.171875 10.328125 5.828125 
Q 3.65625 12.84375 3.65625 25.484375 
Q 3.65625 38.578125 10.390625 45.796875 
Q 17.140625 53.03125 27.875 53.03125 
Q 38.28125 53.03125 44.875 45.953125 
Q 51.46875 38.875 51.46875 26.03125 
Q 51.46875 25.25 51.421875 23.6875 
L 12.75 23.6875 
Q 13.234375 15.140625 17.578125 10.59375 
Q 21.921875 6.0625 28.421875 6.0625 
Q 33.25 6.0625 36.671875 8.59375 
Q 40.09375 11.140625 42.09375 16.703125 
z
M 13.234375 30.90625 
L 42.1875 30.90625 
Q 41.609375 37.453125 38.875 40.71875 
Q 34.671875 45.796875 27.984375 45.796875 
Q 21.921875 45.796875 17.796875 41.75 
Q 13.671875 37.703125 13.234375 30.90625 
z
" id="ArialMT-101"/>
      <path d="M 6.5 0 
L 6.5 51.859375 
L 14.40625 51.859375 
L 14.40625 44 
Q 17.4375 49.515625 20 51.265625 
Q 22.5625 53.03125 25.640625 53.03125 
Q 30.078125 53.03125 34.671875 50.203125 
L 31.640625 42.046875 
Q 28.421875 43.953125 25.203125 43.953125 
Q 22.3125 43.953125 20.015625 42.21875 
Q 17.71875 40.484375 16.75 37.40625 
Q 15.28125 32.71875 15.28125 27.15625 
L 15.28125 0 
z
" id="ArialMT-114"/>
      <path id="ArialMT-32"/>
      <path d="M 3.328125 25.921875 
Q 3.328125 40.328125 11.328125 47.265625 
Q 18.015625 53.03125 27.640625 53.03125 
Q 38.328125 53.03125 45.109375 46.015625 
Q 51.90625 39.015625 51.90625 26.65625 
Q 51.90625 16.65625 48.90625 10.90625 
Q 45.90625 5.171875 40.15625 2 
Q 34.421875 -1.171875 27.640625 -1.171875 
Q 16.75 -1.171875 10.03125 5.8125 
Q 3.328125 12.796875 3.328125 25.921875 
z
M 12.359375 25.921875 
Q 12.359375 15.96875 16.703125 11.015625 
Q 21.046875 6.0625 27.640625 6.0625 
Q 34.1875 6.0625 38.53125 11.03125 
Q 42.875 16.015625 42.875 26.21875 
Q 42.875 35.84375 38.5 40.796875 
Q 34.125 45.75 27.640625 45.75 
Q 21.046875 45.75 16.703125 40.8125 
Q 12.359375 35.890625 12.359375 25.921875 
z
" id="ArialMT-111"/>
      <path d="M 8.6875 0 
L 8.6875 45.015625 
L 0.921875 45.015625 
L 0.921875 51.859375 
L 8.6875 51.859375 
L 8.6875 57.375 
Q 8.6875 62.59375 9.625 65.140625 
Q 10.890625 68.5625 14.078125 70.671875 
Q 17.28125 72.796875 23.046875 72.796875 
Q 26.765625 72.796875 31.25 71.921875 
L 29.9375 64.265625 
Q 27.203125 64.75 24.75 64.75 
Q 20.75 64.75 19.09375 63.03125 
Q 17.4375 61.328125 17.4375 56.640625 
L 17.4375 51.859375 
L 27.546875 51.859375 
L 27.546875 45.015625 
L 17.4375 45.015625 
L 17.4375 0 
z
" id="ArialMT-102"/>
      <path d="M 7.71875 0 
L 7.71875 71.578125 
L 34.71875 71.578125 
Q 41.84375 71.578125 45.609375 70.90625 
Q 50.875 70.015625 54.4375 67.546875 
Q 58.015625 65.09375 60.1875 60.640625 
Q 62.359375 56.203125 62.359375 50.875 
Q 62.359375 41.75 56.546875 35.421875 
Q 50.734375 29.109375 35.546875 29.109375 
L 17.1875 29.109375 
L 17.1875 0 
z
M 17.1875 37.546875 
L 35.6875 37.546875 
Q 44.875 37.546875 48.734375 40.96875 
Q 52.59375 44.390625 52.59375 50.59375 
Q 52.59375 55.078125 50.3125 58.265625 
Q 48.046875 61.46875 44.34375 62.5 
Q 41.9375 63.140625 35.5 63.140625 
L 17.1875 63.140625 
z
" id="ArialMT-80"/>
      <path d="M 6.640625 61.46875 
L 6.640625 71.578125 
L 15.4375 71.578125 
L 15.4375 61.46875 
z
M 6.640625 0 
L 6.640625 51.859375 
L 15.4375 51.859375 
L 15.4375 0 
z
" id="ArialMT-105"/>
      <path d="M 4.984375 -4.296875 
L 13.53125 -5.5625 
Q 14.0625 -9.515625 16.5 -11.328125 
Q 19.78125 -13.765625 25.4375 -13.765625 
Q 31.546875 -13.765625 34.859375 -11.328125 
Q 38.1875 -8.890625 39.359375 -4.5 
Q 40.046875 -1.8125 39.984375 6.78125 
Q 34.234375 0 25.640625 0 
Q 14.9375 0 9.078125 7.71875 
Q 3.21875 15.4375 3.21875 26.21875 
Q 3.21875 33.640625 5.90625 39.90625 
Q 8.59375 46.1875 13.6875 49.609375 
Q 18.796875 53.03125 25.6875 53.03125 
Q 34.859375 53.03125 40.828125 45.609375 
L 40.828125 51.859375 
L 48.921875 51.859375 
L 48.921875 7.03125 
Q 48.921875 -5.078125 46.453125 -10.125 
Q 44 -15.1875 38.640625 -18.109375 
Q 33.296875 -21.046875 25.484375 -21.046875 
Q 16.21875 -21.046875 10.5 -16.875 
Q 4.78125 -12.703125 4.984375 -4.296875 
z
M 12.25 26.859375 
Q 12.25 16.65625 16.296875 11.96875 
Q 20.359375 7.28125 26.46875 7.28125 
Q 32.515625 7.28125 36.609375 11.9375 
Q 40.71875 16.609375 40.71875 26.5625 
Q 40.71875 36.078125 36.5 40.90625 
Q 32.28125 45.75 26.3125 45.75 
Q 20.453125 45.75 16.34375 40.984375 
Q 12.25 36.234375 12.25 26.859375 
z
" id="ArialMT-103"/>
      <path d="M 6.59375 0 
L 6.59375 51.859375 
L 14.5 51.859375 
L 14.5 44.484375 
Q 20.21875 53.03125 31 53.03125 
Q 35.6875 53.03125 39.625 51.34375 
Q 43.5625 49.65625 45.515625 46.921875 
Q 47.46875 44.1875 48.25 40.4375 
Q 48.734375 37.984375 48.734375 31.890625 
L 48.734375 0 
L 39.9375 0 
L 39.9375 31.546875 
Q 39.9375 36.921875 38.90625 39.578125 
Q 37.890625 42.234375 35.28125 43.8125 
Q 32.671875 45.40625 29.15625 45.40625 
Q 23.53125 45.40625 19.453125 41.84375 
Q 15.375 38.28125 15.375 28.328125 
L 15.375 0 
z
" id="ArialMT-110"/>
      <path d="M 3.078125 15.484375 
L 11.765625 16.84375 
Q 12.5 11.625 15.84375 8.84375 
Q 19.1875 6.0625 25.203125 6.0625 
Q 31.25 6.0625 34.171875 8.515625 
Q 37.109375 10.984375 37.109375 14.3125 
Q 37.109375 17.28125 34.515625 19 
Q 32.71875 20.171875 25.53125 21.96875 
Q 15.875 24.421875 12.140625 26.203125 
Q 8.40625 27.984375 6.46875 31.125 
Q 4.546875 34.28125 4.546875 38.09375 
Q 4.546875 41.546875 6.125 44.5 
Q 7.71875 47.46875 10.453125 49.421875 
Q 12.5 50.921875 16.03125 51.96875 
Q 19.578125 53.03125 23.640625 53.03125 
Q 29.734375 53.03125 34.34375 51.265625 
Q 38.96875 49.515625 41.15625 46.5 
Q 43.359375 43.5 44.1875 38.484375 
L 35.59375 37.3125 
Q 35.015625 41.3125 32.203125 43.546875 
Q 29.390625 45.796875 24.265625 45.796875 
Q 18.21875 45.796875 15.625 43.796875 
Q 13.03125 41.796875 13.03125 39.109375 
Q 13.03125 37.40625 14.109375 36.03125 
Q 15.1875 34.625 17.484375 33.6875 
Q 18.796875 33.203125 25.25 31.453125 
Q 34.578125 28.953125 38.25 27.359375 
Q 41.9375 25.78125 44.03125 22.75 
Q 46.140625 19.734375 46.140625 15.234375 
Q 46.140625 10.84375 43.578125 6.953125 
Q 41.015625 3.078125 36.171875 0.953125 
Q 31.34375 -1.171875 25.25 -1.171875 
Q 15.140625 -1.171875 9.84375 3.03125 
Q 4.546875 7.234375 3.078125 15.484375 
z
" id="ArialMT-115"/>
      <path d="M 25.921875 0 
L 25.921875 63.140625 
L 2.34375 63.140625 
L 2.34375 71.578125 
L 59.078125 71.578125 
L 59.078125 63.140625 
L 35.40625 63.140625 
L 35.40625 0 
z
" id="ArialMT-84"/>
      <path d="M 6.59375 0 
L 6.59375 71.578125 
L 15.375 71.578125 
L 15.375 45.90625 
Q 21.53125 53.03125 30.90625 53.03125 
Q 36.671875 53.03125 40.921875 50.75 
Q 45.171875 48.484375 47 44.484375 
Q 48.828125 40.484375 48.828125 32.859375 
L 48.828125 0 
L 40.046875 0 
L 40.046875 32.859375 
Q 40.046875 39.453125 37.1875 42.453125 
Q 34.328125 45.453125 29.109375 45.453125 
Q 25.203125 45.453125 21.75 43.421875 
Q 18.3125 41.40625 16.84375 37.9375 
Q 15.375 34.46875 15.375 28.375 
L 15.375 0 
z
" id="ArialMT-104"/>
      <path d="M 6.203125 -19.96875 
L 5.21875 -11.71875 
Q 8.109375 -12.5 10.25 -12.5 
Q 13.1875 -12.5 14.9375 -11.515625 
Q 16.703125 -10.546875 17.828125 -8.796875 
Q 18.65625 -7.46875 20.515625 -2.25 
Q 20.75 -1.515625 21.296875 -0.09375 
L 1.609375 51.859375 
L 11.078125 51.859375 
L 21.875 21.828125 
Q 23.96875 16.109375 25.640625 9.8125 
Q 27.15625 15.875 29.25 21.625 
L 40.328125 51.859375 
L 49.125 51.859375 
L 29.390625 -0.875 
Q 26.21875 -9.421875 24.46875 -12.640625 
Q 22.125 -17 19.09375 -19.015625 
Q 16.0625 -21.046875 11.859375 -21.046875 
Q 9.328125 -21.046875 6.203125 -19.96875 
z
" id="ArialMT-121"/>
      <path d="M 58.796875 25.09375 
L 68.265625 22.703125 
Q 65.28125 11.03125 57.546875 4.90625 
Q 49.8125 -1.21875 38.625 -1.21875 
Q 27.046875 -1.21875 19.796875 3.484375 
Q 12.546875 8.203125 8.765625 17.140625 
Q 4.984375 26.078125 4.984375 36.328125 
Q 4.984375 47.515625 9.25 55.828125 
Q 13.53125 64.15625 21.40625 68.46875 
Q 29.296875 72.796875 38.765625 72.796875 
Q 49.515625 72.796875 56.828125 67.328125 
Q 64.15625 61.859375 67.046875 51.953125 
L 57.71875 49.75 
Q 55.21875 57.5625 50.484375 61.125 
Q 45.75 64.703125 38.578125 64.703125 
Q 30.328125 64.703125 24.78125 60.734375 
Q 19.234375 56.78125 16.984375 50.109375 
Q 14.75 43.453125 14.75 36.375 
Q 14.75 27.25 17.40625 20.4375 
Q 20.0625 13.625 25.671875 10.25 
Q 31.296875 6.890625 37.84375 6.890625 
Q 45.796875 6.890625 51.3125 11.46875 
Q 56.84375 16.0625 58.796875 25.09375 
z
" id="ArialMT-67"/>
      <path d="M 6.390625 0 
L 6.390625 71.578125 
L 15.1875 71.578125 
L 15.1875 0 
z
" id="ArialMT-108"/>
      <path d="M 40.234375 0 
L 40.234375 6.546875 
Q 35.296875 -1.171875 25.734375 -1.171875 
Q 19.53125 -1.171875 14.328125 2.25 
Q 9.125 5.671875 6.265625 11.796875 
Q 3.421875 17.921875 3.421875 25.875 
Q 3.421875 33.640625 6 39.96875 
Q 8.59375 46.296875 13.765625 49.65625 
Q 18.953125 53.03125 25.34375 53.03125 
Q 30.03125 53.03125 33.6875 51.046875 
Q 37.359375 49.078125 39.65625 45.90625 
L 39.65625 71.578125 
L 48.390625 71.578125 
L 48.390625 0 
z
M 12.453125 25.875 
Q 12.453125 15.921875 16.640625 10.984375 
Q 20.84375 6.0625 26.5625 6.0625 
Q 32.328125 6.0625 36.34375 10.765625 
Q 40.375 15.484375 40.375 25.140625 
Q 40.375 35.796875 36.265625 40.765625 
Q 32.171875 45.75 26.171875 45.75 
Q 20.3125 45.75 16.375 40.96875 
Q 12.453125 36.1875 12.453125 25.875 
z
" id="ArialMT-100"/>
      <path d="M 40.4375 6.390625 
Q 35.546875 2.25 31.03125 0.53125 
Q 26.515625 -1.171875 21.34375 -1.171875 
Q 12.796875 -1.171875 8.203125 3 
Q 3.609375 7.171875 3.609375 13.671875 
Q 3.609375 17.484375 5.34375 20.625 
Q 7.078125 23.78125 9.890625 25.6875 
Q 12.703125 27.59375 16.21875 28.5625 
Q 18.796875 29.25 24.03125 29.890625 
Q 34.671875 31.15625 39.703125 32.90625 
Q 39.75 34.71875 39.75 35.203125 
Q 39.75 40.578125 37.25 42.78125 
Q 33.890625 45.75 27.25 45.75 
Q 21.046875 45.75 18.09375 43.578125 
Q 15.140625 41.40625 13.71875 35.890625 
L 5.125 37.0625 
Q 6.296875 42.578125 8.984375 45.96875 
Q 11.671875 49.359375 16.75 51.1875 
Q 21.828125 53.03125 28.515625 53.03125 
Q 35.15625 53.03125 39.296875 51.46875 
Q 43.453125 49.90625 45.40625 47.53125 
Q 47.359375 45.171875 48.140625 41.546875 
Q 48.578125 39.3125 48.578125 33.453125 
L 48.578125 21.734375 
Q 48.578125 9.46875 49.140625 6.21875 
Q 49.703125 2.984375 51.375 0 
L 42.1875 0 
Q 40.828125 2.734375 40.4375 6.390625 
z
M 39.703125 26.03125 
Q 34.90625 24.078125 25.34375 22.703125 
Q 19.921875 21.921875 17.671875 20.9375 
Q 15.4375 19.96875 14.203125 18.09375 
Q 12.984375 16.21875 12.984375 13.921875 
Q 12.984375 10.40625 15.640625 8.0625 
Q 18.3125 5.71875 23.4375 5.71875 
Q 28.515625 5.71875 32.46875 7.9375 
Q 36.421875 10.15625 38.28125 14.015625 
Q 39.703125 17 39.703125 22.796875 
z
" id="ArialMT-97"/>
      <path d="M 6.78125 -19.875 
L 6.78125 71.578125 
L 26.171875 71.578125 
L 26.171875 64.3125 
L 15.578125 64.3125 
L 15.578125 -12.59375 
L 26.171875 -12.59375 
L 26.171875 -19.875 
z
" id="ArialMT-91"/>
      <path d="M 6.59375 -19.875 
L 6.59375 51.859375 
L 14.59375 51.859375 
L 14.59375 45.125 
Q 17.4375 49.078125 21 51.046875 
Q 24.5625 53.03125 29.640625 53.03125 
Q 36.28125 53.03125 41.359375 49.609375 
Q 46.4375 46.1875 49.015625 39.953125 
Q 51.609375 33.734375 51.609375 26.3125 
Q 51.609375 18.359375 48.75 11.984375 
Q 45.90625 5.609375 40.453125 2.21875 
Q 35.015625 -1.171875 29 -1.171875 
Q 24.609375 -1.171875 21.109375 0.6875 
Q 17.625 2.546875 15.375 5.375 
L 15.375 -19.875 
z
M 14.546875 25.640625 
Q 14.546875 15.625 18.59375 10.84375 
Q 22.65625 6.0625 28.421875 6.0625 
Q 34.28125 6.0625 38.453125 11.015625 
Q 42.625 15.96875 42.625 26.375 
Q 42.625 36.28125 38.546875 41.203125 
Q 34.46875 46.140625 28.8125 46.140625 
Q 23.1875 46.140625 18.859375 40.890625 
Q 14.546875 35.640625 14.546875 25.640625 
z
" id="ArialMT-112"/>
      <path d="M 21.296875 -19.875 
L 1.90625 -19.875 
L 1.90625 -12.59375 
L 12.5 -12.59375 
L 12.5 64.3125 
L 1.90625 64.3125 
L 1.90625 71.578125 
L 21.296875 71.578125 
z
" id="ArialMT-93"/>
     </defs>
     <g style="fill:#262626;" transform="translate(127.390313 330.195469)scale(0.12 -0.12)">
      <use xlink:href="#ArialMT-78"/>
      <use x="72.216797" xlink:href="#ArialMT-117"/>
      <use x="127.832031" xlink:href="#ArialMT-109"/>
      <use x="211.132812" xlink:href="#ArialMT-98"/>
      <use x="266.748047" xlink:href="#ArialMT-101"/>
      <use x="322.363281" xlink:href="#ArialMT-114"/>
      <use x="355.664062" xlink:href="#ArialMT-32"/>
      <use x="383.447266" xlink:href="#ArialMT-111"/>
      <use x="439.0625" xlink:href="#ArialMT-102"/>
      <use x="466.845703" xlink:href="#ArialMT-32"/>
      <use x="494.628906" xlink:href="#ArialMT-80"/>
      <use x="561.328125" xlink:href="#ArialMT-105"/>
      <use x="583.544922" xlink:href="#ArialMT-103"/>
      <use x="639.160156" xlink:href="#ArialMT-101"/>
      <use x="694.775391" xlink:href="#ArialMT-111"/>
      <use x="750.390625" xlink:href="#ArialMT-110"/>
      <use x="806.005859" xlink:href="#ArialMT-115"/>
      <use x="856.005859" xlink:href="#ArialMT-32"/>
      <use x="883.773438" xlink:href="#ArialMT-84"/>
      <use x="944.857422" xlink:href="#ArialMT-104"/>
      <use x="1000.472656" xlink:href="#ArialMT-101"/>
      <use x="1056.087891" xlink:href="#ArialMT-121"/>
      <use x="1106.087891" xlink:href="#ArialMT-32"/>
      <use x="1133.871094" xlink:href="#ArialMT-67"/>
      <use x="1206.087891" xlink:href="#ArialMT-111"/>
      <use x="1261.703125" xlink:href="#ArialMT-117"/>
      <use x="1317.318359" xlink:href="#ArialMT-108"/>
      <use x="1339.535156" xlink:href="#ArialMT-100"/>
      <use x="1395.150391" xlink:href="#ArialMT-32"/>
      <use x="1422.933594" xlink:href="#ArialMT-67"/>
      <use x="1495.150391" xlink:href="#ArialMT-97"/>
      <use x="1550.765625" xlink:href="#ArialMT-114"/>
      <use x="1584.066406" xlink:href="#ArialMT-114"/>
      <use x="1617.367188" xlink:href="#ArialMT-121"/>
      <use x="1667.367188" xlink:href="#ArialMT-32"/>
      <use x="1695.150391" xlink:href="#ArialMT-91"/>
      <use x="1722.933594" xlink:href="#ArialMT-112"/>
      <use x="1778.548828" xlink:href="#ArialMT-105"/>
      <use x="1800.765625" xlink:href="#ArialMT-103"/>
      <use x="1856.380859" xlink:href="#ArialMT-101"/>
      <use x="1911.996094" xlink:href="#ArialMT-111"/>
      <use x="1967.611328" xlink:href="#ArialMT-110"/>
      <use x="2023.226562" xlink:href="#ArialMT-115"/>
      <use x="2073.226562" xlink:href="#ArialMT-93"/>
     </g>
    </g>
   </g>
   <g id="matplotlib.axis_2">
    <g id="ytick_1">
     <g id="line2d_12">
      <path clip-path="url(#pbd1c7532ab)" d="M 59.045625 297.9 
L 447.84 297.9 
" style="fill:none;stroke:#ffffff;stroke-linecap:round;"/>
     </g>
     <g id="text_13">
      <!-- 0.00 -->
      <defs>
       <path d="M 9.078125 0 
L 9.078125 10.015625 
L 19.09375 10.015625 
L 19.09375 0 
z
" id="ArialMT-46"/>
      </defs>
      <g style="fill:#262626;" transform="translate(28.138594 301.836797)scale(0.11 -0.11)">
       <use xlink:href="#ArialMT-48"/>
       <use x="55.615234" xlink:href="#ArialMT-46"/>
       <use x="83.398438" xlink:href="#ArialMT-48"/>
       <use x="139.013672" xlink:href="#ArialMT-48"/>
      </g>
     </g>
    </g>
    <g id="ytick_2">
     <g id="line2d_13">
      <path clip-path="url(#pbd1c7532ab)" d="M 59.045625 246.42975 
L 447.84 246.42975 
" style="fill:none;stroke:#ffffff;stroke-linecap:round;"/>
     </g>
     <g id="text_14">
      <!-- 0.05 -->
      <defs>
       <path d="M 4.15625 18.75 
L 13.375 19.53125 
Q 14.40625 12.796875 18.140625 9.390625 
Q 21.875 6 27.15625 6 
Q 33.5 6 37.890625 10.78125 
Q 42.28125 15.578125 42.28125 23.484375 
Q 42.28125 31 38.0625 35.34375 
Q 33.84375 39.703125 27 39.703125 
Q 22.75 39.703125 19.328125 37.765625 
Q 15.921875 35.84375 13.96875 32.765625 
L 5.71875 33.84375 
L 12.640625 70.609375 
L 48.25 70.609375 
L 48.25 62.203125 
L 19.671875 62.203125 
L 15.828125 42.96875 
Q 22.265625 47.46875 29.34375 47.46875 
Q 38.71875 47.46875 45.15625 40.96875 
Q 51.609375 34.46875 51.609375 24.265625 
Q 51.609375 14.546875 45.953125 7.46875 
Q 39.0625 -1.21875 27.15625 -1.21875 
Q 17.390625 -1.21875 11.203125 4.25 
Q 5.03125 9.71875 4.15625 18.75 
z
" id="ArialMT-53"/>
      </defs>
      <g style="fill:#262626;" transform="translate(28.138594 250.366547)scale(0.11 -0.11)">
       <use xlink:href="#ArialMT-48"/>
       <use x="55.615234" xlink:href="#ArialMT-46"/>
       <use x="83.398438" xlink:href="#ArialMT-48"/>
       <use x="139.013672" xlink:href="#ArialMT-53"/>
      </g>
     </g>
    </g>
    <g id="ytick_3">
     <g id="line2d_14">
      <path clip-path="url(#pbd1c7532ab)" d="M 59.045625 194.9595 
L 447.84 194.9595 
" style="fill:none;stroke:#ffffff;stroke-linecap:round;"/>
     </g>
     <g id="text_15">
      <!-- 0.10 -->
      <g style="fill:#262626;" transform="translate(28.138594 198.896297)scale(0.11 -0.11)">
       <use xlink:href="#ArialMT-48"/>
       <use x="55.615234" xlink:href="#ArialMT-46"/>
       <use x="83.398438" xlink:href="#ArialMT-49"/>
       <use x="139.013672" xlink:href="#ArialMT-48"/>
      </g>
     </g>
    </g>
    <g id="ytick_4">
     <g id="line2d_15">
      <path clip-path="url(#pbd1c7532ab)" d="M 59.045625 143.48925 
L 447.84 143.48925 
" style="fill:none;stroke:#ffffff;stroke-linecap:round;"/>
     </g>
     <g id="text_16">
      <!-- 0.15 -->
      <g style="fill:#262626;" transform="translate(28.138594 147.426047)scale(0.11 -0.11)">
       <use xlink:href="#ArialMT-48"/>
       <use x="55.615234" xlink:href="#ArialMT-46"/>
       <use x="83.398438" xlink:href="#ArialMT-49"/>
       <use x="139.013672" xlink:href="#ArialMT-53"/>
      </g>
     </g>
    </g>
    <g id="ytick_5">
     <g id="line2d_16">
      <path clip-path="url(#pbd1c7532ab)" d="M 59.045625 92.019 
L 447.84 92.019 
" style="fill:none;stroke:#ffffff;stroke-linecap:round;"/>
     </g>
     <g id="text_17">
      <!-- 0.20 -->
      <g style="fill:#262626;" transform="translate(28.138594 95.955797)scale(0.11 -0.11)">
       <use xlink:href="#ArialMT-48"/>
       <use x="55.615234" xlink:href="#ArialMT-46"/>
       <use x="83.398438" xlink:href="#ArialMT-50"/>
       <use x="139.013672" xlink:href="#ArialMT-48"/>
      </g>
     </g>
    </g>
    <g id="ytick_6">
     <g id="line2d_17">
      <path clip-path="url(#pbd1c7532ab)" d="M 59.045625 40.54875 
L 447.84 40.54875 
" style="fill:none;stroke:#ffffff;stroke-linecap:round;"/>
     </g>
     <g id="text_18">
      <!-- 0.25 -->
      <g style="fill:#262626;" transform="translate(28.138594 44.485547)scale(0.11 -0.11)">
       <use xlink:href="#ArialMT-48"/>
       <use x="55.615234" xlink:href="#ArialMT-46"/>
       <use x="83.398438" xlink:href="#ArialMT-50"/>
       <use x="139.013672" xlink:href="#ArialMT-53"/>
      </g>
     </g>
    </g>
    <g id="text_19">
     <!-- Probability Distribution Function [-] -->
     <defs>
      <path d="M 25.78125 7.859375 
L 27.046875 0.09375 
Q 23.34375 -0.6875 20.40625 -0.6875 
Q 15.625 -0.6875 12.984375 0.828125 
Q 10.359375 2.34375 9.28125 4.8125 
Q 8.203125 7.28125 8.203125 15.1875 
L 8.203125 45.015625 
L 1.765625 45.015625 
L 1.765625 51.859375 
L 8.203125 51.859375 
L 8.203125 64.703125 
L 16.9375 69.96875 
L 16.9375 51.859375 
L 25.78125 51.859375 
L 25.78125 45.015625 
L 16.9375 45.015625 
L 16.9375 14.703125 
Q 16.9375 10.9375 17.40625 9.859375 
Q 17.875 8.796875 18.921875 8.15625 
Q 19.96875 7.515625 21.921875 7.515625 
Q 23.390625 7.515625 25.78125 7.859375 
z
" id="ArialMT-116"/>
      <path d="M 7.71875 0 
L 7.71875 71.578125 
L 32.375 71.578125 
Q 40.71875 71.578125 45.125 70.5625 
Q 51.265625 69.140625 55.609375 65.4375 
Q 61.28125 60.640625 64.078125 53.1875 
Q 66.890625 45.75 66.890625 36.1875 
Q 66.890625 28.03125 64.984375 21.734375 
Q 63.09375 15.4375 60.109375 11.296875 
Q 57.125 7.171875 53.578125 4.796875 
Q 50.046875 2.4375 45.046875 1.21875 
Q 40.046875 0 33.546875 0 
z
M 17.1875 8.453125 
L 32.46875 8.453125 
Q 39.546875 8.453125 43.578125 9.765625 
Q 47.609375 11.078125 50 13.484375 
Q 53.375 16.84375 55.25 22.53125 
Q 57.125 28.21875 57.125 36.328125 
Q 57.125 47.5625 53.4375 53.59375 
Q 49.75 59.625 44.484375 61.671875 
Q 40.671875 63.140625 32.234375 63.140625 
L 17.1875 63.140625 
z
" id="ArialMT-68"/>
      <path d="M 8.203125 0 
L 8.203125 71.578125 
L 56.5 71.578125 
L 56.5 63.140625 
L 17.671875 63.140625 
L 17.671875 40.96875 
L 51.265625 40.96875 
L 51.265625 32.515625 
L 17.671875 32.515625 
L 17.671875 0 
z
" id="ArialMT-70"/>
      <path d="M 40.4375 19 
L 49.078125 17.875 
Q 47.65625 8.9375 41.8125 3.875 
Q 35.984375 -1.171875 27.484375 -1.171875 
Q 16.84375 -1.171875 10.375 5.78125 
Q 3.90625 12.75 3.90625 25.734375 
Q 3.90625 34.125 6.6875 40.421875 
Q 9.46875 46.734375 15.15625 49.875 
Q 20.84375 53.03125 27.546875 53.03125 
Q 35.984375 53.03125 41.359375 48.75 
Q 46.734375 44.484375 48.25 36.625 
L 39.703125 35.296875 
Q 38.484375 40.53125 35.375 43.15625 
Q 32.28125 45.796875 27.875 45.796875 
Q 21.234375 45.796875 17.078125 41.03125 
Q 12.9375 36.28125 12.9375 25.984375 
Q 12.9375 15.53125 16.9375 10.796875 
Q 20.953125 6.0625 27.390625 6.0625 
Q 32.5625 6.0625 36.03125 9.234375 
Q 39.5 12.40625 40.4375 19 
z
" id="ArialMT-99"/>
      <path d="M 3.171875 21.484375 
L 3.171875 30.328125 
L 30.171875 30.328125 
L 30.171875 21.484375 
z
" id="ArialMT-45"/>
     </defs>
     <g style="fill:#262626;" transform="translate(21.612969 260.590312)rotate(-90)scale(0.12 -0.12)">
      <use xlink:href="#ArialMT-80"/>
      <use x="66.699219" xlink:href="#ArialMT-114"/>
      <use x="100" xlink:href="#ArialMT-111"/>
      <use x="155.615234" xlink:href="#ArialMT-98"/>
      <use x="211.230469" xlink:href="#ArialMT-97"/>
      <use x="266.845703" xlink:href="#ArialMT-98"/>
      <use x="322.460938" xlink:href="#ArialMT-105"/>
      <use x="344.677734" xlink:href="#ArialMT-108"/>
      <use x="366.894531" xlink:href="#ArialMT-105"/>
      <use x="389.111328" xlink:href="#ArialMT-116"/>
      <use x="416.894531" xlink:href="#ArialMT-121"/>
      <use x="466.894531" xlink:href="#ArialMT-32"/>
      <use x="494.677734" xlink:href="#ArialMT-68"/>
      <use x="566.894531" xlink:href="#ArialMT-105"/>
      <use x="589.111328" xlink:href="#ArialMT-115"/>
      <use x="639.111328" xlink:href="#ArialMT-116"/>
      <use x="666.894531" xlink:href="#ArialMT-114"/>
      <use x="700.195312" xlink:href="#ArialMT-105"/>
      <use x="722.412109" xlink:href="#ArialMT-98"/>
      <use x="778.027344" xlink:href="#ArialMT-117"/>
      <use x="833.642578" xlink:href="#ArialMT-116"/>
      <use x="861.425781" xlink:href="#ArialMT-105"/>
      <use x="883.642578" xlink:href="#ArialMT-111"/>
      <use x="939.257812" xlink:href="#ArialMT-110"/>
      <use x="994.873047" xlink:href="#ArialMT-32"/>
      <use x="1022.65625" xlink:href="#ArialMT-70"/>
      <use x="1083.740234" xlink:href="#ArialMT-117"/>
      <use x="1139.355469" xlink:href="#ArialMT-110"/>
      <use x="1194.970703" xlink:href="#ArialMT-99"/>
      <use x="1244.970703" xlink:href="#ArialMT-116"/>
      <use x="1272.753906" xlink:href="#ArialMT-105"/>
      <use x="1294.970703" xlink:href="#ArialMT-111"/>
      <use x="1350.585938" xlink:href="#ArialMT-110"/>
      <use x="1406.201172" xlink:href="#ArialMT-32"/>
      <use x="1433.984375" xlink:href="#ArialMT-91"/>
      <use x="1461.767578" xlink:href="#ArialMT-45"/>
      <use x="1495.068359" xlink:href="#ArialMT-93"/>
     </g>
    </g>
   </g>
   <g id="patch_3">
    <path d="M 59.045625 297.9 
L 59.045625 40.54875 
" style="fill:none;stroke:#ffffff;stroke-linecap:square;stroke-linejoin:miter;stroke-width:1.25;"/>
   </g>
   <g id="patch_4">
    <path d="M 447.84 297.9 
L 447.84 40.54875 
" style="fill:none;stroke:#ffffff;stroke-linecap:square;stroke-linejoin:miter;stroke-width:1.25;"/>
   </g>
   <g id="patch_5">
    <path d="M 59.045625 297.9 
L 447.84 297.9 
" style="fill:none;stroke:#ffffff;stroke-linecap:square;stroke-linejoin:miter;stroke-width:1.25;"/>
   </g>
   <g id="patch_6">
    <path d="M 59.045625 40.54875 
L 447.84 40.54875 
" style="fill:none;stroke:#ffffff;stroke-linecap:square;stroke-linejoin:miter;stroke-width:1.25;"/>
   </g>
   <g id="text_20">
    <!-- Note: All responses rounded -->
    <defs>
     <path d="M 9.03125 41.84375 
L 9.03125 51.859375 
L 19.046875 51.859375 
L 19.046875 41.84375 
z
M 9.03125 0 
L 9.03125 10.015625 
L 19.046875 10.015625 
L 19.046875 0 
z
" id="ArialMT-58"/>
     <path d="M -0.140625 0 
L 27.34375 71.578125 
L 37.546875 71.578125 
L 66.84375 0 
L 56.0625 0 
L 47.703125 21.6875 
L 17.78125 21.6875 
L 9.90625 0 
z
M 20.515625 29.390625 
L 44.78125 29.390625 
L 37.3125 49.21875 
Q 33.890625 58.25 32.234375 64.0625 
Q 30.859375 57.171875 28.375 50.390625 
z
" id="ArialMT-65"/>
    </defs>
    <g style="fill:#262626;" transform="translate(234.003094 57.8805)scale(0.1 -0.1)">
     <use xlink:href="#ArialMT-78"/>
     <use x="72.216797" xlink:href="#ArialMT-111"/>
     <use x="127.832031" xlink:href="#ArialMT-116"/>
     <use x="155.615234" xlink:href="#ArialMT-101"/>
     <use x="211.230469" xlink:href="#ArialMT-58"/>
     <use x="239.013672" xlink:href="#ArialMT-32"/>
     <use x="266.71875" xlink:href="#ArialMT-65"/>
     <use x="333.417969" xlink:href="#ArialMT-108"/>
     <use x="355.634766" xlink:href="#ArialMT-108"/>
     <use x="377.851562" xlink:href="#ArialMT-32"/>
     <use x="405.634766" xlink:href="#ArialMT-114"/>
     <use x="438.935547" xlink:href="#ArialMT-101"/>
     <use x="494.550781" xlink:href="#ArialMT-115"/>
     <use x="544.550781" xlink:href="#ArialMT-112"/>
     <use x="600.166016" xlink:href="#ArialMT-111"/>
     <use x="655.78125" xlink:href="#ArialMT-110"/>
     <use x="711.396484" xlink:href="#ArialMT-115"/>
     <use x="761.396484" xlink:href="#ArialMT-101"/>
     <use x="817.011719" xlink:href="#ArialMT-115"/>
     <use x="867.011719" xlink:href="#ArialMT-32"/>
     <use x="894.794922" xlink:href="#ArialMT-114"/>
     <use x="928.095703" xlink:href="#ArialMT-111"/>
     <use x="983.710938" xlink:href="#ArialMT-117"/>
     <use x="1039.326172" xlink:href="#ArialMT-110"/>
     <use x="1094.941406" xlink:href="#ArialMT-100"/>
     <use x="1150.556641" xlink:href="#ArialMT-101"/>
     <use x="1206.171875" xlink:href="#ArialMT-100"/>
    </g>
    <!-- to the nearest whole pigeon. -->
    <defs>
     <path d="M 16.15625 0 
L 0.296875 51.859375 
L 9.375 51.859375 
L 17.625 21.921875 
L 20.703125 10.796875 
Q 20.90625 11.625 23.390625 21.484375 
L 31.640625 51.859375 
L 40.671875 51.859375 
L 48.4375 21.78125 
L 51.03125 11.859375 
L 54 21.875 
L 62.890625 51.859375 
L 71.4375 51.859375 
L 55.21875 0 
L 46.09375 0 
L 37.84375 31.0625 
L 35.84375 39.890625 
L 25.34375 0 
z
" id="ArialMT-119"/>
    </defs>
    <g style="fill:#262626;" transform="translate(234.003094 68.457375)scale(0.1 -0.1)">
     <use xlink:href="#ArialMT-116"/>
     <use x="27.783203" xlink:href="#ArialMT-111"/>
     <use x="83.398438" xlink:href="#ArialMT-32"/>
     <use x="111.181641" xlink:href="#ArialMT-116"/>
     <use x="138.964844" xlink:href="#ArialMT-104"/>
     <use x="194.580078" xlink:href="#ArialMT-101"/>
     <use x="250.195312" xlink:href="#ArialMT-32"/>
     <use x="277.978516" xlink:href="#ArialMT-110"/>
     <use x="333.59375" xlink:href="#ArialMT-101"/>
     <use x="389.208984" xlink:href="#ArialMT-97"/>
     <use x="444.824219" xlink:href="#ArialMT-114"/>
     <use x="478.125" xlink:href="#ArialMT-101"/>
     <use x="533.740234" xlink:href="#ArialMT-115"/>
     <use x="583.740234" xlink:href="#ArialMT-116"/>
     <use x="611.523438" xlink:href="#ArialMT-32"/>
     <use x="639.306641" xlink:href="#ArialMT-119"/>
     <use x="711.523438" xlink:href="#ArialMT-104"/>
     <use x="767.138672" xlink:href="#ArialMT-111"/>
     <use x="822.753906" xlink:href="#ArialMT-108"/>
     <use x="844.970703" xlink:href="#ArialMT-101"/>
     <use x="900.585938" xlink:href="#ArialMT-32"/>
     <use x="928.369141" xlink:href="#ArialMT-112"/>
     <use x="983.984375" xlink:href="#ArialMT-105"/>
     <use x="1006.201172" xlink:href="#ArialMT-103"/>
     <use x="1061.816406" xlink:href="#ArialMT-101"/>
     <use x="1117.431641" xlink:href="#ArialMT-111"/>
     <use x="1173.046875" xlink:href="#ArialMT-110"/>
     <use x="1228.662109" xlink:href="#ArialMT-46"/>
    </g>
    <!-- Mean = 4.9, SD = 5.3, $n$ = 21 -->
    <defs>
     <path d="M 7.421875 0 
L 7.421875 71.578125 
L 21.6875 71.578125 
L 38.625 20.90625 
Q 40.96875 13.8125 42.046875 10.296875 
Q 43.265625 14.203125 45.84375 21.78125 
L 62.984375 71.578125 
L 75.734375 71.578125 
L 75.734375 0 
L 66.609375 0 
L 66.609375 59.90625 
L 45.796875 0 
L 37.25 0 
L 16.546875 60.9375 
L 16.546875 0 
z
" id="ArialMT-77"/>
     <path d="M 52.828125 42.09375 
L 5.5625 42.09375 
L 5.5625 50.296875 
L 52.828125 50.296875 
z
M 52.828125 20.359375 
L 5.5625 20.359375 
L 5.5625 28.5625 
L 52.828125 28.5625 
z
" id="ArialMT-61"/>
     <path d="M 5.46875 16.546875 
L 13.921875 17.328125 
Q 14.984375 11.375 18.015625 8.6875 
Q 21.046875 6 25.78125 6 
Q 29.828125 6 32.875 7.859375 
Q 35.9375 9.71875 37.890625 12.8125 
Q 39.84375 15.921875 41.15625 21.1875 
Q 42.484375 26.46875 42.484375 31.9375 
Q 42.484375 32.515625 42.4375 33.6875 
Q 39.796875 29.5 35.234375 26.875 
Q 30.671875 24.265625 25.34375 24.265625 
Q 16.453125 24.265625 10.296875 30.703125 
Q 4.15625 37.15625 4.15625 47.703125 
Q 4.15625 58.59375 10.578125 65.234375 
Q 17 71.875 26.65625 71.875 
Q 33.640625 71.875 39.421875 68.109375 
Q 45.21875 64.359375 48.21875 57.390625 
Q 51.21875 50.4375 51.21875 37.25 
Q 51.21875 23.53125 48.234375 15.40625 
Q 45.265625 7.28125 39.375 3.03125 
Q 33.5 -1.21875 25.59375 -1.21875 
Q 17.1875 -1.21875 11.859375 3.4375 
Q 6.546875 8.109375 5.46875 16.546875 
z
M 41.453125 48.140625 
Q 41.453125 55.71875 37.421875 60.15625 
Q 33.40625 64.59375 27.734375 64.59375 
Q 21.875 64.59375 17.53125 59.8125 
Q 13.1875 55.03125 13.1875 47.40625 
Q 13.1875 40.578125 17.3125 36.296875 
Q 21.4375 32.03125 27.484375 32.03125 
Q 33.59375 32.03125 37.515625 36.296875 
Q 41.453125 40.578125 41.453125 48.140625 
z
" id="ArialMT-57"/>
     <path d="M 8.890625 0 
L 8.890625 10.015625 
L 18.890625 10.015625 
L 18.890625 0 
Q 18.890625 -5.515625 16.9375 -8.90625 
Q 14.984375 -12.3125 10.75 -14.15625 
L 8.296875 -10.40625 
Q 11.078125 -9.1875 12.390625 -6.8125 
Q 13.71875 -4.4375 13.875 0 
z
" id="ArialMT-44"/>
     <path d="M 4.5 23 
L 13.421875 23.78125 
Q 14.0625 18.40625 16.375 14.96875 
Q 18.703125 11.53125 23.578125 9.40625 
Q 28.46875 7.28125 34.578125 7.28125 
Q 39.984375 7.28125 44.140625 8.890625 
Q 48.296875 10.5 50.3125 13.296875 
Q 52.34375 16.109375 52.34375 19.4375 
Q 52.34375 22.796875 50.390625 25.3125 
Q 48.4375 27.828125 43.953125 29.546875 
Q 41.0625 30.671875 31.203125 33.03125 
Q 21.34375 35.40625 17.390625 37.5 
Q 12.25 40.1875 9.734375 44.15625 
Q 7.234375 48.140625 7.234375 53.078125 
Q 7.234375 58.5 10.296875 63.203125 
Q 13.375 67.921875 19.28125 70.359375 
Q 25.203125 72.796875 32.421875 72.796875 
Q 40.375 72.796875 46.453125 70.234375 
Q 52.546875 67.671875 55.8125 62.6875 
Q 59.078125 57.71875 59.328125 51.421875 
L 50.25 50.734375 
Q 49.515625 57.515625 45.28125 60.984375 
Q 41.0625 64.453125 32.8125 64.453125 
Q 24.21875 64.453125 20.28125 61.296875 
Q 16.359375 58.15625 16.359375 53.71875 
Q 16.359375 49.859375 19.140625 47.359375 
Q 21.875 44.875 33.421875 42.265625 
Q 44.96875 39.65625 49.265625 37.703125 
Q 55.515625 34.8125 58.484375 30.390625 
Q 61.46875 25.984375 61.46875 20.21875 
Q 61.46875 14.5 58.203125 9.4375 
Q 54.9375 4.390625 48.796875 1.578125 
Q 42.671875 -1.21875 35.015625 -1.21875 
Q 25.296875 -1.21875 18.71875 1.609375 
Q 12.15625 4.4375 8.421875 10.125 
Q 4.6875 15.828125 4.5 23 
z
" id="ArialMT-83"/>
     <path d="M 4.203125 18.890625 
L 12.984375 20.0625 
Q 14.5 12.59375 18.140625 9.296875 
Q 21.78125 6 27 6 
Q 33.203125 6 37.46875 10.296875 
Q 41.75 14.59375 41.75 20.953125 
Q 41.75 27 37.796875 30.921875 
Q 33.84375 34.859375 27.734375 34.859375 
Q 25.25 34.859375 21.53125 33.890625 
L 22.515625 41.609375 
Q 23.390625 41.5 23.921875 41.5 
Q 29.546875 41.5 34.03125 44.421875 
Q 38.53125 47.359375 38.53125 53.46875 
Q 38.53125 58.296875 35.25 61.46875 
Q 31.984375 64.65625 26.8125 64.65625 
Q 21.6875 64.65625 18.265625 61.421875 
Q 14.84375 58.203125 13.875 51.765625 
L 5.078125 53.328125 
Q 6.6875 62.15625 12.390625 67.015625 
Q 18.109375 71.875 26.609375 71.875 
Q 32.46875 71.875 37.390625 69.359375 
Q 42.328125 66.84375 44.9375 62.5 
Q 47.5625 58.15625 47.5625 53.265625 
Q 47.5625 48.640625 45.0625 44.828125 
Q 42.578125 41.015625 37.703125 38.765625 
Q 44.046875 37.3125 47.5625 32.6875 
Q 51.078125 28.078125 51.078125 21.140625 
Q 51.078125 11.765625 44.234375 5.25 
Q 37.40625 -1.265625 26.953125 -1.265625 
Q 17.53125 -1.265625 11.296875 4.34375 
Q 5.078125 9.96875 4.203125 18.890625 
z
" id="ArialMT-51"/>
     <path d="M 55.71875 33.015625 
L 49.3125 0 
L 40.28125 0 
L 46.6875 32.671875 
Q 47.125 34.96875 47.359375 36.71875 
Q 47.609375 38.484375 47.609375 39.5 
Q 47.609375 43.609375 45.015625 45.890625 
Q 42.4375 48.1875 37.796875 48.1875 
Q 30.5625 48.1875 25.34375 43.375 
Q 20.125 38.578125 18.5 30.328125 
L 12.5 0 
L 3.515625 0 
L 14.109375 54.6875 
L 23.09375 54.6875 
L 21.296875 46.09375 
Q 25.046875 50.828125 30.3125 53.40625 
Q 35.59375 56 41.40625 56 
Q 48.640625 56 52.609375 52.09375 
Q 56.59375 48.1875 56.59375 41.109375 
Q 56.59375 39.359375 56.375 37.359375 
Q 56.15625 35.359375 55.71875 33.015625 
z
" id="DejaVuSans-Oblique-110"/>
    </defs>
    <g style="fill:#262626;" transform="translate(234.003094 79.151437)scale(0.1 -0.1)">
     <use transform="translate(0 0.203125)" xlink:href="#ArialMT-77"/>
     <use transform="translate(83.300781 0.203125)" xlink:href="#ArialMT-101"/>
     <use transform="translate(138.916016 0.203125)" xlink:href="#ArialMT-97"/>
     <use transform="translate(194.53125 0.203125)" xlink:href="#ArialMT-110"/>
     <use transform="translate(250.146484 0.203125)" xlink:href="#ArialMT-32"/>
     <use transform="translate(277.929688 0.203125)" xlink:href="#ArialMT-61"/>
     <use transform="translate(336.328125 0.203125)" xlink:href="#ArialMT-32"/>
     <use transform="translate(364.111328 0.203125)" xlink:href="#ArialMT-52"/>
     <use transform="translate(419.726562 0.203125)" xlink:href="#ArialMT-46"/>
     <use transform="translate(447.509766 0.203125)" xlink:href="#ArialMT-57"/>
     <use transform="translate(503.125 0.203125)" xlink:href="#ArialMT-44"/>
     <use transform="translate(530.908203 0.203125)" xlink:href="#ArialMT-32"/>
     <use transform="translate(558.691406 0.203125)" xlink:href="#ArialMT-83"/>
     <use transform="translate(625.390625 0.203125)" xlink:href="#ArialMT-68"/>
     <use transform="translate(697.607422 0.203125)" xlink:href="#ArialMT-32"/>
     <use transform="translate(725.390625 0.203125)" xlink:href="#ArialMT-61"/>
     <use transform="translate(783.789062 0.203125)" xlink:href="#ArialMT-32"/>
     <use transform="translate(811.572266 0.203125)" xlink:href="#ArialMT-53"/>
     <use transform="translate(867.1875 0.203125)" xlink:href="#ArialMT-46"/>
     <use transform="translate(894.970703 0.203125)" xlink:href="#ArialMT-51"/>
     <use transform="translate(950.585938 0.203125)" xlink:href="#ArialMT-44"/>
     <use transform="translate(978.369141 0.203125)" xlink:href="#ArialMT-32"/>
     <use transform="translate(1006.152344 0.203125)" xlink:href="#DejaVuSans-Oblique-110"/>
     <use transform="translate(1069.53125 0.203125)" xlink:href="#ArialMT-32"/>
     <use transform="translate(1097.314453 0.203125)" xlink:href="#ArialMT-61"/>
     <use transform="translate(1155.712891 0.203125)" xlink:href="#ArialMT-32"/>
     <use transform="translate(1183.496094 0.203125)" xlink:href="#ArialMT-50"/>
     <use transform="translate(1239.111328 0.203125)" xlink:href="#ArialMT-49"/>
    </g>
   </g>
   <g id="text_21">
    <!-- A Survey of Tinder: -->
    <defs>
     <path d="M 21 0 
L 1.265625 51.859375 
L 10.546875 51.859375 
L 21.6875 20.796875 
Q 23.484375 15.765625 25 10.359375 
Q 26.171875 14.453125 28.265625 20.21875 
L 39.796875 51.859375 
L 48.828125 51.859375 
L 29.203125 0 
z
" id="ArialMT-118"/>
    </defs>
    <g style="fill:#262626;" transform="translate(202.099688 21.540375)scale(0.12 -0.12)">
     <use xlink:href="#ArialMT-65"/>
     <use x="66.621094" xlink:href="#ArialMT-32"/>
     <use x="94.404297" xlink:href="#ArialMT-83"/>
     <use x="161.103516" xlink:href="#ArialMT-117"/>
     <use x="216.71875" xlink:href="#ArialMT-114"/>
     <use x="250.019531" xlink:href="#ArialMT-118"/>
     <use x="300.019531" xlink:href="#ArialMT-101"/>
     <use x="355.634766" xlink:href="#ArialMT-121"/>
     <use x="405.634766" xlink:href="#ArialMT-32"/>
     <use x="433.417969" xlink:href="#ArialMT-111"/>
     <use x="489.033203" xlink:href="#ArialMT-102"/>
     <use x="516.816406" xlink:href="#ArialMT-32"/>
     <use x="544.583984" xlink:href="#ArialMT-84"/>
     <use x="605.621094" xlink:href="#ArialMT-105"/>
     <use x="627.837891" xlink:href="#ArialMT-110"/>
     <use x="683.453125" xlink:href="#ArialMT-100"/>
     <use x="739.068359" xlink:href="#ArialMT-101"/>
     <use x="794.683594" xlink:href="#ArialMT-114"/>
     <use x="827.984375" xlink:href="#ArialMT-58"/>
    </g>
    <!-- "How many pigeons do you think you could carry?" -->
    <defs>
     <path d="M 7.03125 46.234375 
L 4.59375 59.859375 
L 4.59375 71.578125 
L 14.59375 71.578125 
L 14.59375 59.859375 
L 12.40625 46.234375 
z
M 23.1875 46.234375 
L 20.796875 59.859375 
L 20.796875 71.578125 
L 30.8125 71.578125 
L 30.8125 59.859375 
L 28.46875 46.234375 
z
" id="ArialMT-34"/>
     <path d="M 8.015625 0 
L 8.015625 71.578125 
L 17.484375 71.578125 
L 17.484375 42.1875 
L 54.6875 42.1875 
L 54.6875 71.578125 
L 64.15625 71.578125 
L 64.15625 0 
L 54.6875 0 
L 54.6875 33.734375 
L 17.484375 33.734375 
L 17.484375 0 
z
" id="ArialMT-72"/>
     <path d="M 6.640625 0 
L 6.640625 71.578125 
L 15.4375 71.578125 
L 15.4375 30.765625 
L 36.234375 51.859375 
L 47.609375 51.859375 
L 27.78125 32.625 
L 49.609375 0 
L 38.765625 0 
L 21.625 26.515625 
L 15.4375 20.5625 
L 15.4375 0 
z
" id="ArialMT-107"/>
     <path d="M 23.046875 17.625 
Q 23 19.390625 23 20.265625 
Q 23 25.4375 24.46875 29.203125 
Q 25.53125 32.03125 27.9375 34.90625 
Q 29.6875 37.015625 34.25 41.03125 
Q 38.8125 45.0625 40.171875 47.453125 
Q 41.546875 49.859375 41.546875 52.6875 
Q 41.546875 57.8125 37.546875 61.6875 
Q 33.546875 65.578125 27.734375 65.578125 
Q 22.125 65.578125 18.359375 62.0625 
Q 14.59375 58.546875 13.421875 51.078125 
L 4.390625 52.15625 
Q 5.609375 62.15625 11.640625 67.46875 
Q 17.671875 72.796875 27.59375 72.796875 
Q 38.09375 72.796875 44.34375 67.078125 
Q 50.59375 61.375 50.59375 53.265625 
Q 50.59375 48.578125 48.390625 44.625 
Q 46.1875 40.671875 39.796875 35.015625 
Q 35.5 31.203125 34.171875 29.390625 
Q 32.859375 27.59375 32.21875 25.25 
Q 31.59375 22.90625 31.5 17.625 
z
M 22.515625 0 
L 22.515625 10.015625 
L 32.515625 10.015625 
L 32.515625 0 
z
" id="ArialMT-63"/>
    </defs>
    <g style="fill:#262626;" transform="translate(118.454063 34.54875)scale(0.12 -0.12)">
     <use xlink:href="#ArialMT-34"/>
     <use x="35.498047" xlink:href="#ArialMT-72"/>
     <use x="107.714844" xlink:href="#ArialMT-111"/>
     <use x="163.330078" xlink:href="#ArialMT-119"/>
     <use x="235.546875" xlink:href="#ArialMT-32"/>
     <use x="263.330078" xlink:href="#ArialMT-109"/>
     <use x="346.630859" xlink:href="#ArialMT-97"/>
     <use x="402.246094" xlink:href="#ArialMT-110"/>
     <use x="457.861328" xlink:href="#ArialMT-121"/>
     <use x="507.861328" xlink:href="#ArialMT-32"/>
     <use x="535.644531" xlink:href="#ArialMT-112"/>
     <use x="591.259766" xlink:href="#ArialMT-105"/>
     <use x="613.476562" xlink:href="#ArialMT-103"/>
     <use x="669.091797" xlink:href="#ArialMT-101"/>
     <use x="724.707031" xlink:href="#ArialMT-111"/>
     <use x="780.322266" xlink:href="#ArialMT-110"/>
     <use x="835.9375" xlink:href="#ArialMT-115"/>
     <use x="885.9375" xlink:href="#ArialMT-32"/>
     <use x="913.720703" xlink:href="#ArialMT-100"/>
     <use x="969.335938" xlink:href="#ArialMT-111"/>
     <use x="1024.951172" xlink:href="#ArialMT-32"/>
     <use x="1052.734375" xlink:href="#ArialMT-121"/>
     <use x="1102.734375" xlink:href="#ArialMT-111"/>
     <use x="1158.349609" xlink:href="#ArialMT-117"/>
     <use x="1213.964844" xlink:href="#ArialMT-32"/>
     <use x="1241.748047" xlink:href="#ArialMT-116"/>
     <use x="1269.53125" xlink:href="#ArialMT-104"/>
     <use x="1325.146484" xlink:href="#ArialMT-105"/>
     <use x="1347.363281" xlink:href="#ArialMT-110"/>
     <use x="1402.978516" xlink:href="#ArialMT-107"/>
     <use x="1452.978516" xlink:href="#ArialMT-32"/>
     <use x="1480.761719" xlink:href="#ArialMT-121"/>
     <use x="1530.761719" xlink:href="#ArialMT-111"/>
     <use x="1586.376953" xlink:href="#ArialMT-117"/>
     <use x="1641.992188" xlink:href="#ArialMT-32"/>
     <use x="1669.775391" xlink:href="#ArialMT-99"/>
     <use x="1719.775391" xlink:href="#ArialMT-111"/>
     <use x="1775.390625" xlink:href="#ArialMT-117"/>
     <use x="1831.005859" xlink:href="#ArialMT-108"/>
     <use x="1853.222656" xlink:href="#ArialMT-100"/>
     <use x="1908.837891" xlink:href="#ArialMT-32"/>
     <use x="1936.621094" xlink:href="#ArialMT-99"/>
     <use x="1986.621094" xlink:href="#ArialMT-97"/>
     <use x="2042.236328" xlink:href="#ArialMT-114"/>
     <use x="2075.537109" xlink:href="#ArialMT-114"/>
     <use x="2108.837891" xlink:href="#ArialMT-121"/>
     <use x="2158.837891" xlink:href="#ArialMT-63"/>
     <use x="2214.453125" xlink:href="#ArialMT-34"/>
    </g>
   </g>
   <g id="legend_1">
    <g id="patch_7">
     <path d="M 374.982188 80.468437 
L 440.14 80.468437 
Q 442.34 80.468437 442.34 78.268437 
L 442.34 48.24875 
Q 442.34 46.04875 440.14 46.04875 
L 374.982188 46.04875 
Q 372.782188 46.04875 372.782188 48.24875 
L 372.782188 78.268437 
Q 372.782188 80.468437 374.982188 80.468437 
z
" style="fill:#eaeaf2;opacity:0.8;stroke:#cccccc;stroke-linejoin:miter;"/>
    </g>
    <g id="line2d_18">
     <path d="M 377.182188 54.472344 
L 399.182188 54.472344 
" style="fill:none;stroke:#408fff;stroke-linecap:round;stroke-width:3;"/>
    </g>
    <g id="line2d_19"/>
    <g id="text_22">
     <!-- Model -->
     <g style="fill:#262626;" transform="translate(407.982188 58.322344)scale(0.11 -0.11)">
      <use xlink:href="#ArialMT-77"/>
      <use x="83.300781" xlink:href="#ArialMT-111"/>
      <use x="138.916016" xlink:href="#ArialMT-100"/>
      <use x="194.53125" xlink:href="#ArialMT-101"/>
      <use x="250.146484" xlink:href="#ArialMT-108"/>
     </g>
    </g>
    <g id="patch_8">
     <path d="M 377.182188 73.882187 
L 399.182188 73.882187 
L 399.182188 66.182187 
L 377.182188 66.182187 
z
" style="fill:#ff4063;stroke:#ffffff;stroke-linejoin:miter;"/>
    </g>
    <g id="text_23">
     <!-- Data -->
     <g style="fill:#262626;" transform="translate(407.982188 73.882187)scale(0.11 -0.11)">
      <use xlink:href="#ArialMT-68"/>
      <use x="72.216797" xlink:href="#ArialMT-97"/>
      <use x="127.832031" xlink:href="#ArialMT-116"/>
      <use x="155.615234" xlink:href="#ArialMT-97"/>
     </g>
    </g>
   </g>
   <g id="patch_9">
    <path clip-path="url(#pbd1c7532ab)" d="M 76.718097 297.9 
L 93.549022 297.9 
L 93.549022 150.842143 
L 76.718097 150.842143 
z
" style="fill:#ff4063;stroke:#ffffff;stroke-linejoin:miter;"/>
   </g>
   <g id="patch_10">
    <path clip-path="url(#pbd1c7532ab)" d="M 93.549022 297.9 
L 110.379947 297.9 
L 110.379947 248.880714 
L 93.549022 248.880714 
z
" style="fill:#ff4063;stroke:#ffffff;stroke-linejoin:miter;"/>
   </g>
   <g id="patch_11">
    <path clip-path="url(#pbd1c7532ab)" d="M 110.379947 297.9 
L 127.210873 297.9 
L 127.210873 199.861429 
L 110.379947 199.861429 
z
" style="fill:#ff4063;stroke:#ffffff;stroke-linejoin:miter;"/>
   </g>
   <g id="patch_12">
    <path clip-path="url(#pbd1c7532ab)" d="M 127.210873 297.9 
L 144.041798 297.9 
L 144.041798 52.803571 
L 127.210873 52.803571 
z
" style="fill:#ff4063;stroke:#ffffff;stroke-linejoin:miter;"/>
   </g>
   <g id="patch_13">
    <path clip-path="url(#pbd1c7532ab)" d="M 144.041798 297.9 
L 160.872723 297.9 
L 160.872723 150.842143 
L 144.041798 150.842143 
z
" style="fill:#ff4063;stroke:#ffffff;stroke-linejoin:miter;"/>
   </g>
   <g id="patch_14">
    <path clip-path="url(#pbd1c7532ab)" d="M 160.872723 297.9 
L 177.703649 297.9 
L 177.703649 150.842143 
L 160.872723 150.842143 
z
" style="fill:#ff4063;stroke:#ffffff;stroke-linejoin:miter;"/>
   </g>
   <g id="patch_15">
    <path clip-path="url(#pbd1c7532ab)" d="M 177.703649 297.9 
L 194.534574 297.9 
L 194.534574 297.9 
L 177.703649 297.9 
z
" style="fill:#ff4063;stroke:#ffffff;stroke-linejoin:miter;"/>
   </g>
   <g id="patch_16">
    <path clip-path="url(#pbd1c7532ab)" d="M 194.534574 297.9 
L 211.365499 297.9 
L 211.365499 248.880714 
L 194.534574 248.880714 
z
" style="fill:#ff4063;stroke:#ffffff;stroke-linejoin:miter;"/>
   </g>
   <g id="patch_17">
    <path clip-path="url(#pbd1c7532ab)" d="M 211.365499 297.9 
L 228.196425 297.9 
L 228.196425 297.9 
L 211.365499 297.9 
z
" style="fill:#ff4063;stroke:#ffffff;stroke-linejoin:miter;"/>
   </g>
   <g id="patch_18">
    <path clip-path="url(#pbd1c7532ab)" d="M 228.196425 297.9 
L 245.02735 297.9 
L 245.02735 297.9 
L 228.196425 297.9 
z
" style="fill:#ff4063;stroke:#ffffff;stroke-linejoin:miter;"/>
   </g>
   <g id="patch_19">
    <path clip-path="url(#pbd1c7532ab)" d="M 245.02735 297.9 
L 261.858275 297.9 
L 261.858275 248.880714 
L 245.02735 248.880714 
z
" style="fill:#ff4063;stroke:#ffffff;stroke-linejoin:miter;"/>
   </g>
   <g id="patch_20">
    <path clip-path="url(#pbd1c7532ab)" d="M 261.858275 297.9 
L 278.6892 297.9 
L 278.6892 297.9 
L 261.858275 297.9 
z
" style="fill:#ff4063;stroke:#ffffff;stroke-linejoin:miter;"/>
   </g>
   <g id="patch_21">
    <path clip-path="url(#pbd1c7532ab)" d="M 278.6892 297.9 
L 295.520126 297.9 
L 295.520126 297.9 
L 278.6892 297.9 
z
" style="fill:#ff4063;stroke:#ffffff;stroke-linejoin:miter;"/>
   </g>
   <g id="patch_22">
    <path clip-path="url(#pbd1c7532ab)" d="M 295.520126 297.9 
L 312.351051 297.9 
L 312.351051 297.9 
L 295.520126 297.9 
z
" style="fill:#ff4063;stroke:#ffffff;stroke-linejoin:miter;"/>
   </g>
   <g id="patch_23">
    <path clip-path="url(#pbd1c7532ab)" d="M 312.351051 297.9 
L 329.181976 297.9 
L 329.181976 297.9 
L 312.351051 297.9 
z
" style="fill:#ff4063;stroke:#ffffff;stroke-linejoin:miter;"/>
   </g>
   <g id="patch_24">
    <path clip-path="url(#pbd1c7532ab)" d="M 329.181976 297.9 
L 346.012902 297.9 
L 346.012902 297.9 
L 329.181976 297.9 
z
" style="fill:#ff4063;stroke:#ffffff;stroke-linejoin:miter;"/>
   </g>
   <g id="patch_25">
    <path clip-path="url(#pbd1c7532ab)" d="M 346.012902 297.9 
L 362.843827 297.9 
L 362.843827 297.9 
L 346.012902 297.9 
z
" style="fill:#ff4063;stroke:#ffffff;stroke-linejoin:miter;"/>
   </g>
   <g id="patch_26">
    <path clip-path="url(#pbd1c7532ab)" d="M 362.843827 297.9 
L 379.674752 297.9 
L 379.674752 297.9 
L 362.843827 297.9 
z
" style="fill:#ff4063;stroke:#ffffff;stroke-linejoin:miter;"/>
   </g>
   <g id="patch_27">
    <path clip-path="url(#pbd1c7532ab)" d="M 379.674752 297.9 
L 396.505678 297.9 
L 396.505678 297.9 
L 379.674752 297.9 
z
" style="fill:#ff4063;stroke:#ffffff;stroke-linejoin:miter;"/>
   </g>
   <g id="patch_28">
    <path clip-path="url(#pbd1c7532ab)" d="M 396.505678 297.9 
L 413.336603 297.9 
L 413.336603 248.880714 
L 396.505678 248.880714 
z
" style="fill:#ff4063;stroke:#ffffff;stroke-linejoin:miter;"/>
   </g>
   <g id="patch_29">
    <path clip-path="url(#pbd1c7532ab)" d="M 413.336603 297.9 
L 430.167528 297.9 
L 430.167528 248.880714 
L 413.336603 248.880714 
z
" style="fill:#ff4063;stroke:#ffffff;stroke-linejoin:miter;"/>
   </g>
   <g id="PolyCollection_1">
    <defs>
     <path d="M 85.15039 -113.80681 
L 85.15039 -47.7 
L 85.841807 -47.7 
L 86.533224 -47.7 
L 87.224642 -47.7 
L 87.916059 -47.7 
L 88.607476 -47.7 
L 89.298893 -47.7 
L 89.99031 -47.7 
L 90.681727 -47.7 
L 91.373144 -47.7 
L 92.064561 -47.7 
L 92.755978 -47.7 
L 93.447396 -47.7 
L 94.138813 -47.7 
L 94.83023 -47.7 
L 95.521647 -47.7 
L 96.213064 -47.7 
L 96.904481 -47.7 
L 97.595898 -47.7 
L 98.287315 -47.7 
L 98.978732 -47.7 
L 99.67015 -47.7 
L 100.361567 -47.7 
L 101.052984 -47.7 
L 101.744401 -47.7 
L 102.435818 -47.7 
L 103.127235 -47.7 
L 103.818652 -47.7 
L 104.510069 -47.7 
L 105.201486 -47.7 
L 105.892903 -47.7 
L 106.584321 -47.7 
L 107.275738 -47.7 
L 107.967155 -47.7 
L 108.658572 -47.7 
L 109.349989 -47.7 
L 110.041406 -47.7 
L 110.732823 -47.7 
L 111.42424 -47.7 
L 112.115657 -47.7 
L 112.807075 -47.7 
L 113.498492 -47.7 
L 114.189909 -47.7 
L 114.881326 -47.7 
L 115.572743 -47.7 
L 116.26416 -47.7 
L 116.955577 -47.7 
L 117.646994 -47.7 
L 118.338411 -47.7 
L 119.029829 -47.7 
L 119.721246 -47.7 
L 120.412663 -47.7 
L 121.10408 -47.7 
L 121.795497 -47.7 
L 122.486914 -47.7 
L 123.178331 -47.7 
L 123.869748 -47.7 
L 124.561165 -47.7 
L 125.252583 -47.7 
L 125.944 -47.7 
L 126.635417 -47.7 
L 127.326834 -47.7 
L 128.018251 -47.7 
L 128.709668 -47.7 
L 129.401085 -47.7 
L 130.092502 -47.7 
L 130.783919 -47.7 
L 131.475337 -47.7 
L 132.166754 -47.7 
L 132.858171 -47.7 
L 133.549588 -47.7 
L 134.241005 -47.7 
L 134.932422 -47.7 
L 135.623839 -47.7 
L 136.315256 -47.7 
L 137.006673 -47.7 
L 137.698091 -47.7 
L 138.389508 -47.7 
L 139.080925 -47.7 
L 139.772342 -47.7 
L 140.463759 -47.7 
L 141.155176 -47.7 
L 141.846593 -47.7 
L 142.53801 -47.7 
L 143.229427 -47.7 
L 143.920845 -47.7 
L 144.612262 -47.7 
L 145.303679 -47.7 
L 145.995096 -47.7 
L 146.686513 -47.7 
L 147.37793 -47.7 
L 148.069347 -47.7 
L 148.760764 -47.7 
L 149.452181 -47.7 
L 150.143599 -47.7 
L 150.835016 -47.7 
L 151.526433 -47.7 
L 152.21785 -47.7 
L 152.909267 -47.7 
L 153.600684 -47.7 
L 154.292101 -47.7 
L 154.983518 -47.7 
L 155.674935 -47.7 
L 156.366353 -47.7 
L 157.05777 -47.7 
L 157.749187 -47.7 
L 158.440604 -47.7 
L 159.132021 -47.7 
L 159.823438 -47.7 
L 160.514855 -47.7 
L 161.206272 -47.7 
L 161.897689 -47.7 
L 162.589107 -47.7 
L 163.280524 -47.7 
L 163.971941 -47.7 
L 164.663358 -47.7 
L 165.354775 -47.7 
L 166.046192 -47.7 
L 166.737609 -47.7 
L 167.429026 -47.7 
L 168.120443 -47.7 
L 168.811861 -47.7 
L 169.503278 -47.7 
L 170.194695 -47.7 
L 170.886112 -47.7 
L 171.577529 -47.7 
L 172.268946 -47.7 
L 172.960363 -47.7 
L 173.65178 -47.7 
L 174.343197 -47.7 
L 175.034615 -47.7 
L 175.726032 -47.7 
L 176.417449 -47.7 
L 177.108866 -47.7 
L 177.800283 -47.7 
L 178.4917 -47.7 
L 179.183117 -47.7 
L 179.874534 -47.7 
L 180.565951 -47.7 
L 181.257369 -47.7 
L 181.948786 -47.7 
L 182.640203 -47.7 
L 183.33162 -47.7 
L 184.023037 -47.7 
L 184.714454 -47.7 
L 185.405871 -47.7 
L 186.097288 -47.7 
L 186.788705 -47.7 
L 187.480123 -47.7 
L 188.17154 -47.7 
L 188.862957 -47.7 
L 189.554374 -47.7 
L 190.245791 -47.7 
L 190.937208 -47.7 
L 191.628625 -47.7 
L 192.320042 -47.7 
L 193.011459 -47.7 
L 193.702877 -47.7 
L 194.394294 -47.7 
L 195.085711 -47.7 
L 195.777128 -47.7 
L 196.468545 -47.7 
L 197.159962 -47.7 
L 197.851379 -47.7 
L 198.542796 -47.7 
L 199.234213 -47.7 
L 199.925631 -47.7 
L 200.617048 -47.7 
L 201.308465 -47.7 
L 201.999882 -47.7 
L 202.691299 -47.7 
L 203.382716 -47.7 
L 204.074133 -47.7 
L 204.76555 -47.7 
L 205.456967 -47.7 
L 206.148385 -47.7 
L 206.839802 -47.7 
L 207.531219 -47.7 
L 208.222636 -47.7 
L 208.914053 -47.7 
L 209.60547 -47.7 
L 210.296887 -47.7 
L 210.988304 -47.7 
L 211.679721 -47.7 
L 212.371139 -47.7 
L 213.062556 -47.7 
L 213.753973 -47.7 
L 214.44539 -47.7 
L 215.136807 -47.7 
L 215.828224 -47.7 
L 216.519641 -47.7 
L 217.211058 -47.7 
L 217.902475 -47.7 
L 218.593893 -47.7 
L 219.28531 -47.7 
L 219.976727 -47.7 
L 220.668144 -47.7 
L 221.359561 -47.7 
L 222.050978 -47.7 
L 222.742395 -47.7 
L 223.433812 -47.7 
L 224.125229 -47.7 
L 224.816647 -47.7 
L 225.508064 -47.7 
L 226.199481 -47.7 
L 226.890898 -47.7 
L 227.582315 -47.7 
L 228.273732 -47.7 
L 228.965149 -47.7 
L 229.656566 -47.7 
L 230.347983 -47.7 
L 231.039401 -47.7 
L 231.730818 -47.7 
L 232.422235 -47.7 
L 233.113652 -47.7 
L 233.805069 -47.7 
L 234.496486 -47.7 
L 235.187903 -47.7 
L 235.87932 -47.7 
L 236.570737 -47.7 
L 237.262155 -47.7 
L 237.953572 -47.7 
L 238.644989 -47.7 
L 239.336406 -47.7 
L 240.027823 -47.7 
L 240.71924 -47.7 
L 241.410657 -47.7 
L 242.102074 -47.7 
L 242.793491 -47.7 
L 243.484909 -47.7 
L 244.176326 -47.7 
L 244.867743 -47.7 
L 245.55916 -47.7 
L 246.250577 -47.7 
L 246.941994 -47.7 
L 247.633411 -47.7 
L 248.324828 -47.7 
L 249.016245 -47.7 
L 249.707663 -47.7 
L 250.39908 -47.7 
L 251.090497 -47.7 
L 251.781914 -47.7 
L 252.473331 -47.7 
L 253.164748 -47.7 
L 253.856165 -47.7 
L 254.547582 -47.7 
L 255.238999 -47.7 
L 255.930417 -47.7 
L 256.621834 -47.7 
L 257.313251 -47.7 
L 258.004668 -47.7 
L 258.696085 -47.7 
L 259.387502 -47.7 
L 260.078919 -47.7 
L 260.770336 -47.7 
L 261.461753 -47.7 
L 262.153171 -47.7 
L 262.844588 -47.7 
L 263.536005 -47.7 
L 264.227422 -47.7 
L 264.918839 -47.7 
L 265.610256 -47.7 
L 266.301673 -47.7 
L 266.99309 -47.7 
L 267.684507 -47.7 
L 268.375925 -47.7 
L 269.067342 -47.7 
L 269.758759 -47.7 
L 270.450176 -47.7 
L 271.141593 -47.7 
L 271.83301 -47.7 
L 272.524427 -47.7 
L 273.215844 -47.7 
L 273.907261 -47.7 
L 274.598679 -47.7 
L 275.290096 -47.7 
L 275.981513 -47.7 
L 276.67293 -47.7 
L 277.364347 -47.7 
L 278.055764 -47.7 
L 278.747181 -47.7 
L 279.438598 -47.7 
L 280.130015 -47.7 
L 280.821433 -47.7 
L 281.51285 -47.7 
L 282.204267 -47.7 
L 282.895684 -47.7 
L 283.587101 -47.7 
L 284.278518 -47.7 
L 284.969935 -47.7 
L 285.661352 -47.7 
L 286.352769 -47.7 
L 287.044186 -47.7 
L 287.735604 -47.7 
L 288.427021 -47.7 
L 289.118438 -47.7 
L 289.809855 -47.7 
L 290.501272 -47.7 
L 291.192689 -47.7 
L 291.884106 -47.7 
L 292.575523 -47.7 
L 293.26694 -47.7 
L 293.958358 -47.7 
L 294.649775 -47.7 
L 295.341192 -47.7 
L 296.032609 -47.7 
L 296.724026 -47.7 
L 297.415443 -47.7 
L 298.10686 -47.7 
L 298.798277 -47.7 
L 299.489694 -47.7 
L 300.181112 -47.7 
L 300.872529 -47.7 
L 301.563946 -47.7 
L 302.255363 -47.7 
L 302.94678 -47.7 
L 303.638197 -47.7 
L 304.329614 -47.7 
L 305.021031 -47.7 
L 305.712448 -47.7 
L 306.403866 -47.7 
L 307.095283 -47.7 
L 307.7867 -47.7 
L 308.478117 -47.7 
L 309.169534 -47.7 
L 309.860951 -47.7 
L 310.552368 -47.7 
L 311.243785 -47.7 
L 311.935202 -47.7 
L 312.62662 -47.7 
L 313.318037 -47.7 
L 314.009454 -47.7 
L 314.700871 -47.7 
L 315.392288 -47.7 
L 316.083705 -47.7 
L 316.775122 -47.7 
L 317.466539 -47.7 
L 318.157956 -47.7 
L 318.849374 -47.7 
L 319.540791 -47.7 
L 320.232208 -47.7 
L 320.923625 -47.7 
L 321.615042 -47.7 
L 322.306459 -47.7 
L 322.997876 -47.7 
L 323.689293 -47.7 
L 324.38071 -47.7 
L 325.072128 -47.7 
L 325.763545 -47.7 
L 326.454962 -47.7 
L 327.146379 -47.7 
L 327.837796 -47.7 
L 328.529213 -47.7 
L 329.22063 -47.7 
L 329.912047 -47.7 
L 330.603464 -47.7 
L 331.294882 -47.7 
L 331.986299 -47.7 
L 332.677716 -47.7 
L 333.369133 -47.7 
L 334.06055 -47.7 
L 334.751967 -47.7 
L 335.443384 -47.7 
L 336.134801 -47.7 
L 336.826218 -47.7 
L 337.517636 -47.7 
L 338.209053 -47.7 
L 338.90047 -47.7 
L 339.591887 -47.7 
L 340.283304 -47.7 
L 340.974721 -47.7 
L 341.666138 -47.7 
L 342.357555 -47.7 
L 343.048972 -47.7 
L 343.74039 -47.7 
L 344.431807 -47.7 
L 345.123224 -47.7 
L 345.814641 -47.7 
L 346.506058 -47.7 
L 347.197475 -47.7 
L 347.888892 -47.7 
L 348.580309 -47.7 
L 349.271726 -47.7 
L 349.963144 -47.7 
L 350.654561 -47.7 
L 351.345978 -47.7 
L 352.037395 -47.7 
L 352.728812 -47.7 
L 353.420229 -47.7 
L 354.111646 -47.7 
L 354.803063 -47.7 
L 355.49448 -47.7 
L 356.185898 -47.7 
L 356.877315 -47.7 
L 357.568732 -47.7 
L 358.260149 -47.7 
L 358.951566 -47.7 
L 359.642983 -47.7 
L 360.3344 -47.7 
L 361.025817 -47.7 
L 361.717234 -47.7 
L 362.408652 -47.7 
L 363.100069 -47.7 
L 363.791486 -47.7 
L 364.482903 -47.7 
L 365.17432 -47.7 
L 365.865737 -47.7 
L 366.557154 -47.7 
L 367.248571 -47.7 
L 367.939988 -47.7 
L 368.631406 -47.7 
L 369.322823 -47.7 
L 370.01424 -47.7 
L 370.705657 -47.7 
L 371.397074 -47.7 
L 372.088491 -47.7 
L 372.779908 -47.7 
L 373.471325 -47.7 
L 374.162742 -47.7 
L 374.85416 -47.7 
L 375.545577 -47.7 
L 376.236994 -47.7 
L 376.928411 -47.7 
L 377.619828 -47.7 
L 378.311245 -47.7 
L 379.002662 -47.7 
L 379.694079 -47.7 
L 380.385496 -47.7 
L 381.076914 -47.7 
L 381.768331 -47.7 
L 382.459748 -47.7 
L 383.151165 -47.7 
L 383.842582 -47.7 
L 384.533999 -47.7 
L 385.225416 -47.7 
L 385.916833 -47.7 
L 386.60825 -47.7 
L 387.299668 -47.7 
L 387.991085 -47.7 
L 388.682502 -47.7 
L 389.373919 -47.7 
L 390.065336 -47.7 
L 390.756753 -47.7 
L 391.44817 -47.7 
L 392.139587 -47.7 
L 392.831004 -47.7 
L 393.522422 -47.7 
L 394.213839 -47.7 
L 394.905256 -47.7 
L 395.596673 -47.7 
L 396.28809 -47.7 
L 396.979507 -47.7 
L 397.670924 -47.7 
L 398.362341 -47.7 
L 399.053758 -47.7 
L 399.745176 -47.7 
L 400.436593 -47.7 
L 401.12801 -47.7 
L 401.819427 -47.7 
L 402.510844 -47.7 
L 403.202261 -47.7 
L 403.893678 -47.7 
L 404.585095 -47.7 
L 405.276512 -47.7 
L 405.96793 -47.7 
L 406.659347 -47.7 
L 407.350764 -47.7 
L 408.042181 -47.7 
L 408.733598 -47.7 
L 409.425015 -47.7 
L 410.116432 -47.7 
L 410.807849 -47.7 
L 411.499266 -47.7 
L 412.190684 -47.7 
L 412.882101 -47.7 
L 413.573518 -47.7 
L 414.264935 -47.7 
L 414.956352 -47.7 
L 415.647769 -47.7 
L 416.339186 -47.7 
L 417.030603 -47.7 
L 417.72202 -47.7 
L 418.413438 -47.7 
L 419.104855 -47.7 
L 419.796272 -47.7 
L 420.487689 -47.7 
L 421.179106 -47.7 
L 421.870523 -47.7 
L 422.56194 -47.7 
L 423.253357 -47.7 
L 423.944774 -47.7 
L 424.636192 -47.7 
L 425.327609 -47.7 
L 426.019026 -47.7 
L 426.710443 -47.7 
L 427.40186 -47.7 
L 428.093277 -47.7 
L 428.784694 -47.7 
L 429.476111 -47.7 
L 430.167528 -47.7 
L 430.167528 -48.135956 
L 430.167528 -48.135956 
L 429.476111 -48.145654 
L 428.784694 -48.155557 
L 428.093277 -48.165667 
L 427.40186 -48.17599 
L 426.710443 -48.18653 
L 426.019026 -48.19729 
L 425.327609 -48.208275 
L 424.636192 -48.21949 
L 423.944774 -48.230939 
L 423.253357 -48.242626 
L 422.56194 -48.254556 
L 421.870523 -48.266733 
L 421.179106 -48.279163 
L 420.487689 -48.29185 
L 419.796272 -48.3048 
L 419.104855 -48.318016 
L 418.413438 -48.331505 
L 417.72202 -48.345272 
L 417.030603 -48.359321 
L 416.339186 -48.373658 
L 415.647769 -48.388289 
L 414.956352 -48.403219 
L 414.264935 -48.418454 
L 413.573518 -48.433999 
L 412.882101 -48.449861 
L 412.190684 -48.466045 
L 411.499266 -48.482557 
L 410.807849 -48.499403 
L 410.116432 -48.51659 
L 409.425015 -48.534124 
L 408.733598 -48.552012 
L 408.042181 -48.570259 
L 407.350764 -48.588873 
L 406.659347 -48.60786 
L 405.96793 -48.627227 
L 405.276512 -48.646981 
L 404.585095 -48.667129 
L 403.893678 -48.687679 
L 403.202261 -48.708637 
L 402.510844 -48.730011 
L 401.819427 -48.751809 
L 401.12801 -48.774038 
L 400.436593 -48.796706 
L 399.745176 -48.819821 
L 399.053758 -48.843391 
L 398.362341 -48.867424 
L 397.670924 -48.891928 
L 396.979507 -48.916912 
L 396.28809 -48.942384 
L 395.596673 -48.968353 
L 394.905256 -48.994827 
L 394.213839 -49.021816 
L 393.522422 -49.049329 
L 392.831004 -49.077374 
L 392.139587 -49.105962 
L 391.44817 -49.135101 
L 390.756753 -49.164801 
L 390.065336 -49.195072 
L 389.373919 -49.225924 
L 388.682502 -49.257366 
L 387.991085 -49.28941 
L 387.299668 -49.322064 
L 386.60825 -49.355341 
L 385.916833 -49.389249 
L 385.225416 -49.423801 
L 384.533999 -49.459007 
L 383.842582 -49.494878 
L 383.151165 -49.531425 
L 382.459748 -49.56866 
L 381.768331 -49.606594 
L 381.076914 -49.645239 
L 380.385496 -49.684607 
L 379.694079 -49.724709 
L 379.002662 -49.765559 
L 378.311245 -49.807168 
L 377.619828 -49.849549 
L 376.928411 -49.892714 
L 376.236994 -49.936677 
L 375.545577 -49.98145 
L 374.85416 -50.027046 
L 374.162742 -50.07348 
L 373.471325 -50.120764 
L 372.779908 -50.168913 
L 372.088491 -50.217939 
L 371.397074 -50.267858 
L 370.705657 -50.318683 
L 370.01424 -50.37043 
L 369.322823 -50.423111 
L 368.631406 -50.476743 
L 367.939988 -50.53134 
L 367.248571 -50.586918 
L 366.557154 -50.643491 
L 365.865737 -50.701076 
L 365.17432 -50.759687 
L 364.482903 -50.819342 
L 363.791486 -50.880055 
L 363.100069 -50.941844 
L 362.408652 -51.004724 
L 361.717234 -51.068713 
L 361.025817 -51.133827 
L 360.3344 -51.200084 
L 359.642983 -51.2675 
L 358.951566 -51.336092 
L 358.260149 -51.40588 
L 357.568732 -51.47688 
L 356.877315 -51.54911 
L 356.185898 -51.622588 
L 355.49448 -51.697334 
L 354.803063 -51.773366 
L 354.111646 -51.850701 
L 353.420229 -51.92936 
L 352.728812 -52.009362 
L 352.037395 -52.090726 
L 351.345978 -52.173471 
L 350.654561 -52.257617 
L 349.963144 -52.343185 
L 349.271726 -52.430194 
L 348.580309 -52.518664 
L 347.888892 -52.608618 
L 347.197475 -52.700074 
L 346.506058 -52.793054 
L 345.814641 -52.887579 
L 345.123224 -52.983671 
L 344.431807 -53.081351 
L 343.74039 -53.18064 
L 343.048972 -53.281561 
L 342.357555 -53.384136 
L 341.666138 -53.488387 
L 340.974721 -53.594336 
L 340.283304 -53.702006 
L 339.591887 -53.81142 
L 338.90047 -53.922601 
L 338.209053 -54.035572 
L 337.517636 -54.150357 
L 336.826218 -54.266978 
L 336.134801 -54.385461 
L 335.443384 -54.505828 
L 334.751967 -54.628104 
L 334.06055 -54.752313 
L 333.369133 -54.878479 
L 332.677716 -55.006627 
L 331.986299 -55.136782 
L 331.294882 -55.268969 
L 330.603464 -55.403213 
L 329.912047 -55.539538 
L 329.22063 -55.677971 
L 328.529213 -55.818536 
L 327.837796 -55.96126 
L 327.146379 -56.106168 
L 326.454962 -56.253286 
L 325.763545 -56.402641 
L 325.072128 -56.554258 
L 324.38071 -56.708163 
L 323.689293 -56.864384 
L 322.997876 -57.022947 
L 322.306459 -57.183878 
L 321.615042 -57.347205 
L 320.923625 -57.512953 
L 320.232208 -57.681151 
L 319.540791 -57.851824 
L 318.849374 -58.025002 
L 318.157956 -58.200709 
L 317.466539 -58.378975 
L 316.775122 -58.559826 
L 316.083705 -58.74329 
L 315.392288 -58.929394 
L 314.700871 -59.118166 
L 314.009454 -59.309634 
L 313.318037 -59.503825 
L 312.62662 -59.700767 
L 311.935202 -59.900487 
L 311.243785 -60.103014 
L 310.552368 -60.308375 
L 309.860951 -60.516597 
L 309.169534 -60.72771 
L 308.478117 -60.94174 
L 307.7867 -61.158715 
L 307.095283 -61.378663 
L 306.403866 -61.601611 
L 305.712448 -61.827588 
L 305.021031 -62.05662 
L 304.329614 -62.288736 
L 303.638197 -62.523962 
L 302.94678 -62.762326 
L 302.255363 -63.003856 
L 301.563946 -63.248578 
L 300.872529 -63.496519 
L 300.181112 -63.747707 
L 299.489694 -64.002168 
L 298.798277 -64.259928 
L 298.10686 -64.521015 
L 297.415443 -64.785455 
L 296.724026 -65.053274 
L 296.032609 -65.324497 
L 295.341192 -65.599151 
L 294.649775 -65.877261 
L 293.958358 -66.158852 
L 293.26694 -66.44395 
L 292.575523 -66.732579 
L 291.884106 -67.024764 
L 291.192689 -67.320529 
L 290.501272 -67.619899 
L 289.809855 -67.922896 
L 289.118438 -68.229544 
L 288.427021 -68.539867 
L 287.735604 -68.853887 
L 287.044186 -69.171626 
L 286.352769 -69.493107 
L 285.661352 -69.81835 
L 284.969935 -70.147378 
L 284.278518 -70.48021 
L 283.587101 -70.816867 
L 282.895684 -71.157369 
L 282.204267 -71.501736 
L 281.51285 -71.849986 
L 280.821433 -72.202138 
L 280.130015 -72.558209 
L 279.438598 -72.918217 
L 278.747181 -73.282179 
L 278.055764 -73.65011 
L 277.364347 -74.022027 
L 276.67293 -74.397945 
L 275.981513 -74.777878 
L 275.290096 -75.161839 
L 274.598679 -75.549843 
L 273.907261 -75.9419 
L 273.215844 -76.338024 
L 272.524427 -76.738225 
L 271.83301 -77.142513 
L 271.141593 -77.550898 
L 270.450176 -77.963388 
L 269.758759 -78.379992 
L 269.067342 -78.800717 
L 268.375925 -79.225569 
L 267.684507 -79.654554 
L 266.99309 -80.087676 
L 266.301673 -80.524938 
L 265.610256 -80.966345 
L 264.918839 -81.411897 
L 264.227422 -81.861595 
L 263.536005 -82.31544 
L 262.844588 -82.773431 
L 262.153171 -83.235565 
L 261.461753 -83.701839 
L 260.770336 -84.17225 
L 260.078919 -84.646791 
L 259.387502 -85.125457 
L 258.696085 -85.608241 
L 258.004668 -86.095133 
L 257.313251 -86.586124 
L 256.621834 -87.081203 
L 255.930417 -87.580359 
L 255.238999 -88.083577 
L 254.547582 -88.590843 
L 253.856165 -89.102141 
L 253.164748 -89.617455 
L 252.473331 -90.136766 
L 251.781914 -90.660053 
L 251.090497 -91.187297 
L 250.39908 -91.718474 
L 249.707663 -92.253561 
L 249.016245 -92.792533 
L 248.324828 -93.335362 
L 247.633411 -93.882021 
L 246.941994 -94.432481 
L 246.250577 -94.986709 
L 245.55916 -95.544674 
L 244.867743 -96.106342 
L 244.176326 -96.671676 
L 243.484909 -97.24064 
L 242.793491 -97.813194 
L 242.102074 -98.3893 
L 241.410657 -98.968913 
L 240.71924 -99.551992 
L 240.027823 -100.13849 
L 239.336406 -100.72836 
L 238.644989 -101.321555 
L 237.953572 -101.918023 
L 237.262155 -102.517713 
L 236.570737 -103.12057 
L 235.87932 -103.72654 
L 235.187903 -104.335564 
L 234.496486 -104.947584 
L 233.805069 -105.562539 
L 233.113652 -106.180366 
L 232.422235 -106.801001 
L 231.730818 -107.424377 
L 231.039401 -108.050426 
L 230.347983 -108.679078 
L 229.656566 -109.310261 
L 228.965149 -109.943901 
L 228.273732 -110.579923 
L 227.582315 -111.218249 
L 226.890898 -111.8588 
L 226.199481 -112.501493 
L 225.508064 -113.146246 
L 224.816647 -113.792974 
L 224.125229 -114.441589 
L 223.433812 -115.092003 
L 222.742395 -115.744123 
L 222.050978 -116.397858 
L 221.359561 -117.053112 
L 220.668144 -117.709788 
L 219.976727 -118.367787 
L 219.28531 -119.02701 
L 218.593893 -119.687352 
L 217.902475 -120.34871 
L 217.211058 -121.010976 
L 216.519641 -121.674042 
L 215.828224 -122.337798 
L 215.136807 -123.002131 
L 214.44539 -123.666927 
L 213.753973 -124.33207 
L 213.062556 -124.997441 
L 212.371139 -125.66292 
L 211.679721 -126.328386 
L 210.988304 -126.993714 
L 210.296887 -127.65878 
L 209.60547 -128.323454 
L 208.914053 -128.987609 
L 208.222636 -129.651113 
L 207.531219 -130.313832 
L 206.839802 -130.975633 
L 206.148385 -131.636379 
L 205.456967 -132.295931 
L 204.76555 -132.954149 
L 204.074133 -133.610893 
L 203.382716 -134.266018 
L 202.691299 -134.91938 
L 201.999882 -135.570832 
L 201.308465 -136.220226 
L 200.617048 -136.867412 
L 199.925631 -137.51224 
L 199.234213 -138.154556 
L 198.542796 -138.794207 
L 197.851379 -139.431036 
L 197.159962 -140.064887 
L 196.468545 -140.695602 
L 195.777128 -141.323021 
L 195.085711 -141.946984 
L 194.394294 -142.567327 
L 193.702877 -143.183889 
L 193.011459 -143.796504 
L 192.320042 -144.405008 
L 191.628625 -145.009234 
L 190.937208 -145.609013 
L 190.245791 -146.204179 
L 189.554374 -146.794562 
L 188.862957 -147.379991 
L 188.17154 -147.960296 
L 187.480123 -148.535306 
L 186.788705 -149.104848 
L 186.097288 -149.668748 
L 185.405871 -150.226835 
L 184.714454 -150.778934 
L 184.023037 -151.32487 
L 183.33162 -151.86447 
L 182.640203 -152.397559 
L 181.948786 -152.92396 
L 181.257369 -153.4435 
L 180.565951 -153.956002 
L 179.874534 -154.461292 
L 179.183117 -154.959194 
L 178.4917 -155.449534 
L 177.800283 -155.932135 
L 177.108866 -156.406824 
L 176.417449 -156.873427 
L 175.726032 -157.33177 
L 175.034615 -157.781679 
L 174.343197 -158.222982 
L 173.65178 -158.655507 
L 172.960363 -159.079083 
L 172.268946 -159.493539 
L 171.577529 -159.898706 
L 170.886112 -160.294416 
L 170.194695 -160.680502 
L 169.503278 -161.056798 
L 168.811861 -161.423138 
L 168.120443 -161.77936 
L 167.429026 -162.125302 
L 166.737609 -162.460803 
L 166.046192 -162.785705 
L 165.354775 -163.09985 
L 164.663358 -163.403084 
L 163.971941 -163.695254 
L 163.280524 -163.976208 
L 162.589107 -164.245797 
L 161.897689 -164.503874 
L 161.206272 -164.750296 
L 160.514855 -164.984919 
L 159.823438 -165.207604 
L 159.132021 -165.418215 
L 158.440604 -165.616616 
L 157.749187 -165.802675 
L 157.05777 -165.976265 
L 156.366353 -166.13726 
L 155.674935 -166.285535 
L 154.983518 -166.420973 
L 154.292101 -166.543456 
L 153.600684 -166.652872 
L 152.909267 -166.74911 
L 152.21785 -166.832065 
L 151.526433 -166.901634 
L 150.835016 -166.957719 
L 150.143599 -167.000223 
L 149.452181 -167.029057 
L 148.760764 -167.044133 
L 148.069347 -167.045367 
L 147.37793 -167.03268 
L 146.686513 -167.005999 
L 145.995096 -166.965251 
L 145.303679 -166.910372 
L 144.612262 -166.841299 
L 143.920845 -166.757975 
L 143.229427 -166.660348 
L 142.53801 -166.548369 
L 141.846593 -166.421997 
L 141.155176 -166.281191 
L 140.463759 -166.12592 
L 139.772342 -165.956154 
L 139.080925 -165.771871 
L 138.389508 -165.573051 
L 137.698091 -165.359683 
L 137.006673 -165.131757 
L 136.315256 -164.889272 
L 135.623839 -164.632231 
L 134.932422 -164.36064 
L 134.241005 -164.074515 
L 133.549588 -163.773873 
L 132.858171 -163.45874 
L 132.166754 -163.129146 
L 131.475337 -162.785126 
L 130.783919 -162.426721 
L 130.092502 -162.053979 
L 129.401085 -161.666953 
L 128.709668 -161.2657 
L 128.018251 -160.850285 
L 127.326834 -160.420778 
L 126.635417 -159.977254 
L 125.944 -159.519796 
L 125.252583 -159.048489 
L 124.561165 -158.563428 
L 123.869748 -158.06471 
L 123.178331 -157.552442 
L 122.486914 -157.026732 
L 121.795497 -156.487697 
L 121.10408 -155.93546 
L 120.412663 -155.370147 
L 119.721246 -154.791892 
L 119.029829 -154.200835 
L 118.338411 -153.59712 
L 117.646994 -152.980896 
L 116.955577 -152.352321 
L 116.26416 -151.711555 
L 115.572743 -151.058766 
L 114.881326 -150.394126 
L 114.189909 -149.717812 
L 113.498492 -149.030008 
L 112.807075 -148.330902 
L 112.115657 -147.620688 
L 111.42424 -146.899564 
L 110.732823 -146.167734 
L 110.041406 -145.425406 
L 109.349989 -144.672794 
L 108.658572 -143.910117 
L 107.967155 -143.137597 
L 107.275738 -142.355461 
L 106.584321 -141.563943 
L 105.892903 -140.763278 
L 105.201486 -139.953707 
L 104.510069 -139.135475 
L 103.818652 -138.308831 
L 103.127235 -137.474028 
L 102.435818 -136.631322 
L 101.744401 -135.780974 
L 101.052984 -134.923247 
L 100.361567 -134.058409 
L 99.67015 -133.186731 
L 98.978732 -132.308485 
L 98.287315 -131.423949 
L 97.595898 -130.533402 
L 96.904481 -129.637126 
L 96.213064 -128.735406 
L 95.521647 -127.828528 
L 94.83023 -126.916782 
L 94.138813 -126.000458 
L 93.447396 -125.07985 
L 92.755978 -124.155253 
L 92.064561 -123.226962 
L 91.373144 -122.295276 
L 90.681727 -121.360492 
L 89.99031 -120.422911 
L 89.298893 -119.482833 
L 88.607476 -118.540559 
L 87.916059 -117.59639 
L 87.224642 -116.65063 
L 86.533224 -115.703578 
L 85.841807 -114.755538 
L 85.15039 -113.80681 
z
" id="m1280835462" style="stroke:#408fff;stroke-opacity:0.2;"/>
    </defs>
    <g clip-path="url(#pbd1c7532ab)">
     <use style="fill:#408fff;fill-opacity:0.2;stroke:#408fff;stroke-opacity:0.2;" x="0" xlink:href="#m1280835462" y="345.6"/>
    </g>
   </g>
   <g id="line2d_20">
    <path clip-path="url(#pbd1c7532ab)" d="M 85.15039 231.79319 
L 94.83023 218.683218 
L 100.361567 211.541591 
L 105.201486 205.646293 
L 109.349989 200.927206 
L 113.498492 196.569992 
L 116.955577 193.247679 
L 120.412663 190.229853 
L 123.869748 187.53529 
L 126.635417 185.622746 
L 129.401085 183.933047 
L 132.166754 182.470854 
L 134.932422 181.23936 
L 137.698091 180.240317 
L 140.463759 179.47408 
L 143.229427 178.939652 
L 145.995096 178.634749 
L 148.760764 178.555867 
L 151.526433 178.698366 
L 154.292101 179.056544 
L 157.05777 179.623735 
L 159.823438 180.392396 
L 162.589107 181.354203 
L 166.046192 182.814295 
L 169.503278 184.543202 
L 172.960363 186.520917 
L 176.417449 188.726573 
L 180.565951 191.643998 
L 184.714454 194.821066 
L 189.554374 198.805438 
L 195.085711 203.653016 
L 201.999882 210.029168 
L 213.062556 220.602559 
L 226.199481 233.098507 
L 233.805069 240.037461 
L 240.71924 246.048008 
L 246.941994 251.167519 
L 253.164748 255.982545 
L 258.696085 259.991759 
L 264.227422 263.738405 
L 269.758759 267.220008 
L 275.290096 270.438161 
L 280.821433 273.397862 
L 286.352769 276.106893 
L 291.884106 278.575236 
L 297.415443 280.814545 
L 303.638197 283.076038 
L 309.860951 285.083403 
L 316.083705 286.85671 
L 322.997876 288.577053 
L 329.912047 290.060462 
L 337.517636 291.449643 
L 345.123224 292.616329 
L 353.420229 293.67064 
L 362.408652 294.595276 
L 372.779908 295.431087 
L 384.533999 296.140993 
L 397.670924 296.708072 
L 413.573518 297.166001 
L 430.167528 297.464044 
L 430.167528 297.464044 
" style="fill:none;stroke:#408fff;stroke-linecap:round;stroke-width:3;"/>
   </g>
  </g>
 </g>
 <defs>
  <clipPath id="pbd1c7532ab">
   <rect height="257.35125" width="388.794375" x="59.045625" y="40.54875"/>
  </clipPath>
 </defs>
</svg>
