<?xml version="1.0" encoding="utf-8" standalone="no"?>
<!DOCTYPE svg PUBLIC "-//W3C//DTD SVG 1.1//EN"
  "http://www.w3.org/Graphics/SVG/1.1/DTD/svg11.dtd">
<!-- Created with matplotlib (https://matplotlib.org/) -->
<svg height="345.6pt" version="1.1" viewBox="0 0 460.8 345.6" width="460.8pt" xmlns="http://www.w3.org/2000/svg" xmlns:xlink="http://www.w3.org/1999/xlink">
 <defs>
  <style type="text/css">
*{stroke-linecap:butt;stroke-linejoin:round;}
  </style>
 </defs>
 <g id="figure_1">
  <g id="patch_1">
   <path d="M 0 345.6 
L 460.8 345.6 
L 460.8 0 
L 0 0 
z
" style="fill:#ffffff;"/>
  </g>
  <g id="axes_1">
   <g id="patch_2">
    <path d="M 65.165625 297.9 
L 447.84 297.9 
L 447.84 40.54875 
L 65.165625 40.54875 
z
" style="fill:#eaeaf2;"/>
   </g>
   <g id="matplotlib.axis_1">
    <g id="xtick_1">
     <g id="line2d_1">
      <path clip-path="url(#p416092058b)" d="M 90.84291 297.9 
L 90.84291 40.54875 
" style="fill:none;stroke:#ffffff;stroke-linecap:round;"/>
     </g>
     <g id="text_1">
      <!-- 0 -->
      <defs>
       <path d="M 4.15625 35.296875 
Q 4.15625 48 6.765625 55.734375 
Q 9.375 63.484375 14.515625 67.671875 
Q 19.671875 71.875 27.484375 71.875 
Q 33.25 71.875 37.59375 69.546875 
Q 41.9375 67.234375 44.765625 62.859375 
Q 47.609375 58.5 49.21875 52.21875 
Q 50.828125 45.953125 50.828125 35.296875 
Q 50.828125 22.703125 48.234375 14.96875 
Q 45.65625 7.234375 40.5 3 
Q 35.359375 -1.21875 27.484375 -1.21875 
Q 17.140625 -1.21875 11.234375 6.203125 
Q 4.15625 15.140625 4.15625 35.296875 
z
M 13.1875 35.296875 
Q 13.1875 17.671875 17.3125 11.828125 
Q 21.4375 6 27.484375 6 
Q 33.546875 6 37.671875 11.859375 
Q 41.796875 17.71875 41.796875 35.296875 
Q 41.796875 52.984375 37.671875 58.78125 
Q 33.546875 64.59375 27.390625 64.59375 
Q 21.34375 64.59375 17.71875 59.46875 
Q 13.1875 52.9375 13.1875 35.296875 
z
" id="ArialMT-48"/>
      </defs>
      <g style="fill:#262626;" transform="translate(87.784394 315.273594)scale(0.11 -0.11)">
       <use xlink:href="#ArialMT-48"/>
      </g>
     </g>
    </g>
    <g id="xtick_2">
     <g id="line2d_2">
      <path clip-path="url(#p416092058b)" d="M 123.97489 297.9 
L 123.97489 40.54875 
" style="fill:none;stroke:#ffffff;stroke-linecap:round;"/>
     </g>
     <g id="text_2">
      <!-- 2 -->
      <defs>
       <path d="M 50.34375 8.453125 
L 50.34375 0 
L 3.03125 0 
Q 2.9375 3.171875 4.046875 6.109375 
Q 5.859375 10.9375 9.828125 15.625 
Q 13.8125 20.3125 21.34375 26.46875 
Q 33.015625 36.03125 37.109375 41.625 
Q 41.21875 47.21875 41.21875 52.203125 
Q 41.21875 57.421875 37.46875 61 
Q 33.734375 64.59375 27.734375 64.59375 
Q 21.390625 64.59375 17.578125 60.78125 
Q 13.765625 56.984375 13.71875 50.25 
L 4.6875 51.171875 
Q 5.609375 61.28125 11.65625 66.578125 
Q 17.71875 71.875 27.9375 71.875 
Q 38.234375 71.875 44.234375 66.15625 
Q 50.25 60.453125 50.25 52 
Q 50.25 47.703125 48.484375 43.546875 
Q 46.734375 39.40625 42.65625 34.8125 
Q 38.578125 30.21875 29.109375 22.21875 
Q 21.1875 15.578125 18.9375 13.203125 
Q 16.703125 10.84375 15.234375 8.453125 
z
" id="ArialMT-50"/>
      </defs>
      <g style="fill:#262626;" transform="translate(120.916375 315.273594)scale(0.11 -0.11)">
       <use xlink:href="#ArialMT-50"/>
      </g>
     </g>
    </g>
    <g id="xtick_3">
     <g id="line2d_3">
      <path clip-path="url(#p416092058b)" d="M 157.106871 297.9 
L 157.106871 40.54875 
" style="fill:none;stroke:#ffffff;stroke-linecap:round;"/>
     </g>
     <g id="text_3">
      <!-- 4 -->
      <defs>
       <path d="M 32.328125 0 
L 32.328125 17.140625 
L 1.265625 17.140625 
L 1.265625 25.203125 
L 33.9375 71.578125 
L 41.109375 71.578125 
L 41.109375 25.203125 
L 50.78125 25.203125 
L 50.78125 17.140625 
L 41.109375 17.140625 
L 41.109375 0 
z
M 32.328125 25.203125 
L 32.328125 57.46875 
L 9.90625 25.203125 
z
" id="ArialMT-52"/>
      </defs>
      <g style="fill:#262626;" transform="translate(154.048355 315.273594)scale(0.11 -0.11)">
       <use xlink:href="#ArialMT-52"/>
      </g>
     </g>
    </g>
    <g id="xtick_4">
     <g id="line2d_4">
      <path clip-path="url(#p416092058b)" d="M 190.238851 297.9 
L 190.238851 40.54875 
" style="fill:none;stroke:#ffffff;stroke-linecap:round;"/>
     </g>
     <g id="text_4">
      <!-- 6 -->
      <defs>
       <path d="M 49.75 54.046875 
L 41.015625 53.375 
Q 39.84375 58.546875 37.703125 60.890625 
Q 34.125 64.65625 28.90625 64.65625 
Q 24.703125 64.65625 21.53125 62.3125 
Q 17.390625 59.28125 14.984375 53.46875 
Q 12.59375 47.65625 12.5 36.921875 
Q 15.671875 41.75 20.265625 44.09375 
Q 24.859375 46.4375 29.890625 46.4375 
Q 38.671875 46.4375 44.84375 39.96875 
Q 51.03125 33.5 51.03125 23.25 
Q 51.03125 16.5 48.125 10.71875 
Q 45.21875 4.9375 40.140625 1.859375 
Q 35.0625 -1.21875 28.609375 -1.21875 
Q 17.625 -1.21875 10.6875 6.859375 
Q 3.765625 14.9375 3.765625 33.5 
Q 3.765625 54.25 11.421875 63.671875 
Q 18.109375 71.875 29.4375 71.875 
Q 37.890625 71.875 43.28125 67.140625 
Q 48.6875 62.40625 49.75 54.046875 
z
M 13.875 23.1875 
Q 13.875 18.65625 15.796875 14.5 
Q 17.71875 10.359375 21.1875 8.171875 
Q 24.65625 6 28.46875 6 
Q 34.03125 6 38.03125 10.484375 
Q 42.046875 14.984375 42.046875 22.703125 
Q 42.046875 30.125 38.078125 34.390625 
Q 34.125 38.671875 28.125 38.671875 
Q 22.171875 38.671875 18.015625 34.390625 
Q 13.875 30.125 13.875 23.1875 
z
" id="ArialMT-54"/>
      </defs>
      <g style="fill:#262626;" transform="translate(187.180336 315.273594)scale(0.11 -0.11)">
       <use xlink:href="#ArialMT-54"/>
      </g>
     </g>
    </g>
    <g id="xtick_5">
     <g id="line2d_5">
      <path clip-path="url(#p416092058b)" d="M 223.370832 297.9 
L 223.370832 40.54875 
" style="fill:none;stroke:#ffffff;stroke-linecap:round;"/>
     </g>
     <g id="text_5">
      <!-- 8 -->
      <defs>
       <path d="M 17.671875 38.8125 
Q 12.203125 40.828125 9.5625 44.53125 
Q 6.9375 48.25 6.9375 53.421875 
Q 6.9375 61.234375 12.546875 66.546875 
Q 18.171875 71.875 27.484375 71.875 
Q 36.859375 71.875 42.578125 66.421875 
Q 48.296875 60.984375 48.296875 53.171875 
Q 48.296875 48.1875 45.671875 44.5 
Q 43.0625 40.828125 37.75 38.8125 
Q 44.34375 36.671875 47.78125 31.875 
Q 51.21875 27.09375 51.21875 20.453125 
Q 51.21875 11.28125 44.71875 5.03125 
Q 38.234375 -1.21875 27.640625 -1.21875 
Q 17.046875 -1.21875 10.546875 5.046875 
Q 4.046875 11.328125 4.046875 20.703125 
Q 4.046875 27.6875 7.59375 32.390625 
Q 11.140625 37.109375 17.671875 38.8125 
z
M 15.921875 53.71875 
Q 15.921875 48.640625 19.1875 45.40625 
Q 22.46875 42.1875 27.6875 42.1875 
Q 32.765625 42.1875 36.015625 45.375 
Q 39.265625 48.578125 39.265625 53.21875 
Q 39.265625 58.0625 35.90625 61.359375 
Q 32.5625 64.65625 27.59375 64.65625 
Q 22.5625 64.65625 19.234375 61.421875 
Q 15.921875 58.203125 15.921875 53.71875 
z
M 13.09375 20.65625 
Q 13.09375 16.890625 14.875 13.375 
Q 16.65625 9.859375 20.171875 7.921875 
Q 23.6875 6 27.734375 6 
Q 34.03125 6 38.125 10.046875 
Q 42.234375 14.109375 42.234375 20.359375 
Q 42.234375 26.703125 38.015625 30.859375 
Q 33.796875 35.015625 27.4375 35.015625 
Q 21.234375 35.015625 17.15625 30.90625 
Q 13.09375 26.8125 13.09375 20.65625 
z
" id="ArialMT-56"/>
      </defs>
      <g style="fill:#262626;" transform="translate(220.312316 315.273594)scale(0.11 -0.11)">
       <use xlink:href="#ArialMT-56"/>
      </g>
     </g>
    </g>
    <g id="xtick_6">
     <g id="line2d_6">
      <path clip-path="url(#p416092058b)" d="M 256.502813 297.9 
L 256.502813 40.54875 
" style="fill:none;stroke:#ffffff;stroke-linecap:round;"/>
     </g>
     <g id="text_6">
      <!-- 10 -->
      <defs>
       <path d="M 37.25 0 
L 28.46875 0 
L 28.46875 56 
Q 25.296875 52.984375 20.140625 49.953125 
Q 14.984375 46.921875 10.890625 45.40625 
L 10.890625 53.90625 
Q 18.265625 57.375 23.78125 62.296875 
Q 29.296875 67.234375 31.59375 71.875 
L 37.25 71.875 
z
" id="ArialMT-49"/>
      </defs>
      <g style="fill:#262626;" transform="translate(250.385781 315.273594)scale(0.11 -0.11)">
       <use xlink:href="#ArialMT-49"/>
       <use x="55.615234" xlink:href="#ArialMT-48"/>
      </g>
     </g>
    </g>
    <g id="xtick_7">
     <g id="line2d_7">
      <path clip-path="url(#p416092058b)" d="M 289.634793 297.9 
L 289.634793 40.54875 
" style="fill:none;stroke:#ffffff;stroke-linecap:round;"/>
     </g>
     <g id="text_7">
      <!-- 12 -->
      <g style="fill:#262626;" transform="translate(283.517762 315.273594)scale(0.11 -0.11)">
       <use xlink:href="#ArialMT-49"/>
       <use x="55.615234" xlink:href="#ArialMT-50"/>
      </g>
     </g>
    </g>
    <g id="xtick_8">
     <g id="line2d_8">
      <path clip-path="url(#p416092058b)" d="M 322.766774 297.9 
L 322.766774 40.54875 
" style="fill:none;stroke:#ffffff;stroke-linecap:round;"/>
     </g>
     <g id="text_8">
      <!-- 14 -->
      <g style="fill:#262626;" transform="translate(316.649742 315.273594)scale(0.11 -0.11)">
       <use xlink:href="#ArialMT-49"/>
       <use x="55.615234" xlink:href="#ArialMT-52"/>
      </g>
     </g>
    </g>
    <g id="xtick_9">
     <g id="line2d_9">
      <path clip-path="url(#p416092058b)" d="M 355.898754 297.9 
L 355.898754 40.54875 
" style="fill:none;stroke:#ffffff;stroke-linecap:round;"/>
     </g>
     <g id="text_9">
      <!-- 16 -->
      <g style="fill:#262626;" transform="translate(349.781723 315.273594)scale(0.11 -0.11)">
       <use xlink:href="#ArialMT-49"/>
       <use x="55.615234" xlink:href="#ArialMT-54"/>
      </g>
     </g>
    </g>
    <g id="xtick_10">
     <g id="line2d_10">
      <path clip-path="url(#p416092058b)" d="M 389.030735 297.9 
L 389.030735 40.54875 
" style="fill:none;stroke:#ffffff;stroke-linecap:round;"/>
     </g>
     <g id="text_10">
      <!-- 18 -->
      <g style="fill:#262626;" transform="translate(382.913703 315.273594)scale(0.11 -0.11)">
       <use xlink:href="#ArialMT-49"/>
       <use x="55.615234" xlink:href="#ArialMT-56"/>
      </g>
     </g>
    </g>
    <g id="xtick_11">
     <g id="line2d_11">
      <path clip-path="url(#p416092058b)" d="M 422.162715 297.9 
L 422.162715 40.54875 
" style="fill:none;stroke:#ffffff;stroke-linecap:round;"/>
     </g>
     <g id="text_11">
      <!-- 20 -->
      <g style="fill:#262626;" transform="translate(416.045684 315.273594)scale(0.11 -0.11)">
       <use xlink:href="#ArialMT-50"/>
       <use x="55.615234" xlink:href="#ArialMT-48"/>
      </g>
     </g>
    </g>
    <g id="text_12">
     <!-- Number of Pigeons They Could Carry [pigeons] -->
     <defs>
      <path d="M 7.625 0 
L 7.625 71.578125 
L 17.328125 71.578125 
L 54.9375 15.375 
L 54.9375 71.578125 
L 64.015625 71.578125 
L 64.015625 0 
L 54.296875 0 
L 16.703125 56.25 
L 16.703125 0 
z
" id="ArialMT-78"/>
      <path d="M 40.578125 0 
L 40.578125 7.625 
Q 34.515625 -1.171875 24.125 -1.171875 
Q 19.53125 -1.171875 15.546875 0.578125 
Q 11.578125 2.34375 9.640625 5 
Q 7.71875 7.671875 6.9375 11.53125 
Q 6.390625 14.109375 6.390625 19.734375 
L 6.390625 51.859375 
L 15.1875 51.859375 
L 15.1875 23.09375 
Q 15.1875 16.21875 15.71875 13.8125 
Q 16.546875 10.359375 19.234375 8.375 
Q 21.921875 6.390625 25.875 6.390625 
Q 29.828125 6.390625 33.296875 8.421875 
Q 36.765625 10.453125 38.203125 13.9375 
Q 39.65625 17.4375 39.65625 24.078125 
L 39.65625 51.859375 
L 48.4375 51.859375 
L 48.4375 0 
z
" id="ArialMT-117"/>
      <path d="M 6.59375 0 
L 6.59375 51.859375 
L 14.453125 51.859375 
L 14.453125 44.578125 
Q 16.890625 48.390625 20.9375 50.703125 
Q 25 53.03125 30.171875 53.03125 
Q 35.9375 53.03125 39.625 50.640625 
Q 43.3125 48.25 44.828125 43.953125 
Q 50.984375 53.03125 60.84375 53.03125 
Q 68.5625 53.03125 72.703125 48.75 
Q 76.859375 44.484375 76.859375 35.59375 
L 76.859375 0 
L 68.109375 0 
L 68.109375 32.671875 
Q 68.109375 37.9375 67.25 40.25 
Q 66.40625 42.578125 64.15625 43.984375 
Q 61.921875 45.40625 58.890625 45.40625 
Q 53.421875 45.40625 49.796875 41.765625 
Q 46.1875 38.140625 46.1875 30.125 
L 46.1875 0 
L 37.40625 0 
L 37.40625 33.6875 
Q 37.40625 39.546875 35.25 42.46875 
Q 33.109375 45.40625 28.21875 45.40625 
Q 24.515625 45.40625 21.359375 43.453125 
Q 18.21875 41.5 16.796875 37.734375 
Q 15.375 33.984375 15.375 26.90625 
L 15.375 0 
z
" id="ArialMT-109"/>
      <path d="M 14.703125 0 
L 6.546875 0 
L 6.546875 71.578125 
L 15.328125 71.578125 
L 15.328125 46.046875 
Q 20.90625 53.03125 29.546875 53.03125 
Q 34.328125 53.03125 38.59375 51.09375 
Q 42.875 49.171875 45.625 45.671875 
Q 48.390625 42.1875 49.953125 37.25 
Q 51.515625 32.328125 51.515625 26.703125 
Q 51.515625 13.375 44.921875 6.09375 
Q 38.328125 -1.171875 29.109375 -1.171875 
Q 19.921875 -1.171875 14.703125 6.5 
z
M 14.59375 26.3125 
Q 14.59375 17 17.140625 12.84375 
Q 21.296875 6.0625 28.375 6.0625 
Q 34.125 6.0625 38.328125 11.0625 
Q 42.53125 16.0625 42.53125 25.984375 
Q 42.53125 36.140625 38.5 40.96875 
Q 34.46875 45.796875 28.765625 45.796875 
Q 23 45.796875 18.796875 40.796875 
Q 14.59375 35.796875 14.59375 26.3125 
z
" id="ArialMT-98"/>
      <path d="M 42.09375 16.703125 
L 51.171875 15.578125 
Q 49.03125 7.625 43.21875 3.21875 
Q 37.40625 -1.171875 28.375 -1.171875 
Q 17 -1.171875 10.328125 5.828125 
Q 3.65625 12.84375 3.65625 25.484375 
Q 3.65625 38.578125 10.390625 45.796875 
Q 17.140625 53.03125 27.875 53.03125 
Q 38.28125 53.03125 44.875 45.953125 
Q 51.46875 38.875 51.46875 26.03125 
Q 51.46875 25.25 51.421875 23.6875 
L 12.75 23.6875 
Q 13.234375 15.140625 17.578125 10.59375 
Q 21.921875 6.0625 28.421875 6.0625 
Q 33.25 6.0625 36.671875 8.59375 
Q 40.09375 11.140625 42.09375 16.703125 
z
M 13.234375 30.90625 
L 42.1875 30.90625 
Q 41.609375 37.453125 38.875 40.71875 
Q 34.671875 45.796875 27.984375 45.796875 
Q 21.921875 45.796875 17.796875 41.75 
Q 13.671875 37.703125 13.234375 30.90625 
z
" id="ArialMT-101"/>
      <path d="M 6.5 0 
L 6.5 51.859375 
L 14.40625 51.859375 
L 14.40625 44 
Q 17.4375 49.515625 20 51.265625 
Q 22.5625 53.03125 25.640625 53.03125 
Q 30.078125 53.03125 34.671875 50.203125 
L 31.640625 42.046875 
Q 28.421875 43.953125 25.203125 43.953125 
Q 22.3125 43.953125 20.015625 42.21875 
Q 17.71875 40.484375 16.75 37.40625 
Q 15.28125 32.71875 15.28125 27.15625 
L 15.28125 0 
z
" id="ArialMT-114"/>
      <path id="ArialMT-32"/>
      <path d="M 3.328125 25.921875 
Q 3.328125 40.328125 11.328125 47.265625 
Q 18.015625 53.03125 27.640625 53.03125 
Q 38.328125 53.03125 45.109375 46.015625 
Q 51.90625 39.015625 51.90625 26.65625 
Q 51.90625 16.65625 48.90625 10.90625 
Q 45.90625 5.171875 40.15625 2 
Q 34.421875 -1.171875 27.640625 -1.171875 
Q 16.75 -1.171875 10.03125 5.8125 
Q 3.328125 12.796875 3.328125 25.921875 
z
M 12.359375 25.921875 
Q 12.359375 15.96875 16.703125 11.015625 
Q 21.046875 6.0625 27.640625 6.0625 
Q 34.1875 6.0625 38.53125 11.03125 
Q 42.875 16.015625 42.875 26.21875 
Q 42.875 35.84375 38.5 40.796875 
Q 34.125 45.75 27.640625 45.75 
Q 21.046875 45.75 16.703125 40.8125 
Q 12.359375 35.890625 12.359375 25.921875 
z
" id="ArialMT-111"/>
      <path d="M 8.6875 0 
L 8.6875 45.015625 
L 0.921875 45.015625 
L 0.921875 51.859375 
L 8.6875 51.859375 
L 8.6875 57.375 
Q 8.6875 62.59375 9.625 65.140625 
Q 10.890625 68.5625 14.078125 70.671875 
Q 17.28125 72.796875 23.046875 72.796875 
Q 26.765625 72.796875 31.25 71.921875 
L 29.9375 64.265625 
Q 27.203125 64.75 24.75 64.75 
Q 20.75 64.75 19.09375 63.03125 
Q 17.4375 61.328125 17.4375 56.640625 
L 17.4375 51.859375 
L 27.546875 51.859375 
L 27.546875 45.015625 
L 17.4375 45.015625 
L 17.4375 0 
z
" id="ArialMT-102"/>
      <path d="M 7.71875 0 
L 7.71875 71.578125 
L 34.71875 71.578125 
Q 41.84375 71.578125 45.609375 70.90625 
Q 50.875 70.015625 54.4375 67.546875 
Q 58.015625 65.09375 60.1875 60.640625 
Q 62.359375 56.203125 62.359375 50.875 
Q 62.359375 41.75 56.546875 35.421875 
Q 50.734375 29.109375 35.546875 29.109375 
L 17.1875 29.109375 
L 17.1875 0 
z
M 17.1875 37.546875 
L 35.6875 37.546875 
Q 44.875 37.546875 48.734375 40.96875 
Q 52.59375 44.390625 52.59375 50.59375 
Q 52.59375 55.078125 50.3125 58.265625 
Q 48.046875 61.46875 44.34375 62.5 
Q 41.9375 63.140625 35.5 63.140625 
L 17.1875 63.140625 
z
" id="ArialMT-80"/>
      <path d="M 6.640625 61.46875 
L 6.640625 71.578125 
L 15.4375 71.578125 
L 15.4375 61.46875 
z
M 6.640625 0 
L 6.640625 51.859375 
L 15.4375 51.859375 
L 15.4375 0 
z
" id="ArialMT-105"/>
      <path d="M 4.984375 -4.296875 
L 13.53125 -5.5625 
Q 14.0625 -9.515625 16.5 -11.328125 
Q 19.78125 -13.765625 25.4375 -13.765625 
Q 31.546875 -13.765625 34.859375 -11.328125 
Q 38.1875 -8.890625 39.359375 -4.5 
Q 40.046875 -1.8125 39.984375 6.78125 
Q 34.234375 0 25.640625 0 
Q 14.9375 0 9.078125 7.71875 
Q 3.21875 15.4375 3.21875 26.21875 
Q 3.21875 33.640625 5.90625 39.90625 
Q 8.59375 46.1875 13.6875 49.609375 
Q 18.796875 53.03125 25.6875 53.03125 
Q 34.859375 53.03125 40.828125 45.609375 
L 40.828125 51.859375 
L 48.921875 51.859375 
L 48.921875 7.03125 
Q 48.921875 -5.078125 46.453125 -10.125 
Q 44 -15.1875 38.640625 -18.109375 
Q 33.296875 -21.046875 25.484375 -21.046875 
Q 16.21875 -21.046875 10.5 -16.875 
Q 4.78125 -12.703125 4.984375 -4.296875 
z
M 12.25 26.859375 
Q 12.25 16.65625 16.296875 11.96875 
Q 20.359375 7.28125 26.46875 7.28125 
Q 32.515625 7.28125 36.609375 11.9375 
Q 40.71875 16.609375 40.71875 26.5625 
Q 40.71875 36.078125 36.5 40.90625 
Q 32.28125 45.75 26.3125 45.75 
Q 20.453125 45.75 16.34375 40.984375 
Q 12.25 36.234375 12.25 26.859375 
z
" id="ArialMT-103"/>
      <path d="M 6.59375 0 
L 6.59375 51.859375 
L 14.5 51.859375 
L 14.5 44.484375 
Q 20.21875 53.03125 31 53.03125 
Q 35.6875 53.03125 39.625 51.34375 
Q 43.5625 49.65625 45.515625 46.921875 
Q 47.46875 44.1875 48.25 40.4375 
Q 48.734375 37.984375 48.734375 31.890625 
L 48.734375 0 
L 39.9375 0 
L 39.9375 31.546875 
Q 39.9375 36.921875 38.90625 39.578125 
Q 37.890625 42.234375 35.28125 43.8125 
Q 32.671875 45.40625 29.15625 45.40625 
Q 23.53125 45.40625 19.453125 41.84375 
Q 15.375 38.28125 15.375 28.328125 
L 15.375 0 
z
" id="ArialMT-110"/>
      <path d="M 3.078125 15.484375 
L 11.765625 16.84375 
Q 12.5 11.625 15.84375 8.84375 
Q 19.1875 6.0625 25.203125 6.0625 
Q 31.25 6.0625 34.171875 8.515625 
Q 37.109375 10.984375 37.109375 14.3125 
Q 37.109375 17.28125 34.515625 19 
Q 32.71875 20.171875 25.53125 21.96875 
Q 15.875 24.421875 12.140625 26.203125 
Q 8.40625 27.984375 6.46875 31.125 
Q 4.546875 34.28125 4.546875 38.09375 
Q 4.546875 41.546875 6.125 44.5 
Q 7.71875 47.46875 10.453125 49.421875 
Q 12.5 50.921875 16.03125 51.96875 
Q 19.578125 53.03125 23.640625 53.03125 
Q 29.734375 53.03125 34.34375 51.265625 
Q 38.96875 49.515625 41.15625 46.5 
Q 43.359375 43.5 44.1875 38.484375 
L 35.59375 37.3125 
Q 35.015625 41.3125 32.203125 43.546875 
Q 29.390625 45.796875 24.265625 45.796875 
Q 18.21875 45.796875 15.625 43.796875 
Q 13.03125 41.796875 13.03125 39.109375 
Q 13.03125 37.40625 14.109375 36.03125 
Q 15.1875 34.625 17.484375 33.6875 
Q 18.796875 33.203125 25.25 31.453125 
Q 34.578125 28.953125 38.25 27.359375 
Q 41.9375 25.78125 44.03125 22.75 
Q 46.140625 19.734375 46.140625 15.234375 
Q 46.140625 10.84375 43.578125 6.953125 
Q 41.015625 3.078125 36.171875 0.953125 
Q 31.34375 -1.171875 25.25 -1.171875 
Q 15.140625 -1.171875 9.84375 3.03125 
Q 4.546875 7.234375 3.078125 15.484375 
z
" id="ArialMT-115"/>
      <path d="M 25.921875 0 
L 25.921875 63.140625 
L 2.34375 63.140625 
L 2.34375 71.578125 
L 59.078125 71.578125 
L 59.078125 63.140625 
L 35.40625 63.140625 
L 35.40625 0 
z
" id="ArialMT-84"/>
      <path d="M 6.59375 0 
L 6.59375 71.578125 
L 15.375 71.578125 
L 15.375 45.90625 
Q 21.53125 53.03125 30.90625 53.03125 
Q 36.671875 53.03125 40.921875 50.75 
Q 45.171875 48.484375 47 44.484375 
Q 48.828125 40.484375 48.828125 32.859375 
L 48.828125 0 
L 40.046875 0 
L 40.046875 32.859375 
Q 40.046875 39.453125 37.1875 42.453125 
Q 34.328125 45.453125 29.109375 45.453125 
Q 25.203125 45.453125 21.75 43.421875 
Q 18.3125 41.40625 16.84375 37.9375 
Q 15.375 34.46875 15.375 28.375 
L 15.375 0 
z
" id="ArialMT-104"/>
      <path d="M 6.203125 -19.96875 
L 5.21875 -11.71875 
Q 8.109375 -12.5 10.25 -12.5 
Q 13.1875 -12.5 14.9375 -11.515625 
Q 16.703125 -10.546875 17.828125 -8.796875 
Q 18.65625 -7.46875 20.515625 -2.25 
Q 20.75 -1.515625 21.296875 -0.09375 
L 1.609375 51.859375 
L 11.078125 51.859375 
L 21.875 21.828125 
Q 23.96875 16.109375 25.640625 9.8125 
Q 27.15625 15.875 29.25 21.625 
L 40.328125 51.859375 
L 49.125 51.859375 
L 29.390625 -0.875 
Q 26.21875 -9.421875 24.46875 -12.640625 
Q 22.125 -17 19.09375 -19.015625 
Q 16.0625 -21.046875 11.859375 -21.046875 
Q 9.328125 -21.046875 6.203125 -19.96875 
z
" id="ArialMT-121"/>
      <path d="M 58.796875 25.09375 
L 68.265625 22.703125 
Q 65.28125 11.03125 57.546875 4.90625 
Q 49.8125 -1.21875 38.625 -1.21875 
Q 27.046875 -1.21875 19.796875 3.484375 
Q 12.546875 8.203125 8.765625 17.140625 
Q 4.984375 26.078125 4.984375 36.328125 
Q 4.984375 47.515625 9.25 55.828125 
Q 13.53125 64.15625 21.40625 68.46875 
Q 29.296875 72.796875 38.765625 72.796875 
Q 49.515625 72.796875 56.828125 67.328125 
Q 64.15625 61.859375 67.046875 51.953125 
L 57.71875 49.75 
Q 55.21875 57.5625 50.484375 61.125 
Q 45.75 64.703125 38.578125 64.703125 
Q 30.328125 64.703125 24.78125 60.734375 
Q 19.234375 56.78125 16.984375 50.109375 
Q 14.75 43.453125 14.75 36.375 
Q 14.75 27.25 17.40625 20.4375 
Q 20.0625 13.625 25.671875 10.25 
Q 31.296875 6.890625 37.84375 6.890625 
Q 45.796875 6.890625 51.3125 11.46875 
Q 56.84375 16.0625 58.796875 25.09375 
z
" id="ArialMT-67"/>
      <path d="M 6.390625 0 
L 6.390625 71.578125 
L 15.1875 71.578125 
L 15.1875 0 
z
" id="ArialMT-108"/>
      <path d="M 40.234375 0 
L 40.234375 6.546875 
Q 35.296875 -1.171875 25.734375 -1.171875 
Q 19.53125 -1.171875 14.328125 2.25 
Q 9.125 5.671875 6.265625 11.796875 
Q 3.421875 17.921875 3.421875 25.875 
Q 3.421875 33.640625 6 39.96875 
Q 8.59375 46.296875 13.765625 49.65625 
Q 18.953125 53.03125 25.34375 53.03125 
Q 30.03125 53.03125 33.6875 51.046875 
Q 37.359375 49.078125 39.65625 45.90625 
L 39.65625 71.578125 
L 48.390625 71.578125 
L 48.390625 0 
z
M 12.453125 25.875 
Q 12.453125 15.921875 16.640625 10.984375 
Q 20.84375 6.0625 26.5625 6.0625 
Q 32.328125 6.0625 36.34375 10.765625 
Q 40.375 15.484375 40.375 25.140625 
Q 40.375 35.796875 36.265625 40.765625 
Q 32.171875 45.75 26.171875 45.75 
Q 20.3125 45.75 16.375 40.96875 
Q 12.453125 36.1875 12.453125 25.875 
z
" id="ArialMT-100"/>
      <path d="M 40.4375 6.390625 
Q 35.546875 2.25 31.03125 0.53125 
Q 26.515625 -1.171875 21.34375 -1.171875 
Q 12.796875 -1.171875 8.203125 3 
Q 3.609375 7.171875 3.609375 13.671875 
Q 3.609375 17.484375 5.34375 20.625 
Q 7.078125 23.78125 9.890625 25.6875 
Q 12.703125 27.59375 16.21875 28.5625 
Q 18.796875 29.25 24.03125 29.890625 
Q 34.671875 31.15625 39.703125 32.90625 
Q 39.75 34.71875 39.75 35.203125 
Q 39.75 40.578125 37.25 42.78125 
Q 33.890625 45.75 27.25 45.75 
Q 21.046875 45.75 18.09375 43.578125 
Q 15.140625 41.40625 13.71875 35.890625 
L 5.125 37.0625 
Q 6.296875 42.578125 8.984375 45.96875 
Q 11.671875 49.359375 16.75 51.1875 
Q 21.828125 53.03125 28.515625 53.03125 
Q 35.15625 53.03125 39.296875 51.46875 
Q 43.453125 49.90625 45.40625 47.53125 
Q 47.359375 45.171875 48.140625 41.546875 
Q 48.578125 39.3125 48.578125 33.453125 
L 48.578125 21.734375 
Q 48.578125 9.46875 49.140625 6.21875 
Q 49.703125 2.984375 51.375 0 
L 42.1875 0 
Q 40.828125 2.734375 40.4375 6.390625 
z
M 39.703125 26.03125 
Q 34.90625 24.078125 25.34375 22.703125 
Q 19.921875 21.921875 17.671875 20.9375 
Q 15.4375 19.96875 14.203125 18.09375 
Q 12.984375 16.21875 12.984375 13.921875 
Q 12.984375 10.40625 15.640625 8.0625 
Q 18.3125 5.71875 23.4375 5.71875 
Q 28.515625 5.71875 32.46875 7.9375 
Q 36.421875 10.15625 38.28125 14.015625 
Q 39.703125 17 39.703125 22.796875 
z
" id="ArialMT-97"/>
      <path d="M 6.78125 -19.875 
L 6.78125 71.578125 
L 26.171875 71.578125 
L 26.171875 64.3125 
L 15.578125 64.3125 
L 15.578125 -12.59375 
L 26.171875 -12.59375 
L 26.171875 -19.875 
z
" id="ArialMT-91"/>
      <path d="M 6.59375 -19.875 
L 6.59375 51.859375 
L 14.59375 51.859375 
L 14.59375 45.125 
Q 17.4375 49.078125 21 51.046875 
Q 24.5625 53.03125 29.640625 53.03125 
Q 36.28125 53.03125 41.359375 49.609375 
Q 46.4375 46.1875 49.015625 39.953125 
Q 51.609375 33.734375 51.609375 26.3125 
Q 51.609375 18.359375 48.75 11.984375 
Q 45.90625 5.609375 40.453125 2.21875 
Q 35.015625 -1.171875 29 -1.171875 
Q 24.609375 -1.171875 21.109375 0.6875 
Q 17.625 2.546875 15.375 5.375 
L 15.375 -19.875 
z
M 14.546875 25.640625 
Q 14.546875 15.625 18.59375 10.84375 
Q 22.65625 6.0625 28.421875 6.0625 
Q 34.28125 6.0625 38.453125 11.015625 
Q 42.625 15.96875 42.625 26.375 
Q 42.625 36.28125 38.546875 41.203125 
Q 34.46875 46.140625 28.8125 46.140625 
Q 23.1875 46.140625 18.859375 40.890625 
Q 14.546875 35.640625 14.546875 25.640625 
z
" id="ArialMT-112"/>
      <path d="M 21.296875 -19.875 
L 1.90625 -19.875 
L 1.90625 -12.59375 
L 12.5 -12.59375 
L 12.5 64.3125 
L 1.90625 64.3125 
L 1.90625 71.578125 
L 21.296875 71.578125 
z
" id="ArialMT-93"/>
     </defs>
     <g style="fill:#262626;" transform="translate(130.554375 330.195469)scale(0.12 -0.12)">
      <use xlink:href="#ArialMT-78"/>
      <use x="72.216797" xlink:href="#ArialMT-117"/>
      <use x="127.832031" xlink:href="#ArialMT-109"/>
      <use x="211.132812" xlink:href="#ArialMT-98"/>
      <use x="266.748047" xlink:href="#ArialMT-101"/>
      <use x="322.363281" xlink:href="#ArialMT-114"/>
      <use x="355.664062" xlink:href="#ArialMT-32"/>
      <use x="383.447266" xlink:href="#ArialMT-111"/>
      <use x="439.0625" xlink:href="#ArialMT-102"/>
      <use x="466.845703" xlink:href="#ArialMT-32"/>
      <use x="494.628906" xlink:href="#ArialMT-80"/>
      <use x="561.328125" xlink:href="#ArialMT-105"/>
      <use x="583.544922" xlink:href="#ArialMT-103"/>
      <use x="639.160156" xlink:href="#ArialMT-101"/>
      <use x="694.775391" xlink:href="#ArialMT-111"/>
      <use x="750.390625" xlink:href="#ArialMT-110"/>
      <use x="806.005859" xlink:href="#ArialMT-115"/>
      <use x="856.005859" xlink:href="#ArialMT-32"/>
      <use x="882.039062" xlink:href="#ArialMT-84"/>
      <use x="943.123047" xlink:href="#ArialMT-104"/>
      <use x="998.738281" xlink:href="#ArialMT-101"/>
      <use x="1054.353516" xlink:href="#ArialMT-121"/>
      <use x="1104.353516" xlink:href="#ArialMT-32"/>
      <use x="1132.136719" xlink:href="#ArialMT-67"/>
      <use x="1204.353516" xlink:href="#ArialMT-111"/>
      <use x="1259.96875" xlink:href="#ArialMT-117"/>
      <use x="1315.583984" xlink:href="#ArialMT-108"/>
      <use x="1337.800781" xlink:href="#ArialMT-100"/>
      <use x="1393.416016" xlink:href="#ArialMT-32"/>
      <use x="1421.199219" xlink:href="#ArialMT-67"/>
      <use x="1493.416016" xlink:href="#ArialMT-97"/>
      <use x="1549.03125" xlink:href="#ArialMT-114"/>
      <use x="1582.332031" xlink:href="#ArialMT-114"/>
      <use x="1615.632812" xlink:href="#ArialMT-121"/>
      <use x="1665.632812" xlink:href="#ArialMT-32"/>
      <use x="1693.416016" xlink:href="#ArialMT-91"/>
      <use x="1721.199219" xlink:href="#ArialMT-112"/>
      <use x="1776.814453" xlink:href="#ArialMT-105"/>
      <use x="1799.03125" xlink:href="#ArialMT-103"/>
      <use x="1854.646484" xlink:href="#ArialMT-101"/>
      <use x="1910.261719" xlink:href="#ArialMT-111"/>
      <use x="1965.876953" xlink:href="#ArialMT-110"/>
      <use x="2021.492188" xlink:href="#ArialMT-115"/>
      <use x="2071.492188" xlink:href="#ArialMT-93"/>
     </g>
    </g>
   </g>
   <g id="matplotlib.axis_2">
    <g id="ytick_1">
     <g id="line2d_12">
      <path clip-path="url(#p416092058b)" d="M 65.165625 297.9 
L 447.84 297.9 
" style="fill:none;stroke:#ffffff;stroke-linecap:round;"/>
     </g>
     <g id="text_13">
      <!-- 0.000 -->
      <defs>
       <path d="M 9.078125 0 
L 9.078125 10.015625 
L 19.09375 10.015625 
L 19.09375 0 
z
" id="ArialMT-46"/>
      </defs>
      <g style="fill:#262626;" transform="translate(28.141563 301.836797)scale(0.11 -0.11)">
       <use xlink:href="#ArialMT-48"/>
       <use x="55.615234" xlink:href="#ArialMT-46"/>
       <use x="83.398438" xlink:href="#ArialMT-48"/>
       <use x="139.013672" xlink:href="#ArialMT-48"/>
       <use x="194.628906" xlink:href="#ArialMT-48"/>
      </g>
     </g>
    </g>
    <g id="ytick_2">
     <g id="line2d_13">
      <path clip-path="url(#p416092058b)" d="M 65.165625 269.305417 
L 447.84 269.305417 
" style="fill:none;stroke:#ffffff;stroke-linecap:round;"/>
     </g>
     <g id="text_14">
      <!-- 0.025 -->
      <defs>
       <path d="M 4.15625 18.75 
L 13.375 19.53125 
Q 14.40625 12.796875 18.140625 9.390625 
Q 21.875 6 27.15625 6 
Q 33.5 6 37.890625 10.78125 
Q 42.28125 15.578125 42.28125 23.484375 
Q 42.28125 31 38.0625 35.34375 
Q 33.84375 39.703125 27 39.703125 
Q 22.75 39.703125 19.328125 37.765625 
Q 15.921875 35.84375 13.96875 32.765625 
L 5.71875 33.84375 
L 12.640625 70.609375 
L 48.25 70.609375 
L 48.25 62.203125 
L 19.671875 62.203125 
L 15.828125 42.96875 
Q 22.265625 47.46875 29.34375 47.46875 
Q 38.71875 47.46875 45.15625 40.96875 
Q 51.609375 34.46875 51.609375 24.265625 
Q 51.609375 14.546875 45.953125 7.46875 
Q 39.0625 -1.21875 27.15625 -1.21875 
Q 17.390625 -1.21875 11.203125 4.25 
Q 5.03125 9.71875 4.15625 18.75 
z
" id="ArialMT-53"/>
      </defs>
      <g style="fill:#262626;" transform="translate(28.141563 273.242214)scale(0.11 -0.11)">
       <use xlink:href="#ArialMT-48"/>
       <use x="55.615234" xlink:href="#ArialMT-46"/>
       <use x="83.398438" xlink:href="#ArialMT-48"/>
       <use x="139.013672" xlink:href="#ArialMT-50"/>
       <use x="194.628906" xlink:href="#ArialMT-53"/>
      </g>
     </g>
    </g>
    <g id="ytick_3">
     <g id="line2d_14">
      <path clip-path="url(#p416092058b)" d="M 65.165625 240.710833 
L 447.84 240.710833 
" style="fill:none;stroke:#ffffff;stroke-linecap:round;"/>
     </g>
     <g id="text_15">
      <!-- 0.050 -->
      <g style="fill:#262626;" transform="translate(28.141563 244.64763)scale(0.11 -0.11)">
       <use xlink:href="#ArialMT-48"/>
       <use x="55.615234" xlink:href="#ArialMT-46"/>
       <use x="83.398438" xlink:href="#ArialMT-48"/>
       <use x="139.013672" xlink:href="#ArialMT-53"/>
       <use x="194.628906" xlink:href="#ArialMT-48"/>
      </g>
     </g>
    </g>
    <g id="ytick_4">
     <g id="line2d_15">
      <path clip-path="url(#p416092058b)" d="M 65.165625 212.11625 
L 447.84 212.11625 
" style="fill:none;stroke:#ffffff;stroke-linecap:round;"/>
     </g>
     <g id="text_16">
      <!-- 0.075 -->
      <defs>
       <path d="M 4.734375 62.203125 
L 4.734375 70.65625 
L 51.078125 70.65625 
L 51.078125 63.8125 
Q 44.234375 56.546875 37.515625 44.484375 
Q 30.8125 32.421875 27.15625 19.671875 
Q 24.515625 10.6875 23.78125 0 
L 14.75 0 
Q 14.890625 8.453125 18.0625 20.40625 
Q 21.234375 32.375 27.171875 43.484375 
Q 33.109375 54.59375 39.796875 62.203125 
z
" id="ArialMT-55"/>
      </defs>
      <g style="fill:#262626;" transform="translate(28.141563 216.053047)scale(0.11 -0.11)">
       <use xlink:href="#ArialMT-48"/>
       <use x="55.615234" xlink:href="#ArialMT-46"/>
       <use x="83.398438" xlink:href="#ArialMT-48"/>
       <use x="139.013672" xlink:href="#ArialMT-55"/>
       <use x="194.628906" xlink:href="#ArialMT-53"/>
      </g>
     </g>
    </g>
    <g id="ytick_5">
     <g id="line2d_16">
      <path clip-path="url(#p416092058b)" d="M 65.165625 183.521667 
L 447.84 183.521667 
" style="fill:none;stroke:#ffffff;stroke-linecap:round;"/>
     </g>
     <g id="text_17">
      <!-- 0.100 -->
      <g style="fill:#262626;" transform="translate(28.141563 187.458464)scale(0.11 -0.11)">
       <use xlink:href="#ArialMT-48"/>
       <use x="55.615234" xlink:href="#ArialMT-46"/>
       <use x="83.398438" xlink:href="#ArialMT-49"/>
       <use x="139.013672" xlink:href="#ArialMT-48"/>
       <use x="194.628906" xlink:href="#ArialMT-48"/>
      </g>
     </g>
    </g>
    <g id="ytick_6">
     <g id="line2d_17">
      <path clip-path="url(#p416092058b)" d="M 65.165625 154.927083 
L 447.84 154.927083 
" style="fill:none;stroke:#ffffff;stroke-linecap:round;"/>
     </g>
     <g id="text_18">
      <!-- 0.125 -->
      <g style="fill:#262626;" transform="translate(28.141563 158.86388)scale(0.11 -0.11)">
       <use xlink:href="#ArialMT-48"/>
       <use x="55.615234" xlink:href="#ArialMT-46"/>
       <use x="83.398438" xlink:href="#ArialMT-49"/>
       <use x="139.013672" xlink:href="#ArialMT-50"/>
       <use x="194.628906" xlink:href="#ArialMT-53"/>
      </g>
     </g>
    </g>
    <g id="ytick_7">
     <g id="line2d_18">
      <path clip-path="url(#p416092058b)" d="M 65.165625 126.3325 
L 447.84 126.3325 
" style="fill:none;stroke:#ffffff;stroke-linecap:round;"/>
     </g>
     <g id="text_19">
      <!-- 0.150 -->
      <g style="fill:#262626;" transform="translate(28.141563 130.269297)scale(0.11 -0.11)">
       <use xlink:href="#ArialMT-48"/>
       <use x="55.615234" xlink:href="#ArialMT-46"/>
       <use x="83.398438" xlink:href="#ArialMT-49"/>
       <use x="139.013672" xlink:href="#ArialMT-53"/>
       <use x="194.628906" xlink:href="#ArialMT-48"/>
      </g>
     </g>
    </g>
    <g id="ytick_8">
     <g id="line2d_19">
      <path clip-path="url(#p416092058b)" d="M 65.165625 97.737917 
L 447.84 97.737917 
" style="fill:none;stroke:#ffffff;stroke-linecap:round;"/>
     </g>
     <g id="text_20">
      <!-- 0.175 -->
      <g style="fill:#262626;" transform="translate(28.141563 101.674714)scale(0.11 -0.11)">
       <use xlink:href="#ArialMT-48"/>
       <use x="55.615234" xlink:href="#ArialMT-46"/>
       <use x="83.398438" xlink:href="#ArialMT-49"/>
       <use x="139.013672" xlink:href="#ArialMT-55"/>
       <use x="194.628906" xlink:href="#ArialMT-53"/>
      </g>
     </g>
    </g>
    <g id="ytick_9">
     <g id="line2d_20">
      <path clip-path="url(#p416092058b)" d="M 65.165625 69.143333 
L 447.84 69.143333 
" style="fill:none;stroke:#ffffff;stroke-linecap:round;"/>
     </g>
     <g id="text_21">
      <!-- 0.200 -->
      <g style="fill:#262626;" transform="translate(28.141563 73.08013)scale(0.11 -0.11)">
       <use xlink:href="#ArialMT-48"/>
       <use x="55.615234" xlink:href="#ArialMT-46"/>
       <use x="83.398438" xlink:href="#ArialMT-50"/>
       <use x="139.013672" xlink:href="#ArialMT-48"/>
       <use x="194.628906" xlink:href="#ArialMT-48"/>
      </g>
     </g>
    </g>
    <g id="ytick_10">
     <g id="line2d_21">
      <path clip-path="url(#p416092058b)" d="M 65.165625 40.54875 
L 447.84 40.54875 
" style="fill:none;stroke:#ffffff;stroke-linecap:round;"/>
     </g>
     <g id="text_22">
      <!-- 0.225 -->
      <g style="fill:#262626;" transform="translate(28.141563 44.485547)scale(0.11 -0.11)">
       <use xlink:href="#ArialMT-48"/>
       <use x="55.615234" xlink:href="#ArialMT-46"/>
       <use x="83.398438" xlink:href="#ArialMT-50"/>
       <use x="139.013672" xlink:href="#ArialMT-50"/>
       <use x="194.628906" xlink:href="#ArialMT-53"/>
      </g>
     </g>
    </g>
    <g id="text_23">
     <!-- Probability Distribution Function [-] -->
     <defs>
      <path d="M 25.78125 7.859375 
L 27.046875 0.09375 
Q 23.34375 -0.6875 20.40625 -0.6875 
Q 15.625 -0.6875 12.984375 0.828125 
Q 10.359375 2.34375 9.28125 4.8125 
Q 8.203125 7.28125 8.203125 15.1875 
L 8.203125 45.015625 
L 1.765625 45.015625 
L 1.765625 51.859375 
L 8.203125 51.859375 
L 8.203125 64.703125 
L 16.9375 69.96875 
L 16.9375 51.859375 
L 25.78125 51.859375 
L 25.78125 45.015625 
L 16.9375 45.015625 
L 16.9375 14.703125 
Q 16.9375 10.9375 17.40625 9.859375 
Q 17.875 8.796875 18.921875 8.15625 
Q 19.96875 7.515625 21.921875 7.515625 
Q 23.390625 7.515625 25.78125 7.859375 
z
" id="ArialMT-116"/>
      <path d="M 7.71875 0 
L 7.71875 71.578125 
L 32.375 71.578125 
Q 40.71875 71.578125 45.125 70.5625 
Q 51.265625 69.140625 55.609375 65.4375 
Q 61.28125 60.640625 64.078125 53.1875 
Q 66.890625 45.75 66.890625 36.1875 
Q 66.890625 28.03125 64.984375 21.734375 
Q 63.09375 15.4375 60.109375 11.296875 
Q 57.125 7.171875 53.578125 4.796875 
Q 50.046875 2.4375 45.046875 1.21875 
Q 40.046875 0 33.546875 0 
z
M 17.1875 8.453125 
L 32.46875 8.453125 
Q 39.546875 8.453125 43.578125 9.765625 
Q 47.609375 11.078125 50 13.484375 
Q 53.375 16.84375 55.25 22.53125 
Q 57.125 28.21875 57.125 36.328125 
Q 57.125 47.5625 53.4375 53.59375 
Q 49.75 59.625 44.484375 61.671875 
Q 40.671875 63.140625 32.234375 63.140625 
L 17.1875 63.140625 
z
" id="ArialMT-68"/>
      <path d="M 8.203125 0 
L 8.203125 71.578125 
L 56.5 71.578125 
L 56.5 63.140625 
L 17.671875 63.140625 
L 17.671875 40.96875 
L 51.265625 40.96875 
L 51.265625 32.515625 
L 17.671875 32.515625 
L 17.671875 0 
z
" id="ArialMT-70"/>
      <path d="M 40.4375 19 
L 49.078125 17.875 
Q 47.65625 8.9375 41.8125 3.875 
Q 35.984375 -1.171875 27.484375 -1.171875 
Q 16.84375 -1.171875 10.375 5.78125 
Q 3.90625 12.75 3.90625 25.734375 
Q 3.90625 34.125 6.6875 40.421875 
Q 9.46875 46.734375 15.15625 49.875 
Q 20.84375 53.03125 27.546875 53.03125 
Q 35.984375 53.03125 41.359375 48.75 
Q 46.734375 44.484375 48.25 36.625 
L 39.703125 35.296875 
Q 38.484375 40.53125 35.375 43.15625 
Q 32.28125 45.796875 27.875 45.796875 
Q 21.234375 45.796875 17.078125 41.03125 
Q 12.9375 36.28125 12.9375 25.984375 
Q 12.9375 15.53125 16.9375 10.796875 
Q 20.953125 6.0625 27.390625 6.0625 
Q 32.5625 6.0625 36.03125 9.234375 
Q 39.5 12.40625 40.4375 19 
z
" id="ArialMT-99"/>
      <path d="M 3.171875 21.484375 
L 3.171875 30.328125 
L 30.171875 30.328125 
L 30.171875 21.484375 
z
" id="ArialMT-45"/>
     </defs>
     <g style="fill:#262626;" transform="translate(21.615938 260.590312)rotate(-90)scale(0.12 -0.12)">
      <use xlink:href="#ArialMT-80"/>
      <use x="66.699219" xlink:href="#ArialMT-114"/>
      <use x="100" xlink:href="#ArialMT-111"/>
      <use x="155.615234" xlink:href="#ArialMT-98"/>
      <use x="211.230469" xlink:href="#ArialMT-97"/>
      <use x="266.845703" xlink:href="#ArialMT-98"/>
      <use x="322.460938" xlink:href="#ArialMT-105"/>
      <use x="344.677734" xlink:href="#ArialMT-108"/>
      <use x="366.894531" xlink:href="#ArialMT-105"/>
      <use x="389.111328" xlink:href="#ArialMT-116"/>
      <use x="416.894531" xlink:href="#ArialMT-121"/>
      <use x="466.894531" xlink:href="#ArialMT-32"/>
      <use x="494.677734" xlink:href="#ArialMT-68"/>
      <use x="566.894531" xlink:href="#ArialMT-105"/>
      <use x="589.111328" xlink:href="#ArialMT-115"/>
      <use x="639.111328" xlink:href="#ArialMT-116"/>
      <use x="666.894531" xlink:href="#ArialMT-114"/>
      <use x="700.195312" xlink:href="#ArialMT-105"/>
      <use x="722.412109" xlink:href="#ArialMT-98"/>
      <use x="778.027344" xlink:href="#ArialMT-117"/>
      <use x="833.642578" xlink:href="#ArialMT-116"/>
      <use x="861.425781" xlink:href="#ArialMT-105"/>
      <use x="883.642578" xlink:href="#ArialMT-111"/>
      <use x="939.257812" xlink:href="#ArialMT-110"/>
      <use x="994.873047" xlink:href="#ArialMT-32"/>
      <use x="1022.65625" xlink:href="#ArialMT-70"/>
      <use x="1083.740234" xlink:href="#ArialMT-117"/>
      <use x="1139.355469" xlink:href="#ArialMT-110"/>
      <use x="1194.970703" xlink:href="#ArialMT-99"/>
      <use x="1244.970703" xlink:href="#ArialMT-116"/>
      <use x="1272.753906" xlink:href="#ArialMT-105"/>
      <use x="1294.970703" xlink:href="#ArialMT-111"/>
      <use x="1350.585938" xlink:href="#ArialMT-110"/>
      <use x="1406.201172" xlink:href="#ArialMT-32"/>
      <use x="1433.984375" xlink:href="#ArialMT-91"/>
      <use x="1461.767578" xlink:href="#ArialMT-45"/>
      <use x="1495.068359" xlink:href="#ArialMT-93"/>
     </g>
    </g>
   </g>
   <g id="patch_3">
    <path d="M 65.165625 297.9 
L 65.165625 40.54875 
" style="fill:none;stroke:#ffffff;stroke-linecap:square;stroke-linejoin:miter;stroke-width:1.25;"/>
   </g>
   <g id="patch_4">
    <path d="M 447.84 297.9 
L 447.84 40.54875 
" style="fill:none;stroke:#ffffff;stroke-linecap:square;stroke-linejoin:miter;stroke-width:1.25;"/>
   </g>
   <g id="patch_5">
    <path d="M 65.165625 297.9 
L 447.84 297.9 
" style="fill:none;stroke:#ffffff;stroke-linecap:square;stroke-linejoin:miter;stroke-width:1.25;"/>
   </g>
   <g id="patch_6">
    <path d="M 65.165625 40.54875 
L 447.84 40.54875 
" style="fill:none;stroke:#ffffff;stroke-linecap:square;stroke-linejoin:miter;stroke-width:1.25;"/>
   </g>
   <g id="text_24">
    <!-- Note: All responses rounded -->
    <defs>
     <path d="M 9.03125 41.84375 
L 9.03125 51.859375 
L 19.046875 51.859375 
L 19.046875 41.84375 
z
M 9.03125 0 
L 9.03125 10.015625 
L 19.046875 10.015625 
L 19.046875 0 
z
" id="ArialMT-58"/>
     <path d="M -0.140625 0 
L 27.34375 71.578125 
L 37.546875 71.578125 
L 66.84375 0 
L 56.0625 0 
L 47.703125 21.6875 
L 17.78125 21.6875 
L 9.90625 0 
z
M 20.515625 29.390625 
L 44.78125 29.390625 
L 37.3125 49.21875 
Q 33.890625 58.25 32.234375 64.0625 
Q 30.859375 57.171875 28.375 50.390625 
z
" id="ArialMT-65"/>
    </defs>
    <g style="fill:#262626;" transform="translate(237.369094 57.8805)scale(0.1 -0.1)">
     <use xlink:href="#ArialMT-78"/>
     <use x="72.216797" xlink:href="#ArialMT-111"/>
     <use x="127.832031" xlink:href="#ArialMT-116"/>
     <use x="155.615234" xlink:href="#ArialMT-101"/>
     <use x="211.230469" xlink:href="#ArialMT-58"/>
     <use x="239.013672" xlink:href="#ArialMT-32"/>
     <use x="261.296875" xlink:href="#ArialMT-65"/>
     <use x="327.996094" xlink:href="#ArialMT-108"/>
     <use x="350.212891" xlink:href="#ArialMT-108"/>
     <use x="372.429688" xlink:href="#ArialMT-32"/>
     <use x="400.212891" xlink:href="#ArialMT-114"/>
     <use x="433.513672" xlink:href="#ArialMT-101"/>
     <use x="489.128906" xlink:href="#ArialMT-115"/>
     <use x="539.128906" xlink:href="#ArialMT-112"/>
     <use x="594.744141" xlink:href="#ArialMT-111"/>
     <use x="650.359375" xlink:href="#ArialMT-110"/>
     <use x="705.974609" xlink:href="#ArialMT-115"/>
     <use x="755.974609" xlink:href="#ArialMT-101"/>
     <use x="811.589844" xlink:href="#ArialMT-115"/>
     <use x="861.589844" xlink:href="#ArialMT-32"/>
     <use x="889.373047" xlink:href="#ArialMT-114"/>
     <use x="922.673828" xlink:href="#ArialMT-111"/>
     <use x="978.289062" xlink:href="#ArialMT-117"/>
     <use x="1033.904297" xlink:href="#ArialMT-110"/>
     <use x="1089.519531" xlink:href="#ArialMT-100"/>
     <use x="1145.134766" xlink:href="#ArialMT-101"/>
     <use x="1200.75" xlink:href="#ArialMT-100"/>
    </g>
    <!-- to the nearest whole pigeon. -->
    <defs>
     <path d="M 16.15625 0 
L 0.296875 51.859375 
L 9.375 51.859375 
L 17.625 21.921875 
L 20.703125 10.796875 
Q 20.90625 11.625 23.390625 21.484375 
L 31.640625 51.859375 
L 40.671875 51.859375 
L 48.4375 21.78125 
L 51.03125 11.859375 
L 54 21.875 
L 62.890625 51.859375 
L 71.4375 51.859375 
L 55.21875 0 
L 46.09375 0 
L 37.84375 31.0625 
L 35.84375 39.890625 
L 25.34375 0 
z
" id="ArialMT-119"/>
    </defs>
    <g style="fill:#262626;" transform="translate(237.369094 68.457375)scale(0.1 -0.1)">
     <use xlink:href="#ArialMT-116"/>
     <use x="27.783203" xlink:href="#ArialMT-111"/>
     <use x="83.398438" xlink:href="#ArialMT-32"/>
     <use x="111.181641" xlink:href="#ArialMT-116"/>
     <use x="138.964844" xlink:href="#ArialMT-104"/>
     <use x="194.580078" xlink:href="#ArialMT-101"/>
     <use x="250.195312" xlink:href="#ArialMT-32"/>
     <use x="277.978516" xlink:href="#ArialMT-110"/>
     <use x="333.59375" xlink:href="#ArialMT-101"/>
     <use x="389.208984" xlink:href="#ArialMT-97"/>
     <use x="444.824219" xlink:href="#ArialMT-114"/>
     <use x="478.125" xlink:href="#ArialMT-101"/>
     <use x="533.740234" xlink:href="#ArialMT-115"/>
     <use x="583.740234" xlink:href="#ArialMT-116"/>
     <use x="611.523438" xlink:href="#ArialMT-32"/>
     <use x="639.306641" xlink:href="#ArialMT-119"/>
     <use x="711.523438" xlink:href="#ArialMT-104"/>
     <use x="767.138672" xlink:href="#ArialMT-111"/>
     <use x="822.753906" xlink:href="#ArialMT-108"/>
     <use x="844.970703" xlink:href="#ArialMT-101"/>
     <use x="900.585938" xlink:href="#ArialMT-32"/>
     <use x="928.369141" xlink:href="#ArialMT-112"/>
     <use x="983.984375" xlink:href="#ArialMT-105"/>
     <use x="1006.201172" xlink:href="#ArialMT-103"/>
     <use x="1061.816406" xlink:href="#ArialMT-101"/>
     <use x="1117.431641" xlink:href="#ArialMT-111"/>
     <use x="1173.046875" xlink:href="#ArialMT-110"/>
     <use x="1228.662109" xlink:href="#ArialMT-46"/>
    </g>
    <!-- Mean = 6.1, SD = 6.0, $n$ = 28 -->
    <defs>
     <path d="M 7.421875 0 
L 7.421875 71.578125 
L 21.6875 71.578125 
L 38.625 20.90625 
Q 40.96875 13.8125 42.046875 10.296875 
Q 43.265625 14.203125 45.84375 21.78125 
L 62.984375 71.578125 
L 75.734375 71.578125 
L 75.734375 0 
L 66.609375 0 
L 66.609375 59.90625 
L 45.796875 0 
L 37.25 0 
L 16.546875 60.9375 
L 16.546875 0 
z
" id="ArialMT-77"/>
     <path d="M 52.828125 42.09375 
L 5.5625 42.09375 
L 5.5625 50.296875 
L 52.828125 50.296875 
z
M 52.828125 20.359375 
L 5.5625 20.359375 
L 5.5625 28.5625 
L 52.828125 28.5625 
z
" id="ArialMT-61"/>
     <path d="M 8.890625 0 
L 8.890625 10.015625 
L 18.890625 10.015625 
L 18.890625 0 
Q 18.890625 -5.515625 16.9375 -8.90625 
Q 14.984375 -12.3125 10.75 -14.15625 
L 8.296875 -10.40625 
Q 11.078125 -9.1875 12.390625 -6.8125 
Q 13.71875 -4.4375 13.875 0 
z
" id="ArialMT-44"/>
     <path d="M 4.5 23 
L 13.421875 23.78125 
Q 14.0625 18.40625 16.375 14.96875 
Q 18.703125 11.53125 23.578125 9.40625 
Q 28.46875 7.28125 34.578125 7.28125 
Q 39.984375 7.28125 44.140625 8.890625 
Q 48.296875 10.5 50.3125 13.296875 
Q 52.34375 16.109375 52.34375 19.4375 
Q 52.34375 22.796875 50.390625 25.3125 
Q 48.4375 27.828125 43.953125 29.546875 
Q 41.0625 30.671875 31.203125 33.03125 
Q 21.34375 35.40625 17.390625 37.5 
Q 12.25 40.1875 9.734375 44.15625 
Q 7.234375 48.140625 7.234375 53.078125 
Q 7.234375 58.5 10.296875 63.203125 
Q 13.375 67.921875 19.28125 70.359375 
Q 25.203125 72.796875 32.421875 72.796875 
Q 40.375 72.796875 46.453125 70.234375 
Q 52.546875 67.671875 55.8125 62.6875 
Q 59.078125 57.71875 59.328125 51.421875 
L 50.25 50.734375 
Q 49.515625 57.515625 45.28125 60.984375 
Q 41.0625 64.453125 32.8125 64.453125 
Q 24.21875 64.453125 20.28125 61.296875 
Q 16.359375 58.15625 16.359375 53.71875 
Q 16.359375 49.859375 19.140625 47.359375 
Q 21.875 44.875 33.421875 42.265625 
Q 44.96875 39.65625 49.265625 37.703125 
Q 55.515625 34.8125 58.484375 30.390625 
Q 61.46875 25.984375 61.46875 20.21875 
Q 61.46875 14.5 58.203125 9.4375 
Q 54.9375 4.390625 48.796875 1.578125 
Q 42.671875 -1.21875 35.015625 -1.21875 
Q 25.296875 -1.21875 18.71875 1.609375 
Q 12.15625 4.4375 8.421875 10.125 
Q 4.6875 15.828125 4.5 23 
z
" id="ArialMT-83"/>
     <path d="M 55.71875 33.015625 
L 49.3125 0 
L 40.28125 0 
L 46.6875 32.671875 
Q 47.125 34.96875 47.359375 36.71875 
Q 47.609375 38.484375 47.609375 39.5 
Q 47.609375 43.609375 45.015625 45.890625 
Q 42.4375 48.1875 37.796875 48.1875 
Q 30.5625 48.1875 25.34375 43.375 
Q 20.125 38.578125 18.5 30.328125 
L 12.5 0 
L 3.515625 0 
L 14.109375 54.6875 
L 23.09375 54.6875 
L 21.296875 46.09375 
Q 25.046875 50.828125 30.3125 53.40625 
Q 35.59375 56 41.40625 56 
Q 48.640625 56 52.609375 52.09375 
Q 56.59375 48.1875 56.59375 41.109375 
Q 56.59375 39.359375 56.375 37.359375 
Q 56.15625 35.359375 55.71875 33.015625 
z
" id="DejaVuSans-Oblique-110"/>
    </defs>
    <g style="fill:#262626;" transform="translate(237.369094 79.151437)scale(0.1 -0.1)">
     <use transform="translate(0 0.203125)" xlink:href="#ArialMT-77"/>
     <use transform="translate(83.300781 0.203125)" xlink:href="#ArialMT-101"/>
     <use transform="translate(138.916016 0.203125)" xlink:href="#ArialMT-97"/>
     <use transform="translate(194.53125 0.203125)" xlink:href="#ArialMT-110"/>
     <use transform="translate(250.146484 0.203125)" xlink:href="#ArialMT-32"/>
     <use transform="translate(277.929688 0.203125)" xlink:href="#ArialMT-61"/>
     <use transform="translate(336.328125 0.203125)" xlink:href="#ArialMT-32"/>
     <use transform="translate(364.111328 0.203125)" xlink:href="#ArialMT-54"/>
     <use transform="translate(419.726562 0.203125)" xlink:href="#ArialMT-46"/>
     <use transform="translate(447.509766 0.203125)" xlink:href="#ArialMT-49"/>
     <use transform="translate(503.125 0.203125)" xlink:href="#ArialMT-44"/>
     <use transform="translate(530.908203 0.203125)" xlink:href="#ArialMT-32"/>
     <use transform="translate(558.691406 0.203125)" xlink:href="#ArialMT-83"/>
     <use transform="translate(625.390625 0.203125)" xlink:href="#ArialMT-68"/>
     <use transform="translate(697.607422 0.203125)" xlink:href="#ArialMT-32"/>
     <use transform="translate(725.390625 0.203125)" xlink:href="#ArialMT-61"/>
     <use transform="translate(783.789062 0.203125)" xlink:href="#ArialMT-32"/>
     <use transform="translate(811.572266 0.203125)" xlink:href="#ArialMT-54"/>
     <use transform="translate(867.1875 0.203125)" xlink:href="#ArialMT-46"/>
     <use transform="translate(894.970703 0.203125)" xlink:href="#ArialMT-48"/>
     <use transform="translate(950.585938 0.203125)" xlink:href="#ArialMT-44"/>
     <use transform="translate(978.369141 0.203125)" xlink:href="#ArialMT-32"/>
     <use transform="translate(1006.152344 0.203125)" xlink:href="#DejaVuSans-Oblique-110"/>
     <use transform="translate(1069.53125 0.203125)" xlink:href="#ArialMT-32"/>
     <use transform="translate(1097.314453 0.203125)" xlink:href="#ArialMT-61"/>
     <use transform="translate(1155.712891 0.203125)" xlink:href="#ArialMT-32"/>
     <use transform="translate(1183.496094 0.203125)" xlink:href="#ArialMT-50"/>
     <use transform="translate(1239.111328 0.203125)" xlink:href="#ArialMT-56"/>
    </g>
   </g>
   <g id="text_25">
    <!-- A Survey of Tinder: -->
    <defs>
     <path d="M 21 0 
L 1.265625 51.859375 
L 10.546875 51.859375 
L 21.6875 20.796875 
Q 23.484375 15.765625 25 10.359375 
Q 26.171875 14.453125 28.265625 20.21875 
L 39.796875 51.859375 
L 48.828125 51.859375 
L 29.203125 0 
z
" id="ArialMT-118"/>
    </defs>
    <g style="fill:#262626;" transform="translate(205.81125 21.540375)scale(0.12 -0.12)">
     <use xlink:href="#ArialMT-65"/>
     <use x="61.199219" xlink:href="#ArialMT-32"/>
     <use x="88.982422" xlink:href="#ArialMT-83"/>
     <use x="155.681641" xlink:href="#ArialMT-117"/>
     <use x="211.296875" xlink:href="#ArialMT-114"/>
     <use x="244.597656" xlink:href="#ArialMT-118"/>
     <use x="294.597656" xlink:href="#ArialMT-101"/>
     <use x="350.212891" xlink:href="#ArialMT-121"/>
     <use x="400.212891" xlink:href="#ArialMT-32"/>
     <use x="427.996094" xlink:href="#ArialMT-111"/>
     <use x="483.611328" xlink:href="#ArialMT-102"/>
     <use x="511.394531" xlink:href="#ArialMT-32"/>
     <use x="537.427734" xlink:href="#ArialMT-84"/>
     <use x="594.761719" xlink:href="#ArialMT-105"/>
     <use x="616.978516" xlink:href="#ArialMT-110"/>
     <use x="672.59375" xlink:href="#ArialMT-100"/>
     <use x="728.208984" xlink:href="#ArialMT-101"/>
     <use x="783.824219" xlink:href="#ArialMT-114"/>
     <use x="817.125" xlink:href="#ArialMT-58"/>
    </g>
    <!-- "How many pigeons do you think you could carry?" -->
    <defs>
     <path d="M 7.03125 46.234375 
L 4.59375 59.859375 
L 4.59375 71.578125 
L 14.59375 71.578125 
L 14.59375 59.859375 
L 12.40625 46.234375 
z
M 23.1875 46.234375 
L 20.796875 59.859375 
L 20.796875 71.578125 
L 30.8125 71.578125 
L 30.8125 59.859375 
L 28.46875 46.234375 
z
" id="ArialMT-34"/>
     <path d="M 8.015625 0 
L 8.015625 71.578125 
L 17.484375 71.578125 
L 17.484375 42.1875 
L 54.6875 42.1875 
L 54.6875 71.578125 
L 64.15625 71.578125 
L 64.15625 0 
L 54.6875 0 
L 54.6875 33.734375 
L 17.484375 33.734375 
L 17.484375 0 
z
" id="ArialMT-72"/>
     <path d="M 6.640625 0 
L 6.640625 71.578125 
L 15.4375 71.578125 
L 15.4375 30.765625 
L 36.234375 51.859375 
L 47.609375 51.859375 
L 27.78125 32.625 
L 49.609375 0 
L 38.765625 0 
L 21.625 26.515625 
L 15.4375 20.5625 
L 15.4375 0 
z
" id="ArialMT-107"/>
     <path d="M 23.046875 17.625 
Q 23 19.390625 23 20.265625 
Q 23 25.4375 24.46875 29.203125 
Q 25.53125 32.03125 27.9375 34.90625 
Q 29.6875 37.015625 34.25 41.03125 
Q 38.8125 45.0625 40.171875 47.453125 
Q 41.546875 49.859375 41.546875 52.6875 
Q 41.546875 57.8125 37.546875 61.6875 
Q 33.546875 65.578125 27.734375 65.578125 
Q 22.125 65.578125 18.359375 62.0625 
Q 14.59375 58.546875 13.421875 51.078125 
L 4.390625 52.15625 
Q 5.609375 62.15625 11.640625 67.46875 
Q 17.671875 72.796875 27.59375 72.796875 
Q 38.09375 72.796875 44.34375 67.078125 
Q 50.59375 61.375 50.59375 53.265625 
Q 50.59375 48.578125 48.390625 44.625 
Q 46.1875 40.671875 39.796875 35.015625 
Q 35.5 31.203125 34.171875 29.390625 
Q 32.859375 27.59375 32.21875 25.25 
Q 31.59375 22.90625 31.5 17.625 
z
M 22.515625 0 
L 22.515625 10.015625 
L 32.515625 10.015625 
L 32.515625 0 
z
" id="ArialMT-63"/>
    </defs>
    <g style="fill:#262626;" transform="translate(121.514063 34.54875)scale(0.12 -0.12)">
     <use xlink:href="#ArialMT-34"/>
     <use x="35.498047" xlink:href="#ArialMT-72"/>
     <use x="107.714844" xlink:href="#ArialMT-111"/>
     <use x="163.330078" xlink:href="#ArialMT-119"/>
     <use x="235.546875" xlink:href="#ArialMT-32"/>
     <use x="263.330078" xlink:href="#ArialMT-109"/>
     <use x="346.630859" xlink:href="#ArialMT-97"/>
     <use x="402.246094" xlink:href="#ArialMT-110"/>
     <use x="457.861328" xlink:href="#ArialMT-121"/>
     <use x="507.861328" xlink:href="#ArialMT-32"/>
     <use x="535.644531" xlink:href="#ArialMT-112"/>
     <use x="591.259766" xlink:href="#ArialMT-105"/>
     <use x="613.476562" xlink:href="#ArialMT-103"/>
     <use x="669.091797" xlink:href="#ArialMT-101"/>
     <use x="724.707031" xlink:href="#ArialMT-111"/>
     <use x="780.322266" xlink:href="#ArialMT-110"/>
     <use x="835.9375" xlink:href="#ArialMT-115"/>
     <use x="885.9375" xlink:href="#ArialMT-32"/>
     <use x="913.720703" xlink:href="#ArialMT-100"/>
     <use x="969.335938" xlink:href="#ArialMT-111"/>
     <use x="1024.951172" xlink:href="#ArialMT-32"/>
     <use x="1052.734375" xlink:href="#ArialMT-121"/>
     <use x="1102.734375" xlink:href="#ArialMT-111"/>
     <use x="1158.349609" xlink:href="#ArialMT-117"/>
     <use x="1213.964844" xlink:href="#ArialMT-32"/>
     <use x="1241.748047" xlink:href="#ArialMT-116"/>
     <use x="1269.53125" xlink:href="#ArialMT-104"/>
     <use x="1325.146484" xlink:href="#ArialMT-105"/>
     <use x="1347.363281" xlink:href="#ArialMT-110"/>
     <use x="1402.978516" xlink:href="#ArialMT-107"/>
     <use x="1452.978516" xlink:href="#ArialMT-32"/>
     <use x="1480.761719" xlink:href="#ArialMT-121"/>
     <use x="1530.761719" xlink:href="#ArialMT-111"/>
     <use x="1586.376953" xlink:href="#ArialMT-117"/>
     <use x="1641.992188" xlink:href="#ArialMT-32"/>
     <use x="1669.775391" xlink:href="#ArialMT-99"/>
     <use x="1719.775391" xlink:href="#ArialMT-111"/>
     <use x="1775.390625" xlink:href="#ArialMT-117"/>
     <use x="1831.005859" xlink:href="#ArialMT-108"/>
     <use x="1853.222656" xlink:href="#ArialMT-100"/>
     <use x="1908.837891" xlink:href="#ArialMT-32"/>
     <use x="1936.621094" xlink:href="#ArialMT-99"/>
     <use x="1986.621094" xlink:href="#ArialMT-97"/>
     <use x="2042.236328" xlink:href="#ArialMT-114"/>
     <use x="2075.537109" xlink:href="#ArialMT-114"/>
     <use x="2108.837891" xlink:href="#ArialMT-121"/>
     <use x="2158.837891" xlink:href="#ArialMT-63"/>
     <use x="2214.453125" xlink:href="#ArialMT-34"/>
    </g>
   </g>
   <g id="legend_1">
    <g id="patch_7">
     <path d="M 374.982188 80.468437 
L 440.14 80.468437 
Q 442.34 80.468437 442.34 78.268437 
L 442.34 48.24875 
Q 442.34 46.04875 440.14 46.04875 
L 374.982188 46.04875 
Q 372.782188 46.04875 372.782188 48.24875 
L 372.782188 78.268437 
Q 372.782188 80.468437 374.982188 80.468437 
z
" style="fill:#eaeaf2;opacity:0.8;stroke:#cccccc;stroke-linejoin:miter;"/>
    </g>
    <g id="line2d_22">
     <path d="M 377.182188 54.472344 
L 399.182188 54.472344 
" style="fill:none;stroke:#408fff;stroke-linecap:round;stroke-width:3;"/>
    </g>
    <g id="line2d_23"/>
    <g id="text_26">
     <!-- Model -->
     <g style="fill:#262626;" transform="translate(407.982188 58.322344)scale(0.11 -0.11)">
      <use xlink:href="#ArialMT-77"/>
      <use x="83.300781" xlink:href="#ArialMT-111"/>
      <use x="138.916016" xlink:href="#ArialMT-100"/>
      <use x="194.53125" xlink:href="#ArialMT-101"/>
      <use x="250.146484" xlink:href="#ArialMT-108"/>
     </g>
    </g>
    <g id="patch_8">
     <path d="M 377.182188 73.882187 
L 399.182188 73.882187 
L 399.182188 66.182187 
L 377.182188 66.182187 
z
" style="fill:#ff4063;stroke:#ffffff;stroke-linejoin:miter;"/>
    </g>
    <g id="text_27">
     <!-- Data -->
     <g style="fill:#262626;" transform="translate(407.982188 73.882187)scale(0.11 -0.11)">
      <use xlink:href="#ArialMT-68"/>
      <use x="72.216797" xlink:href="#ArialMT-97"/>
      <use x="127.832031" xlink:href="#ArialMT-116"/>
      <use x="155.615234" xlink:href="#ArialMT-97"/>
     </g>
    </g>
   </g>
   <g id="patch_9">
    <path clip-path="url(#p416092058b)" d="M 82.559915 297.9 
L 99.125905 297.9 
L 99.125905 175.351786 
L 82.559915 175.351786 
z
" style="fill:#ff4063;stroke:#ffffff;stroke-linejoin:miter;"/>
   </g>
   <g id="patch_10">
    <path clip-path="url(#p416092058b)" d="M 99.125905 297.9 
L 115.691895 297.9 
L 115.691895 257.050595 
L 99.125905 257.050595 
z
" style="fill:#ff4063;stroke:#ffffff;stroke-linejoin:miter;"/>
   </g>
   <g id="patch_11">
    <path clip-path="url(#p416092058b)" d="M 115.691895 297.9 
L 132.257886 297.9 
L 132.257886 175.351786 
L 115.691895 175.351786 
z
" style="fill:#ff4063;stroke:#ffffff;stroke-linejoin:miter;"/>
   </g>
   <g id="patch_12">
    <path clip-path="url(#p416092058b)" d="M 132.257886 297.9 
L 148.823876 297.9 
L 148.823876 52.803571 
L 132.257886 52.803571 
z
" style="fill:#ff4063;stroke:#ffffff;stroke-linejoin:miter;"/>
   </g>
   <g id="patch_13">
    <path clip-path="url(#p416092058b)" d="M 148.823876 297.9 
L 165.389866 297.9 
L 165.389866 134.502381 
L 148.823876 134.502381 
z
" style="fill:#ff4063;stroke:#ffffff;stroke-linejoin:miter;"/>
   </g>
   <g id="patch_14">
    <path clip-path="url(#p416092058b)" d="M 165.389866 297.9 
L 181.955856 297.9 
L 181.955856 175.351786 
L 165.389866 175.351786 
z
" style="fill:#ff4063;stroke:#ffffff;stroke-linejoin:miter;"/>
   </g>
   <g id="patch_15">
    <path clip-path="url(#p416092058b)" d="M 181.955856 297.9 
L 198.521847 297.9 
L 198.521847 297.9 
L 181.955856 297.9 
z
" style="fill:#ff4063;stroke:#ffffff;stroke-linejoin:miter;"/>
   </g>
   <g id="patch_16">
    <path clip-path="url(#p416092058b)" d="M 198.521847 297.9 
L 215.087837 297.9 
L 215.087837 257.050595 
L 198.521847 257.050595 
z
" style="fill:#ff4063;stroke:#ffffff;stroke-linejoin:miter;"/>
   </g>
   <g id="patch_17">
    <path clip-path="url(#p416092058b)" d="M 215.087837 297.9 
L 231.653827 297.9 
L 231.653827 257.050595 
L 215.087837 257.050595 
z
" style="fill:#ff4063;stroke:#ffffff;stroke-linejoin:miter;"/>
   </g>
   <g id="patch_18">
    <path clip-path="url(#p416092058b)" d="M 231.653827 297.9 
L 248.219817 297.9 
L 248.219817 297.9 
L 231.653827 297.9 
z
" style="fill:#ff4063;stroke:#ffffff;stroke-linejoin:miter;"/>
   </g>
   <g id="patch_19">
    <path clip-path="url(#p416092058b)" d="M 248.219817 297.9 
L 264.785808 297.9 
L 264.785808 257.050595 
L 248.219817 257.050595 
z
" style="fill:#ff4063;stroke:#ffffff;stroke-linejoin:miter;"/>
   </g>
   <g id="patch_20">
    <path clip-path="url(#p416092058b)" d="M 264.785808 297.9 
L 281.351798 297.9 
L 281.351798 297.9 
L 264.785808 297.9 
z
" style="fill:#ff4063;stroke:#ffffff;stroke-linejoin:miter;"/>
   </g>
   <g id="patch_21">
    <path clip-path="url(#p416092058b)" d="M 281.351798 297.9 
L 297.917788 297.9 
L 297.917788 297.9 
L 281.351798 297.9 
z
" style="fill:#ff4063;stroke:#ffffff;stroke-linejoin:miter;"/>
   </g>
   <g id="patch_22">
    <path clip-path="url(#p416092058b)" d="M 297.917788 297.9 
L 314.483778 297.9 
L 314.483778 297.9 
L 297.917788 297.9 
z
" style="fill:#ff4063;stroke:#ffffff;stroke-linejoin:miter;"/>
   </g>
   <g id="patch_23">
    <path clip-path="url(#p416092058b)" d="M 314.483778 297.9 
L 331.049769 297.9 
L 331.049769 297.9 
L 314.483778 297.9 
z
" style="fill:#ff4063;stroke:#ffffff;stroke-linejoin:miter;"/>
   </g>
   <g id="patch_24">
    <path clip-path="url(#p416092058b)" d="M 331.049769 297.9 
L 347.615759 297.9 
L 347.615759 216.20119 
L 331.049769 216.20119 
z
" style="fill:#ff4063;stroke:#ffffff;stroke-linejoin:miter;"/>
   </g>
   <g id="patch_25">
    <path clip-path="url(#p416092058b)" d="M 347.615759 297.9 
L 364.181749 297.9 
L 364.181749 297.9 
L 347.615759 297.9 
z
" style="fill:#ff4063;stroke:#ffffff;stroke-linejoin:miter;"/>
   </g>
   <g id="patch_26">
    <path clip-path="url(#p416092058b)" d="M 364.181749 297.9 
L 380.747739 297.9 
L 380.747739 297.9 
L 364.181749 297.9 
z
" style="fill:#ff4063;stroke:#ffffff;stroke-linejoin:miter;"/>
   </g>
   <g id="patch_27">
    <path clip-path="url(#p416092058b)" d="M 380.747739 297.9 
L 397.31373 297.9 
L 397.31373 297.9 
L 380.747739 297.9 
z
" style="fill:#ff4063;stroke:#ffffff;stroke-linejoin:miter;"/>
   </g>
   <g id="patch_28">
    <path clip-path="url(#p416092058b)" d="M 397.31373 297.9 
L 413.87972 297.9 
L 413.87972 257.050595 
L 397.31373 257.050595 
z
" style="fill:#ff4063;stroke:#ffffff;stroke-linejoin:miter;"/>
   </g>
   <g id="patch_29">
    <path clip-path="url(#p416092058b)" d="M 413.87972 297.9 
L 430.44571 297.9 
L 430.44571 216.20119 
L 413.87972 216.20119 
z
" style="fill:#ff4063;stroke:#ffffff;stroke-linejoin:miter;"/>
   </g>
   <g id="PolyCollection_1">
    <defs>
     <path d="M 90.859476 -104.98064 
L 90.859476 -47.7 
L 91.540009 -47.7 
L 92.220543 -47.7 
L 92.901077 -47.7 
L 93.58161 -47.7 
L 94.262144 -47.7 
L 94.942677 -47.7 
L 95.623211 -47.7 
L 96.303744 -47.7 
L 96.984278 -47.7 
L 97.664811 -47.7 
L 98.345345 -47.7 
L 99.025878 -47.7 
L 99.706412 -47.7 
L 100.386945 -47.7 
L 101.067479 -47.7 
L 101.748012 -47.7 
L 102.428546 -47.7 
L 103.10908 -47.7 
L 103.789613 -47.7 
L 104.470147 -47.7 
L 105.15068 -47.7 
L 105.831214 -47.7 
L 106.511747 -47.7 
L 107.192281 -47.7 
L 107.872814 -47.7 
L 108.553348 -47.7 
L 109.233881 -47.7 
L 109.914415 -47.7 
L 110.594948 -47.7 
L 111.275482 -47.7 
L 111.956016 -47.7 
L 112.636549 -47.7 
L 113.317083 -47.7 
L 113.997616 -47.7 
L 114.67815 -47.7 
L 115.358683 -47.7 
L 116.039217 -47.7 
L 116.71975 -47.7 
L 117.400284 -47.7 
L 118.080817 -47.7 
L 118.761351 -47.7 
L 119.441884 -47.7 
L 120.122418 -47.7 
L 120.802951 -47.7 
L 121.483485 -47.7 
L 122.164019 -47.7 
L 122.844552 -47.7 
L 123.525086 -47.7 
L 124.205619 -47.7 
L 124.886153 -47.7 
L 125.566686 -47.7 
L 126.24722 -47.7 
L 126.927753 -47.7 
L 127.608287 -47.7 
L 128.28882 -47.7 
L 128.969354 -47.7 
L 129.649887 -47.7 
L 130.330421 -47.7 
L 131.010955 -47.7 
L 131.691488 -47.7 
L 132.372022 -47.7 
L 133.052555 -47.7 
L 133.733089 -47.7 
L 134.413622 -47.7 
L 135.094156 -47.7 
L 135.774689 -47.7 
L 136.455223 -47.7 
L 137.135756 -47.7 
L 137.81629 -47.7 
L 138.496823 -47.7 
L 139.177357 -47.7 
L 139.85789 -47.7 
L 140.538424 -47.7 
L 141.218958 -47.7 
L 141.899491 -47.7 
L 142.580025 -47.7 
L 143.260558 -47.7 
L 143.941092 -47.7 
L 144.621625 -47.7 
L 145.302159 -47.7 
L 145.982692 -47.7 
L 146.663226 -47.7 
L 147.343759 -47.7 
L 148.024293 -47.7 
L 148.704826 -47.7 
L 149.38536 -47.7 
L 150.065894 -47.7 
L 150.746427 -47.7 
L 151.426961 -47.7 
L 152.107494 -47.7 
L 152.788028 -47.7 
L 153.468561 -47.7 
L 154.149095 -47.7 
L 154.829628 -47.7 
L 155.510162 -47.7 
L 156.190695 -47.7 
L 156.871229 -47.7 
L 157.551762 -47.7 
L 158.232296 -47.7 
L 158.912829 -47.7 
L 159.593363 -47.7 
L 160.273897 -47.7 
L 160.95443 -47.7 
L 161.634964 -47.7 
L 162.315497 -47.7 
L 162.996031 -47.7 
L 163.676564 -47.7 
L 164.357098 -47.7 
L 165.037631 -47.7 
L 165.718165 -47.7 
L 166.398698 -47.7 
L 167.079232 -47.7 
L 167.759765 -47.7 
L 168.440299 -47.7 
L 169.120833 -47.7 
L 169.801366 -47.7 
L 170.4819 -47.7 
L 171.162433 -47.7 
L 171.842967 -47.7 
L 172.5235 -47.7 
L 173.204034 -47.7 
L 173.884567 -47.7 
L 174.565101 -47.7 
L 175.245634 -47.7 
L 175.926168 -47.7 
L 176.606701 -47.7 
L 177.287235 -47.7 
L 177.967768 -47.7 
L 178.648302 -47.7 
L 179.328836 -47.7 
L 180.009369 -47.7 
L 180.689903 -47.7 
L 181.370436 -47.7 
L 182.05097 -47.7 
L 182.731503 -47.7 
L 183.412037 -47.7 
L 184.09257 -47.7 
L 184.773104 -47.7 
L 185.453637 -47.7 
L 186.134171 -47.7 
L 186.814704 -47.7 
L 187.495238 -47.7 
L 188.175772 -47.7 
L 188.856305 -47.7 
L 189.536839 -47.7 
L 190.217372 -47.7 
L 190.897906 -47.7 
L 191.578439 -47.7 
L 192.258973 -47.7 
L 192.939506 -47.7 
L 193.62004 -47.7 
L 194.300573 -47.7 
L 194.981107 -47.7 
L 195.66164 -47.7 
L 196.342174 -47.7 
L 197.022707 -47.7 
L 197.703241 -47.7 
L 198.383775 -47.7 
L 199.064308 -47.7 
L 199.744842 -47.7 
L 200.425375 -47.7 
L 201.105909 -47.7 
L 201.786442 -47.7 
L 202.466976 -47.7 
L 203.147509 -47.7 
L 203.828043 -47.7 
L 204.508576 -47.7 
L 205.18911 -47.7 
L 205.869643 -47.7 
L 206.550177 -47.7 
L 207.230711 -47.7 
L 207.911244 -47.7 
L 208.591778 -47.7 
L 209.272311 -47.7 
L 209.952845 -47.7 
L 210.633378 -47.7 
L 211.313912 -47.7 
L 211.994445 -47.7 
L 212.674979 -47.7 
L 213.355512 -47.7 
L 214.036046 -47.7 
L 214.716579 -47.7 
L 215.397113 -47.7 
L 216.077646 -47.7 
L 216.75818 -47.7 
L 217.438714 -47.7 
L 218.119247 -47.7 
L 218.799781 -47.7 
L 219.480314 -47.7 
L 220.160848 -47.7 
L 220.841381 -47.7 
L 221.521915 -47.7 
L 222.202448 -47.7 
L 222.882982 -47.7 
L 223.563515 -47.7 
L 224.244049 -47.7 
L 224.924582 -47.7 
L 225.605116 -47.7 
L 226.28565 -47.7 
L 226.966183 -47.7 
L 227.646717 -47.7 
L 228.32725 -47.7 
L 229.007784 -47.7 
L 229.688317 -47.7 
L 230.368851 -47.7 
L 231.049384 -47.7 
L 231.729918 -47.7 
L 232.410451 -47.7 
L 233.090985 -47.7 
L 233.771518 -47.7 
L 234.452052 -47.7 
L 235.132585 -47.7 
L 235.813119 -47.7 
L 236.493653 -47.7 
L 237.174186 -47.7 
L 237.85472 -47.7 
L 238.535253 -47.7 
L 239.215787 -47.7 
L 239.89632 -47.7 
L 240.576854 -47.7 
L 241.257387 -47.7 
L 241.937921 -47.7 
L 242.618454 -47.7 
L 243.298988 -47.7 
L 243.979521 -47.7 
L 244.660055 -47.7 
L 245.340589 -47.7 
L 246.021122 -47.7 
L 246.701656 -47.7 
L 247.382189 -47.7 
L 248.062723 -47.7 
L 248.743256 -47.7 
L 249.42379 -47.7 
L 250.104323 -47.7 
L 250.784857 -47.7 
L 251.46539 -47.7 
L 252.145924 -47.7 
L 252.826457 -47.7 
L 253.506991 -47.7 
L 254.187524 -47.7 
L 254.868058 -47.7 
L 255.548592 -47.7 
L 256.229125 -47.7 
L 256.909659 -47.7 
L 257.590192 -47.7 
L 258.270726 -47.7 
L 258.951259 -47.7 
L 259.631793 -47.7 
L 260.312326 -47.7 
L 260.99286 -47.7 
L 261.673393 -47.7 
L 262.353927 -47.7 
L 263.03446 -47.7 
L 263.714994 -47.7 
L 264.395528 -47.7 
L 265.076061 -47.7 
L 265.756595 -47.7 
L 266.437128 -47.7 
L 267.117662 -47.7 
L 267.798195 -47.7 
L 268.478729 -47.7 
L 269.159262 -47.7 
L 269.839796 -47.7 
L 270.520329 -47.7 
L 271.200863 -47.7 
L 271.881396 -47.7 
L 272.56193 -47.7 
L 273.242463 -47.7 
L 273.922997 -47.7 
L 274.603531 -47.7 
L 275.284064 -47.7 
L 275.964598 -47.7 
L 276.645131 -47.7 
L 277.325665 -47.7 
L 278.006198 -47.7 
L 278.686732 -47.7 
L 279.367265 -47.7 
L 280.047799 -47.7 
L 280.728332 -47.7 
L 281.408866 -47.7 
L 282.089399 -47.7 
L 282.769933 -47.7 
L 283.450467 -47.7 
L 284.131 -47.7 
L 284.811534 -47.7 
L 285.492067 -47.7 
L 286.172601 -47.7 
L 286.853134 -47.7 
L 287.533668 -47.7 
L 288.214201 -47.7 
L 288.894735 -47.7 
L 289.575268 -47.7 
L 290.255802 -47.7 
L 290.936335 -47.7 
L 291.616869 -47.7 
L 292.297402 -47.7 
L 292.977936 -47.7 
L 293.65847 -47.7 
L 294.339003 -47.7 
L 295.019537 -47.7 
L 295.70007 -47.7 
L 296.380604 -47.7 
L 297.061137 -47.7 
L 297.741671 -47.7 
L 298.422204 -47.7 
L 299.102738 -47.7 
L 299.783271 -47.7 
L 300.463805 -47.7 
L 301.144338 -47.7 
L 301.824872 -47.7 
L 302.505406 -47.7 
L 303.185939 -47.7 
L 303.866473 -47.7 
L 304.547006 -47.7 
L 305.22754 -47.7 
L 305.908073 -47.7 
L 306.588607 -47.7 
L 307.26914 -47.7 
L 307.949674 -47.7 
L 308.630207 -47.7 
L 309.310741 -47.7 
L 309.991274 -47.7 
L 310.671808 -47.7 
L 311.352341 -47.7 
L 312.032875 -47.7 
L 312.713409 -47.7 
L 313.393942 -47.7 
L 314.074476 -47.7 
L 314.755009 -47.7 
L 315.435543 -47.7 
L 316.116076 -47.7 
L 316.79661 -47.7 
L 317.477143 -47.7 
L 318.157677 -47.7 
L 318.83821 -47.7 
L 319.518744 -47.7 
L 320.199277 -47.7 
L 320.879811 -47.7 
L 321.560345 -47.7 
L 322.240878 -47.7 
L 322.921412 -47.7 
L 323.601945 -47.7 
L 324.282479 -47.7 
L 324.963012 -47.7 
L 325.643546 -47.7 
L 326.324079 -47.7 
L 327.004613 -47.7 
L 327.685146 -47.7 
L 328.36568 -47.7 
L 329.046213 -47.7 
L 329.726747 -47.7 
L 330.40728 -47.7 
L 331.087814 -47.7 
L 331.768348 -47.7 
L 332.448881 -47.7 
L 333.129415 -47.7 
L 333.809948 -47.7 
L 334.490482 -47.7 
L 335.171015 -47.7 
L 335.851549 -47.7 
L 336.532082 -47.7 
L 337.212616 -47.7 
L 337.893149 -47.7 
L 338.573683 -47.7 
L 339.254216 -47.7 
L 339.93475 -47.7 
L 340.615284 -47.7 
L 341.295817 -47.7 
L 341.976351 -47.7 
L 342.656884 -47.7 
L 343.337418 -47.7 
L 344.017951 -47.7 
L 344.698485 -47.7 
L 345.379018 -47.7 
L 346.059552 -47.7 
L 346.740085 -47.7 
L 347.420619 -47.7 
L 348.101152 -47.7 
L 348.781686 -47.7 
L 349.462219 -47.7 
L 350.142753 -47.7 
L 350.823287 -47.7 
L 351.50382 -47.7 
L 352.184354 -47.7 
L 352.864887 -47.7 
L 353.545421 -47.7 
L 354.225954 -47.7 
L 354.906488 -47.7 
L 355.587021 -47.7 
L 356.267555 -47.7 
L 356.948088 -47.7 
L 357.628622 -47.7 
L 358.309155 -47.7 
L 358.989689 -47.7 
L 359.670223 -47.7 
L 360.350756 -47.7 
L 361.03129 -47.7 
L 361.711823 -47.7 
L 362.392357 -47.7 
L 363.07289 -47.7 
L 363.753424 -47.7 
L 364.433957 -47.7 
L 365.114491 -47.7 
L 365.795024 -47.7 
L 366.475558 -47.7 
L 367.156091 -47.7 
L 367.836625 -47.7 
L 368.517158 -47.7 
L 369.197692 -47.7 
L 369.878226 -47.7 
L 370.558759 -47.7 
L 371.239293 -47.7 
L 371.919826 -47.7 
L 372.60036 -47.7 
L 373.280893 -47.7 
L 373.961427 -47.7 
L 374.64196 -47.7 
L 375.322494 -47.7 
L 376.003027 -47.7 
L 376.683561 -47.7 
L 377.364094 -47.7 
L 378.044628 -47.7 
L 378.725162 -47.7 
L 379.405695 -47.7 
L 380.086229 -47.7 
L 380.766762 -47.7 
L 381.447296 -47.7 
L 382.127829 -47.7 
L 382.808363 -47.7 
L 383.488896 -47.7 
L 384.16943 -47.7 
L 384.849963 -47.7 
L 385.530497 -47.7 
L 386.21103 -47.7 
L 386.891564 -47.7 
L 387.572097 -47.7 
L 388.252631 -47.7 
L 388.933165 -47.7 
L 389.613698 -47.7 
L 390.294232 -47.7 
L 390.974765 -47.7 
L 391.655299 -47.7 
L 392.335832 -47.7 
L 393.016366 -47.7 
L 393.696899 -47.7 
L 394.377433 -47.7 
L 395.057966 -47.7 
L 395.7385 -47.7 
L 396.419033 -47.7 
L 397.099567 -47.7 
L 397.780101 -47.7 
L 398.460634 -47.7 
L 399.141168 -47.7 
L 399.821701 -47.7 
L 400.502235 -47.7 
L 401.182768 -47.7 
L 401.863302 -47.7 
L 402.543835 -47.7 
L 403.224369 -47.7 
L 403.904902 -47.7 
L 404.585436 -47.7 
L 405.265969 -47.7 
L 405.946503 -47.7 
L 406.627036 -47.7 
L 407.30757 -47.7 
L 407.988104 -47.7 
L 408.668637 -47.7 
L 409.349171 -47.7 
L 410.029704 -47.7 
L 410.710238 -47.7 
L 411.390771 -47.7 
L 412.071305 -47.7 
L 412.751838 -47.7 
L 413.432372 -47.7 
L 414.112905 -47.7 
L 414.793439 -47.7 
L 415.473972 -47.7 
L 416.154506 -47.7 
L 416.83504 -47.7 
L 417.515573 -47.7 
L 418.196107 -47.7 
L 418.87664 -47.7 
L 419.557174 -47.7 
L 420.237707 -47.7 
L 420.918241 -47.7 
L 421.598774 -47.7 
L 422.279308 -47.7 
L 422.959841 -47.7 
L 423.640375 -47.7 
L 424.320908 -47.7 
L 425.001442 -47.7 
L 425.681975 -47.7 
L 426.362509 -47.7 
L 427.043043 -47.7 
L 427.723576 -47.7 
L 428.40411 -47.7 
L 429.084643 -47.7 
L 429.765177 -47.7 
L 430.44571 -47.7 
L 430.44571 -50.849399 
L 430.44571 -50.849399 
L 429.765177 -50.899853 
L 429.084643 -50.951032 
L 428.40411 -51.002944 
L 427.723576 -51.055597 
L 427.043043 -51.109001 
L 426.362509 -51.163165 
L 425.681975 -51.218097 
L 425.001442 -51.273807 
L 424.320908 -51.330304 
L 423.640375 -51.387597 
L 422.959841 -51.445695 
L 422.279308 -51.504609 
L 421.598774 -51.564346 
L 420.918241 -51.624918 
L 420.237707 -51.686333 
L 419.557174 -51.748601 
L 418.87664 -51.811732 
L 418.196107 -51.875736 
L 417.515573 -51.940623 
L 416.83504 -52.006402 
L 416.154506 -52.073084 
L 415.473972 -52.140678 
L 414.793439 -52.209196 
L 414.112905 -52.278647 
L 413.432372 -52.349041 
L 412.751838 -52.420389 
L 412.071305 -52.492702 
L 411.390771 -52.565989 
L 410.710238 -52.640262 
L 410.029704 -52.715531 
L 409.349171 -52.791807 
L 408.668637 -52.869101 
L 407.988104 -52.947423 
L 407.30757 -53.026784 
L 406.627036 -53.107196 
L 405.946503 -53.188669 
L 405.265969 -53.271215 
L 404.585436 -53.354844 
L 403.904902 -53.439569 
L 403.224369 -53.525399 
L 402.543835 -53.612348 
L 401.863302 -53.700425 
L 401.182768 -53.789642 
L 400.502235 -53.880012 
L 399.821701 -53.971544 
L 399.141168 -54.064252 
L 398.460634 -54.158147 
L 397.780101 -54.25324 
L 397.099567 -54.349544 
L 396.419033 -54.44707 
L 395.7385 -54.545829 
L 395.057966 -54.645835 
L 394.377433 -54.747099 
L 393.696899 -54.849632 
L 393.016366 -54.953447 
L 392.335832 -55.058557 
L 391.655299 -55.164973 
L 390.974765 -55.272707 
L 390.294232 -55.381771 
L 389.613698 -55.492179 
L 388.933165 -55.603941 
L 388.252631 -55.717072 
L 387.572097 -55.831582 
L 386.891564 -55.947484 
L 386.21103 -56.064791 
L 385.530497 -56.183514 
L 384.849963 -56.303668 
L 384.16943 -56.425263 
L 383.488896 -56.548313 
L 382.808363 -56.67283 
L 382.127829 -56.798827 
L 381.447296 -56.926316 
L 380.766762 -57.055309 
L 380.086229 -57.18582 
L 379.405695 -57.317861 
L 378.725162 -57.451444 
L 378.044628 -57.586582 
L 377.364094 -57.723289 
L 376.683561 -57.861575 
L 376.003027 -58.001454 
L 375.322494 -58.142939 
L 374.64196 -58.286042 
L 373.961427 -58.430776 
L 373.280893 -58.577153 
L 372.60036 -58.725186 
L 371.919826 -58.874888 
L 371.239293 -59.02627 
L 370.558759 -59.179346 
L 369.878226 -59.334128 
L 369.197692 -59.490628 
L 368.517158 -59.648859 
L 367.836625 -59.808833 
L 367.156091 -59.970563 
L 366.475558 -60.13406 
L 365.795024 -60.299338 
L 365.114491 -60.466407 
L 364.433957 -60.635282 
L 363.753424 -60.805973 
L 363.07289 -60.978492 
L 362.392357 -61.152853 
L 361.711823 -61.329066 
L 361.03129 -61.507143 
L 360.350756 -61.687097 
L 359.670223 -61.868939 
L 358.989689 -62.052681 
L 358.309155 -62.238334 
L 357.628622 -62.42591 
L 356.948088 -62.61542 
L 356.267555 -62.806876 
L 355.587021 -63.000289 
L 354.906488 -63.195669 
L 354.225954 -63.393029 
L 353.545421 -63.592378 
L 352.864887 -63.793729 
L 352.184354 -63.997091 
L 351.50382 -64.202475 
L 350.823287 -64.409891 
L 350.142753 -64.619351 
L 349.462219 -64.830863 
L 348.781686 -65.044439 
L 348.101152 -65.260088 
L 347.420619 -65.47782 
L 346.740085 -65.697645 
L 346.059552 -65.919571 
L 345.379018 -66.14361 
L 344.698485 -66.369769 
L 344.017951 -66.598057 
L 343.337418 -66.828485 
L 342.656884 -67.061059 
L 341.976351 -67.29579 
L 341.295817 -67.532684 
L 340.615284 -67.771751 
L 339.93475 -68.012999 
L 339.254216 -68.256434 
L 338.573683 -68.502064 
L 337.893149 -68.749898 
L 337.212616 -68.999942 
L 336.532082 -69.252202 
L 335.851549 -69.506687 
L 335.171015 -69.763401 
L 334.490482 -70.022352 
L 333.809948 -70.283545 
L 333.129415 -70.546986 
L 332.448881 -70.812681 
L 331.768348 -71.080635 
L 331.087814 -71.350852 
L 330.40728 -71.623339 
L 329.726747 -71.898098 
L 329.046213 -72.175135 
L 328.36568 -72.454453 
L 327.685146 -72.736056 
L 327.004613 -73.019948 
L 326.324079 -73.30613 
L 325.643546 -73.594607 
L 324.963012 -73.88538 
L 324.282479 -74.178452 
L 323.601945 -74.473824 
L 322.921412 -74.771499 
L 322.240878 -75.071476 
L 321.560345 -75.373758 
L 320.879811 -75.678344 
L 320.199277 -75.985235 
L 319.518744 -76.29443 
L 318.83821 -76.605929 
L 318.157677 -76.919732 
L 317.477143 -77.235836 
L 316.79661 -77.55424 
L 316.116076 -77.874942 
L 315.435543 -78.197941 
L 314.755009 -78.523232 
L 314.074476 -78.850813 
L 313.393942 -79.18068 
L 312.713409 -79.51283 
L 312.032875 -79.847257 
L 311.352341 -80.183958 
L 310.671808 -80.522926 
L 309.991274 -80.864156 
L 309.310741 -81.207643 
L 308.630207 -81.553379 
L 307.949674 -81.901358 
L 307.26914 -82.251571 
L 306.588607 -82.604013 
L 305.908073 -82.958673 
L 305.22754 -83.315543 
L 304.547006 -83.674615 
L 303.866473 -84.035877 
L 303.185939 -84.399321 
L 302.505406 -84.764935 
L 301.824872 -85.132708 
L 301.144338 -85.502629 
L 300.463805 -85.874685 
L 299.783271 -86.248864 
L 299.102738 -86.625151 
L 298.422204 -87.003535 
L 297.741671 -87.384 
L 297.061137 -87.766532 
L 296.380604 -88.151116 
L 295.70007 -88.537735 
L 295.019537 -88.926373 
L 294.339003 -89.317014 
L 293.65847 -89.709639 
L 292.977936 -90.104232 
L 292.297402 -90.500773 
L 291.616869 -90.899243 
L 290.936335 -91.299623 
L 290.255802 -91.701893 
L 289.575268 -92.106031 
L 288.894735 -92.512016 
L 288.214201 -92.919827 
L 287.533668 -93.32944 
L 286.853134 -93.740833 
L 286.172601 -94.153982 
L 285.492067 -94.568863 
L 284.811534 -94.98545 
L 284.131 -95.403718 
L 283.450467 -95.823642 
L 282.769933 -96.245193 
L 282.089399 -96.668346 
L 281.408866 -97.093072 
L 280.728332 -97.519343 
L 280.047799 -97.947129 
L 279.367265 -98.3764 
L 278.686732 -98.807127 
L 278.006198 -99.239278 
L 277.325665 -99.672822 
L 276.645131 -100.107726 
L 275.964598 -100.543958 
L 275.284064 -100.981484 
L 274.603531 -101.420269 
L 273.922997 -101.86028 
L 273.242463 -102.30148 
L 272.56193 -102.743834 
L 271.881396 -103.187305 
L 271.200863 -103.631856 
L 270.520329 -104.077448 
L 269.839796 -104.524043 
L 269.159262 -104.971603 
L 268.478729 -105.420087 
L 267.798195 -105.869454 
L 267.117662 -106.319664 
L 266.437128 -106.770675 
L 265.756595 -107.222445 
L 265.076061 -107.67493 
L 264.395528 -108.128088 
L 263.714994 -108.581873 
L 263.03446 -109.036241 
L 262.353927 -109.491146 
L 261.673393 -109.946543 
L 260.99286 -110.402385 
L 260.312326 -110.858624 
L 259.631793 -111.315213 
L 258.951259 -111.772102 
L 258.270726 -112.229243 
L 257.590192 -112.686587 
L 256.909659 -113.144082 
L 256.229125 -113.601678 
L 255.548592 -114.059323 
L 254.868058 -114.516965 
L 254.187524 -114.974552 
L 253.506991 -115.43203 
L 252.826457 -115.889346 
L 252.145924 -116.346445 
L 251.46539 -116.803272 
L 250.784857 -117.259771 
L 250.104323 -117.715887 
L 249.42379 -118.171563 
L 248.743256 -118.626742 
L 248.062723 -119.081366 
L 247.382189 -119.535377 
L 246.701656 -119.988716 
L 246.021122 -120.441325 
L 245.340589 -120.893143 
L 244.660055 -121.34411 
L 243.979521 -121.794166 
L 243.298988 -122.243249 
L 242.618454 -122.691299 
L 241.937921 -123.138252 
L 241.257387 -123.584047 
L 240.576854 -124.02862 
L 239.89632 -124.471909 
L 239.215787 -124.913849 
L 238.535253 -125.354375 
L 237.85472 -125.793425 
L 237.174186 -126.230932 
L 236.493653 -126.666832 
L 235.813119 -127.101058 
L 235.132585 -127.533544 
L 234.452052 -127.964225 
L 233.771518 -128.393034 
L 233.090985 -128.819903 
L 232.410451 -129.244765 
L 231.729918 -129.667552 
L 231.049384 -130.088198 
L 230.368851 -130.506632 
L 229.688317 -130.922788 
L 229.007784 -131.336597 
L 228.32725 -131.747989 
L 227.646717 -132.156895 
L 226.966183 -132.563247 
L 226.28565 -132.966975 
L 225.605116 -133.368009 
L 224.924582 -133.76628 
L 224.244049 -134.161718 
L 223.563515 -134.554252 
L 222.882982 -134.943813 
L 222.202448 -135.33033 
L 221.521915 -135.713734 
L 220.841381 -136.093953 
L 220.160848 -136.470918 
L 219.480314 -136.844559 
L 218.799781 -137.214805 
L 218.119247 -137.581585 
L 217.438714 -137.944829 
L 216.75818 -138.304468 
L 216.077646 -138.660431 
L 215.397113 -139.012648 
L 214.716579 -139.361049 
L 214.036046 -139.705564 
L 213.355512 -140.046124 
L 212.674979 -140.382659 
L 211.994445 -140.715099 
L 211.313912 -141.043376 
L 210.633378 -141.367421 
L 209.952845 -141.687165 
L 209.272311 -142.002539 
L 208.591778 -142.313476 
L 207.911244 -142.619907 
L 207.230711 -142.921766 
L 206.550177 -143.218985 
L 205.869643 -143.511497 
L 205.18911 -143.799236 
L 204.508576 -144.082136 
L 203.828043 -144.360131 
L 203.147509 -144.633156 
L 202.466976 -144.901147 
L 201.786442 -145.164039 
L 201.105909 -145.421769 
L 200.425375 -145.674273 
L 199.744842 -145.921489 
L 199.064308 -146.163355 
L 198.383775 -146.39981 
L 197.703241 -146.630792 
L 197.022707 -146.856242 
L 196.342174 -147.076099 
L 195.66164 -147.290306 
L 194.981107 -147.498803 
L 194.300573 -147.701534 
L 193.62004 -147.898442 
L 192.939506 -148.089471 
L 192.258973 -148.274566 
L 191.578439 -148.453672 
L 190.897906 -148.626735 
L 190.217372 -148.793704 
L 189.536839 -148.954526 
L 188.856305 -149.109151 
L 188.175772 -149.257528 
L 187.495238 -149.399608 
L 186.814704 -149.535344 
L 186.134171 -149.664687 
L 185.453637 -149.787593 
L 184.773104 -149.904015 
L 184.09257 -150.013909 
L 183.412037 -150.117233 
L 182.731503 -150.213944 
L 182.05097 -150.304002 
L 181.370436 -150.387366 
L 180.689903 -150.463998 
L 180.009369 -150.53386 
L 179.328836 -150.596917 
L 178.648302 -150.653132 
L 177.967768 -150.702471 
L 177.287235 -150.744903 
L 176.606701 -150.780394 
L 175.926168 -150.808916 
L 175.245634 -150.830439 
L 174.565101 -150.844934 
L 173.884567 -150.852377 
L 173.204034 -150.852741 
L 172.5235 -150.846002 
L 171.842967 -150.832139 
L 171.162433 -150.81113 
L 170.4819 -150.782956 
L 169.801366 -150.747598 
L 169.120833 -150.705039 
L 168.440299 -150.655264 
L 167.759765 -150.598259 
L 167.079232 -150.534011 
L 166.398698 -150.462508 
L 165.718165 -150.383743 
L 165.037631 -150.297705 
L 164.357098 -150.204389 
L 163.676564 -150.103789 
L 162.996031 -149.995902 
L 162.315497 -149.880726 
L 161.634964 -149.758259 
L 160.95443 -149.628504 
L 160.273897 -149.491462 
L 159.593363 -149.347137 
L 158.912829 -149.195536 
L 158.232296 -149.036665 
L 157.551762 -148.870533 
L 156.871229 -148.697151 
L 156.190695 -148.51653 
L 155.510162 -148.328685 
L 154.829628 -148.133631 
L 154.149095 -147.931383 
L 153.468561 -147.721961 
L 152.788028 -147.505385 
L 152.107494 -147.281677 
L 151.426961 -147.050859 
L 150.746427 -146.812956 
L 150.065894 -146.567996 
L 149.38536 -146.316006 
L 148.704826 -146.057016 
L 148.024293 -145.791058 
L 147.343759 -145.518164 
L 146.663226 -145.238369 
L 145.982692 -144.951709 
L 145.302159 -144.658222 
L 144.621625 -144.357948 
L 143.941092 -144.050927 
L 143.260558 -143.737203 
L 142.580025 -143.416819 
L 141.899491 -143.089821 
L 141.218958 -142.756256 
L 140.538424 -142.416174 
L 139.85789 -142.069625 
L 139.177357 -141.716661 
L 138.496823 -141.357336 
L 137.81629 -140.991704 
L 137.135756 -140.619823 
L 136.455223 -140.24175 
L 135.774689 -139.857544 
L 135.094156 -139.467268 
L 134.413622 -139.070984 
L 133.733089 -138.668754 
L 133.052555 -138.260646 
L 132.372022 -137.846726 
L 131.691488 -137.427061 
L 131.010955 -137.001723 
L 130.330421 -136.57078 
L 129.649887 -136.134307 
L 128.969354 -135.692377 
L 128.28882 -135.245064 
L 127.608287 -134.792444 
L 126.927753 -134.334597 
L 126.24722 -133.871599 
L 125.566686 -133.403532 
L 124.886153 -132.930476 
L 124.205619 -132.452513 
L 123.525086 -131.969728 
L 122.844552 -131.482206 
L 122.164019 -130.990031 
L 121.483485 -130.49329 
L 120.802951 -129.992073 
L 120.122418 -129.486467 
L 119.441884 -128.976563 
L 118.761351 -128.462451 
L 118.080817 -127.944225 
L 117.400284 -127.421975 
L 116.71975 -126.895797 
L 116.039217 -126.365785 
L 115.358683 -125.832034 
L 114.67815 -125.29464 
L 113.997616 -124.753702 
L 113.317083 -124.209315 
L 112.636549 -123.66158 
L 111.956016 -123.110595 
L 111.275482 -122.55646 
L 110.594948 -121.999276 
L 109.914415 -121.439143 
L 109.233881 -120.876163 
L 108.553348 -120.310439 
L 107.872814 -119.742074 
L 107.192281 -119.171169 
L 106.511747 -118.597829 
L 105.831214 -118.022158 
L 105.15068 -117.44426 
L 104.470147 -116.86424 
L 103.789613 -116.282202 
L 103.10908 -115.698252 
L 102.428546 -115.112495 
L 101.748012 -114.525037 
L 101.067479 -113.935983 
L 100.386945 -113.34544 
L 99.706412 -112.753513 
L 99.025878 -112.160308 
L 98.345345 -111.565931 
L 97.664811 -110.970488 
L 96.984278 -110.374084 
L 96.303744 -109.776827 
L 95.623211 -109.178821 
L 94.942677 -108.580171 
L 94.262144 -107.980983 
L 93.58161 -107.381363 
L 92.901077 -106.781414 
L 92.220543 -106.181241 
L 91.540009 -105.580948 
L 90.859476 -104.98064 
z
" id="mcf7597f06c" style="stroke:#408fff;stroke-opacity:0.2;"/>
    </defs>
    <g clip-path="url(#p416092058b)">
     <use style="fill:#408fff;fill-opacity:0.2;stroke:#408fff;stroke-opacity:0.2;" x="0" xlink:href="#mcf7597f06c" y="345.6"/>
    </g>
   </g>
   <g id="line2d_24">
    <path clip-path="url(#p416092058b)" d="M 90.859476 240.61936 
L 105.15068 228.15574 
L 112.636549 221.93842 
L 118.761351 217.137549 
L 124.205619 213.147487 
L 128.969354 209.907623 
L 133.733089 206.931246 
L 138.496823 204.242664 
L 142.580025 202.183181 
L 146.663226 200.361631 
L 150.746427 198.787044 
L 154.829628 197.466369 
L 158.912829 196.404464 
L 162.996031 195.604098 
L 167.079232 195.065989 
L 171.162433 194.78887 
L 175.245634 194.769561 
L 179.328836 195.003083 
L 183.412037 195.482767 
L 187.495238 196.200392 
L 191.578439 197.146328 
L 195.66164 198.309694 
L 199.744842 199.678511 
L 204.508576 201.517864 
L 209.272311 203.597461 
L 214.716579 206.238951 
L 220.160848 209.129082 
L 226.28565 212.633025 
L 233.090985 216.780097 
L 241.257387 222.015953 
L 253.506991 230.16797 
L 272.56193 242.856166 
L 282.089399 248.931654 
L 290.255802 253.898107 
L 298.422204 258.596465 
L 305.908073 262.641327 
L 313.393942 266.41932 
L 320.199277 269.614765 
L 327.004613 272.580052 
L 333.809948 275.316455 
L 340.615284 277.828249 
L 347.420619 280.12218 
L 354.906488 282.404331 
L 362.392357 284.447147 
L 369.878226 286.265872 
L 378.044628 288.013418 
L 386.21103 289.535209 
L 395.057966 290.954165 
L 404.585436 292.245156 
L 414.793439 293.390804 
L 425.681975 294.381903 
L 430.44571 294.750601 
L 430.44571 294.750601 
" style="fill:none;stroke:#408fff;stroke-linecap:round;stroke-width:3;"/>
   </g>
  </g>
 </g>
 <defs>
  <clipPath id="p416092058b">
   <rect height="257.35125" width="382.674375" x="65.165625" y="40.54875"/>
  </clipPath>
 </defs>
</svg>
